<svg width="36" height="36" viewBox="0 0 36 36" fill="none" xmlns="http://www.w3.org/2000/svg">
<circle cx="18" cy="18" r="18" fill="#F7F8F0"/>
<g clip-path="url(#clip0_91_2860)">
<path d="M30.8571 23.1107C30.735 23.2971 30.5614 23.3485 30.3428 23.3485C22.455 23.3421 14.5671 23.3421 6.68567 23.3485C6.4671 23.3485 6.29353 23.2971 6.17139 23.1107C6.17139 23.0335 6.17139 22.95 6.17139 22.8728C6.28067 22.6735 6.45424 22.6221 6.67282 22.6221C8.08067 22.6285 9.4821 22.6285 10.89 22.6285C10.98 22.6285 11.0635 22.6285 11.1664 22.6285C11.0442 22.2878 10.9092 21.9728 10.8128 21.645C10.0542 19.0028 10.4914 16.5793 12.1307 14.3678C12.1692 14.3164 12.2078 14.265 12.2528 14.22C12.3942 14.085 12.5614 14.0721 12.7157 14.1878C12.8764 14.31 12.915 14.4771 12.8057 14.6571C12.7028 14.8178 12.5742 14.9657 12.465 15.1264C10.935 17.46 10.7614 19.8964 11.8864 22.4421C11.9507 22.59 12.0342 22.6414 12.195 22.635C16.4057 22.6285 20.6164 22.6285 24.8207 22.635C24.9878 22.635 25.0585 22.5707 25.1228 22.4357C25.5471 21.5421 25.7785 20.5971 25.83 19.6135C25.83 19.575 25.83 19.53 25.8364 19.4914C25.8621 19.2857 26.01 19.1443 26.2028 19.1443C26.4021 19.1443 26.5757 19.305 26.55 19.5235C26.4921 20.07 26.4407 20.6228 26.325 21.1628C26.235 21.6 26.055 22.0178 25.9135 22.4421C25.8942 22.5 25.875 22.5578 25.8492 22.635C26.2671 22.635 26.6721 22.635 27.0707 22.635C28.1635 22.635 29.2564 22.6414 30.3492 22.6285C30.5678 22.6285 30.7414 22.68 30.8507 22.8793C30.8571 22.95 30.8571 23.0271 30.8571 23.1107Z" fill="#5D9F44"/>
<path d="M30.8571 19.4978C30.7478 19.7935 30.6064 20.0635 30.3106 20.2307C29.9506 20.4364 28.4142 20.4428 28.0542 20.2371C27.6299 19.9928 27.4178 19.5107 27.5335 19.0221C27.6364 18.5785 28.0478 18.225 28.5171 18.2057C28.9606 18.1864 29.3978 18.18 29.8414 18.2057C30.3814 18.2378 30.6771 18.585 30.8571 19.0607C30.8571 19.2085 30.8571 19.3564 30.8571 19.4978ZM29.1728 19.6585C29.3656 19.6585 29.5585 19.665 29.7514 19.6585C29.9892 19.6521 30.1435 19.4978 30.1371 19.2921C30.1371 19.0864 29.9764 18.9321 29.7449 18.9257C29.3656 18.9193 28.9928 18.9193 28.6135 18.9257C28.3821 18.9321 28.2214 19.0928 28.2278 19.2985C28.2278 19.5043 28.3821 19.6521 28.6264 19.6585C28.7999 19.665 28.9864 19.6585 29.1728 19.6585Z" fill="#F5A445"/>
<path d="M6.17139 19.0671C6.39639 18.4113 6.8721 18.1542 7.5471 18.1992C7.84282 18.2185 8.13853 18.1992 8.43424 18.2056C9.05139 18.2185 9.52067 18.6942 9.5271 19.2921C9.53353 19.8899 9.05782 20.3656 8.4471 20.3785C8.1321 20.3849 7.82353 20.3785 7.50853 20.3785C6.72424 20.3785 6.47996 20.2178 6.17139 19.4978C6.17139 19.3563 6.17139 19.2085 6.17139 19.0671ZM7.85567 19.6585C8.02924 19.6585 8.20924 19.6585 8.38282 19.6585C8.39567 19.6585 8.41496 19.6585 8.42782 19.6585C8.64639 19.6392 8.80067 19.4978 8.80067 19.2985C8.80067 19.0992 8.65282 18.9321 8.43424 18.9321C8.0421 18.9256 7.64996 18.9256 7.25782 18.9321C7.03924 18.9385 6.89139 19.0928 6.89139 19.2921C6.89139 19.4913 7.03282 19.6456 7.25139 19.6585C7.4571 19.6649 7.65639 19.6585 7.85567 19.6585Z" fill="#F5A445"/>
<path d="M18.5271 11.2242C22.3971 11.2307 25.7721 14.0335 26.4278 17.7878C26.4792 18.0707 26.3892 18.2571 26.1707 18.2957C25.9392 18.3407 25.785 18.2121 25.7207 17.91C25.3928 16.2642 24.6085 14.8821 23.3549 13.77C20.7385 11.4428 16.7142 11.3335 13.9692 13.5128C13.9307 13.545 13.8921 13.5771 13.8535 13.6028C13.6414 13.7635 13.4357 13.7571 13.3007 13.59C13.1592 13.4164 13.1849 13.2042 13.4035 13.05C13.8535 12.735 14.3035 12.4007 14.7857 12.1371C15.9557 11.52 17.2092 11.2371 18.5271 11.2242Z" fill="#5D9F44"/>
<path d="M26.5885 10.1057C27.0513 10.1764 27.3792 10.3757 27.572 10.7679C27.7649 11.1729 27.7392 11.5779 27.437 11.9121C27.0706 12.3236 26.6785 12.7157 26.2606 13.0821C25.8556 13.4421 25.2256 13.3907 24.8335 13.0179C24.4413 12.645 24.3642 12.0086 24.7178 11.5971C25.097 11.1536 25.5213 10.7486 25.9649 10.3629C26.1192 10.2279 26.3763 10.1893 26.5885 10.1057ZM25.5406 12.6386C25.6499 12.6 25.7335 12.5936 25.7849 12.5486C26.1578 12.1886 26.5306 11.8286 26.8906 11.4429C27.0192 11.3079 26.9871 11.1214 26.8521 10.9864C26.7106 10.8386 26.5178 10.8129 26.3763 10.9479C26.0099 11.2886 25.6499 11.6486 25.3092 12.0214C25.2385 12.0986 25.2321 12.285 25.2706 12.3943C25.3156 12.4971 25.457 12.5614 25.5406 12.6386Z" fill="#F5A445"/>
<path d="M10.4399 10.1571C10.7485 10.1571 11.0056 10.2728 11.2178 10.485C11.5521 10.8128 11.8799 11.1342 12.2013 11.475C12.6449 11.9378 12.6385 12.6 12.1949 13.0307C11.7642 13.4485 11.1085 13.4485 10.6585 13.0114C10.3178 12.6642 9.97063 12.33 9.64277 11.9764C9.32134 11.6357 9.25706 11.2242 9.44991 10.8C9.63634 10.3821 9.98348 10.1764 10.4399 10.1571ZM11.8413 12.2785C11.7963 12.1692 11.7899 12.0857 11.7449 12.0342C11.3785 11.6678 11.0185 11.295 10.6392 10.9414C10.5042 10.8192 10.3178 10.8514 10.1828 10.9864C10.0413 11.1342 10.0156 11.3142 10.1506 11.4621C10.4978 11.8285 10.8513 12.1885 11.2242 12.5228C11.3013 12.5935 11.4878 12.6 11.5971 12.555C11.6999 12.51 11.7642 12.3685 11.8413 12.2785Z" fill="#F5A445"/>
<path d="M19.575 8.6078C19.575 8.84566 19.5814 9.08995 19.575 9.3278C19.5622 9.91923 19.08 10.3949 18.495 10.3949C17.9036 10.4014 17.4086 9.91923 17.4022 9.31495C17.3957 8.8328 17.3957 8.35066 17.4022 7.87495C17.415 7.28352 17.8972 6.8078 18.4822 6.8078C19.0672 6.80138 19.5557 7.27709 19.575 7.86209C19.5814 8.10638 19.575 8.35709 19.575 8.6078ZM18.1222 8.57566C18.1222 8.81352 18.1157 9.0578 18.1222 9.29566C18.1286 9.51423 18.2829 9.66852 18.4757 9.67495C18.6814 9.68138 18.8486 9.52066 18.8486 9.28923C18.855 8.82638 18.855 8.36352 18.8486 7.90066C18.8422 7.68209 18.6943 7.5278 18.495 7.52138C18.2893 7.51495 18.1286 7.67566 18.1222 7.90709C18.1157 8.13209 18.1222 8.35709 18.1222 8.57566Z" fill="#F5A445"/>
<path d="M14.7535 9.78423C14.6699 9.88066 14.5992 10.0221 14.4963 10.0542C14.3806 10.0864 14.1878 10.0542 14.1106 9.97709C13.9371 9.78423 13.7956 9.5528 13.6863 9.32138C13.6413 9.23138 13.6928 9.03209 13.7699 8.9678C13.8599 8.89066 14.0335 8.87138 14.1556 8.89709C14.3163 8.91638 14.7149 9.58495 14.7535 9.78423Z" fill="#F5A445"/>
<path d="M22.9628 8.85205C23.2713 8.84562 23.4578 9.10276 23.3485 9.32776C23.2328 9.55919 23.0849 9.78419 22.9242 9.9899C22.8149 10.1313 22.6478 10.1378 22.487 10.0478C22.3263 9.95133 22.2685 9.79062 22.3456 9.63633C22.4678 9.39848 22.622 9.17348 22.7828 8.9549C22.8213 8.88419 22.9242 8.8649 22.9628 8.85205Z" fill="#F5A445"/>
<path d="M28.2278 15.7114C27.9899 15.7114 27.8549 15.6278 27.8164 15.435C27.7778 15.2357 27.8549 15.0814 28.0542 15.0236C28.2792 14.9593 28.5042 14.9078 28.7357 14.8757C28.9349 14.8436 29.0828 14.94 29.1278 15.1457C29.1664 15.345 29.0892 15.4993 28.8899 15.5571C28.6585 15.6214 28.4207 15.6664 28.2278 15.7114Z" fill="#F5A445"/>
<path d="M8.31847 14.8628C8.51776 14.9078 8.76205 14.9528 8.9999 15.0299C9.18633 15.0878 9.25062 15.2485 9.21205 15.4349C9.17347 15.6149 9.0449 15.7242 8.8649 15.6985C8.61419 15.6664 8.35705 15.6149 8.11276 15.5378C7.92633 15.4799 7.86205 15.3192 7.90062 15.1328C7.94562 14.9399 8.08062 14.8628 8.31847 14.8628Z" fill="#F5A445"/>
<path d="M18.5142 24.9363C21.6578 24.9363 24.7949 24.9363 27.9385 24.9363C28.0156 24.9363 28.0992 24.9299 28.1763 24.9363C28.3692 24.9492 28.4913 25.0585 28.5106 25.2513C28.5299 25.457 28.4206 25.5856 28.2278 25.637C28.1506 25.6563 28.0671 25.6499 27.9899 25.6499C21.6771 25.6499 15.3578 25.6499 9.04491 25.6499C8.94848 25.6499 8.85205 25.6499 8.76205 25.6242C8.58848 25.5728 8.50491 25.4378 8.51777 25.2578C8.53705 25.0778 8.64634 24.9685 8.82634 24.9428C8.91634 24.9299 8.99991 24.9363 9.08991 24.9363C12.2271 24.9363 15.3706 24.9363 18.5142 24.9363Z" fill="#5D9F44"/>
<path d="M18.5143 29.5521C19.2986 29.5521 20.0893 29.5521 20.8736 29.5521C21.1629 29.5521 21.3171 29.6743 21.3171 29.9057C21.3171 30.1307 21.1629 30.2657 20.8736 30.2657C19.2986 30.2657 17.73 30.2657 16.155 30.2657C15.8721 30.2657 15.7114 30.1307 15.7114 29.9057C15.7114 29.6743 15.8657 29.5521 16.155 29.5521C16.9393 29.5521 17.73 29.5521 18.5143 29.5521Z" fill="#5D9F44"/>
<path d="M13.3585 27.2443C13.95 27.2443 14.5478 27.2443 15.1393 27.2443C15.4285 27.2443 15.5828 27.3728 15.5764 27.6043C15.5764 27.8293 15.4157 27.9643 15.1264 27.9643C13.9371 27.9643 12.7478 27.9643 11.5585 27.9643C11.2757 27.9643 11.1085 27.8293 11.1021 27.6107C11.0957 27.3793 11.2628 27.2507 11.565 27.2507C12.1693 27.2443 12.7607 27.2443 13.3585 27.2443Z" fill="#5D9F44"/>
<path d="M23.6828 27.2443C24.2871 27.2443 24.885 27.2443 25.4892 27.2443C25.7592 27.2443 25.92 27.3728 25.92 27.5914C25.9264 27.81 25.7592 27.9643 25.4828 27.9643C24.2871 27.9643 23.0914 27.9643 21.8892 27.9643C21.6064 27.9643 21.4457 27.8293 21.4457 27.5978C21.4457 27.3664 21.6 27.2443 21.8892 27.2443C22.4935 27.2443 23.085 27.2443 23.6828 27.2443Z" fill="#5D9F44"/>
<path d="M18.5142 27.9643C18.1221 27.9643 17.7299 27.9643 17.3313 27.9643C17.0549 27.9643 16.8813 27.8164 16.8813 27.5978C16.8813 27.3793 17.0485 27.2443 17.3313 27.2443C18.1156 27.2443 18.9063 27.2443 19.6906 27.2443C19.9735 27.2443 20.1406 27.3793 20.1406 27.6043C20.1406 27.8228 19.9671 27.9643 19.6906 27.9643C19.2985 27.9643 18.9063 27.9643 18.5142 27.9643Z" fill="#5D9F44"/>
<path d="M29.1729 19.6586C28.9864 19.6586 28.8064 19.665 28.62 19.6586C28.3822 19.6521 28.2279 19.5043 28.2214 19.2986C28.2214 19.0929 28.3757 18.9321 28.6071 18.9257C28.9864 18.9193 29.3593 18.9193 29.7386 18.9257C29.9764 18.9321 30.1307 19.08 30.1307 19.2921C30.1307 19.5043 29.9829 19.6521 29.745 19.6586C29.5586 19.665 29.3657 19.6586 29.1729 19.6586Z" fill="#F5A445"/>
<path d="M7.85564 19.6585C7.65636 19.6585 7.45707 19.6649 7.25778 19.6585C7.03921 19.6456 6.89136 19.4914 6.89778 19.2921C6.89778 19.0928 7.04564 18.9321 7.26421 18.9321C7.65636 18.9256 8.0485 18.9256 8.44064 18.9321C8.65921 18.9385 8.80707 19.1056 8.80707 19.2985C8.80707 19.4978 8.65921 19.6456 8.43421 19.6585C8.42136 19.6585 8.40207 19.6585 8.38921 19.6585C8.20921 19.6585 8.03564 19.6585 7.85564 19.6585Z" fill="#F5A445"/>
<path d="M25.5406 12.6385C25.4506 12.5613 25.3092 12.4971 25.2706 12.3942C25.2256 12.2913 25.2385 12.0985 25.3092 12.0213C25.6499 11.6485 26.0035 11.2949 26.3763 10.9478C26.5242 10.8128 26.7106 10.8385 26.8521 10.9863C26.9871 11.1213 27.0192 11.3078 26.8906 11.4428C26.5371 11.8221 26.1578 12.1821 25.7849 12.5485C25.7399 12.5935 25.6563 12.5999 25.5406 12.6385Z" fill="#F5A445"/>
<path d="M11.8414 12.2785C11.7643 12.3685 11.7 12.51 11.5971 12.555C11.4943 12.6 11.3014 12.5935 11.2243 12.5228C10.8514 12.1885 10.4978 11.8285 10.1507 11.4621C10.0157 11.3142 10.035 11.1342 10.1828 10.9864C10.3178 10.845 10.5043 10.8192 10.6393 10.9414C11.0185 11.295 11.385 11.6678 11.745 12.0407C11.79 12.0857 11.7964 12.1692 11.8414 12.2785Z" fill="#F5A445"/>
<path d="M18.1221 8.57567C18.1221 8.35067 18.1157 8.12567 18.1221 7.90067C18.1285 7.66924 18.2893 7.50853 18.495 7.51496C18.6943 7.52139 18.8485 7.66924 18.8485 7.89424C18.855 8.3571 18.855 8.81996 18.8485 9.28281C18.8421 9.51424 18.6814 9.67496 18.4757 9.66853C18.2764 9.6621 18.1285 9.50781 18.1221 9.28924C18.1157 9.05781 18.1221 8.81996 18.1221 8.57567Z" fill="#F5A445"/>
</g>
<defs>
<clipPath id="clip0_91_2860">
<rect width="24.6857" height="24.6857" fill="white" transform="translate(6.17139 6.17139)"/>
</clipPath>
</defs>
</svg>
