<svg width="20" height="20" viewBox="0 0 20 20" fill="none" xmlns="http://www.w3.org/2000/svg">
<path d="M14.0166 1.66675H5.98327C4.20827 1.66675 2.7666 3.11675 2.7666 4.88341V16.6251C2.7666 18.1251 3.8416 18.7584 5.15827 18.0334L9.22493 15.7751C9.65827 15.5334 10.3583 15.5334 10.7833 15.7751L14.8499 18.0334C16.1666 18.7667 17.2416 18.1334 17.2416 16.6251V4.88341C17.2333 3.11675 15.7916 1.66675 14.0166 1.66675ZM12.5083 8.12508C11.6999 8.41675 10.8499 8.56675 9.99994 8.56675C9.14994 8.56675 8.29993 8.41675 7.4916 8.12508C7.1666 8.00841 6.99994 7.65008 7.1166 7.32508C7.2416 7.00008 7.59994 6.83341 7.92494 6.95008C9.2666 7.43341 10.7416 7.43341 12.0833 6.95008C12.4083 6.83341 12.7666 7.00008 12.8833 7.32508C12.9999 7.65008 12.8333 8.00841 12.5083 8.12508Z" fill="#D94040"/>
</svg>
