<svg width="545" height="556" viewBox="0 0 545 556" fill="none" xmlns="http://www.w3.org/2000/svg">
<g clip-path="url(#clip0_658_4495)">
<path d="M313.675 278.137L385.561 171.039L278.285 242.802L171.009 171.039L242.895 278.137L171.009 385.23L278.285 313.466L385.561 385.23L313.675 278.137Z" fill="#171717"/>
<path d="M257.093 296.701L385.561 382.639L171.009 168.448L257.093 296.701Z" fill="#5D9F44"/>
<path d="M171.009 168.448L385.561 382.639L299.477 254.386L171.009 168.448Z" fill="#68B64B"/>
<path d="M257.093 254.386L171.009 382.639L385.561 168.448L257.093 254.386Z" fill="#5D9F44"/>
<path d="M385.561 168.448L171.009 382.639L299.477 296.701L385.561 168.448Z" fill="#68B64B"/>
<path d="M310.832 275.547C310.847 281.992 308.952 288.296 305.385 293.662C301.818 299.029 296.74 303.215 290.795 305.692C284.849 308.169 278.302 308.826 271.984 307.578C265.665 306.33 259.858 303.234 255.299 298.683C250.739 294.131 247.632 288.328 246.37 282.008C245.107 275.688 245.747 269.136 248.208 263.18C250.669 257.225 254.841 252.133 260.195 248.551C265.549 244.969 271.845 243.057 278.285 243.057C282.554 243.051 286.783 243.887 290.729 245.516C294.676 247.146 298.262 249.538 301.285 252.555C304.307 255.572 306.706 259.156 308.344 263.101C309.982 267.046 310.828 271.275 310.832 275.547Z" fill="#5D9F44"/>
<path d="M279.122 354.865C234.606 354.865 198.386 318.706 198.386 274.258C198.386 229.811 234.613 193.651 279.122 193.651C323.631 193.651 359.864 229.811 359.864 274.258C359.864 318.706 323.651 354.865 279.122 354.865ZM279.122 194.829C235.253 194.829 199.556 230.459 199.556 274.258C199.556 318.058 235.26 353.694 279.122 353.694C322.984 353.694 358.688 318.058 358.688 274.258C358.688 230.459 323.003 194.829 279.122 194.829Z" fill="#5D9F44"/>
<path d="M279.122 368.582C227.023 368.582 184.639 326.267 184.639 274.258C184.639 222.25 227.03 179.935 279.122 179.935C331.214 179.935 373.605 222.25 373.605 274.258C373.605 326.267 331.227 368.582 279.122 368.582ZM279.122 185.429C230.096 185.429 190.162 225.272 190.162 274.239C190.162 323.206 230.096 363.068 279.122 363.068C328.148 363.068 368.088 323.232 368.088 274.258C368.088 225.285 328.181 185.449 279.122 185.449V185.429Z" fill="#5D9F44"/>
<path d="M279.122 495.69C243.233 495.629 207.914 486.715 176.288 469.739C144.663 452.763 117.707 428.247 97.807 398.361C77.9067 368.476 65.6755 334.142 62.1957 298.399C58.7159 262.656 64.095 226.605 77.8569 193.438C91.6187 160.271 113.339 131.01 141.095 108.245C168.852 85.4799 201.788 69.9125 236.99 62.9207C272.191 55.9289 308.573 57.7283 342.914 68.1596C377.255 78.5909 408.497 97.3325 433.874 122.726C464.432 153.302 485.235 192.265 493.648 234.68C502.061 277.096 497.707 321.055 481.136 360.993C464.565 400.93 436.523 435.048 400.561 459.026C364.6 483.005 322.336 495.765 279.122 495.69ZM279.122 62.6645C229.464 62.7284 181.363 80.0179 143.015 111.588C104.666 143.158 78.441 187.055 68.8073 235.803C59.1735 284.55 66.7267 335.132 90.1803 378.932C113.634 422.732 151.537 457.041 197.433 476.014C243.329 494.987 294.379 497.451 341.887 482.986C389.395 468.521 430.422 438.022 457.979 396.684C485.536 355.346 497.919 305.726 493.019 256.277C488.118 206.829 466.237 160.609 431.103 125.493C411.17 105.496 387.478 89.6476 361.393 78.8619C335.308 68.0762 307.346 62.5667 279.122 62.6514V62.6645Z" fill="#5D9F44"/>
<path d="M280.808 34.7925H277.455V60.6955H280.808V34.7925Z" fill="#5D9F44"/>
<path d="M280.808 493.728H277.455V519.631H280.808V493.728Z" fill="#5D9F44"/>
<path d="M240.023 48.2966L237.448 48.7518L240.181 64.2305L242.756 63.7753L240.023 48.2966Z" fill="#5D9F44"/>
<path d="M318.073 490.217L315.499 490.673L318.232 506.151L320.807 505.696L318.073 490.217Z" fill="#5D9F44"/>
<path d="M203.726 74.1966L198.34 59.4331L200.798 58.537L206.184 73.307L203.726 74.1966Z" fill="#5D9F44"/>
<path d="M357.465 495.887L352.079 481.123L354.537 480.227L359.923 494.997L357.465 495.887Z" fill="#5D9F44"/>
<path d="M169.558 90.3533L161.688 76.7477L163.95 75.4395L171.82 89.0516L169.558 90.3533Z" fill="#5D9F44"/>
<path d="M394.313 478.984L386.443 465.379L388.705 464.07L396.575 477.682L394.313 478.984Z" fill="#5D9F44"/>
<path d="M138.724 112.188L128.605 100.152L130.605 98.4708L140.724 110.513L138.724 112.188Z" fill="#5D9F44"/>
<path d="M427.658 455.953L417.539 443.917L419.546 442.236L429.658 454.278L427.658 455.953Z" fill="#5D9F44"/>
<path d="M112.152 139.039L100.092 128.94L101.772 126.938L113.832 137.038L112.152 139.039Z" fill="url(#paint0_linear_658_4495)"/>
<path d="M456.492 427.492L444.431 417.386L446.111 415.391L458.172 425.49L456.492 427.492Z" fill="#5D9F44"/>
<path d="M90.6525 170.084L77.0167 162.228L78.3241 159.964L91.9599 167.82L90.6525 170.084Z" fill="url(#paint1_linear_658_4495)"/>
<path d="M479.939 394.459L466.303 386.603L467.611 384.34L481.247 392.202L479.939 394.459Z" fill="#5D9F44"/>
<path d="M74.8857 204.386L60.0864 199.009L60.9819 196.556L75.7747 201.933L74.8857 204.386Z" fill="url(#paint2_linear_658_4495)"/>
<path d="M497.281 357.868L482.488 352.491L483.384 350.038L498.177 355.415L497.281 357.868Z" fill="#5D9F44"/>
<path d="M50.2709 235.607L49.8193 238.178L65.3223 240.905L65.7738 238.334L50.2709 235.607Z" fill="#5D9F44"/>
<path d="M492.91 313.488L492.458 316.058L507.961 318.785L508.413 316.215L492.91 313.488Z" fill="#5D9F44"/>
<path d="M62.25 275.534H36.3054V278.883H62.25V275.534Z" fill="#5D9F44"/>
<path d="M521.964 275.534H496.02V278.883H521.964V275.534Z" fill="#5D9F44"/>
<path d="M65.3227 313.512L49.8222 316.253L50.276 318.823L65.7766 316.082L65.3227 313.512Z" fill="#5D9F44"/>
<path d="M507.997 235.573L492.497 238.313L492.951 240.884L508.451 238.143L507.997 235.573Z" fill="#5D9F44"/>
<path d="M60.9884 357.868L60.0929 355.415L74.8857 350.038L75.7747 352.491L60.9884 357.868Z" fill="#5D9F44"/>
<path d="M483.384 204.386L482.488 201.933L497.281 196.556L498.177 199.009L483.384 204.386Z" fill="#5D9F44"/>
<path d="M78.3306 394.459L77.0233 392.196L90.6525 384.34L91.9599 386.603L78.3306 394.459Z" fill="#5D9F44"/>
<path d="M467.611 170.084L466.303 167.82L479.939 159.964L481.247 162.221L467.611 170.084Z" fill="#5D9F44"/>
<path d="M101.772 427.485L100.092 425.49L112.152 415.384L113.832 417.386L101.772 427.485Z" fill="#5D9F44"/>
<path d="M446.118 139.033L444.431 137.038L456.492 126.932L458.172 128.933L446.118 139.033Z" fill="#5D9F44"/>
<path d="M130.605 455.953L128.605 454.272L138.724 442.236L140.724 443.91L130.605 455.953Z" fill="#5D9F44"/>
<path d="M419.546 112.188L417.539 110.507L427.658 98.4708L429.665 100.145L419.546 112.188Z" fill="#5D9F44"/>
<path d="M163.956 478.984L161.688 477.676L169.558 464.064L171.827 465.372L163.956 478.984Z" fill="#5D9F44"/>
<path d="M388.705 90.3533L386.443 89.0451L394.313 75.4395L396.575 76.7411L388.705 90.3533Z" fill="#5D9F44"/>
<path d="M200.798 495.887L198.34 494.99L203.726 480.22L206.184 481.117L200.798 495.887Z" fill="#5D9F44"/>
<path d="M354.537 74.1966L352.086 73.3004L357.465 58.537L359.923 59.4266L354.537 74.1966Z" fill="#5D9F44"/>
<path d="M240.171 490.183L237.452 505.664L240.027 506.117L242.746 490.636L240.171 490.183Z" fill="#5D9F44"/>
<path d="M318.218 48.2682L315.499 63.7493L318.074 64.2023L320.794 48.7212L318.218 48.2682Z" fill="#5D9F44"/>
<path d="M271.716 53.0422L270.599 53.0758L270.831 60.8402L271.949 60.8066L271.716 53.0422Z" fill="#5D9F44"/>
<path d="M287.345 494.919L286.227 494.959L286.5 502.718L287.617 502.679L287.345 494.919Z" fill="#5D9F44"/>
<path d="M264.575 52.1585L263.457 52.2368L264 60.0012L265.118 59.9229L264.575 52.1585Z" fill="#5D9F44"/>
<path d="M294.938 494.507L293.823 494.585L294.366 502.33L295.481 502.252L294.938 494.507Z" fill="#5D9F44"/>
<path d="M256.055 52.7269L254.943 52.844L255.755 60.5657L256.867 60.4486L256.055 52.7269Z" fill="#5D9F44"/>
<path d="M302.482 493.854L301.37 493.971L302.183 501.693L303.294 501.575L302.482 493.854Z" fill="#5D9F44"/>
<path d="M248.223 53.6886L247.116 53.8445L248.198 61.5331L249.305 61.3772L248.223 53.6886Z" fill="#5D9F44"/>
<path d="M310.062 492.894L308.955 493.051L310.039 500.745L311.146 500.589L310.062 492.894Z" fill="#5D9F44"/>
<path d="M233.207 64.2082L231.593 56.6074L232.684 56.3784L234.299 63.9727L233.207 64.2082Z" fill="#5D9F44"/>
<path d="M325.057 490.207L323.964 490.44L325.581 498.034L326.674 497.801L325.057 490.207Z" fill="#5D9F44"/>
<path d="M225.788 65.9351L223.905 58.3997L224.99 58.1315L226.873 65.6669L225.788 65.9351Z" fill="#5D9F44"/>
<path d="M333.266 496.292L331.384 488.757L332.475 488.489L334.358 496.024L333.266 496.292Z" fill="#5D9F44"/>
<path d="M218.434 67.9236L216.29 60.4601L217.369 60.1527L219.513 67.6162L218.434 67.9236Z" fill="#5D9F44"/>
<path d="M340.895 494.277L338.751 486.807L339.823 486.5L341.973 493.97L340.895 494.277Z" fill="#5D9F44"/>
<path d="M211.152 70.1672L208.753 62.7822L209.819 62.4355L212.218 69.8205L211.152 70.1672Z" fill="#5D9F44"/>
<path d="M348.445 491.988L346.039 484.603L347.105 484.256L349.51 491.648L348.445 491.988Z" fill="#5D9F44"/>
<path d="M196.856 75.4067L193.941 68.2049L194.98 67.7863L197.889 74.9881L196.856 75.4067Z" fill="#5D9F44"/>
<path d="M363.283 486.644L360.368 479.442L361.407 479.023L364.323 486.225L363.283 486.644Z" fill="#5D9F44"/>
<path d="M189.849 78.3961L186.685 71.2989L187.711 70.8475L190.875 77.9382L189.849 78.3961Z" fill="#5D9F44"/>
<path d="M370.552 483.583L367.388 476.486L368.415 476.034L371.578 483.125L370.552 483.583Z" fill="#5D9F44"/>
<path d="M182.952 81.6274L179.547 74.6479L180.547 74.1573L183.959 81.1368L182.952 81.6274Z" fill="#5D9F44"/>
<path d="M377.716 480.273L374.304 473.287L375.304 472.796L378.717 479.782L377.716 480.273Z" fill="#5D9F44"/>
<path d="M176.174 85.0941L172.526 78.239L173.513 77.7157L177.161 84.5708L176.174 85.0941Z" fill="#5D9F44"/>
<path d="M384.75 476.708L381.096 469.853L382.09 469.329L385.737 476.184L384.75 476.708Z" fill="#5D9F44"/>
<path d="M163.002 92.7342L158.877 86.1473L159.825 85.552L163.95 92.139L163.002 92.7342Z" fill="#5D9F44"/>
<path d="M398.432 468.872L394.313 462.285L395.261 461.689L399.386 468.276L398.432 468.872Z" fill="#5D9F44"/>
<path d="M156.622 96.8944L152.275 90.4514L153.203 89.83L157.55 96.2665L156.622 96.8944Z" fill="#5D9F44"/>
<path d="M405.06 464.594L400.713 458.157L401.641 457.536L405.988 463.972L405.06 464.594Z" fill="#5D9F44"/>
<path d="M150.392 101.271L145.823 94.991L146.725 94.3303L151.301 100.616L150.392 101.271Z" fill="#5D9F44"/>
<path d="M411.538 460.093L406.962 453.814L407.864 453.153L412.44 459.439L411.538 460.093Z" fill="#5D9F44"/>
<path d="M144.32 105.862L139.535 99.7464L140.417 99.0596L145.202 105.176L144.32 105.862Z" fill="#5D9F44"/>
<path d="M417.846 455.371L413.061 449.248L413.943 448.561L418.728 454.684L417.846 455.371Z" fill="#5D9F44"/>
<path d="M132.678 115.668L127.474 109.898L128.304 109.146L133.508 114.922L132.678 115.668Z" fill="#5D9F44"/>
<path d="M429.959 445.278L424.755 439.502L425.586 438.756L430.789 444.532L429.959 445.278Z" fill="#5D9F44"/>
<path d="M127.121 120.868L121.715 115.282L122.519 114.51L127.925 120.096L127.121 120.868Z" fill="#5D9F44"/>
<path d="M435.744 439.92L430.338 434.334L431.142 433.556L436.548 439.142L435.744 439.92Z" fill="#5D9F44"/>
<path d="M121.748 126.264L116.153 120.868L116.93 120.063L122.526 125.46L121.748 126.264Z" fill="#5D9F44"/>
<path d="M441.333 434.367L435.737 428.97L436.515 428.166L442.111 433.562L441.333 434.367Z" fill="#5D9F44"/>
<path d="M116.564 131.837L110.786 126.637L111.538 125.813L117.316 131.007L116.564 131.837Z" fill="#5D9F44"/>
<path d="M446.726 428.617L440.947 423.423L441.699 422.586L447.477 427.786L446.726 428.617Z" fill="#5D9F44"/>
<path d="M106.805 143.513L100.673 138.732L101.36 137.849L107.491 142.63L106.805 143.513Z" fill="url(#paint3_linear_658_4495)"/>
<path d="M456.903 416.575L450.772 411.793L451.458 410.917L457.59 415.698L456.903 416.575Z" fill="#5D9F44"/>
<path d="M102.236 149.597L95.9408 145.031L96.601 144.128L102.889 148.694L102.236 149.597Z" fill="url(#paint4_linear_658_4495)"/>
<path d="M461.662 410.295L455.374 405.73L456.027 404.827L462.322 409.393L461.662 410.295Z" fill="#5D9F44"/>
<path d="M97.8822 155.837L91.4304 151.494L92.0579 150.571L98.5032 154.915L97.8822 155.837Z" fill="url(#paint5_linear_658_4495)"/>
<path d="M466.205 403.859L459.753 399.515L460.381 398.587L466.833 402.93L466.205 403.859Z" fill="#5D9F44"/>
<path d="M93.7444 162.228L87.1553 158.113L87.7436 157.165L94.3392 161.279L93.7444 162.228Z" fill="url(#paint6_linear_658_4495)"/>
<path d="M470.52 397.265L463.924 393.144L464.519 392.202L471.114 396.317L470.52 397.265Z" fill="#5D9F44"/>
<path d="M86.1682 175.415L79.298 171.771L79.821 170.784L86.6912 174.427L86.1682 175.415Z" fill="url(#paint7_linear_658_4495)"/>
<path d="M478.442 383.64L471.572 379.997L472.101 379.009L478.965 382.652L478.442 383.64Z" fill="#5D9F44"/>
<path d="M82.7233 182.204L75.7355 178.796L76.2257 177.796L83.2136 181.197L82.7233 182.204Z" fill="url(#paint8_linear_658_4495)"/>
<path d="M482.044 376.634L475.05 373.226L475.54 372.226L482.534 375.627L482.044 376.634Z" fill="#5D9F44"/>
<path d="M79.5203 189.105L72.4148 185.939L72.8724 184.919L79.9779 188.085L79.5203 189.105Z" fill="url(#paint9_linear_658_4495)"/>
<path d="M485.391 369.505L478.285 366.345L478.743 365.325L485.848 368.484L485.391 369.505Z" fill="#5D9F44"/>
<path d="M76.5656 196.111L69.3555 193.2L69.7739 192.167L76.984 195.078L76.5656 196.111Z" fill="url(#paint10_linear_658_4495)"/>
<path d="M488.489 362.263L481.279 359.353L481.698 358.313L488.914 361.223L488.489 362.263Z" fill="#5D9F44"/>
<path d="M71.3885 210.417L63.9954 208.016L64.3418 206.95L71.7349 209.35L71.3885 210.417Z" fill="url(#paint11_linear_658_4495)"/>
<path d="M493.928 347.474L486.528 345.073L486.875 344.014L494.274 346.408L493.928 347.474Z" fill="#5D9F44"/>
<path d="M69.1791 217.69L61.7075 215.551L62.0148 214.479L69.4929 216.618L69.1791 217.69Z" fill="url(#paint12_linear_658_4495)"/>
<path d="M489.056 336.697L488.748 337.772L496.227 339.914L496.534 338.838L489.056 336.697Z" fill="#5D9F44"/>
<path d="M59.9552 222.064L59.6853 223.15L67.234 225.029L67.5039 223.943L59.9552 222.064Z" fill="url(#paint13_linear_658_4495)"/>
<path d="M498.314 332.344L490.764 330.467L491.032 329.381L498.582 331.258L498.314 332.344Z" fill="#5D9F44"/>
<path d="M58.1612 229.755L57.929 230.849L65.5381 232.466L65.7703 231.372L58.1612 229.755Z" fill="url(#paint14_linear_658_4495)"/>
<path d="M500.105 324.671L492.496 323.056L492.725 321.963L500.341 323.579L500.105 324.671Z" fill="#5D9F44"/>
<path d="M55.375 245.237L55.2198 246.344L62.9233 247.425L63.0785 246.317L55.375 245.237Z" fill="#5D9F44"/>
<path d="M495.795 307.467L495.638 308.574L503.339 309.664L503.496 308.557L495.795 307.467Z" fill="#5D9F44"/>
<path d="M54.4014 253.068L54.2846 254.181L62.0208 254.995L62.1376 253.882L54.4014 253.068Z" fill="#5D9F44"/>
<path d="M496.248 299.433L496.131 300.545L503.867 301.359L503.984 300.246L496.248 299.433Z" fill="#5D9F44"/>
<path d="M54.3411 260.858L54.2629 261.977L62.0417 262.522L62.1199 261.403L54.3411 260.858Z" fill="#5D9F44"/>
<path d="M496.858 291.836L496.78 292.952L504.54 293.492L504.618 292.376L496.858 291.836Z" fill="#5D9F44"/>
<path d="M53.259 268.787L53.2198 269.904L60.9938 270.177L61.033 269.06L53.259 268.787Z" fill="#5D9F44"/>
<path d="M497.303 284.282L497.264 285.399L505.038 285.671L505.077 284.553L497.303 284.282Z" fill="#5D9F44"/>
<path d="M59.6439 284.731L51.8651 284.964L51.8986 286.083L59.6774 285.849L59.6439 284.731Z" fill="#5D9F44"/>
<path d="M505.006 268.775L497.232 269.046L497.271 270.164L505.045 269.893L505.006 268.775Z" fill="#5D9F44"/>
<path d="M61.3896 291.852L53.6297 292.395L53.7077 293.511L61.4675 292.968L61.3896 291.852Z" fill="#5D9F44"/>
<path d="M504.578 260.893L496.818 261.436L496.896 262.552L504.656 262.009L504.578 260.893Z" fill="#5D9F44"/>
<path d="M62.0351 299.425L54.2991 300.24L54.4161 301.352L62.1522 300.537L62.0351 299.425Z" fill="#5D9F44"/>
<path d="M503.873 253.038L496.138 253.858L496.255 254.97L503.991 254.151L503.873 253.038Z" fill="#5D9F44"/>
<path d="M62.929 306.981L55.2263 308.067L55.3822 309.174L63.0849 308.088L62.929 306.981Z" fill="#5D9F44"/>
<path d="M502.883 245.253L495.18 246.339L495.336 247.446L503.039 246.36L502.883 245.253Z" fill="#5D9F44"/>
<path d="M58.158 324.671L57.9292 323.579L65.538 321.963L65.7668 323.056L58.158 324.671Z" fill="#5D9F44"/>
<path d="M492.732 232.46L492.496 231.361L500.105 229.752L500.341 230.845L492.732 232.46Z" fill="#5D9F44"/>
<path d="M67.2297 329.375L59.683 331.262L59.954 332.347L67.5007 330.46L67.2297 329.375Z" fill="#5D9F44"/>
<path d="M491.032 225.043L490.764 223.957L498.314 222.079L498.582 223.165L491.032 225.043Z" fill="#5D9F44"/>
<path d="M62.0148 339.945L61.7075 338.872L69.1856 336.733L69.4929 337.806L62.0148 339.945Z" fill="#5D9F44"/>
<path d="M489.084 217.69L488.777 216.618L496.255 214.479L496.562 215.551L489.084 217.69Z" fill="#5D9F44"/>
<path d="M64.3418 347.474L63.9954 346.408L71.395 344.014L71.7349 345.073L64.3418 347.474Z" fill="#5D9F44"/>
<path d="M486.875 210.41L486.528 209.35L493.928 206.95L494.268 208.016L486.875 210.41Z" fill="#5D9F44"/>
<path d="M69.7739 362.257L69.3555 361.223L76.5656 358.313L76.984 359.353L69.7739 362.257Z" fill="#5D9F44"/>
<path d="M481.698 196.111L481.279 195.071L488.496 192.16L488.914 193.2L481.698 196.111Z" fill="#5D9F44"/>
<path d="M72.8724 369.498L72.4148 368.484L79.5268 365.325L79.9779 366.339L72.8724 369.498Z" fill="#5D9F44"/>
<path d="M478.743 189.099L478.285 188.078L485.391 184.919L485.848 185.939L478.743 189.099Z" fill="#5D9F44"/>
<path d="M76.2257 376.628L75.7355 375.627L82.7233 372.226L83.2136 373.226L76.2257 376.628Z" fill="#5D9F44"/>
<path d="M475.54 182.198L475.05 181.197L482.044 177.789L482.534 178.797L475.54 182.198Z" fill="#5D9F44"/>
<path d="M79.8275 383.64L79.298 382.652L86.1682 379.009L86.6912 379.997L79.8275 383.64Z" fill="#5D9F44"/>
<path d="M472.101 175.415L471.572 174.427L478.442 170.784L478.965 171.771L472.101 175.415Z" fill="#5D9F44"/>
<path d="M87.7436 397.259L87.1553 396.31L93.7509 392.196L94.3458 393.144L87.7436 397.259Z" fill="#5D9F44"/>
<path d="M464.519 162.221L463.924 161.279L470.52 157.158L471.114 158.107L464.519 162.221Z" fill="#5D9F44"/>
<path d="M92.0579 403.852L91.4369 402.93L97.8822 398.587L98.5097 399.515L92.0579 403.852Z" fill="#5D9F44"/>
<path d="M460.381 155.837L459.753 154.908L466.205 150.565L466.833 151.494L460.381 155.837Z" fill="#5D9F44"/>
<path d="M96.601 410.295L95.9408 409.393L102.236 404.827L102.896 405.73L96.601 410.295Z" fill="#5D9F44"/>
<path d="M456.027 149.597L455.374 148.694L461.669 144.128L462.322 145.031L456.027 149.597Z" fill="#5D9F44"/>
<path d="M101.366 416.575L100.673 415.692L106.805 410.91L107.491 411.793L101.366 416.575Z" fill="#5D9F44"/>
<path d="M451.458 143.507L450.772 142.63L456.903 137.849L457.59 138.732L451.458 143.507Z" fill="#5D9F44"/>
<path d="M111.538 428.617L110.786 427.786L116.564 422.586L117.316 423.417L111.538 428.617Z" fill="#5D9F44"/>
<path d="M441.699 131.831L440.947 131.007L446.732 125.806L447.477 126.637L441.699 131.831Z" fill="#5D9F44"/>
<path d="M116.93 434.36L116.153 433.556L121.748 428.166L122.526 428.964L116.93 434.36Z" fill="#5D9F44"/>
<path d="M436.515 126.258L435.737 125.453L441.339 120.057L442.117 120.861L436.515 126.258Z" fill="#5D9F44"/>
<path d="M122.526 439.914L121.715 439.142L127.121 433.556L127.925 434.328L122.526 439.914Z" fill="#5D9F44"/>
<path d="M431.142 120.868L430.338 120.089L435.744 114.503L436.548 115.282L431.142 120.868Z" fill="#5D9F44"/>
<path d="M128.304 445.271L127.474 444.525L132.678 438.756L133.514 439.502L128.304 445.271Z" fill="#5D9F44"/>
<path d="M425.586 115.668L424.755 114.915L429.959 109.146L430.789 109.898L425.586 115.668Z" fill="#5D9F44"/>
<path d="M140.417 455.364L139.535 454.677L144.326 448.561L145.209 449.248L140.417 455.364Z" fill="#5D9F44"/>
<path d="M413.943 105.856L413.061 105.169L417.852 99.053L418.728 99.7398L413.943 105.856Z" fill="#5D9F44"/>
<path d="M146.732 460.093L145.823 459.433L150.399 453.153L151.301 453.807L146.732 460.093Z" fill="#5D9F44"/>
<path d="M407.864 101.271L406.962 100.61L411.538 94.3303L412.44 94.9844L407.864 101.271Z" fill="#5D9F44"/>
<path d="M153.203 464.594L152.275 463.966L156.622 457.529L157.55 458.157L153.203 464.594Z" fill="#5D9F44"/>
<path d="M401.641 96.8879L400.713 96.2665L405.06 89.8235L405.988 90.4514L401.641 96.8879Z" fill="#5D9F44"/>
<path d="M159.832 468.865L158.884 468.276L163.002 461.689L163.95 462.285L159.832 468.865Z" fill="#5D9F44"/>
<path d="M395.261 92.7277L394.313 92.139L398.432 85.552L399.386 86.1473L395.261 92.7277Z" fill="#5D9F44"/>
<path d="M173.513 476.708L172.526 476.185L176.174 469.323L177.167 469.846L173.513 476.708Z" fill="#5D9F44"/>
<path d="M382.09 85.0942L381.103 84.5709L384.75 77.7092L385.744 78.2325L382.09 85.0942Z" fill="#5D9F44"/>
<path d="M180.553 480.266L179.547 479.776L182.959 472.796L183.965 473.287L180.553 480.266Z" fill="#5D9F44"/>
<path d="M375.304 81.6273L374.304 81.1367L377.716 74.1508L378.723 74.6413L375.304 81.6273Z" fill="#5D9F44"/>
<path d="M187.711 483.576L186.685 483.125L189.855 476.028L190.875 476.485L187.711 483.576Z" fill="#5D9F44"/>
<path d="M368.415 78.3895L367.395 77.9381L370.559 70.8409L371.578 71.2988L368.415 78.3895Z" fill="#5D9F44"/>
<path d="M194.98 486.637L193.941 486.219L196.856 479.017L197.895 479.435L194.98 486.637Z" fill="#5D9F44"/>
<path d="M361.407 75.4002L360.368 74.9815L363.283 67.7863L364.323 68.2049L361.407 75.4002Z" fill="#5D9F44"/>
<path d="M209.819 491.988L208.753 491.641L211.159 484.256L212.224 484.603L209.819 491.988Z" fill="#5D9F44"/>
<path d="M347.105 70.1606L346.046 69.8205L348.445 62.429L349.51 62.7756L347.105 70.1606Z" fill="#5D9F44"/>
<path d="M217.369 494.271L216.29 493.963L218.441 486.5L219.513 486.807L217.369 494.271Z" fill="#5D9F44"/>
<path d="M339.829 67.9236L338.751 67.6161L340.895 60.1461L341.973 60.4536L339.829 67.9236Z" fill="#5D9F44"/>
<path d="M224.997 496.292L223.912 496.017L225.788 488.482L226.873 488.757L224.997 496.292Z" fill="#5D9F44"/>
<path d="M332.475 65.935L331.39 65.6669L333.273 58.1249L334.358 58.3996L332.475 65.935Z" fill="#5D9F44"/>
<path d="M233.216 490.24L231.604 497.835L232.697 498.067L234.309 490.472L233.216 490.24Z" fill="#5D9F44"/>
<path d="M325.056 64.2017L323.958 63.9727L325.579 56.3784L326.677 56.6139L325.056 64.2017Z" fill="#5D9F44"/>
<path d="M248.185 492.851L247.107 500.546L248.214 500.702L249.292 493.006L248.185 492.851Z" fill="#5D9F44"/>
<path d="M310.007 53.6679L308.928 61.3635L310.035 61.5188L311.114 53.8231L310.007 53.6679Z" fill="#5D9F44"/>
<path d="M255.758 493.84L254.95 501.563L256.062 501.679L256.87 493.957L255.758 493.84Z" fill="#5D9F44"/>
<path d="M302.197 52.731L301.388 60.4596L302.499 60.5761L303.309 52.8475L302.197 52.731Z" fill="#5D9F44"/>
<path d="M263.342 494.504L262.803 502.25L263.918 502.327L264.457 494.582L263.342 494.504Z" fill="#5D9F44"/>
<path d="M294.327 52.0693L293.788 59.8149L294.904 59.8926L295.442 52.1469L294.327 52.0693Z" fill="#5D9F44"/>
<path d="M270.946 494.929L270.677 502.689L271.794 502.728L272.063 494.968L270.946 494.929Z" fill="#5D9F44"/>
<path d="M287.87 51.7566L287.559 59.521L288.677 59.5657L288.987 51.8014L287.87 51.7566Z" fill="#5D9F44"/>
<path d="M279.122 520.939C235.18 520.772 192.104 508.703 154.465 486.012C116.826 463.321 86.0287 430.855 65.3432 392.06C44.6576 353.266 34.8552 309.59 36.9765 265.67C39.0979 221.75 53.0637 179.224 77.3917 142.607C101.72 105.99 135.502 76.647 175.152 57.6939C214.803 38.7408 258.842 30.8845 302.595 34.9589C346.347 39.0333 388.181 54.8865 423.656 80.8355C459.131 106.785 486.922 141.861 504.08 182.342C519.702 219.447 525.901 259.844 522.125 299.93C518.349 340.015 504.714 378.542 482.437 412.071C460.161 445.601 429.936 473.091 394.459 492.087C358.983 511.083 319.358 520.996 279.122 520.939ZM279.122 36.1008C235.651 36.2667 193.037 48.2077 155.802 70.6563C118.567 93.1049 88.1005 125.223 67.6374 163.602C47.1742 201.981 37.4777 245.188 39.5769 288.637C41.6761 332.087 55.4929 374.156 79.5605 410.381C103.628 446.605 137.048 475.633 176.274 494.382C215.499 513.132 259.066 520.904 302.35 516.872C345.634 512.841 387.019 497.158 422.113 471.487C457.207 445.815 484.7 411.115 501.674 371.068C517.133 334.361 523.269 294.395 519.534 254.737C515.8 215.079 502.311 176.964 480.272 143.792C458.233 110.621 428.329 83.4259 393.23 64.6346C358.131 45.8433 318.929 36.0404 279.122 36.1008Z" fill="#5D9F44"/>
<path d="M279.226 425.929H279.122C277.71 425.929 276.285 425.929 274.886 425.87C274.413 425.857 273.964 425.656 273.638 425.312C273.313 424.968 273.137 424.509 273.15 424.035C273.163 423.561 273.364 423.112 273.708 422.787C274.052 422.461 274.511 422.285 274.984 422.298C276.35 422.338 277.743 422.357 279.122 422.357H279.213C279.687 422.357 280.14 422.545 280.475 422.88C280.81 423.215 280.998 423.669 280.998 424.143C280.998 424.617 280.81 425.071 280.475 425.406C280.14 425.741 279.687 425.929 279.213 425.929H279.226ZM287.783 425.68C287.31 425.694 286.85 425.519 286.506 425.194C286.161 424.869 285.96 424.42 285.946 423.947C285.932 423.473 286.107 423.013 286.432 422.669C286.757 422.324 287.205 422.123 287.678 422.109C289.077 422.024 290.496 421.926 291.895 421.801C292.136 421.766 292.382 421.78 292.617 421.844C292.853 421.907 293.073 422.018 293.264 422.169C293.455 422.32 293.614 422.509 293.73 422.724C293.845 422.938 293.916 423.174 293.937 423.417C293.959 423.66 293.93 423.905 293.854 424.137C293.777 424.369 293.654 424.582 293.493 424.765C293.331 424.947 293.133 425.095 292.913 425.198C292.692 425.301 292.452 425.359 292.208 425.366C290.777 425.49 289.319 425.595 287.888 425.674L287.783 425.68ZM266.401 425.386H266.251C264.813 425.261 263.362 425.118 261.936 424.954C261.466 424.899 261.036 424.66 260.742 424.288C260.448 423.916 260.313 423.443 260.368 422.972C260.422 422.501 260.662 422.071 261.033 421.777C261.405 421.482 261.878 421.348 262.348 421.402C263.734 421.566 265.153 421.703 266.551 421.827C267.01 421.867 267.435 422.082 267.739 422.427C268.043 422.773 268.201 423.222 268.182 423.682C268.162 424.142 267.966 424.576 267.635 424.895C267.303 425.214 266.861 425.392 266.401 425.392V425.386ZM300.549 424.385C300.091 424.396 299.645 424.23 299.306 423.922C298.966 423.613 298.758 423.185 298.726 422.727C298.693 422.27 298.838 421.817 299.13 421.463C299.422 421.109 299.839 420.881 300.295 420.827C301.68 420.63 303.079 420.401 304.465 420.172C304.696 420.129 304.933 420.132 305.163 420.181C305.393 420.23 305.61 420.324 305.804 420.457C305.998 420.59 306.163 420.759 306.291 420.957C306.419 421.154 306.507 421.374 306.55 421.605C306.593 421.836 306.59 422.073 306.541 422.303C306.493 422.533 306.399 422.751 306.266 422.945C306.133 423.139 305.964 423.304 305.767 423.433C305.57 423.561 305.35 423.649 305.119 423.692C303.7 423.94 302.262 424.169 300.844 424.346L300.549 424.385ZM253.674 423.731C253.572 423.74 253.469 423.74 253.367 423.731C251.948 423.482 250.517 423.214 249.111 422.926C248.881 422.881 248.661 422.79 248.466 422.659C248.27 422.528 248.102 422.36 247.972 422.164C247.842 421.968 247.751 421.748 247.706 421.517C247.661 421.286 247.662 421.049 247.709 420.818C247.756 420.587 247.848 420.368 247.98 420.173C248.112 419.978 248.281 419.812 248.477 419.682C248.674 419.553 248.894 419.464 249.125 419.42C249.356 419.376 249.594 419.378 249.824 419.427C251.197 419.702 252.595 419.97 253.981 420.212C254.422 420.288 254.818 420.527 255.09 420.881C255.363 421.236 255.493 421.68 255.455 422.126C255.416 422.571 255.212 422.986 254.882 423.288C254.552 423.59 254.121 423.758 253.674 423.757V423.731ZM313.159 421.978C312.72 421.98 312.295 421.821 311.966 421.53C311.637 421.238 311.427 420.836 311.376 420.399C311.325 419.963 311.437 419.523 311.69 419.164C311.943 418.804 312.319 418.551 312.747 418.452C314.113 418.125 315.493 417.798 316.846 417.419C317.072 417.358 317.309 417.342 317.541 417.372C317.774 417.403 317.999 417.479 318.202 417.596C318.405 417.713 318.584 417.869 318.727 418.056C318.87 418.242 318.975 418.454 319.036 418.681C319.096 418.908 319.112 419.144 319.082 419.377C319.051 419.61 318.975 419.835 318.858 420.038C318.741 420.242 318.585 420.42 318.399 420.563C318.213 420.706 318.001 420.811 317.774 420.872C316.388 421.239 314.976 421.598 313.571 421.926C313.436 421.961 313.298 421.981 313.159 421.984V421.978ZM241.136 420.977C240.98 420.976 240.824 420.957 240.672 420.918C239.293 420.552 237.894 420.153 236.508 419.741C236.278 419.679 236.062 419.572 235.873 419.425C235.685 419.279 235.528 419.096 235.411 418.887C235.295 418.679 235.221 418.449 235.195 418.212C235.169 417.974 235.19 417.734 235.258 417.505C235.327 417.276 235.44 417.063 235.592 416.879C235.744 416.695 235.931 416.543 236.143 416.432C236.355 416.322 236.586 416.255 236.824 416.236C237.062 416.216 237.301 416.245 237.528 416.32C238.881 416.719 240.247 417.105 241.6 417.464C242.021 417.575 242.386 417.835 242.628 418.196C242.87 418.557 242.972 418.994 242.915 419.425C242.858 419.856 242.646 420.252 242.319 420.537C241.991 420.823 241.571 420.979 241.136 420.977ZM325.533 418.485C325.11 418.484 324.7 418.333 324.378 418.058C324.055 417.783 323.841 417.402 323.773 416.984C323.706 416.566 323.789 416.137 324.009 415.774C324.228 415.412 324.569 415.139 324.971 415.005C326.278 414.56 327.645 414.096 328.965 413.612C329.186 413.531 329.42 413.495 329.654 413.506C329.889 413.516 330.119 413.572 330.332 413.672C330.545 413.771 330.736 413.911 330.894 414.084C331.053 414.258 331.176 414.46 331.256 414.681C331.336 414.902 331.372 415.136 331.362 415.371C331.352 415.606 331.295 415.836 331.196 416.049C331.097 416.262 330.957 416.453 330.784 416.612C330.611 416.77 330.408 416.894 330.187 416.974C328.841 417.464 327.461 417.942 326.095 418.393C325.915 418.456 325.724 418.487 325.533 418.485ZM228.919 417.177C228.71 417.177 228.502 417.142 228.305 417.072C226.945 416.575 225.579 416.058 224.245 415.528C224.024 415.444 223.822 415.318 223.65 415.155C223.479 414.993 223.341 414.798 223.245 414.581C223.15 414.365 223.098 414.132 223.093 413.896C223.088 413.659 223.13 413.424 223.217 413.204C223.303 412.984 223.432 412.783 223.597 412.614C223.762 412.444 223.959 412.309 224.176 412.216C224.393 412.123 224.627 412.074 224.863 412.072C225.1 412.071 225.334 412.116 225.553 412.205C226.86 412.722 228.167 413.232 229.514 413.71C229.91 413.852 230.243 414.129 230.455 414.493C230.666 414.858 230.742 415.285 230.67 415.699C230.597 416.114 230.38 416.49 230.057 416.76C229.735 417.031 229.327 417.178 228.906 417.177H228.919ZM337.515 413.958C337.103 413.961 336.703 413.821 336.382 413.561C336.062 413.302 335.841 412.94 335.757 412.536C335.673 412.133 335.732 411.712 335.922 411.347C336.113 410.981 336.424 410.693 336.803 410.531C338.11 409.975 339.385 409.393 340.646 408.804C340.861 408.704 341.093 408.648 341.329 408.638C341.566 408.628 341.802 408.665 342.024 408.746C342.246 408.828 342.45 408.952 342.624 409.112C342.798 409.273 342.939 409.466 343.039 409.68C343.138 409.895 343.195 410.127 343.204 410.364C343.214 410.6 343.178 410.837 343.096 411.059C343.015 411.281 342.891 411.485 342.73 411.66C342.57 411.834 342.377 411.975 342.163 412.074C340.855 412.683 339.548 413.278 338.241 413.847C337.998 413.925 337.742 413.952 337.489 413.926L337.515 413.958ZM217.022 412.231C216.763 412.231 216.506 412.176 216.27 412.068C214.963 411.46 213.656 410.825 212.348 410.178C212.139 410.072 211.952 409.926 211.799 409.748C211.646 409.57 211.529 409.364 211.456 409.141C211.382 408.918 211.354 408.683 211.371 408.449C211.388 408.215 211.452 407.987 211.557 407.777C211.663 407.567 211.809 407.381 211.986 407.227C212.164 407.074 212.37 406.957 212.593 406.884C212.816 406.81 213.051 406.782 213.285 406.799C213.519 406.816 213.747 406.88 213.956 406.985C215.211 407.64 216.493 408.235 217.767 408.83C218.14 408.998 218.444 409.29 218.627 409.656C218.811 410.022 218.862 410.44 218.773 410.84C218.684 411.24 218.46 411.596 218.138 411.85C217.817 412.103 217.418 412.238 217.009 412.231H217.022ZM349.033 408.307C348.636 408.307 348.251 408.174 347.937 407.93C347.624 407.686 347.401 407.345 347.304 406.96C347.206 406.575 347.24 406.168 347.399 405.804C347.558 405.441 347.834 405.14 348.183 404.951C349.412 404.297 350.654 403.591 351.863 402.891C352.271 402.683 352.743 402.64 353.182 402.769C353.621 402.899 353.994 403.192 354.224 403.587C354.454 403.983 354.523 404.452 354.419 404.898C354.314 405.344 354.043 405.733 353.661 405.985C352.419 406.704 351.144 407.411 349.883 408.091C349.62 408.249 349.32 408.335 349.013 408.339L349.033 408.307ZM205.622 406.272C205.307 406.273 204.998 406.189 204.726 406.03C203.478 405.311 202.223 404.565 201 403.813C200.801 403.689 200.627 403.527 200.49 403.337C200.353 403.146 200.255 402.93 200.201 402.702C200.148 402.473 200.139 402.236 200.177 402.004C200.215 401.772 200.298 401.55 200.422 401.35C200.545 401.151 200.707 400.977 200.898 400.84C201.088 400.703 201.304 400.604 201.533 400.551C201.761 400.497 201.998 400.489 202.23 400.527C202.461 400.564 202.683 400.648 202.883 400.771C204.073 401.504 205.302 402.237 206.517 402.936C206.86 403.132 207.128 403.436 207.279 403.8C207.431 404.165 207.457 404.569 207.355 404.95C207.253 405.331 207.027 405.668 206.714 405.907C206.4 406.146 206.016 406.275 205.622 406.272ZM360.034 401.739C359.652 401.737 359.281 401.612 358.976 401.383C358.67 401.154 358.446 400.833 358.336 400.467C358.226 400.101 358.237 399.709 358.366 399.349C358.495 398.99 358.736 398.681 359.054 398.469C360.217 397.703 361.394 396.905 362.545 396.101C362.736 395.966 362.953 395.87 363.182 395.819C363.411 395.768 363.647 395.763 363.878 395.803C364.109 395.843 364.33 395.929 364.528 396.055C364.726 396.18 364.897 396.344 365.032 396.536C365.167 396.728 365.262 396.945 365.313 397.174C365.364 397.403 365.37 397.639 365.33 397.87C365.289 398.102 365.204 398.322 365.078 398.521C364.952 398.719 364.789 398.89 364.597 399.025C363.42 399.856 362.218 400.673 361.021 401.458C360.724 401.659 360.374 401.769 360.015 401.772L360.034 401.739ZM194.797 399.411C194.431 399.412 194.074 399.297 193.777 399.084C192.594 398.259 191.411 397.409 190.26 396.552C190.06 396.417 189.888 396.242 189.757 396.038C189.626 395.834 189.537 395.606 189.496 395.367C189.456 395.128 189.464 394.883 189.521 394.648C189.577 394.412 189.681 394.19 189.826 393.996C189.97 393.801 190.153 393.638 190.363 393.517C190.572 393.395 190.804 393.317 191.044 393.288C191.285 393.258 191.529 393.278 191.761 393.345C191.994 393.413 192.211 393.527 192.398 393.681C193.522 394.518 194.679 395.355 195.83 396.16C196.151 396.375 196.394 396.688 196.523 397.053C196.651 397.418 196.657 397.814 196.541 398.183C196.424 398.552 196.191 398.873 195.877 399.098C195.562 399.323 195.183 399.44 194.797 399.43V399.411ZM370.441 394.269C370.069 394.272 369.705 394.158 369.4 393.943C369.096 393.728 368.867 393.423 368.744 393.071C368.622 392.719 368.612 392.338 368.717 391.98C368.822 391.623 369.036 391.307 369.33 391.077C370.434 390.207 371.533 389.311 372.598 388.415C372.96 388.11 373.429 387.961 373.901 388.001C374.373 388.042 374.81 388.268 375.115 388.631C375.42 388.993 375.569 389.462 375.528 389.935C375.488 390.407 375.261 390.844 374.899 391.149C373.801 392.072 372.677 392.987 371.546 393.883C371.222 394.138 370.82 394.275 370.408 394.269H370.441ZM184.613 391.601C184.192 391.601 183.784 391.453 183.462 391.182C182.357 390.26 181.253 389.305 180.194 388.356C179.862 388.035 179.667 387.597 179.65 387.135C179.632 386.673 179.794 386.222 180.101 385.877C180.409 385.532 180.837 385.318 181.298 385.282C181.759 385.245 182.215 385.388 182.573 385.681C183.626 386.616 184.698 387.545 185.776 388.441C186.059 388.676 186.263 388.993 186.359 389.349C186.455 389.704 186.439 390.08 186.313 390.426C186.187 390.772 185.957 391.071 185.655 391.281C185.353 391.491 184.993 391.603 184.626 391.601H184.613ZM380.148 385.89C379.79 385.892 379.439 385.785 379.142 385.584C378.845 385.384 378.616 385.098 378.483 384.765C378.35 384.432 378.321 384.067 378.399 383.717C378.477 383.367 378.658 383.048 378.919 382.803C379.939 381.841 380.959 380.84 381.952 379.859C382.287 379.523 382.741 379.335 383.215 379.334C383.689 379.333 384.143 379.521 384.479 379.856C384.814 380.191 385.003 380.645 385.004 381.119C385.004 381.593 384.817 382.048 384.482 382.384C383.462 383.405 382.416 384.418 381.377 385.4C381.037 385.722 380.584 385.898 380.115 385.89H380.148ZM175.147 382.94C174.912 382.941 174.678 382.896 174.461 382.806C174.243 382.716 174.045 382.584 173.879 382.417C172.859 381.403 171.846 380.363 170.859 379.323C170.698 379.151 170.572 378.949 170.488 378.729C170.405 378.508 170.366 378.273 170.373 378.038C170.38 377.802 170.434 377.57 170.531 377.355C170.628 377.14 170.766 376.946 170.938 376.785C171.109 376.623 171.311 376.497 171.531 376.414C171.752 376.33 171.986 376.291 172.222 376.298C172.457 376.306 172.689 376.359 172.904 376.456C173.119 376.553 173.312 376.692 173.474 376.863C174.435 377.884 175.435 378.898 176.422 379.892C176.588 380.057 176.72 380.254 176.811 380.471C176.901 380.687 176.947 380.92 176.947 381.154C176.947 381.389 176.901 381.621 176.811 381.838C176.72 382.055 176.588 382.251 176.422 382.417C176.252 382.59 176.048 382.726 175.823 382.816C175.598 382.906 175.357 382.948 175.115 382.94H175.147ZM389.091 376.7C388.749 376.693 388.417 376.588 388.133 376.399C387.849 376.209 387.625 375.942 387.488 375.629C387.35 375.316 387.305 374.971 387.358 374.633C387.41 374.296 387.558 373.98 387.783 373.724C388.718 372.677 389.646 371.604 390.548 370.525C390.853 370.161 391.291 369.933 391.764 369.891C392.237 369.849 392.707 369.997 393.071 370.303C393.436 370.608 393.663 371.045 393.705 371.519C393.747 371.992 393.599 372.463 393.294 372.827C392.365 373.926 391.411 375.032 390.457 376.098C390.283 376.296 390.067 376.452 389.825 376.556C389.583 376.66 389.321 376.709 389.058 376.7H389.091ZM166.434 373.501C166.172 373.499 165.914 373.44 165.678 373.327C165.441 373.214 165.233 373.05 165.068 372.847C164.139 371.748 163.218 370.623 162.329 369.498C162.183 369.314 162.075 369.103 162.011 368.877C161.947 368.651 161.928 368.414 161.956 368.181C161.983 367.948 162.056 367.722 162.171 367.517C162.285 367.312 162.439 367.132 162.623 366.986C162.807 366.841 163.018 366.733 163.244 366.669C163.469 366.605 163.706 366.586 163.939 366.613C164.172 366.64 164.397 366.713 164.602 366.828C164.807 366.942 164.987 367.096 165.133 367.28C166.002 368.373 166.904 369.472 167.806 370.551C168.023 370.813 168.162 371.13 168.205 371.468C168.248 371.805 168.195 372.147 168.051 372.455C167.907 372.763 167.678 373.024 167.392 373.206C167.106 373.389 166.773 373.487 166.434 373.488V373.501ZM397.183 366.764C396.851 366.765 396.526 366.673 396.243 366.499C395.96 366.325 395.732 366.075 395.583 365.778C395.434 365.481 395.371 365.148 395.401 364.818C395.431 364.487 395.552 364.171 395.752 363.905C396.595 362.78 397.425 361.629 398.236 360.484C398.519 360.125 398.929 359.889 399.381 359.823C399.834 359.756 400.294 359.866 400.668 360.128C401.043 360.391 401.302 360.787 401.395 361.235C401.487 361.683 401.404 362.149 401.164 362.538C400.34 363.709 399.484 364.893 398.621 366.044C398.453 366.269 398.235 366.451 397.984 366.576C397.734 366.701 397.457 366.765 397.177 366.764H397.183ZM158.59 363.349C158.301 363.35 158.017 363.282 157.761 363.15C157.505 363.018 157.285 362.826 157.119 362.59C156.295 361.413 155.478 360.216 154.687 359.019C154.465 358.623 154.402 358.158 154.509 357.717C154.617 357.276 154.887 356.893 155.266 356.644C155.645 356.395 156.105 356.299 156.552 356.376C156.998 356.452 157.4 356.696 157.674 357.057C158.446 358.221 159.243 359.398 160.047 360.543C160.183 360.735 160.279 360.952 160.331 361.181C160.383 361.41 160.389 361.647 160.348 361.879C160.308 362.11 160.223 362.332 160.097 362.53C159.972 362.729 159.808 362.9 159.616 363.035C159.321 363.236 158.973 363.346 158.616 363.349H158.59ZM404.374 356.154C404.041 356.152 403.716 356.06 403.432 355.886C403.232 355.763 403.058 355.602 402.92 355.412C402.782 355.222 402.683 355.006 402.629 354.777C402.575 354.549 402.567 354.312 402.605 354.08C402.643 353.848 402.726 353.626 402.851 353.426C403.589 352.229 404.321 351.013 405.027 349.796C405.275 349.406 405.664 349.127 406.113 349.018C406.561 348.908 407.035 348.976 407.434 349.207C407.834 349.438 408.129 349.815 408.258 350.259C408.387 350.702 408.339 351.179 408.126 351.588C407.4 352.831 406.655 354.08 405.897 355.304C405.74 355.56 405.521 355.773 405.261 355.923C405 356.072 404.707 356.154 404.406 356.16L404.374 356.154ZM151.706 352.569C151.393 352.57 151.084 352.489 150.812 352.333C150.54 352.176 150.314 351.951 150.157 351.68C149.438 350.437 148.725 349.175 148.046 347.912C147.82 347.495 147.77 347.005 147.905 346.551C148.041 346.096 148.351 345.714 148.768 345.489C149.185 345.263 149.674 345.212 150.129 345.348C150.583 345.484 150.964 345.794 151.19 346.211C151.844 347.441 152.55 348.677 153.255 349.888C153.411 350.16 153.492 350.468 153.492 350.781C153.491 351.095 153.408 351.403 153.251 351.674C153.094 351.945 152.869 352.171 152.598 352.328C152.327 352.485 152.02 352.568 151.706 352.569ZM410.682 344.969C410.402 344.968 410.126 344.901 409.878 344.772C409.668 344.668 409.48 344.523 409.327 344.346C409.173 344.169 409.055 343.964 408.981 343.741C408.907 343.519 408.878 343.284 408.895 343.05C408.912 342.816 408.975 342.588 409.08 342.378C409.734 341.129 410.335 339.847 410.93 338.571C411.13 338.138 411.494 337.801 411.943 337.636C412.391 337.471 412.886 337.491 413.319 337.691C413.753 337.892 414.089 338.256 414.254 338.705C414.419 339.153 414.399 339.649 414.198 340.082C413.591 341.391 412.95 342.699 412.303 344.007C412.149 344.302 411.915 344.548 411.629 344.717C411.342 344.885 411.014 344.97 410.682 344.962V344.969ZM145.771 341.227C145.43 341.228 145.096 341.132 144.809 340.948C144.521 340.765 144.293 340.503 144.15 340.193C143.542 338.885 142.94 337.577 142.372 336.269C142.238 335.846 142.266 335.389 142.45 334.986C142.634 334.582 142.96 334.262 143.367 334.085C143.773 333.909 144.23 333.889 144.65 334.03C145.07 334.171 145.423 334.463 145.64 334.849C146.196 336.158 146.778 337.427 147.372 338.689C147.472 338.902 147.528 339.132 147.538 339.366C147.549 339.601 147.513 339.835 147.433 340.055C147.353 340.276 147.23 340.478 147.071 340.651C146.913 340.824 146.722 340.964 146.51 341.063C146.278 341.171 146.026 341.227 145.771 341.227ZM415.95 333.253C415.726 333.251 415.504 333.206 415.297 333.122C415.078 333.037 414.878 332.908 414.709 332.745C414.54 332.581 414.406 332.386 414.313 332.17C414.22 331.954 414.17 331.722 414.168 331.487C414.165 331.252 414.209 331.018 414.296 330.8C414.813 329.492 415.323 328.184 415.8 326.876C415.974 326.447 416.308 326.102 416.73 325.914C417.153 325.726 417.632 325.709 418.067 325.866C418.502 326.023 418.86 326.343 419.065 326.758C419.269 327.173 419.306 327.651 419.166 328.092C418.676 329.446 418.153 330.813 417.624 332.148C417.485 332.477 417.252 332.758 416.955 332.955C416.657 333.151 416.307 333.255 415.95 333.253ZM140.849 329.42C140.482 329.419 140.125 329.305 139.824 329.095C139.524 328.884 139.295 328.587 139.169 328.243C138.678 326.895 138.195 325.522 137.744 324.161C137.612 323.715 137.659 323.235 137.875 322.823C138.09 322.411 138.458 322.099 138.899 321.952C139.34 321.806 139.821 321.838 140.24 322.04C140.659 322.242 140.982 322.599 141.143 323.036C141.581 324.344 142.051 325.698 142.535 327.02C142.695 327.465 142.672 327.957 142.471 328.386C142.27 328.815 141.908 329.147 141.463 329.309C141.267 329.384 141.059 329.422 140.849 329.42ZM420.167 321.132C419.994 321.131 419.823 321.107 419.657 321.061C419.203 320.924 418.822 320.614 418.596 320.197C418.371 319.78 418.32 319.291 418.454 318.837C418.853 317.496 419.238 316.128 419.604 314.774C419.656 314.538 419.756 314.315 419.896 314.118C420.037 313.921 420.216 313.754 420.422 313.629C420.629 313.503 420.859 313.42 421.098 313.385C421.337 313.351 421.581 313.365 421.815 313.428C422.049 313.49 422.267 313.599 422.458 313.748C422.648 313.897 422.806 314.084 422.923 314.296C423.04 314.508 423.112 314.741 423.136 314.982C423.16 315.223 423.135 315.466 423.062 315.697C422.69 317.084 422.291 318.49 421.886 319.857C421.775 320.226 421.547 320.55 421.237 320.78C420.928 321.01 420.552 321.133 420.167 321.132ZM136.979 317.208C136.588 317.209 136.207 317.082 135.895 316.845C135.583 316.609 135.358 316.277 135.253 315.9C134.881 314.513 134.521 313.1 134.188 311.707C134.086 311.248 134.17 310.767 134.419 310.369C134.669 309.971 135.065 309.686 135.522 309.577C135.979 309.468 136.46 309.543 136.862 309.786C137.264 310.029 137.555 310.421 137.672 310.876C137.999 312.243 138.325 313.617 138.711 314.971C138.833 315.43 138.768 315.918 138.53 316.329C138.292 316.74 137.901 317.039 137.443 317.162C137.29 317.194 137.135 317.207 136.979 317.201V317.208ZM423.291 308.704C423.168 308.703 423.046 308.692 422.925 308.672C422.461 308.575 422.054 308.299 421.793 307.903C421.532 307.507 421.438 307.024 421.533 306.559C421.814 305.185 422.082 303.792 422.324 302.412C422.427 301.966 422.698 301.576 423.08 301.324C423.461 301.071 423.925 300.974 424.376 301.053C424.827 301.131 425.23 301.38 425.504 301.747C425.777 302.114 425.9 302.572 425.847 303.027C425.599 304.446 425.331 305.872 425.036 307.278C424.955 307.679 424.739 308.039 424.423 308.299C424.108 308.559 423.713 308.702 423.304 308.704H423.291ZM134.181 304.695C133.762 304.692 133.356 304.543 133.035 304.273C132.714 304.003 132.497 303.629 132.423 303.216C132.174 301.81 131.945 300.371 131.73 298.945C131.677 298.482 131.807 298.017 132.091 297.649C132.374 297.28 132.791 297.036 133.251 296.969C133.711 296.902 134.18 297.016 134.557 297.289C134.935 297.561 135.191 297.97 135.273 298.428C135.482 299.821 135.704 301.221 135.926 302.595C135.968 302.826 135.963 303.063 135.912 303.292C135.861 303.522 135.766 303.739 135.631 303.931C135.496 304.123 135.325 304.286 135.126 304.412C134.928 304.537 134.707 304.622 134.475 304.662C134.383 304.68 134.289 304.691 134.194 304.695H134.181ZM425.331 296.054H425.121C424.654 295.999 424.227 295.763 423.934 295.395C423.64 295.028 423.503 294.559 423.553 294.091C423.71 292.705 423.853 291.292 423.977 289.892C424.044 289.44 424.28 289.03 424.638 288.747C424.996 288.463 425.449 288.327 425.904 288.366C426.358 288.406 426.781 288.617 427.085 288.958C427.389 289.299 427.552 289.743 427.54 290.199C427.416 291.632 427.272 293.077 427.109 294.503C427.049 294.933 426.836 295.326 426.509 295.611C426.182 295.896 425.764 296.053 425.331 296.054ZM132.521 291.985C132.075 291.985 131.644 291.818 131.315 291.516C130.986 291.215 130.782 290.801 130.743 290.356C130.619 288.93 130.507 287.478 130.422 286.046C130.396 285.57 130.56 285.104 130.878 284.75C131.195 284.395 131.64 284.181 132.115 284.155C132.59 284.129 133.056 284.293 133.411 284.611C133.765 284.929 133.979 285.374 134.005 285.849C134.09 287.249 134.194 288.662 134.312 290.055C134.337 290.292 134.315 290.531 134.246 290.758C134.177 290.986 134.064 291.197 133.912 291.38C133.76 291.563 133.573 291.714 133.363 291.823C133.152 291.933 132.921 291.999 132.684 292.018L132.521 291.985ZM426.246 283.272H426.2C425.966 283.265 425.735 283.212 425.521 283.116C425.307 283.02 425.114 282.883 424.953 282.712C424.792 282.542 424.667 282.341 424.583 282.122C424.5 281.902 424.461 281.669 424.468 281.434C424.507 280.034 424.527 278.615 424.527 277.215V276.855C424.554 276.399 424.754 275.971 425.087 275.658C425.419 275.345 425.858 275.171 426.314 275.171C426.771 275.171 427.21 275.345 427.542 275.658C427.874 275.971 428.075 276.399 428.102 276.855V277.222C428.102 278.661 428.102 280.113 428.043 281.552C428.026 282.016 427.829 282.456 427.493 282.777C427.158 283.098 426.71 283.276 426.246 283.272ZM131.959 279.184C131.485 279.184 131.03 278.996 130.694 278.661C130.359 278.327 130.169 277.872 130.167 277.398V277.222C130.167 275.841 130.167 274.455 130.226 273.074C130.264 272.617 130.474 272.192 130.816 271.886C131.157 271.579 131.602 271.416 132.061 271.428C132.519 271.441 132.955 271.629 133.279 271.953C133.603 272.278 133.79 272.714 133.802 273.173C133.763 274.514 133.75 275.874 133.75 277.215V277.398C133.748 277.872 133.558 278.327 133.223 278.661C132.887 278.996 132.432 279.184 131.959 279.184ZM426.043 270.092C425.587 270.092 425.149 269.919 424.817 269.606C424.485 269.294 424.285 268.866 424.259 268.411C424.174 267.011 424.069 265.591 423.945 264.205C423.928 263.746 424.088 263.299 424.392 262.955C424.695 262.611 425.118 262.397 425.574 262.356C426.031 262.315 426.486 262.45 426.845 262.735C427.205 263.019 427.442 263.43 427.507 263.884C427.638 265.31 427.743 266.762 427.828 268.201C427.854 268.675 427.693 269.139 427.378 269.494C427.063 269.848 426.621 270.063 426.148 270.092H426.043ZM132.495 266.383H132.338C132.102 266.362 131.872 266.295 131.662 266.185C131.452 266.075 131.266 265.924 131.114 265.742C130.963 265.559 130.849 265.349 130.78 265.122C130.71 264.895 130.687 264.657 130.71 264.42C130.828 262.995 130.972 261.549 131.135 260.123C131.189 259.65 131.428 259.218 131.8 258.922C132.172 258.626 132.646 258.489 133.119 258.543C133.591 258.597 134.023 258.836 134.319 259.209C134.615 259.581 134.751 260.056 134.697 260.529C134.534 261.922 134.397 263.335 134.273 264.728C134.24 265.177 134.038 265.598 133.708 265.905C133.378 266.212 132.945 266.382 132.495 266.383ZM424.723 257.349C424.293 257.349 423.878 257.195 423.553 256.914C423.227 256.633 423.014 256.244 422.951 255.819C422.749 254.439 422.52 253.032 422.298 251.659C422.211 251.191 422.313 250.708 422.582 250.316C422.852 249.924 423.265 249.655 423.732 249.569C424.2 249.482 424.682 249.585 425.074 249.854C425.465 250.123 425.734 250.537 425.821 251.005C426.076 252.417 426.311 253.85 426.52 255.276C426.555 255.508 426.543 255.745 426.485 255.973C426.428 256.201 426.326 256.415 426.186 256.603C426.046 256.792 425.869 256.951 425.668 257.071C425.466 257.191 425.243 257.27 425.01 257.304L424.723 257.349ZM134.135 253.673C134.033 253.683 133.93 253.683 133.828 253.673C133.597 253.634 133.375 253.549 133.176 253.423C132.978 253.298 132.806 253.135 132.67 252.943C132.535 252.751 132.439 252.534 132.387 252.304C132.336 252.075 132.33 251.838 132.37 251.606C132.619 250.193 132.887 248.767 133.174 247.355C133.274 246.894 133.551 246.491 133.946 246.234C134.34 245.976 134.82 245.884 135.281 245.978C135.743 246.072 136.149 246.344 136.411 246.735C136.674 247.126 136.772 247.605 136.685 248.068C136.404 249.448 136.136 250.841 135.9 252.221C135.821 252.631 135.601 253 135.279 253.265C134.957 253.531 134.552 253.675 134.135 253.673ZM422.278 244.764C421.876 244.765 421.485 244.629 421.17 244.38C420.854 244.131 420.632 243.782 420.539 243.391C420.212 242.037 419.885 240.663 419.5 239.302C419.439 239.076 419.423 238.839 419.454 238.606C419.484 238.373 419.56 238.149 419.677 237.945C419.794 237.742 419.95 237.563 420.136 237.42C420.322 237.277 420.535 237.172 420.761 237.111C420.988 237.05 421.224 237.034 421.457 237.065C421.69 237.095 421.914 237.171 422.118 237.288C422.321 237.406 422.499 237.562 422.642 237.748C422.785 237.934 422.89 238.147 422.951 238.374C423.33 239.76 423.69 241.173 424.017 242.566C424.072 242.794 424.083 243.03 424.047 243.261C424.011 243.492 423.93 243.714 423.809 243.914C423.688 244.114 423.528 244.288 423.339 244.426C423.151 244.564 422.936 244.663 422.709 244.718C422.568 244.75 422.423 244.766 422.278 244.764ZM136.874 241.154C136.718 241.153 136.562 241.133 136.41 241.095C136.183 241.035 135.971 240.93 135.784 240.788C135.598 240.646 135.441 240.468 135.324 240.265C135.206 240.062 135.129 239.838 135.098 239.606C135.067 239.373 135.082 239.137 135.142 238.91C135.508 237.523 135.907 236.123 136.319 234.743C136.466 234.302 136.779 233.936 137.191 233.721C137.603 233.507 138.082 233.461 138.527 233.593C138.973 233.726 139.349 234.026 139.577 234.431C139.806 234.836 139.868 235.314 139.75 235.764C139.345 237.111 138.959 238.478 138.6 239.826C138.501 240.205 138.279 240.541 137.969 240.781C137.659 241.021 137.279 241.152 136.887 241.154H136.874ZM418.755 232.441C418.379 232.442 418.013 232.326 417.708 232.107C417.403 231.889 417.175 231.58 417.055 231.224C416.611 229.916 416.14 228.555 415.656 227.24C415.493 226.794 415.514 226.301 415.715 225.869C415.915 225.438 416.278 225.104 416.725 224.941C417.171 224.778 417.664 224.799 418.095 225C418.526 225.2 418.86 225.564 419.023 226.011C419.513 227.358 419.997 228.732 420.454 230.092C420.529 230.315 420.559 230.55 420.542 230.784C420.526 231.018 420.463 231.246 420.358 231.456C420.253 231.666 420.107 231.853 419.93 232.006C419.752 232.159 419.546 232.276 419.323 232.349C419.144 232.41 418.957 232.441 418.768 232.441H418.755ZM140.724 228.941C140.517 228.941 140.312 228.906 140.117 228.836C139.896 228.757 139.693 228.634 139.519 228.476C139.346 228.318 139.205 228.127 139.106 227.914C139.006 227.702 138.95 227.471 138.939 227.237C138.929 227.002 138.964 226.768 139.044 226.547C139.535 225.193 140.051 223.833 140.581 222.492C140.655 222.258 140.777 222.043 140.939 221.858C141.1 221.674 141.297 221.525 141.518 221.42C141.74 221.315 141.98 221.256 142.225 221.248C142.469 221.24 142.713 221.281 142.941 221.371C143.169 221.461 143.376 221.596 143.55 221.769C143.723 221.942 143.859 222.148 143.95 222.376C144.041 222.604 144.084 222.847 144.076 223.092C144.069 223.337 144.012 223.578 143.908 223.8C143.391 225.108 142.888 226.416 142.404 227.757C142.28 228.104 142.052 228.403 141.752 228.615C141.451 228.827 141.092 228.941 140.724 228.941ZM414.179 220.503C413.83 220.505 413.489 220.404 413.197 220.213C412.906 220.023 412.676 219.75 412.538 219.43C411.976 218.122 411.394 216.86 410.799 215.597C410.598 215.163 410.577 214.668 410.742 214.219C410.906 213.77 411.242 213.404 411.675 213.203C412.109 213.002 412.604 212.981 413.053 213.146C413.502 213.31 413.867 213.646 414.068 214.08C414.676 215.388 415.27 216.696 415.846 218.004C415.94 218.22 415.991 218.452 415.995 218.687C415.999 218.922 415.957 219.156 415.871 219.375C415.784 219.594 415.656 219.793 415.492 219.962C415.329 220.131 415.133 220.266 414.917 220.359C414.683 220.453 414.431 220.497 414.179 220.49V220.503ZM145.634 217.075C145.334 217.073 145.04 216.996 144.777 216.85C144.515 216.705 144.294 216.497 144.133 216.244C143.971 215.991 143.876 215.702 143.855 215.403C143.834 215.103 143.888 214.804 144.012 214.531C144.627 213.223 145.261 211.914 145.902 210.606C146.121 210.193 146.493 209.882 146.938 209.74C147.383 209.597 147.866 209.634 148.285 209.844C148.703 210.053 149.022 210.417 149.176 210.859C149.329 211.301 149.303 211.785 149.105 212.209C148.451 213.452 147.856 214.734 147.261 216.016C147.117 216.327 146.888 216.591 146.599 216.776C146.311 216.961 145.976 217.061 145.634 217.062V217.075ZM408.551 208.997C408.228 208.997 407.912 208.91 407.635 208.745C407.358 208.581 407.13 208.345 406.975 208.062C406.322 206.832 405.609 205.596 404.91 204.392C404.775 204.189 404.684 203.96 404.642 203.72C404.599 203.48 404.606 203.233 404.661 202.996C404.717 202.758 404.821 202.535 404.966 202.339C405.111 202.143 405.294 201.979 405.505 201.856C405.715 201.734 405.949 201.655 406.191 201.626C406.433 201.597 406.678 201.618 406.912 201.687C407.146 201.756 407.363 201.872 407.55 202.027C407.737 202.183 407.891 202.376 408.002 202.593C408.721 203.83 409.433 205.099 410.119 206.354C410.262 206.626 410.332 206.929 410.324 207.236C410.315 207.542 410.228 207.841 410.07 208.104C409.912 208.367 409.69 208.585 409.424 208.737C409.158 208.888 408.857 208.969 408.551 208.971V208.997ZM151.549 205.674C151.237 205.672 150.93 205.588 150.66 205.43C150.39 205.273 150.165 205.047 150.009 204.776C149.853 204.505 149.771 204.197 149.77 203.885C149.77 203.572 149.851 203.264 150.007 202.992C150.726 201.743 151.471 200.494 152.229 199.27C152.49 198.892 152.885 198.628 153.335 198.533C153.784 198.438 154.253 198.52 154.644 198.761C155.035 199.002 155.318 199.384 155.436 199.828C155.553 200.272 155.496 200.745 155.275 201.148C154.537 202.338 153.811 203.561 153.105 204.778C152.949 205.049 152.724 205.275 152.453 205.432C152.183 205.589 151.875 205.673 151.562 205.674H151.549ZM401.948 198.028C401.652 198.028 401.36 197.955 401.099 197.814C400.837 197.674 400.615 197.471 400.452 197.223C399.68 196.059 398.876 194.881 398.072 193.743C397.819 193.354 397.726 192.882 397.814 192.426C397.902 191.97 398.163 191.566 398.543 191.299C398.922 191.031 399.391 190.922 399.849 190.994C400.308 191.065 400.72 191.312 401.001 191.683C401.824 192.853 402.648 194.057 403.439 195.254C403.615 195.524 403.716 195.836 403.729 196.158C403.743 196.48 403.67 196.8 403.517 197.084C403.365 197.368 403.139 197.606 402.863 197.772C402.586 197.938 402.271 198.026 401.948 198.028ZM158.452 194.855C158.086 194.856 157.73 194.742 157.433 194.528C157.044 194.257 156.779 193.843 156.696 193.377C156.613 192.911 156.718 192.431 156.988 192.042C157.812 190.872 158.668 189.688 159.524 188.53C159.814 188.168 160.233 187.932 160.692 187.873C161.151 187.813 161.616 187.934 161.988 188.21C162.361 188.486 162.612 188.896 162.688 189.353C162.765 189.81 162.662 190.28 162.4 190.662C161.557 191.794 160.727 192.945 159.923 194.09C159.759 194.325 159.541 194.517 159.288 194.651C159.034 194.784 158.752 194.854 158.465 194.855H158.452ZM394.431 187.66C394.163 187.662 393.898 187.605 393.655 187.491C393.412 187.378 393.197 187.212 393.026 187.006C392.156 185.913 391.261 184.814 390.352 183.735C390.076 183.369 389.951 182.91 390.003 182.454C390.055 181.998 390.279 181.579 390.63 181.284C390.982 180.989 391.433 180.84 391.89 180.867C392.348 180.895 392.778 181.097 393.091 181.433C394.019 182.531 394.941 183.657 395.83 184.775C396.038 185.039 396.169 185.356 396.206 185.69C396.242 186.024 396.185 186.362 396.039 186.665C395.893 186.968 395.665 187.224 395.38 187.403C395.096 187.583 394.767 187.678 394.431 187.679V187.66ZM166.296 184.67C165.957 184.669 165.624 184.572 165.338 184.389C165.052 184.206 164.823 183.945 164.679 183.638C164.536 183.33 164.482 182.987 164.525 182.65C164.569 182.313 164.707 181.995 164.924 181.733C165.852 180.635 166.806 179.529 167.754 178.463C168.068 178.107 168.51 177.891 168.983 177.861C169.456 177.832 169.922 177.992 170.277 178.306C170.633 178.62 170.849 179.062 170.878 179.536C170.908 180.009 170.748 180.475 170.434 180.831C169.499 181.877 168.571 182.957 167.669 184.029C167.501 184.234 167.289 184.398 167.049 184.51C166.81 184.622 166.548 184.679 166.283 184.677L166.296 184.67ZM386.025 177.985C385.78 177.986 385.538 177.937 385.313 177.84C385.088 177.743 384.885 177.601 384.717 177.423C383.75 176.402 382.756 175.389 381.769 174.401C381.603 174.235 381.471 174.038 381.381 173.821C381.291 173.605 381.245 173.372 381.244 173.137C381.244 172.903 381.29 172.67 381.38 172.453C381.469 172.236 381.6 172.039 381.766 171.873C381.932 171.706 382.128 171.574 382.345 171.484C382.562 171.394 382.794 171.348 383.029 171.347C383.263 171.347 383.496 171.393 383.712 171.483C383.929 171.572 384.126 171.704 384.293 171.869C385.312 172.883 386.325 173.923 387.319 174.97C387.557 175.225 387.716 175.544 387.775 175.888C387.834 176.232 387.792 176.586 387.653 176.906C387.514 177.227 387.285 177.499 386.993 177.691C386.702 177.883 386.361 177.985 386.012 177.985H386.025ZM174.964 175.212C174.612 175.21 174.269 175.104 173.976 174.908C173.684 174.712 173.456 174.434 173.32 174.109C173.185 173.783 173.149 173.425 173.215 173.079C173.282 172.734 173.449 172.415 173.696 172.164C174.709 171.15 175.755 170.136 176.801 169.148C176.973 168.987 177.175 168.861 177.395 168.777C177.615 168.694 177.85 168.655 178.085 168.662C178.321 168.669 178.553 168.723 178.768 168.82C178.982 168.917 179.176 169.055 179.337 169.227C179.499 169.399 179.625 169.6 179.708 169.821C179.792 170.042 179.831 170.276 179.823 170.512C179.816 170.748 179.763 170.98 179.666 171.195C179.569 171.409 179.431 171.603 179.259 171.765C178.239 172.726 177.219 173.727 176.232 174.708C175.889 175.041 175.429 175.224 174.951 175.218L174.964 175.212ZM376.801 169.07C376.363 169.07 375.94 168.909 375.612 168.618C374.559 167.683 373.487 166.761 372.409 165.858C372.214 165.712 372.052 165.527 371.931 165.316C371.811 165.104 371.734 164.871 371.707 164.629C371.679 164.387 371.702 164.142 371.772 163.909C371.842 163.676 371.959 163.46 372.115 163.274C372.272 163.088 372.464 162.935 372.682 162.826C372.899 162.716 373.136 162.652 373.379 162.638C373.622 162.623 373.865 162.658 374.093 162.74C374.322 162.823 374.532 162.951 374.71 163.117C375.808 164.04 376.912 164.988 377.978 165.943C378.251 166.183 378.444 166.501 378.532 166.855C378.619 167.208 378.597 167.579 378.467 167.919C378.338 168.26 378.108 168.552 377.808 168.758C377.508 168.963 377.152 169.072 376.788 169.07H376.801ZM184.403 166.551C184.037 166.553 183.678 166.442 183.377 166.233C183.075 166.023 182.846 165.726 182.719 165.381C182.593 165.037 182.576 164.661 182.67 164.307C182.764 163.952 182.965 163.635 183.246 163.399C184.345 162.476 185.469 161.554 186.6 160.658C186.973 160.391 187.434 160.278 187.889 160.342C188.343 160.405 188.755 160.641 189.041 161C189.327 161.359 189.464 161.814 189.425 162.271C189.385 162.728 189.172 163.153 188.829 163.457C187.724 164.334 186.626 165.23 185.56 166.133C185.237 166.405 184.826 166.554 184.403 166.551ZM366.82 160.985C366.437 160.985 366.064 160.864 365.754 160.638C364.63 159.801 363.473 158.97 362.322 158.166C362.115 158.037 361.936 157.868 361.796 157.668C361.656 157.468 361.559 157.241 361.509 157.002C361.46 156.763 361.46 156.517 361.51 156.278C361.559 156.039 361.657 155.812 361.797 155.612C361.937 155.412 362.116 155.243 362.324 155.115C362.532 154.987 362.763 154.903 363.005 154.867C363.246 154.832 363.492 154.847 363.728 154.91C363.963 154.973 364.184 155.084 364.375 155.235C365.551 156.059 366.741 156.91 367.892 157.767C368.193 157.991 368.416 158.305 368.529 158.664C368.641 159.022 368.638 159.407 368.519 159.764C368.4 160.12 368.172 160.43 367.867 160.65C367.562 160.869 367.195 160.986 366.82 160.985ZM194.568 158.735C194.182 158.744 193.803 158.627 193.488 158.402C193.174 158.177 192.941 157.856 192.824 157.488C192.708 157.119 192.714 156.722 192.842 156.357C192.971 155.992 193.214 155.679 193.535 155.464C194.712 154.64 195.915 153.822 197.111 153.031C197.506 152.784 197.982 152.702 198.437 152.802C198.892 152.902 199.29 153.176 199.546 153.565C199.802 153.954 199.895 154.428 199.807 154.886C199.718 155.343 199.455 155.748 199.072 156.014C197.902 156.785 196.725 157.583 195.581 158.388C195.287 158.605 194.934 158.726 194.568 158.735ZM356.184 153.796C355.854 153.797 355.53 153.704 355.249 153.528C354.047 152.789 352.824 152.063 351.608 151.363C351.405 151.245 351.228 151.089 351.085 150.902C350.942 150.716 350.838 150.503 350.778 150.276C350.717 150.049 350.702 149.813 350.733 149.58C350.764 149.347 350.84 149.123 350.958 148.92C351.076 148.717 351.232 148.539 351.418 148.396C351.605 148.253 351.817 148.149 352.044 148.088C352.271 148.028 352.507 148.013 352.74 148.044C352.972 148.075 353.197 148.151 353.4 148.269C354.642 148.982 355.897 149.728 357.126 150.486C357.326 150.609 357.5 150.77 357.638 150.96C357.776 151.15 357.875 151.365 357.93 151.594C357.984 151.822 357.993 152.059 357.956 152.291C357.919 152.523 357.837 152.746 357.714 152.946C357.551 153.205 357.326 153.419 357.059 153.568C356.791 153.717 356.49 153.795 356.184 153.796ZM205.367 151.834C204.975 151.832 204.594 151.702 204.283 151.462C203.972 151.223 203.748 150.888 203.646 150.51C203.544 150.131 203.568 149.729 203.716 149.365C203.864 149.002 204.127 148.697 204.465 148.498C205.707 147.778 206.975 147.072 208.237 146.385C208.444 146.258 208.675 146.174 208.915 146.14C209.156 146.105 209.401 146.119 209.636 146.182C209.871 146.245 210.09 146.356 210.281 146.506C210.472 146.657 210.63 146.845 210.746 147.059C210.862 147.272 210.933 147.508 210.956 147.75C210.978 147.992 210.95 148.236 210.875 148.468C210.8 148.699 210.679 148.913 210.518 149.095C210.358 149.278 210.162 149.427 209.943 149.531C208.714 150.185 207.478 150.885 206.262 151.592C205.991 151.751 205.682 151.834 205.367 151.834ZM344.954 147.549C344.677 147.55 344.404 147.485 344.156 147.36C342.901 146.705 341.614 146.117 340.339 145.522C340.127 145.422 339.936 145.282 339.777 145.109C339.619 144.936 339.496 144.734 339.416 144.513C339.336 144.293 339.3 144.059 339.31 143.824C339.321 143.59 339.377 143.36 339.476 143.147C339.575 142.934 339.715 142.743 339.888 142.585C340.061 142.427 340.264 142.304 340.484 142.224C340.704 142.143 340.938 142.107 341.172 142.118C341.407 142.128 341.637 142.184 341.849 142.284C343.156 142.885 344.464 143.52 345.771 144.168C346.13 144.348 346.418 144.645 346.588 145.009C346.758 145.374 346.8 145.785 346.707 146.177C346.614 146.568 346.391 146.917 346.076 147.166C345.76 147.415 345.369 147.55 344.967 147.549H344.954ZM216.721 145.901C216.313 145.904 215.917 145.767 215.598 145.512C215.278 145.258 215.056 144.902 214.967 144.503C214.878 144.105 214.929 143.688 215.11 143.322C215.291 142.956 215.592 142.664 215.963 142.493C217.27 141.885 218.578 141.289 219.885 140.72C220.102 140.614 220.337 140.553 220.578 140.54C220.819 140.528 221.06 140.564 221.286 140.648C221.512 140.731 221.719 140.859 221.895 141.024C222.07 141.19 222.21 141.389 222.306 141.61C222.403 141.831 222.453 142.07 222.455 142.311C222.457 142.552 222.41 142.791 222.317 143.013C222.224 143.236 222.086 143.437 221.913 143.605C221.74 143.773 221.535 143.904 221.31 143.991C220.003 144.547 218.735 145.129 217.467 145.724C217.233 145.835 216.979 145.895 216.721 145.901ZM333.22 142.31C332.997 142.31 332.775 142.267 332.567 142.186C331.259 141.669 329.952 141.165 328.599 140.688C328.378 140.607 328.176 140.484 328.003 140.326C327.829 140.167 327.689 139.976 327.59 139.763C327.491 139.55 327.434 139.319 327.424 139.085C327.414 138.85 327.45 138.616 327.53 138.395C327.61 138.174 327.733 137.971 327.892 137.798C328.05 137.625 328.242 137.485 328.454 137.385C328.667 137.286 328.897 137.23 329.132 137.219C329.366 137.209 329.601 137.245 329.821 137.325C331.174 137.816 332.547 138.333 333.887 138.863C334.274 139.015 334.595 139.298 334.796 139.662C334.996 140.026 335.064 140.448 334.986 140.857C334.909 141.265 334.691 141.634 334.371 141.899C334.051 142.165 333.649 142.31 333.233 142.31H333.22ZM228.54 141.002C228.119 141.005 227.71 140.858 227.386 140.588C227.062 140.319 226.844 139.943 226.77 139.528C226.697 139.113 226.772 138.685 226.984 138.32C227.195 137.955 227.529 137.677 227.925 137.535C229.272 137.044 230.651 136.567 232.018 136.109C232.24 136.034 232.475 136.005 232.708 136.021C232.942 136.038 233.171 136.1 233.38 136.205C233.59 136.31 233.777 136.455 233.931 136.632C234.084 136.809 234.202 137.015 234.276 137.237C234.35 137.46 234.38 137.695 234.363 137.929C234.347 138.163 234.285 138.391 234.18 138.601C234.075 138.811 233.93 138.998 233.753 139.152C233.576 139.305 233.371 139.423 233.148 139.497C231.841 139.942 230.475 140.413 229.161 140.89C228.961 140.958 228.751 140.99 228.54 140.982V141.002ZM321.075 138.143C320.903 138.142 320.731 138.117 320.565 138.071C319.219 137.672 317.852 137.286 316.493 136.926C316.266 136.866 316.054 136.761 315.867 136.618C315.681 136.476 315.525 136.298 315.407 136.095C315.29 135.891 315.214 135.667 315.183 135.434C315.152 135.202 315.167 134.965 315.228 134.738C315.288 134.512 315.393 134.299 315.536 134.113C315.678 133.926 315.856 133.77 316.059 133.652C316.262 133.535 316.486 133.458 316.719 133.428C316.951 133.397 317.188 133.412 317.414 133.473C318.8 133.839 320.206 134.238 321.585 134.644C321.998 134.764 322.353 135.031 322.585 135.393C322.818 135.755 322.911 136.189 322.849 136.615C322.787 137.041 322.574 137.43 322.248 137.711C321.922 137.992 321.505 138.145 321.075 138.143ZM240.777 137.129C240.342 137.132 239.922 136.975 239.594 136.69C239.267 136.404 239.055 136.009 238.998 135.578C238.941 135.147 239.043 134.71 239.285 134.349C239.527 133.988 239.893 133.727 240.313 133.617C241.705 133.244 243.117 132.884 244.516 132.557C244.747 132.495 244.987 132.479 245.224 132.512C245.461 132.545 245.689 132.624 245.894 132.747C246.099 132.869 246.278 133.031 246.419 133.224C246.561 133.417 246.662 133.636 246.717 133.869C246.772 134.101 246.78 134.343 246.74 134.578C246.701 134.814 246.614 135.04 246.485 135.241C246.357 135.443 246.189 135.617 245.992 135.752C245.796 135.888 245.574 135.982 245.34 136.03C243.98 136.357 242.601 136.684 241.247 137.07C241.093 137.102 240.935 137.116 240.777 137.11V137.129ZM308.622 135.043C308.501 135.042 308.381 135.029 308.263 135.003C306.89 134.729 305.491 134.46 304.105 134.225C303.875 134.185 303.654 134.099 303.456 133.973C303.258 133.848 303.087 133.684 302.952 133.492C302.817 133.3 302.722 133.084 302.671 132.855C302.619 132.626 302.614 132.389 302.654 132.158C302.695 131.927 302.78 131.706 302.906 131.508C303.031 131.31 303.195 131.139 303.387 131.004C303.578 130.869 303.795 130.773 304.024 130.722C304.252 130.671 304.489 130.665 304.72 130.706C306.132 130.948 307.57 131.216 308.975 131.504C309.412 131.589 309.802 131.833 310.067 132.191C310.333 132.548 310.456 132.991 310.411 133.434C310.367 133.877 310.159 134.288 309.828 134.585C309.497 134.883 309.067 135.046 308.622 135.043ZM253.308 134.349C252.865 134.343 252.44 134.172 252.115 133.87C251.79 133.568 251.589 133.157 251.55 132.715C251.511 132.273 251.637 131.832 251.904 131.478C252.17 131.124 252.559 130.881 252.994 130.797C254.406 130.549 255.844 130.32 257.276 130.111C257.511 130.069 257.752 130.075 257.985 130.128C258.218 130.181 258.438 130.281 258.632 130.421C258.825 130.56 258.989 130.738 259.113 130.942C259.237 131.147 259.319 131.374 259.353 131.61C259.388 131.847 259.375 132.088 259.314 132.319C259.254 132.551 259.148 132.767 259.002 132.957C258.857 133.147 258.675 133.305 258.467 133.423C258.259 133.541 258.029 133.615 257.792 133.643C256.4 133.846 254.994 134.074 253.622 134.297C253.518 134.317 253.413 134.328 253.308 134.33V134.349ZM295.941 133.041H295.738C294.339 132.884 292.928 132.74 291.529 132.622C291.295 132.602 291.068 132.536 290.86 132.428C290.652 132.32 290.467 132.172 290.316 131.993C290.166 131.813 290.052 131.606 289.981 131.382C289.91 131.158 289.884 130.923 289.904 130.689C289.924 130.456 289.99 130.228 290.098 130.02C290.206 129.812 290.354 129.627 290.534 129.476C290.713 129.325 290.92 129.211 291.144 129.141C291.367 129.07 291.602 129.044 291.836 129.064C293.261 129.182 294.712 129.326 296.144 129.489C296.609 129.525 297.042 129.743 297.349 130.094C297.656 130.446 297.813 130.904 297.787 131.371C297.76 131.837 297.552 132.275 297.207 132.589C296.862 132.904 296.408 133.071 295.941 133.054V133.041ZM266.048 132.648C265.596 132.634 265.167 132.449 264.846 132.131C264.525 131.812 264.336 131.384 264.316 130.933C264.297 130.481 264.45 130.038 264.743 129.694C265.036 129.35 265.449 129.13 265.898 129.077C267.329 128.953 268.781 128.848 270.219 128.763C270.455 128.746 270.692 128.775 270.916 128.85C271.14 128.926 271.348 129.045 271.526 129.201C271.704 129.357 271.849 129.546 271.953 129.759C272.057 129.972 272.118 130.203 272.131 130.439C272.145 130.676 272.112 130.912 272.034 131.136C271.955 131.359 271.833 131.565 271.675 131.74C271.516 131.916 271.324 132.059 271.11 132.16C270.896 132.26 270.664 132.318 270.428 132.328C269.029 132.413 267.61 132.518 266.212 132.642L266.048 132.648ZM283.155 132.125H283.109C281.802 132.086 280.494 132.073 279.154 132.073H278.88C278.636 132.088 278.392 132.052 278.162 131.969C277.932 131.886 277.722 131.756 277.544 131.589C277.366 131.421 277.224 131.219 277.128 130.995C277.031 130.77 276.981 130.528 276.981 130.284C276.981 130.039 277.031 129.797 277.128 129.573C277.224 129.349 277.366 129.146 277.544 128.979C277.722 128.811 277.932 128.682 278.162 128.599C278.392 128.515 278.636 128.48 278.88 128.495H279.122C280.429 128.495 281.821 128.495 283.168 128.554C283.641 128.561 284.092 128.755 284.422 129.095C284.752 129.435 284.933 129.892 284.926 130.366C284.92 130.839 284.725 131.291 284.385 131.621C284.046 131.951 283.589 132.132 283.116 132.125H283.155Z" fill="#5D9F44"/>
<path d="M543.261 276.09H533.763V284.881H544.346V287.498H530.619V263.132H543.81V265.748H533.763V273.454H543.261V276.09Z" fill="#5D9F44"/>
<path d="M545 288.172H529.965V262.484H544.464V266.409H534.417V272.806H543.915V276.731H534.417V284.221H545V288.172ZM531.273 286.863H543.693V285.522H533.11V275.436H542.608V274.128H533.11V265.12H543.15V263.812H531.266L531.273 286.863Z" fill="#5D9F44"/>
<path d="M270.84 25.0397V0.654175H274.285L282.129 12.9908C283.756 15.5407 285.217 18.1933 286.502 20.9318H286.574C286.28 17.6612 286.208 14.7046 286.208 10.9107V0.654175H289.182V25.0397H285.992L278.233 12.6638C276.546 10.0453 275.018 7.32799 273.657 4.52655H273.546C273.729 7.6009 273.801 10.5314 273.801 14.5869V25.0397H270.84Z" fill="#5D9F44"/>
<path d="M289.836 25.6937H285.659L277.684 13.0104C276.337 10.8714 275.245 9.01374 274.35 7.33266C274.435 9.49125 274.468 11.7741 274.468 14.6195V25.6937H270.186V0H274.644L282.665 12.6441C283.809 14.4495 284.815 16.1698 285.704 17.877C285.587 15.6072 285.554 13.3702 285.554 10.8911V0H289.836V25.6937ZM286.352 24.3855H288.528V1.30824H286.861V10.8584C286.861 14.4102 286.927 17.4715 287.221 20.8206L287.26 21.2654L286.188 21.7952L285.907 21.1869C284.629 18.4791 283.177 15.8571 281.56 13.3375L273.925 1.30824H271.493V24.3855H273.16V14.6195C273.16 10.5444 273.088 7.64664 272.905 4.59845V4.10132L274.043 3.71539L274.291 4.24522C275.631 7.02657 277.142 9.72232 278.815 12.317L286.352 24.3855Z" fill="#5D9F44"/>
<path d="M273.396 551.153C275.106 552.175 277.058 552.724 279.05 552.742C282.273 552.742 284.162 551.042 284.162 548.582C284.162 546.299 282.854 544.998 279.586 543.735C275.598 542.322 273.134 540.262 273.134 536.821C273.134 533.021 276.285 530.202 281.031 530.202C282.905 530.136 284.765 530.548 286.436 531.399L285.561 533.963C284.136 533.198 282.543 532.8 280.926 532.805C277.592 532.805 276.35 534.767 276.35 536.461C276.35 538.738 277.834 539.863 281.207 541.165C285.338 542.754 287.437 544.743 287.437 548.327C287.437 552.088 284.645 555.346 278.886 555.346C276.527 555.346 273.958 554.692 272.65 553.789L273.396 551.153Z" fill="#5D9F44"/>
<path d="M278.834 556C276.422 556 273.709 555.346 272.239 554.332L271.833 554.064L273.016 550.139L273.742 550.584C275.349 551.542 277.18 552.056 279.05 552.075C281.802 552.075 283.508 550.767 283.508 548.569C283.508 546.901 282.854 545.671 279.324 544.331C274.703 542.695 272.454 540.236 272.454 536.808C272.454 532.524 275.971 529.534 281.004 529.534C282.994 529.472 284.966 529.923 286.731 530.843L287.201 531.104L285.894 534.924L285.24 534.551C283.911 533.835 282.423 533.464 280.913 533.472C277.997 533.472 276.991 535.088 276.991 536.475C276.991 538.273 278.069 539.268 281.429 540.569C286.09 542.362 288.077 544.69 288.077 548.34C288.038 551.866 285.659 556 278.834 556ZM273.369 553.495C275.082 554.289 276.947 554.697 278.834 554.692C283.632 554.692 286.731 552.193 286.731 548.327C286.731 545.22 285.103 543.382 280.919 541.786C277.579 540.478 275.644 539.209 275.644 536.475C275.644 534.401 277.285 532.164 280.874 532.164C282.339 532.159 283.79 532.464 285.129 533.06L285.58 531.752C284.134 531.141 282.574 530.847 281.004 530.888C276.742 530.888 273.762 533.341 273.762 536.854C273.762 539.699 275.67 541.701 279.775 543.153C282.809 544.317 284.815 545.685 284.815 548.615C284.815 551.545 282.554 553.429 279.05 553.429C277.218 553.406 275.417 552.959 273.788 552.121L273.369 553.495Z" fill="#5D9F44"/>
<path d="M4.14431 270.007L6.45834 278.909C6.96822 280.872 7.43887 282.67 7.76571 284.482H7.87683C8.27558 282.71 8.85082 280.826 9.43259 278.942L12.2957 270.007H14.9758L17.6951 278.765C18.3488 280.865 18.8587 282.69 19.2574 284.482H19.362C19.7079 282.565 20.1552 280.668 20.7021 278.798L23.2057 270.007H26.3564L20.7021 287.517H17.8062L15.1262 279.164C14.5073 277.274 13.9858 275.352 13.5639 273.408H13.492C13.0743 275.367 12.5417 277.3 11.897 279.197L9.07307 287.517H6.17072L0.882446 270.007H4.14431Z" fill="#5D9F44"/>
<path d="M21.1793 288.171H17.3291L14.4986 279.361C14.1391 278.216 13.845 277.156 13.5312 276.09C13.2044 277.28 12.8775 278.386 12.518 279.419L9.53721 288.191H5.68702L0 269.353H4.64767L7.09244 278.746C7.37352 279.818 7.64153 280.845 7.87686 281.853C8.17101 280.819 8.49132 279.779 8.81162 278.752L11.8186 269.353H15.4596L18.3031 278.569C18.6561 279.714 18.9567 280.767 19.2313 281.755C19.4862 280.688 19.7738 279.635 20.0549 278.621L22.6697 269.353H27.2454L21.1793 288.171ZM18.2835 286.863H20.2445L25.4739 270.654H23.7025L21.3361 278.981C20.7953 280.824 20.3588 282.695 20.0288 284.587L19.9373 285.136H18.7345L18.6168 284.626C18.2312 282.906 17.7409 281.107 17.0741 278.955L14.4986 270.661H12.7729L10.0536 279.164C9.49145 280.996 8.90314 282.893 8.51093 284.646L8.3998 285.156H7.19049L7.09898 284.613C6.77867 282.84 6.30802 281.042 5.79161 279.132L3.63447 270.661H1.7584L6.65447 286.87H8.61552L11.2891 278.988C11.9247 277.116 12.4507 275.21 12.8644 273.277L12.9756 272.76H14.1064L14.2176 273.277C14.6343 275.199 15.1492 277.099 15.7602 278.968L18.2835 286.863Z" fill="url(#paint15_linear_658_4495)"/>
<path d="M471.141 74.3731L480.75 64.823L482.338 66.4125L481.109 74.8637C480.861 76.5962 480.494 78.3097 480.011 79.992H480.057C481.241 78.5596 482.502 77.1927 483.835 75.8972L487.862 71.9006L489.228 73.2742L479.619 82.8243L478.148 81.3526L479.455 72.921C479.711 71.1331 480.08 69.3634 480.56 67.6226H480.495C479.37 68.9309 478.246 70.0886 476.651 71.6782L472.546 75.7598L471.141 74.3731Z" fill="#5D9F44"/>
<path d="M492.464 86.7556L488.084 82.3665L484.619 85.8137L489.496 90.6999L488.457 91.7334L482.129 85.3885L491.738 75.8384L497.817 81.9348L496.798 82.9683L492.169 78.3306L489.136 81.346L493.51 85.7352L492.464 86.7556Z" fill="#5D9F44"/>
<path d="M74.1078 90.4645L64.5444 80.8686L66.1394 79.2856L74.5981 80.5415C76.3349 80.7833 78.0521 81.1506 79.736 81.6404V81.5947C78.304 80.4101 76.9358 79.1502 75.6374 77.8204L71.6369 73.8041L73.0096 72.437L82.5795 82.0329L81.1022 83.4981L72.6566 82.1899C70.8647 81.9401 69.0914 81.5708 67.3487 81.0844V81.1499C68.6561 82.2815 69.8196 83.4 71.4081 84.9895L75.5001 89.0908L74.1078 90.4645Z" fill="#5D9F44"/>
<path d="M86.9918 77.6633L74.5719 70.9194L76.1146 69.3888L82.2919 72.9079C83.8215 73.7713 85.3184 74.6675 86.4427 75.387H86.4754C85.603 74.0143 84.8023 72.5974 84.0764 71.1418L80.7426 64.7576L82.2723 63.24L88.5018 66.7396C89.8993 67.5041 91.2564 68.3403 92.5677 69.2448C91.7572 67.9366 91.012 66.5761 90.1687 65.0258L86.835 58.707L88.3253 57.2222L94.7249 69.9905L93.1953 71.5081L86.7892 67.9301C85.454 67.2125 84.1659 66.4107 82.9325 65.5295H82.8933C83.7262 66.8164 84.4794 68.1533 85.1485 69.5327L88.5149 76.1262L86.9918 77.6633Z" fill="#5D9F44"/>
<path d="M97.052 477.087C96.6589 475.872 95.9874 474.765 95.091 473.856C93.6006 472.364 92.0645 472.155 91.097 473.123C90.1296 474.091 90.2864 475.125 91.3062 477.146C92.6135 479.54 92.9077 481.489 91.5546 482.837C90.0577 484.322 87.4952 483.969 85.3054 481.777C84.4274 480.946 83.7385 479.935 83.2855 478.814L84.6975 478.212C85.0653 479.196 85.6405 480.088 86.384 480.829C87.9201 482.366 89.2863 482.176 89.94 481.522C90.8421 480.626 90.5937 479.501 89.5609 477.434C88.2535 474.902 88.0966 473.149 89.5086 471.75C90.9205 470.35 93.5614 470.291 96.2153 472.953C97.2195 473.932 97.9922 475.123 98.4771 476.44L97.052 477.087Z" fill="#5D9F44"/>
<path d="M88.2992 465.287L81.5402 477.715L80.004 476.198L83.5339 470.023C84.3968 468.499 85.2923 467.007 86.0179 465.882H85.9852C84.61 466.755 83.1896 467.554 81.7297 468.276L75.3825 471.586L73.866 469.997L77.3762 463.782C78.1399 462.385 78.9778 461.029 79.8864 459.72H79.8471C78.5398 460.531 77.1736 461.277 75.6244 462.114L69.2902 465.411L67.8063 463.92L80.6054 457.568L82.1219 459.092L78.5398 465.49C77.8232 466.825 77.0196 468.112 76.1342 469.342L76.1734 469.375C77.4592 468.545 78.7953 467.796 80.174 467.132L86.7762 463.769L88.2992 465.287Z" fill="#5D9F44"/>
<path d="M469.382 91.2429L454.138 106.464L456.001 108.322L471.245 93.1006L469.382 91.2429Z" fill="#5D9F44"/>
<path d="M110.583 449.444L95.3394 464.659L97.2023 466.517L112.446 451.295L110.583 449.444Z" fill="#5D9F44"/>
<path d="M452.687 446.134L450.831 447.992L466.075 463.207L467.931 461.356L452.687 446.134Z" fill="#5D9F44"/>
<path d="M92.0317 89.7973L107.276 105.012L109.132 103.154L93.8882 87.9396L92.0317 89.7973Z" fill="#5D9F44"/>
<path d="M485.855 460.571C484.628 460.961 483.509 461.633 482.587 462.533C481.096 464.011 480.887 465.549 481.854 466.517C482.822 467.485 483.861 467.328 485.888 466.307C488.287 465.032 490.235 464.705 491.581 466.059C493.072 467.557 492.725 470.114 490.522 472.299C489.691 473.178 488.678 473.866 487.554 474.314L486.992 472.927C487.973 472.562 488.865 471.991 489.607 471.253C491.124 469.702 490.914 468.348 490.261 467.694C489.372 466.798 488.241 467.04 486.169 468.08C483.632 469.356 481.881 469.539 480.475 468.126C479.07 466.713 479.011 464.083 481.678 461.434C482.66 460.43 483.855 459.658 485.175 459.177L485.855 460.571Z" fill="#5D9F44"/>
<path d="M474.514 477.794L478.906 473.424L475.455 469.97L470.559 474.837L469.526 473.797L475.88 467.478L485.45 477.074L479.344 483.138L478.305 482.085L482.953 477.467L479.926 474.432L475.533 478.814L474.514 477.794Z" fill="#5D9F44"/>
<path d="M303.837 275.521C303.834 273.642 303.615 271.77 303.184 269.941L279.207 71.181L255.223 269.941C254.792 271.77 254.573 273.642 254.57 275.521C254.57 275.959 254.57 276.404 254.602 276.829C254.635 277.254 254.57 277.706 254.57 278.137C254.576 280.016 254.795 281.888 255.223 283.717L279.213 482.477L303.197 283.723C303.628 281.893 303.847 280.018 303.851 278.137C303.851 277.699 303.851 277.254 303.811 276.829C303.772 276.404 303.837 275.959 303.837 275.521ZM279.207 288.557C276.897 288.525 274.648 287.81 272.743 286.502C270.838 285.195 269.362 283.353 268.501 281.208C267.64 279.063 267.431 276.711 267.902 274.448C268.373 272.185 269.502 270.111 271.147 268.489C272.792 266.866 274.88 265.766 277.148 265.328C279.416 264.889 281.764 265.132 283.894 266.025C286.025 266.917 287.845 268.421 289.124 270.345C290.403 272.27 291.085 274.531 291.084 276.842C291.043 279.966 289.773 282.947 287.55 285.14C285.326 287.333 282.329 288.561 279.207 288.557Z" fill="#F5A445"/>
<path d="M277.618 302.15C279.5 302.146 281.375 301.927 283.207 301.496L482.306 277.555L283.214 253.614C281.38 253.183 279.502 252.964 277.618 252.96C277.174 252.96 276.736 252.96 276.311 253C275.886 253.039 275.435 252.96 275.004 252.96C273.122 252.964 271.247 253.183 269.415 253.614L70.2903 277.562L269.382 301.502C271.214 301.933 273.089 302.153 274.971 302.157C275.415 302.157 275.853 302.157 276.278 302.117C276.703 302.078 277.161 302.15 277.618 302.15ZM264.545 277.562C264.562 275.237 265.266 272.969 266.569 271.044C267.872 269.119 269.715 267.623 271.867 266.745C274.018 265.867 276.381 265.645 278.658 266.109C280.935 266.573 283.024 267.701 284.661 269.351C286.298 271.001 287.41 273.099 287.857 275.381C288.304 277.662 288.066 280.025 287.173 282.172C286.28 284.318 284.772 286.152 282.839 287.442C280.906 288.732 278.635 289.421 276.311 289.421C273.186 289.392 270.199 288.13 267.998 285.909C265.797 283.689 264.561 280.689 264.558 277.562H264.545Z" fill="#1A1A1A"/>
<path d="M278.697 289.166C277.138 289.167 275.594 288.862 274.153 288.267C272.712 287.671 271.403 286.798 270.299 285.696C269.196 284.594 268.32 283.285 267.722 281.845C267.123 280.404 266.815 278.86 266.813 277.3H72.5586L271.65 301.247C275.259 302.092 279.011 302.111 282.628 301.302C286.245 300.493 289.633 298.877 292.538 296.575C295.443 294.272 297.792 291.343 299.407 288.006C301.023 284.668 301.865 281.009 301.87 277.3H290.581C290.579 278.86 290.27 280.404 289.672 281.845C289.074 283.285 288.198 284.594 287.095 285.696C285.991 286.798 284.682 287.671 283.241 288.267C281.8 288.862 280.256 289.167 278.697 289.166Z" fill="#68B64B"/>
<path d="M277.226 252.712C275.344 252.719 273.47 252.938 271.637 253.366L72.5586 277.3H266.813C266.813 274.146 268.065 271.121 270.294 268.891C272.522 266.661 275.545 265.408 278.697 265.408C281.849 265.408 284.871 266.661 287.1 268.891C289.329 271.121 290.581 274.146 290.581 277.3H301.857C301.848 270.771 299.248 264.513 294.63 259.902C290.011 255.291 283.751 252.705 277.226 252.712Z" fill="#5D9F44"/>
<path d="M278.239 265.434C279.799 265.432 281.343 265.737 282.785 266.332C284.227 266.927 285.537 267.8 286.641 268.902C287.746 270.004 288.622 271.313 289.221 272.754C289.819 274.195 290.128 275.74 290.13 277.3H484.378L285.286 253.359C281.678 252.515 277.925 252.496 274.309 253.304C270.692 254.113 267.305 255.729 264.399 258.03C261.493 260.332 259.144 263.26 257.527 266.596C255.91 269.933 255.067 273.592 255.06 277.3H266.336C266.338 275.739 266.647 274.193 267.246 272.751C267.846 271.309 268.723 270 269.829 268.897C270.934 267.795 272.246 266.922 273.69 266.328C275.133 265.734 276.679 265.43 278.239 265.434Z" fill="#5D9F44"/>
<path d="M279.71 301.895C281.592 301.891 283.467 301.672 285.299 301.241L484.378 277.3H290.13C290.057 280.407 288.773 283.361 286.551 285.533C284.33 287.704 281.348 288.92 278.243 288.92C275.137 288.92 272.155 287.704 269.934 285.533C267.713 283.361 266.428 280.407 266.355 277.3H255.079C255.083 280.533 255.723 283.734 256.962 286.72C258.202 289.706 260.017 292.418 262.304 294.702C264.592 296.986 267.306 298.797 270.292 300.031C273.279 301.265 276.479 301.898 279.71 301.895Z" fill="#68B64B"/>
<path d="M292.084 274.383C292.092 277.115 291.289 279.789 289.778 282.065C288.266 284.341 286.114 286.117 283.593 287.168C281.072 288.219 278.296 288.498 275.617 287.97C272.938 287.441 270.475 286.129 268.542 284.2C266.608 282.27 265.29 279.81 264.754 277.13C264.218 274.451 264.489 271.672 265.533 269.147C266.576 266.621 268.344 264.462 270.615 262.943C272.885 261.424 275.554 260.614 278.285 260.614C280.095 260.611 281.887 260.965 283.56 261.656C285.233 262.346 286.753 263.36 288.034 264.638C289.316 265.917 290.333 267.435 291.028 269.107C291.723 270.779 292.082 272.572 292.084 274.383Z" fill="#DA723C"/>
<path d="M291.306 274.383C291.313 276.961 290.555 279.484 289.128 281.631C287.701 283.778 285.67 285.453 283.291 286.444C280.912 287.435 278.293 287.698 275.765 287.199C273.237 286.7 270.914 285.462 269.089 283.641C267.265 281.82 266.021 279.498 265.516 276.969C265.011 274.441 265.267 271.819 266.252 269.437C267.236 267.054 268.905 265.017 271.047 263.584C273.189 262.15 275.708 261.385 278.285 261.385C279.993 261.383 281.685 261.717 283.264 262.369C284.842 263.021 286.278 263.977 287.487 265.184C288.696 266.391 289.656 267.825 290.311 269.403C290.966 270.982 291.305 272.674 291.306 274.383Z" fill="#F5A445"/>
<path d="M278.285 281.728C282.35 281.728 285.646 278.44 285.646 274.383C285.646 270.326 282.35 267.037 278.285 267.037C274.22 267.037 270.925 270.326 270.925 274.383C270.925 278.44 274.22 281.728 278.285 281.728Z" fill="#DA723C"/>
<path d="M278.285 280.767C281.816 280.767 284.678 277.909 284.678 274.383C284.678 270.857 281.816 267.999 278.285 267.999C274.754 267.999 271.892 270.857 271.892 274.383C271.892 277.909 274.754 280.767 278.285 280.767Z" fill="#DA723C"/>
<path d="M283.698 274.383C283.701 275.448 283.389 276.491 282.8 277.379C282.212 278.267 281.373 278.96 280.39 279.37C279.407 279.781 278.325 279.89 277.28 279.685C276.235 279.479 275.275 278.968 274.521 278.216C273.766 277.464 273.252 276.505 273.043 275.46C272.834 274.415 272.939 273.332 273.346 272.347C273.752 271.362 274.442 270.52 275.327 269.928C276.212 269.335 277.253 269.019 278.318 269.019C279.741 269.019 281.107 269.583 282.115 270.589C283.123 271.594 283.692 272.958 283.698 274.383Z" fill="#1A1A1A"/>
<path d="M282.063 274.383C282.066 275.131 281.847 275.863 281.433 276.487C281.019 277.11 280.43 277.597 279.74 277.885C279.05 278.173 278.29 278.25 277.556 278.106C276.822 277.961 276.148 277.602 275.618 277.074C275.088 276.546 274.727 275.872 274.58 275.138C274.434 274.404 274.508 273.644 274.793 272.952C275.079 272.26 275.563 271.669 276.185 271.253C276.806 270.837 277.537 270.615 278.285 270.615C278.78 270.614 279.271 270.711 279.729 270.9C280.187 271.089 280.603 271.366 280.954 271.716C281.305 272.066 281.583 272.481 281.774 272.939C281.964 273.396 282.063 273.887 282.063 274.383Z" fill="#5D9F44"/>
</g>
<defs>
<linearGradient id="paint0_linear_658_4495" x1="106.962" y1="126.938" x2="106.962" y2="139.039" gradientUnits="userSpaceOnUse">
<stop stop-color="#74C656"/>
<stop offset="1" stop-color="#5D9F44"/>
</linearGradient>
<linearGradient id="paint1_linear_658_4495" x1="84.4883" y1="159.964" x2="84.4883" y2="170.084" gradientUnits="userSpaceOnUse">
<stop stop-color="#74C656"/>
<stop offset="1" stop-color="#5D9F44"/>
</linearGradient>
<linearGradient id="paint2_linear_658_4495" x1="67.9305" y1="196.556" x2="67.9305" y2="204.386" gradientUnits="userSpaceOnUse">
<stop stop-color="#74C656"/>
<stop offset="1" stop-color="#5D9F44"/>
</linearGradient>
<linearGradient id="paint3_linear_658_4495" x1="104.082" y1="137.849" x2="104.082" y2="143.513" gradientUnits="userSpaceOnUse">
<stop stop-color="#74C656"/>
<stop offset="1" stop-color="#5D9F44"/>
</linearGradient>
<linearGradient id="paint4_linear_658_4495" x1="99.4151" y1="144.128" x2="99.4151" y2="149.597" gradientUnits="userSpaceOnUse">
<stop stop-color="#74C656"/>
<stop offset="1" stop-color="#5D9F44"/>
</linearGradient>
<linearGradient id="paint5_linear_658_4495" x1="94.9668" y1="150.571" x2="94.9668" y2="155.837" gradientUnits="userSpaceOnUse">
<stop stop-color="#74C656"/>
<stop offset="1" stop-color="#5D9F44"/>
</linearGradient>
<linearGradient id="paint6_linear_658_4495" x1="90.7473" y1="157.165" x2="90.7473" y2="162.228" gradientUnits="userSpaceOnUse">
<stop stop-color="#74C656"/>
<stop offset="1" stop-color="#5D9F44"/>
</linearGradient>
<linearGradient id="paint7_linear_658_4495" x1="82.9946" y1="170.784" x2="82.9946" y2="175.415" gradientUnits="userSpaceOnUse">
<stop stop-color="#74C656"/>
<stop offset="1" stop-color="#5D9F44"/>
</linearGradient>
<linearGradient id="paint8_linear_658_4495" x1="79.4745" y1="177.796" x2="79.4745" y2="182.204" gradientUnits="userSpaceOnUse">
<stop stop-color="#74C656"/>
<stop offset="1" stop-color="#5D9F44"/>
</linearGradient>
<linearGradient id="paint9_linear_658_4495" x1="76.1963" y1="184.919" x2="76.1963" y2="189.105" gradientUnits="userSpaceOnUse">
<stop stop-color="#74C656"/>
<stop offset="1" stop-color="#5D9F44"/>
</linearGradient>
<linearGradient id="paint10_linear_658_4495" x1="73.1698" y1="192.167" x2="73.1698" y2="196.111" gradientUnits="userSpaceOnUse">
<stop stop-color="#74C656"/>
<stop offset="1" stop-color="#5D9F44"/>
</linearGradient>
<linearGradient id="paint11_linear_658_4495" x1="67.8652" y1="206.95" x2="67.8652" y2="210.417" gradientUnits="userSpaceOnUse">
<stop stop-color="#74C656"/>
<stop offset="1" stop-color="#5D9F44"/>
</linearGradient>
<linearGradient id="paint12_linear_658_4495" x1="65.6002" y1="214.479" x2="65.6002" y2="217.69" gradientUnits="userSpaceOnUse">
<stop stop-color="#74C656"/>
<stop offset="1" stop-color="#5D9F44"/>
</linearGradient>
<linearGradient id="paint13_linear_658_4495" x1="59.8202" y1="222.607" x2="67.3696" y2="224.484" gradientUnits="userSpaceOnUse">
<stop stop-color="#74C656"/>
<stop offset="1" stop-color="#5D9F44"/>
</linearGradient>
<linearGradient id="paint14_linear_658_4495" x1="58.0451" y1="230.302" x2="65.6547" y2="231.917" gradientUnits="userSpaceOnUse">
<stop stop-color="#74C656"/>
<stop offset="1" stop-color="#5D9F44"/>
</linearGradient>
<linearGradient id="paint15_linear_658_4495" x1="13.6227" y1="269.353" x2="13.6227" y2="288.191" gradientUnits="userSpaceOnUse">
<stop stop-color="#74C656"/>
<stop offset="1" stop-color="#5D9F44"/>
</linearGradient>
<clipPath id="clip0_658_4495">
<rect width="545" height="556" fill="white"/>
</clipPath>
</defs>
</svg>
