<svg width="99" height="99" viewBox="0 0 99 99" fill="none" xmlns="http://www.w3.org/2000/svg">
<g clip-path="url(#clip0_1629_2921)">
<path d="M99.0001 83.9365C98.6779 84.1782 98.7585 84.5004 98.6779 84.8226C97.4696 90.3002 91.992 94.489 86.5144 94.4084C61.9456 94.3279 37.2963 94.4084 12.7275 94.3279C6.12218 94.3279 0.000126883 89.3336 0.241787 81.681C0.32234 79.345 1.12787 77.17 2.25562 75.1562C10.4721 60.8983 18.6885 46.6403 26.9049 32.463C30.5298 26.0992 34.2353 19.7355 37.8602 13.4524C39.874 10.0691 42.6128 7.49143 46.4794 6.52479C51.6348 5.23594 55.9041 6.92756 59.3679 10.7941C60.0929 11.5997 60.6568 12.4857 61.2206 13.3718C72.9009 33.5907 84.5005 53.729 96.1808 73.9479C97.3891 76.1228 98.3557 78.2978 98.9196 80.7144C99.0001 81.7616 99.0001 82.8893 99.0001 83.9365ZM49.7821 88.528C55.018 88.528 60.3345 88.528 65.5705 88.528C72.5787 88.528 79.5062 88.528 86.5144 88.528C89.4948 88.528 92.2337 86.5142 92.9586 83.6948C93.5225 81.5199 92.7975 79.5866 91.7503 77.7339C86.3533 68.3897 80.9562 59.1261 75.6397 49.7819C70.7259 41.3238 65.8122 32.7852 60.979 24.3271C59.3679 21.5077 57.7568 18.6078 56.0652 15.7884C53.8097 12.0024 49.7015 10.7941 46.1572 12.808C44.4655 13.7746 43.4989 15.3051 42.5323 16.9967C37.6185 25.6159 32.6242 34.1546 27.7105 42.6932C21.9912 52.5207 16.3524 62.3482 10.6332 72.2563C9.34431 74.4312 8.05546 76.6062 6.92771 78.7811C5.3972 81.681 5.88052 84.742 8.05546 86.5948C9.50542 87.8836 11.2776 88.4475 13.2109 88.4475C25.3744 88.528 37.6185 88.528 49.7821 88.528Z" fill="#5D9F44"/>
<path d="M6.7666 28.0325C7.33047 18.205 11.1165 10.3914 20.2996 5.88037C21.4273 5.3165 22.6356 4.91373 23.9245 4.59152C24.9716 4.26931 25.5355 4.51097 25.7772 5.3165C26.0188 6.04148 25.6161 6.44425 24.6494 6.76646C16.433 9.42472 11.4387 14.9829 9.58597 23.3604C8.94154 26.2604 9.02209 29.0797 9.74707 31.9796C9.98873 33.0268 9.34431 33.5102 8.86099 33.9935C8.45822 34.3962 8.13601 33.8324 7.89435 33.5102C7.08882 32.3824 6.92771 31.013 6.84716 29.6436C6.7666 29.1603 6.7666 28.5964 6.7666 28.0325Z" fill="#F5A445"/>
<path d="M92.4754 28.1131C92.4754 29.563 92.3143 31.013 91.9115 32.3824C91.831 32.5435 91.831 32.7046 91.7504 32.8657C91.4282 33.4296 91.2671 34.2351 90.381 34.074C89.8171 33.9935 89.2533 32.6241 89.4144 31.9796C91.0254 24.2465 89.0116 17.6411 83.534 12.0024C81.0368 9.42471 77.9758 7.73309 74.5926 6.76645C73.5454 6.44424 73.2232 5.88037 73.5454 5.15539C73.8676 4.43041 74.512 4.43041 75.1564 4.59152C80.0702 5.96092 84.0979 8.53863 87.2394 12.6468C90.6227 17.1578 92.2337 22.3938 92.4754 28.1131Z" fill="#F5A445"/>
<path d="M86.5947 27.952C86.5142 29.0797 86.5142 30.3686 85.9503 31.5769C85.7086 32.0602 85.3059 32.8657 84.742 32.5435C84.1781 32.2213 83.5337 31.6574 83.6948 30.7714C84.0976 28.9992 84.2587 27.227 83.9365 25.4548C82.9698 19.0911 79.4255 14.8218 73.384 12.6469C73.1423 12.5663 72.9812 12.4858 72.7395 12.4858C72.0146 12.2441 71.6118 11.8413 71.8535 11.0358C72.0951 10.2303 72.659 9.98861 73.4645 10.2303C79.7477 12.0024 83.6142 16.1912 85.6281 22.3133C86.2725 24.0854 86.5142 25.9382 86.5947 27.952Z" fill="#F5A445"/>
<path d="M26.1799 10.0692C26.8244 10.0692 27.2271 10.3914 27.3077 10.9552C27.4688 11.5997 27.2271 12.083 26.5827 12.3246C25.6966 12.6469 24.8105 12.8885 24.005 13.2913C17.6413 16.2718 14.0969 23.2799 15.5469 30.2075C15.708 30.8519 15.6275 31.4158 15.1441 31.9796C14.4192 32.7852 14.0164 32.7852 13.4525 31.738C12.8886 30.5297 12.7275 29.2408 12.7275 27.952C12.7275 21.4272 16.0302 14.2579 23.0384 11.1163C24.005 10.633 25.0522 10.3108 26.1799 10.0692Z" fill="#F5A445"/>
<path d="M80.7143 27.5492C80.7143 28.3547 80.7143 29.1603 80.3921 29.8853C80.1504 30.4491 79.9893 31.0936 79.1838 31.0936C78.7005 31.0936 77.9755 29.7241 78.056 29.1603C78.6199 26.0992 77.9755 23.3604 75.9617 20.9438C74.8339 19.655 73.4645 18.6883 71.8534 18.1245C71.6118 18.0439 71.3701 17.9634 71.1285 17.8828C70.484 17.6412 70.1618 17.1578 70.4035 16.5134C70.6451 15.869 71.1285 15.5468 71.8534 15.7884C74.4311 16.4329 76.5255 17.8023 78.056 19.8966C79.7477 22.1521 80.6337 24.7298 80.7143 27.5492Z" fill="#F5A445"/>
<path d="M18.5273 27.4687C18.6079 22.0716 22.1522 17.2384 27.1465 15.869C27.8715 15.6274 28.516 15.7079 28.7576 16.5134C28.9993 17.319 28.5965 17.8023 27.791 18.044C27.6299 18.044 27.5493 18.1245 27.4688 18.2051C25.2938 18.93 23.6022 20.2994 22.3939 22.2327C21.105 24.4077 20.6217 26.6632 21.105 29.1603C21.3467 30.1269 20.6217 30.6103 20.1384 31.0936C19.8162 31.4158 19.4134 30.9325 19.1718 30.6103C18.6079 29.5631 18.5273 28.5159 18.5273 27.4687Z" fill="#F5A445"/>
<path d="M49.7819 88.528C37.6184 88.528 25.4548 88.528 13.2107 88.528C11.2774 88.528 9.50526 87.9642 8.0553 86.6753C5.88036 84.742 5.39704 81.7616 6.92755 78.8616C8.0553 76.6061 9.34415 74.5118 10.633 72.3368C16.2717 62.5093 21.991 52.6013 27.7103 42.7738C32.6241 34.2351 37.6184 25.6159 42.5321 17.0773C43.4987 15.4662 44.4654 13.8551 46.157 12.8885C49.7014 10.8747 53.8096 12.0024 56.0651 15.869C57.7567 18.6883 59.3677 21.5077 60.9788 24.4076C65.8926 32.8657 70.8063 41.4044 75.6395 49.8625C81.0366 59.2066 86.4337 68.4703 91.7502 77.8144C92.7974 79.6672 93.5223 81.6005 92.9585 83.7754C92.2335 86.5948 89.5752 88.6086 86.5142 88.6086C79.5061 88.6086 72.5785 88.6086 65.5704 88.6086C60.3344 88.528 55.0179 88.528 49.7819 88.528ZM49.6208 29.9658C47.4459 29.9658 45.3515 29.9658 43.1765 29.9658C41.4044 29.9658 41.3238 29.9658 41.4044 31.8185C41.5655 36.9739 41.9682 42.1293 42.371 47.2847C42.8543 53.6485 43.4987 59.9316 44.0626 66.2953C44.2237 67.9869 44.4654 68.3092 46.0765 68.4703C46.4792 68.5508 46.882 68.5508 47.3653 68.5508C49.3791 68.4703 51.393 68.4703 53.4068 68.3897C54.6957 68.3897 55.0179 68.0675 55.179 66.7786C55.5012 62.9926 55.904 59.1261 56.1456 55.3401C56.6289 48.9764 57.1928 42.6932 57.6761 36.3295C57.8372 34.5573 57.8372 32.7852 57.8372 31.013C57.8372 30.288 57.6761 29.8852 56.7095 29.8852C54.3734 29.9658 51.9568 29.9658 49.6208 29.9658ZM49.5402 70.2424C45.5931 70.2424 42.6932 73.1424 42.6932 77.17C42.6932 81.1977 45.5931 84.1782 49.5402 84.1782C53.5679 84.1782 56.4678 81.1977 56.4678 77.2506C56.4678 73.0618 53.5679 70.2424 49.5402 70.2424Z" fill="#F5A445" fill-opacity="0.16"/>
<path d="M49.6209 29.9658C52.0375 29.9658 54.3736 30.0464 56.7902 29.9658C57.6763 29.9658 57.9179 30.288 57.9179 31.0936C57.8374 32.8657 57.8374 34.6379 57.7568 36.4101C57.2735 42.7738 56.7902 49.057 56.2263 55.4207C55.9041 59.2067 55.5819 63.0732 55.2597 66.8592C55.1791 68.1481 54.8569 68.4703 53.4875 68.4703C51.4737 68.5508 49.4598 68.5508 47.446 68.6314C47.0432 68.6314 46.6405 68.6314 46.1572 68.5508C44.4655 68.3092 44.2239 67.987 44.1433 66.3759C43.5794 60.0122 43.0156 53.729 42.4517 47.3653C42.0489 42.2099 41.5656 37.0545 41.4851 31.8991C41.4045 30.0464 41.4851 30.0464 43.2572 30.0464C45.2711 29.9658 47.446 29.9658 49.6209 29.9658Z" fill="#F5A445"/>
<path d="M49.5406 70.2424C53.5682 70.2424 56.4681 73.0618 56.4681 77.17C56.4681 81.1977 53.5682 84.0976 49.5406 84.0976C45.5129 84.0976 42.613 81.1171 42.6935 77.0895C42.6935 73.1424 45.5935 70.2424 49.5406 70.2424Z" fill="#F5A445"/>
</g>
<defs>
<clipPath id="clip0_1629_2921">
<rect width="99" height="99" fill="white"/>
</clipPath>
</defs>
</svg>
