<svg width="24" height="24" viewBox="0 0 24 24" fill="none" xmlns="http://www.w3.org/2000/svg">
<circle cx="12" cy="12" r="12" fill="#F5A445"/>
<path d="M14.6666 12.5999V15.3999C14.6666 17.7333 13.7333 18.6666 11.3999 18.6666H8.59992C6.26659 18.6666 5.33325 17.7333 5.33325 15.3999V12.5999C5.33325 10.2666 6.26659 9.33325 8.59992 9.33325H11.3999C13.7333 9.33325 14.6666 10.2666 14.6666 12.5999Z" stroke="white" stroke-linecap="round" stroke-linejoin="round"/>
<path d="M18.6666 8.59992V11.3999C18.6666 13.7333 17.7333 14.6666 15.3999 14.6666H14.6666V12.5999C14.6666 10.2666 13.7333 9.33325 11.3999 9.33325H9.33325V8.59992C9.33325 6.26659 10.2666 5.33325 12.5999 5.33325H15.3999C17.7333 5.33325 18.6666 6.26659 18.6666 8.59992Z" stroke="white" stroke-linecap="round" stroke-linejoin="round"/>
</svg>
