<svg width="40" height="40" viewBox="0 0 40 40" fill="none" xmlns="http://www.w3.org/2000/svg">
<path d="M32.1041 0.0102539C32.4791 0.343587 32.6458 1.02067 32.4479 1.48942C32.3437 1.73942 32.1458 1.87484 31.8749 1.87484C31.6041 1.87484 31.4062 1.73942 31.302 1.48942C31.1041 1.03109 31.2708 0.333171 31.6458 0.0102539C31.7916 0.0102539 31.9479 0.0102539 32.1041 0.0102539Z" fill="#5D9F44"/>
<path d="M39.9896 13.3646C39.6562 13.7396 38.9792 13.9063 38.5104 13.7084C38.2604 13.6042 38.125 13.4063 38.125 13.1354C38.125 12.8646 38.2604 12.6667 38.5104 12.5625C38.9688 12.3646 39.6667 12.5313 39.9896 12.9063C39.9896 13.0521 39.9896 13.2084 39.9896 13.3646Z" fill="#5D9F44"/>
<path d="M10.2395 0.0102539C10.2916 0.0623372 10.3541 0.104004 10.4062 0.156087C10.677 0.416504 10.6979 0.80192 10.4583 1.06234C10.2083 1.32275 9.80204 1.32275 9.55204 1.06234C9.30204 0.80192 9.32288 0.426921 9.60413 0.156087C9.65621 0.104004 9.71871 0.0519206 9.7708 0.0102539C9.92705 0.0102539 10.0833 0.0102539 10.2395 0.0102539Z" fill="#F5A445"/>
<path d="M3.7604 28.75C3.7604 25.9271 3.74998 23.1042 3.7604 20.2812C3.7604 19.5833 4.3229 19.0625 5.02081 19.0625C5.6979 19.0729 6.24998 19.6146 6.24998 20.3125C6.2604 22.3646 6.24998 24.4271 6.24998 26.4792C6.24998 26.6667 6.18748 26.875 6.5104 26.875C6.77081 26.875 6.87498 26.8229 6.87498 26.5312C6.87498 25.1667 6.87498 23.8021 6.87498 22.4375C6.87498 21.2396 6.87498 20.0417 6.87498 18.8437C6.87498 18.0521 7.39581 17.5 8.12498 17.5C8.84373 17.5 9.37498 18.0729 9.37498 18.8542C9.37498 21.3958 9.37498 23.9271 9.37498 26.4688C9.37498 26.7083 9.36456 26.8854 9.70831 26.8854C10.0521 26.875 9.99998 26.6771 9.99998 26.4688C9.99998 24.4792 9.99998 22.4896 9.99998 20.5C9.99998 19.8333 10.4583 19.3125 11.0833 19.2292C11.6979 19.1458 12.3021 19.5625 12.4583 20.1875C12.4896 20.3229 12.4896 20.4687 12.4896 20.6146C12.4896 22.5833 12.4896 24.5417 12.4896 26.5104C12.4896 26.6771 12.4271 26.8854 12.7291 26.8958C13 26.9063 13.125 26.8438 13.1146 26.5312C13.0937 25.2604 13.1041 23.9792 13.1041 22.7083C13.1041 22.0417 13.5521 21.5104 14.1771 21.4271C14.7916 21.3437 15.3958 21.75 15.5625 22.375C15.6041 22.5208 15.6041 22.6875 15.6041 22.8333C15.6041 26.0312 15.6146 29.2396 15.6041 32.4375C15.6041 34.1042 14.9166 35.4271 13.5 36.3229C13.1979 36.5208 13.0833 36.7188 13.0937 37.0729C13.125 37.7396 13.0937 38.3958 13.1041 39.0625C13.1041 39.2917 13.0416 39.3854 12.8021 39.3854C10.0833 39.375 7.36456 39.375 4.64581 39.3854C4.41665 39.3854 4.35415 39.3021 4.35415 39.0833C4.36456 38.3542 4.35415 37.625 4.36456 36.8958C4.36456 36.6667 4.30206 36.5208 4.09373 36.3854C2.3229 35.25 1.21873 33.625 0.781229 31.5833C0.437479 29.9792 0.635396 28.3438 0.624979 26.7292C0.624979 26.0833 1.2604 25.6146 1.91665 25.6354C2.55206 25.6563 3.09373 26.1979 3.10415 26.8542C3.11456 27.6979 3.10415 28.5417 3.10415 29.3958C3.10415 30.1042 3.0104 30.0104 3.72915 30.0208C4.71873 30.0833 5.48956 30.4792 5.9479 31.3958C6.1354 31.7604 6.21873 32.1458 6.22915 32.5521C6.23956 32.9063 6.49998 33.1354 6.83331 33.1354C7.18748 33.1458 7.4479 32.9062 7.47915 32.5417C7.49998 32.3229 7.43748 32.1042 7.40623 31.8854C7.17706 30.1146 5.56248 28.7292 3.7604 28.75Z" fill="#EFD4C4"/>
<path d="M36.2501 29.9997C36.323 29.9997 36.4063 29.9893 36.4792 29.9997C36.7813 30.0414 36.8855 29.9268 36.8751 29.6143C36.8542 28.7289 36.8647 27.8434 36.8647 26.958C36.8647 26.1768 37.3959 25.6143 38.1251 25.6247C38.8334 25.6351 39.3542 26.1976 39.3542 26.9476C39.3542 28.0622 39.3855 29.1872 39.3438 30.3018C39.2813 31.958 38.7292 33.4372 37.6876 34.7497C37.1563 35.4164 36.5313 35.9789 35.8022 36.4164C35.6355 36.5205 35.5938 36.6664 35.5938 36.8434C35.6042 37.5726 35.5834 38.3018 35.6042 39.0309C35.6042 39.2809 35.5313 39.3747 35.2709 39.3747C32.573 39.3643 29.8855 39.3643 27.1876 39.3747C26.9063 39.3747 26.8334 39.2809 26.8438 39.0101C26.8542 38.2914 26.8438 37.583 26.8542 36.8643C26.8542 36.6559 26.8022 36.5309 26.6147 36.4268C25.3542 35.6768 24.6147 34.5726 24.3959 33.1247C24.3751 32.9684 24.3542 32.8122 24.3542 32.6559C24.3542 29.3539 24.3542 26.0414 24.3542 22.7393C24.3542 21.9476 24.8855 21.3955 25.6147 21.4059C26.323 21.4164 26.8542 21.9789 26.8542 22.7289C26.8542 23.9372 26.8542 25.1455 26.8647 26.3643C26.8647 26.5726 26.7188 26.8747 27.1667 26.8851C27.6355 26.8955 27.4792 26.5622 27.4792 26.3434C27.4897 24.4268 27.4792 22.5205 27.4897 20.6039C27.4897 19.7809 28.0001 19.2184 28.7397 19.2184C29.4688 19.2184 29.9897 19.7914 29.9897 20.6143C29.9897 22.5622 29.9897 24.5205 29.9897 26.4684C29.9897 26.708 29.9792 26.8851 30.323 26.8851C30.6667 26.8747 30.6147 26.6768 30.6147 26.4684C30.6147 23.9059 30.6147 21.3434 30.6147 18.7809C30.6147 18.1143 31.073 17.5934 31.698 17.5101C32.3126 17.4268 32.9167 17.8434 33.073 18.4684C33.1042 18.6039 33.1042 18.7497 33.1042 18.8955C33.1042 21.4372 33.1042 23.9684 33.1042 26.5101C33.1042 26.7497 33.1147 26.9059 33.4272 26.8955C33.6667 26.8851 33.7397 26.8018 33.7397 26.5726C33.7292 25.6143 33.7397 24.6455 33.7397 23.6872C33.7397 22.5934 33.7397 21.4997 33.7397 20.4059C33.7397 19.6351 34.2605 19.083 34.9688 19.083C35.698 19.0726 36.2397 19.6351 36.2397 20.4164C36.2397 23.1976 36.2397 25.9893 36.2292 28.7705C35.9688 28.7289 35.7188 28.8018 35.4584 28.8434C33.8334 29.1351 32.4376 30.8434 32.4897 32.4684C32.5001 32.8747 32.7292 33.1247 33.0938 33.1351C33.4792 33.1455 33.7188 32.8955 33.7397 32.4684C33.8126 31.0622 34.8542 30.0309 36.2501 29.9997Z" fill="#EFD4C4"/>
<path d="M19.5313 0.854004C18.6563 1.42692 17.875 2.11442 17.3021 2.99984C14.8229 6.82275 16.9271 11.9582 21.375 12.9686C24.0521 13.5728 26.875 12.4165 28.3438 10.104C28.3959 10.0207 28.4688 9.93734 28.5209 9.854C28.5417 9.87484 28.5625 9.90609 28.5834 9.92692C28.2084 11.7603 27.3334 13.3019 25.8646 14.479C24.0521 15.9373 21.9688 16.5311 19.6667 16.1457C17.75 15.8332 16.125 14.9061 14.8854 13.3853C13.7813 12.0207 13.1875 10.4478 13.1146 8.69775C13.0521 7.2915 13.3854 5.96859 14.0625 4.73942C15.2396 2.59359 17.0521 1.30192 19.4375 0.791504C19.4792 0.812337 19.5 0.833171 19.5313 0.854004Z" fill="#F5A445"/>
<path d="M19.448 0.791504C17.0626 1.30192 15.2605 2.59359 14.073 4.73942C13.3959 5.96859 13.0626 7.30192 13.1251 8.69775C13.198 10.4478 13.7813 12.0207 14.8959 13.3853C16.1355 14.9165 17.7501 15.8332 19.6772 16.1457C21.9688 16.5207 24.0522 15.9373 25.8751 14.479C27.3438 13.3019 28.2188 11.7603 28.5938 9.92692C28.6459 9.92692 28.6876 9.92692 28.7397 9.92692C28.5522 13.2915 26.2918 16.5728 22.6459 17.7186C17.4272 19.3644 12.0834 15.9478 11.3334 10.4998C10.6772 5.73942 14.0834 1.32275 18.8751 0.697754C19.0626 0.676921 19.2605 0.656087 19.4584 0.635254C19.448 0.697754 19.448 0.739421 19.448 0.791504Z" fill="#F9C588"/>
<path d="M23.125 1.88525C23.5 2.67692 23.8333 3.37484 24.1562 4.08317C24.25 4.28109 24.3542 4.37484 24.5833 4.39567C25.3125 4.48942 26.0417 4.61442 26.8021 4.729C26.7604 4.9165 26.625 4.99984 26.5208 5.104C26.1562 5.48942 25.8021 5.89567 25.4062 6.23942C25.0625 6.53109 25.0104 6.84359 25.0937 7.26025C25.2396 7.92692 25.3229 8.61442 25.4479 9.36442C24.7604 8.98942 24.125 8.65609 23.5104 8.2915C23.25 8.13525 23.0417 8.12484 22.7708 8.28109C22.1458 8.65609 21.5104 8.98942 20.8229 9.36442C20.9583 8.51025 21.0729 7.70817 21.2187 6.92692C21.2604 6.71859 21.2083 6.59359 21.0625 6.44775C20.5729 5.95817 20.0937 5.46859 19.625 4.96859C19.5729 4.90609 19.4479 4.86442 19.5 4.74984C19.5312 4.6665 19.6354 4.68734 19.7083 4.67692C20.375 4.57275 21.0417 4.45817 21.7083 4.37484C21.9271 4.34359 22.0208 4.24984 22.1042 4.07275C22.4167 3.38525 22.75 2.67692 23.125 1.88525Z" fill="#F9C588"/>
<path d="M36.2499 30.0001C34.8645 30.0313 33.8124 31.0626 33.7499 32.4584C33.7291 32.8855 33.4895 33.1355 33.1041 33.1251C32.7395 33.1147 32.5104 32.8647 32.4999 32.4584C32.4479 30.8334 33.8437 29.1251 35.4687 28.8334C35.7187 28.7917 35.9791 28.7188 36.2395 28.7605C36.2395 29.1667 36.2395 29.5834 36.2499 30.0001Z" fill="#EAC3A6"/>
<path d="M3.76042 28.7497C5.5625 28.7289 7.17708 30.1039 7.42708 31.8747C7.45833 32.0935 7.51042 32.3018 7.5 32.531C7.46875 32.8956 7.20833 33.1352 6.85417 33.1247C6.52083 33.1143 6.27083 32.8852 6.25 32.5414C6.22917 32.1352 6.14583 31.7497 5.96875 31.3852C5.51042 30.4581 4.72917 30.0727 3.75 30.0102C3.76042 29.5831 3.76042 29.1664 3.76042 28.7497Z" fill="#EAC3A6"/>
<path d="M30.3125 1.88549C30.9479 1.88549 31.2396 2.07299 31.25 2.50007C31.2604 2.93757 30.9583 3.13549 30.2917 3.13549C30.1979 3.13549 30.1146 3.13549 30.0208 3.13549C29.6354 3.11466 29.375 2.85424 29.375 2.50007C29.3854 2.14591 29.6458 1.90632 30.0417 1.88549C30.125 1.87507 30.2188 1.88549 30.3125 1.88549Z" fill="#5D9F44"/>
<path d="M33.427 3.13525C32.7916 3.13525 32.4999 2.93734 32.4895 2.52067C32.4791 2.09359 32.7812 1.88525 33.4062 1.88525C34.0624 1.88525 34.3645 2.08317 34.3645 2.52067C34.3645 2.93734 34.0729 3.13525 33.427 3.13525Z" fill="#5D9F44"/>
<path d="M32.4999 4.07253C32.4999 4.70794 32.302 4.99961 31.8749 4.99961C31.4478 4.99961 31.2499 4.70794 31.2395 4.08294C31.2395 3.42669 31.4478 3.12461 31.8749 3.13503C32.3124 3.14544 32.4999 3.43711 32.4999 4.07253Z" fill="#5D9F44"/>
<path d="M6.26042 5.3125C6.26042 5.95833 6.07292 6.23958 5.65625 6.26042C5.20833 6.27083 5 5.95833 5 5.30208C5 4.67708 5.19792 4.375 5.625 4.375C6.0625 4.38542 6.26042 4.67708 6.26042 5.3125Z" fill="#5D9F44"/>
<path d="M4.07292 7.51042C3.42708 7.51042 3.14583 7.32292 3.125 6.90625C3.125 6.45833 3.42708 6.25 4.08333 6.25C4.10417 6.25 4.13542 6.25 4.15625 6.25C4.70833 6.25 5 6.46875 5 6.875C5 7.28125 4.70833 7.5 4.14583 7.5C4.125 7.51042 4.10417 7.51042 4.07292 7.51042Z" fill="#5D9F44"/>
<path d="M7.19793 6.25C7.83335 6.25 8.12502 6.44792 8.12502 6.875C8.12502 7.30208 7.83335 7.5 7.19793 7.5C6.54168 7.5 6.2396 7.29167 6.25002 6.85417C6.27085 6.4375 6.56252 6.25 7.19793 6.25Z" fill="#5D9F44"/>
<path d="M6.26042 8.43734C6.26042 9.07275 6.07292 9.36442 5.64583 9.37484C5.20833 9.38525 5 9.08317 5 8.42692C5 8.354 5 8.27067 5 8.19775C5.01042 7.78109 5.27083 7.51025 5.63542 7.51025C6 7.52067 6.23958 7.78109 6.25 8.20817C6.26042 8.28109 6.26042 8.36442 6.26042 8.43734Z" fill="#5D9F44"/>
<path d="M36.8645 11.5623C36.8645 10.9269 37.052 10.6352 37.4791 10.6248C37.9062 10.6144 38.1145 10.9164 38.1145 11.5414C38.1145 12.1977 37.9166 12.4998 37.4791 12.4998C37.0624 12.4894 36.8645 12.1977 36.8645 11.5623Z" fill="#5D9F44"/>
<path d="M35.9686 12.5102C36.0832 12.5102 36.2082 12.4894 36.3228 12.5102C36.6561 12.5727 36.8541 12.7707 36.8749 13.1144C36.8957 13.4373 36.6457 13.7082 36.3124 13.7498C36.0936 13.7707 35.8749 13.7602 35.6561 13.7602C35.2603 13.7394 34.9999 13.4894 35.0103 13.1352C35.0103 12.7811 35.2707 12.5311 35.6666 12.5207C35.7603 12.4998 35.8645 12.4998 35.9686 12.5102Z" fill="#5D9F44"/>
<path d="M36.8645 14.6771C36.8645 14.0417 37.0624 13.75 37.4895 13.75C37.9166 13.75 38.1145 14.0417 38.1145 14.6771C38.1145 15.3333 37.9062 15.6354 37.4687 15.625C37.052 15.6146 36.8645 15.3229 36.8645 14.6771Z" fill="#5D9F44"/>
<path d="M38.1042 3.76006C38.4375 3.74964 38.7292 4.02047 38.7396 4.35381C38.75 4.70797 38.4688 5.01006 38.1146 4.99964C37.7709 4.99964 37.5 4.71839 37.5 4.38506C37.4896 4.05172 37.7605 3.76006 38.1042 3.76006Z" fill="#F5A445"/>
<path d="M1.8957 15.625C1.56236 15.6354 1.2707 15.3646 1.26028 15.0208C1.24986 14.6667 1.54153 14.375 1.8957 14.375C2.23945 14.375 2.51028 14.6562 2.51028 15C2.51028 15.3438 2.22903 15.625 1.8957 15.625Z" fill="#F5A445"/>
<path d="M20.0104 22.5C19.6771 22.5104 19.3854 22.2396 19.375 21.8958C19.3646 21.5417 19.6563 21.25 20.0104 21.25C20.3542 21.25 20.625 21.5312 20.625 21.875C20.625 22.2083 20.3438 22.4896 20.0104 22.5Z" fill="#F5A445"/>
<path d="M19.448 0.791341C19.448 0.739258 19.448 0.697591 19.448 0.645508C19.5938 0.645508 19.7292 0.645508 19.9063 0.645508C19.7813 0.780924 19.6563 0.812174 19.5209 0.853841C19.5001 0.833008 19.4792 0.812174 19.448 0.791341Z" fill="#FBE33E"/>
<path d="M28.7291 9.92708C28.677 9.92708 28.6353 9.92708 28.5833 9.92708C28.5624 9.90625 28.5416 9.875 28.5208 9.85417C28.552 9.71875 28.5937 9.59375 28.7291 9.46875C28.7291 9.64583 28.7291 9.79167 28.7291 9.92708Z" fill="#FBE33F"/>
</svg>
