<svg width="113" height="114" viewBox="0 0 113 114" fill="none" xmlns="http://www.w3.org/2000/svg">
<path d="M76.6989 107.246C76.4083 107.762 75.9239 107.601 75.5041 107.601C52.6739 107.601 29.8437 107.601 7.01351 107.601C3.39684 107.601 0.0708008 104.017 0.0708008 100.142C0.0708008 93.5219 0.0708008 86.9021 0.0708008 80.2823C0.0708008 56.5156 0.0708008 32.749 0.0708008 8.98229C0.0708008 4.10625 3.33226 0.8125 8.24059 0.8125C34.9458 0.8125 61.651 0.8125 88.3239 0.8125C92.2312 0.8125 95.2343 3.1375 96.1062 6.88333C96.2031 7.23854 96.2354 7.59375 96.2354 7.94896C96.2354 28.9385 96.2354 49.8958 96.2354 70.8854C96.2354 71.2083 96.2031 71.5312 96.2031 71.8542C92.6833 71.0792 89.1635 71.176 85.676 72.0479C85.6437 69.2385 85.6114 66.4292 85.6114 63.6521C85.6114 63.4583 85.6437 63.2646 85.6437 63.0385C85.6437 46.2792 85.6437 29.4875 85.676 12.7281C85.676 11.5979 85.1593 11.6302 84.3521 11.6302C60.2302 11.6302 36.1406 11.6302 12.0187 11.6302C10.9531 11.6302 10.6948 11.8885 10.6948 12.9542C10.7271 25.3219 10.7271 37.7219 10.7271 50.0896C10.7271 54.6427 10.7593 59.1958 10.7593 63.749C10.7593 69.2708 10.7593 74.7604 10.6948 80.2823C10.6948 80.9927 11.05 81.025 11.5666 81.025C16.7333 80.9927 21.9323 80.9927 27.0989 80.9927C27.551 81.2187 28.0354 81.0896 28.5198 81.0896C43.5677 81.0573 58.5833 81.025 73.6312 80.9927C73.5021 81.251 73.3729 81.5094 73.2437 81.7354C70.6281 86.3208 69.8208 91.2292 70.8541 96.4281C71.6937 100.658 73.7927 104.178 76.6989 107.246Z" fill="white"/>
<path d="M85.6438 72.0802C89.1313 71.2406 92.6511 71.1115 96.1709 71.8865C103.566 73.9531 108.7 78.5062 111.122 85.8364C114.093 94.7489 110.573 104.501 102.726 109.7C94.9761 114.834 84.7073 114.156 77.6354 107.989C77.3448 107.73 77.0219 107.472 76.699 107.214C73.7927 104.146 71.6938 100.626 70.8865 96.4281C69.8532 91.2292 70.6604 86.3531 73.2761 81.7354C73.4052 81.4771 73.5344 81.251 73.6636 80.9927C76.6021 76.6333 80.6063 73.6625 85.6438 72.0802ZM85.7407 83.6083C84.449 83.6406 83.5125 84.2219 82.9636 85.3844C82.4146 86.5469 82.6084 87.7094 83.4802 88.6458C84.4167 89.6792 85.45 90.6802 86.4511 91.6489C86.9031 92.0687 86.9354 92.3594 86.4511 92.8114C85.5146 93.6833 84.6104 94.6198 83.7063 95.5562C82.3823 96.9448 82.3177 98.7208 83.5448 99.9802C84.7396 101.207 86.5802 101.175 87.9688 99.8833C88.8407 99.0437 89.7448 98.2364 90.5198 97.3C91.1334 96.5573 91.5531 96.6864 92.1021 97.3323C92.8771 98.2042 93.7167 99.0115 94.5563 99.8187C95.9448 101.143 97.7532 101.207 98.9802 99.9802C100.207 98.7531 100.175 96.9125 98.8511 95.5562C97.9469 94.6198 97.0427 93.7156 96.1063 92.8114C95.6542 92.3917 95.6219 92.101 96.1063 91.6489C97.0427 90.7771 97.9469 89.8406 98.8511 88.9042C100.175 87.5156 100.207 85.7073 98.9802 84.4802C97.7532 83.2531 95.9448 83.2854 94.5563 84.6417C93.6521 85.5135 92.7479 86.3854 91.9084 87.2896C91.3917 87.8708 91.0688 87.774 90.5844 87.2573C89.7448 86.3531 88.8407 85.4812 87.9365 84.6094C87.3875 83.9958 86.6448 83.6083 85.7407 83.6083Z" fill="#F5A445"/>
<path d="M10.7594 63.749C10.7594 59.1958 10.7271 54.6427 10.7271 50.0896C10.7271 37.7219 10.7271 25.3219 10.6948 12.9542C10.6948 11.8886 10.9854 11.6302 12.0188 11.6302C36.1407 11.6625 60.2302 11.6625 84.3521 11.6302C85.1271 11.6302 85.6761 11.5979 85.6761 12.7281C85.6438 29.4875 85.6438 46.2792 85.6438 63.0386C85.6438 63.2323 85.6115 63.4261 85.6115 63.6521C85.3209 63.2323 84.998 62.8125 84.7073 62.3927C81.8657 58.0979 79.0563 53.7708 76.2146 49.4761C73.1792 44.8261 70.273 40.1115 67.1084 35.5583C64.6219 31.974 59.1969 32.0063 56.6782 35.6229C53.5459 40.1438 50.6396 44.8261 47.6688 49.4438C46.7646 50.7677 45.925 52.124 44.9886 53.4479C43.8584 55.0625 43.0188 56.8386 41.6625 58.2917C41.0167 57.2906 40.3386 56.2896 39.6927 55.2886C37.2709 51.575 34.9459 47.8292 32.4594 44.1802C30.3282 41.0479 25.8719 40.9833 23.7729 44.0511C21.2542 47.7323 18.8969 51.5104 16.475 55.2563C14.5052 58.0979 12.6323 60.9396 10.7594 63.749ZM39.6927 34.4927C44.0198 34.4927 47.5073 30.9729 47.5396 26.6458C47.5719 22.3188 44.0521 18.7667 39.725 18.7667C35.3334 18.7667 31.7813 22.3188 31.8459 26.6781C31.8782 31.0375 35.3657 34.4927 39.6927 34.4927Z" fill="#5D9F44"/>
<path d="M76.1825 49.476C79.0241 53.7708 81.8335 58.0979 84.6752 62.3927C84.9658 62.8125 85.2887 63.2323 85.5793 63.6521C85.6116 66.4614 85.6439 69.2708 85.6439 72.0479C80.6064 73.6302 76.6022 76.6333 73.6314 80.9927C58.5835 81.025 43.5679 81.0573 28.52 81.0896C28.0356 81.0896 27.5512 81.1864 27.0991 80.9927C27.0991 80.7021 27.2929 80.476 27.4543 80.25C30.8127 75.1156 34.2033 69.9812 37.5616 64.8146C38.9502 62.651 40.4679 60.5843 41.6304 58.2916C42.9866 56.8385 43.8262 55.0625 44.9564 53.4479C45.8929 52.1239 46.7325 50.7677 47.6366 49.4437C51.2533 51.4458 54.87 53.4802 58.4866 55.4177C60.7793 56.6448 63.1366 56.6125 65.397 55.3531C69.0137 53.4479 72.5981 51.4458 76.1825 49.476Z" fill="#385E29"/>
<path d="M41.6303 58.2916C40.4678 60.5843 38.9501 62.6833 37.5616 64.8146C34.2032 69.9812 30.8449 75.1156 27.4543 80.25C27.2928 80.476 27.1314 80.7021 27.0991 80.9927C21.9324 80.9927 16.7334 80.9927 11.5668 81.025C11.0178 81.025 10.6626 80.9927 10.6949 80.2823C10.7272 74.7604 10.7272 69.2708 10.7595 63.7489C12.6324 60.9073 14.5376 58.0979 16.4105 55.2562C19.5105 56.9677 22.5459 58.7437 25.6782 60.3583C27.3574 61.2302 29.1334 61.0687 30.7803 60.1646C33.7512 58.55 36.6897 56.9031 39.6605 55.2885C40.3064 56.2896 40.9522 57.2906 41.6303 58.2916Z" fill="#5C7751"/>
<path d="M85.7404 83.6083C86.6445 83.6083 87.355 83.9958 88.0008 84.6094C88.8727 85.4812 89.8091 86.3531 90.6487 87.2573C91.1331 87.774 91.456 87.8708 91.9727 87.2896C92.8122 86.3531 93.7164 85.4812 94.6206 84.6417C96.0091 83.3177 97.7852 83.2531 99.0445 84.4802C100.272 85.7073 100.239 87.5156 98.9154 88.9042C98.0435 89.8406 97.107 90.7448 96.1706 91.6489C95.7185 92.101 95.7185 92.3594 96.1706 92.8115C97.107 93.6833 98.0112 94.6198 98.9154 95.5562C100.207 96.9125 100.239 98.7854 99.0445 99.9802C97.8174 101.175 96.0091 101.143 94.6206 99.8187C93.781 99.0115 92.9091 98.2042 92.1664 97.3323C91.5852 96.6865 91.1977 96.5573 90.5841 97.3C89.8091 98.2042 88.905 99.0437 88.0331 99.8833C86.6445 101.175 84.8362 101.207 83.6091 99.9802C82.382 98.7208 82.4466 96.9448 83.7706 95.5562C84.6747 94.6198 85.5789 93.7156 86.5154 92.8115C86.9675 92.3917 86.9352 92.0687 86.5154 91.6489C85.482 90.6802 84.481 89.6792 83.5445 88.6458C82.6727 87.7094 82.4789 86.5792 83.0279 85.3844C83.5122 84.2219 84.4487 83.6406 85.7404 83.6083Z" fill="#FEFDFD"/>
<path d="M76.1825 49.476C72.5981 51.4458 69.0137 53.4479 65.4294 55.3854C63.1367 56.6125 60.7794 56.6447 58.5189 55.45C54.87 53.5125 51.2856 51.4781 47.6689 49.476C50.6721 44.8583 53.546 40.176 56.6783 35.6552C59.1971 32.0385 64.6221 31.9739 67.1085 35.5906C70.2408 40.1114 73.1471 44.826 76.1825 49.476Z" fill="white"/>
<path d="M39.6602 55.2885C36.7216 56.9031 33.7508 58.55 30.7799 60.1646C29.1331 61.0687 27.357 61.2302 25.6779 60.3583C22.5456 58.7437 19.4779 56.9677 16.4102 55.2562C18.832 51.5104 21.1893 47.7323 23.7081 44.051C25.8393 40.9833 30.2956 41.0479 32.3945 44.1802C34.881 47.8614 37.2383 51.6073 39.6602 55.2885Z" fill="white"/>
<path d="M39.6928 34.4927C35.3657 34.4927 31.8782 31.0375 31.8459 26.6782C31.8136 22.3188 35.3657 18.7344 39.7251 18.7667C44.0522 18.7667 47.5397 22.3188 47.5397 26.6459C47.5397 30.9729 44.0199 34.4927 39.6928 34.4927Z" fill="#F5A445"/>
</svg>
