<svg width="58" height="58" viewBox="0 0 58 58" fill="none" xmlns="http://www.w3.org/2000/svg">
<g clip-path="url(#clip0_616_3749)">
<path d="M57.9998 33.3501C57.6222 34.4224 56.8217 35.0115 55.8097 35.4495C54.3144 36.099 52.8493 36.8391 51.354 37.5339C50.8254 37.7756 50.3722 37.6245 50.1457 37.1714C49.9342 36.7334 50.1004 36.2803 50.6139 36.0084C50.6743 35.9782 50.7498 35.948 50.8254 35.9178C52.3207 35.2079 53.816 34.498 55.3113 33.8032C55.4623 33.7277 55.6134 33.6672 55.7644 33.5766C56.2327 33.3047 56.3988 32.8667 56.2024 32.4438C55.991 32.0058 55.5379 31.8396 55.0545 32.0511C54.3144 32.3683 53.5894 32.7308 52.8644 33.0782C37.7905 40.1922 22.7165 47.3214 7.64255 54.4355C7.53682 54.4808 7.4311 54.5261 7.34047 54.5865C6.90245 54.8433 6.75141 55.2813 6.93266 55.6891C7.11391 56.112 7.59724 56.3084 8.06547 56.0969C9.34933 55.5079 10.6181 54.9037 11.9019 54.2995C23.5019 48.8167 35.1019 43.349 46.717 37.8662C46.8228 37.8209 46.9134 37.7605 47.0191 37.7303C47.4873 37.549 47.9254 37.7001 48.1368 38.1079C48.3483 38.5308 48.2123 39.0141 47.729 39.2558C46.717 39.7542 45.6899 40.2376 44.678 40.7209C41.6571 42.1558 38.6212 43.5756 35.6004 45.0105C35.4342 45.086 35.2681 45.1766 35.0415 45.2974C37.1259 46.2792 39.1498 47.2459 41.1738 48.1974C44.5722 49.7985 47.9858 51.3995 51.3842 53.0308C52.6077 53.6047 53.1816 54.798 52.8644 56.0063C52.5623 57.1693 51.5051 57.9849 50.3118 57.9094C49.8587 57.8792 49.3905 57.7131 48.9827 57.5167C42.5181 54.4808 36.0535 51.4146 29.5889 48.3485C29.2113 48.1672 28.9243 48.1672 28.5467 48.3485C22.0368 51.4448 15.5118 54.511 9.00193 57.5922C7.47641 58.3172 5.90558 57.7433 5.34672 56.2933C4.86339 55.0245 5.43735 53.6652 6.7363 53.0459C9.83266 51.5808 12.929 50.1157 16.0254 48.6506C18.3514 47.548 20.6774 46.4454 23.0941 45.3126C22.8676 45.1917 22.7165 45.1162 22.5504 45.0407C15.6327 41.7631 8.69985 38.5006 1.78214 35.223C-0.166301 34.3016 -0.468384 31.9152 1.22328 30.7521C2.0087 30.2084 2.86964 30.148 3.74568 30.5407C4.74255 30.9938 5.72432 31.462 6.76651 31.9454C7.14412 30.9636 7.52172 30.012 7.89932 29.0605C8.02016 28.7433 8.14099 28.4261 8.26183 28.1089C8.68474 27.0365 9.42485 26.7344 10.467 27.2329C12.8535 28.3657 15.2248 29.4985 17.5962 30.6313C21.2363 32.3683 24.8764 34.0902 28.5014 35.8422C28.9092 36.0386 29.2264 36.0537 29.6493 35.8422C35.5853 32.9876 41.5363 30.1631 47.4722 27.3235C47.7592 27.1875 48.0613 27.0516 48.3634 27.0063C48.9978 26.9006 49.5415 27.2933 49.8285 28.0032C50.342 29.3021 50.8405 30.586 51.3691 31.9454C52.3962 31.462 53.3931 30.9787 54.3899 30.5407C55.5228 30.0271 56.7764 30.3443 57.4863 31.2959C57.6978 31.598 57.8488 31.9454 58.0149 32.2626C57.9998 32.5948 57.9998 32.9724 57.9998 33.3501ZM29.9061 42.0501C36.6123 38.8782 43.1978 35.7667 49.8285 32.6402C49.3149 31.3261 48.8316 30.0724 48.3181 28.7886C48.1066 28.8792 47.9556 28.9396 47.8045 29.0152C46.2337 29.7553 44.678 30.4954 43.1222 31.2506C38.8629 33.2745 34.6035 35.3136 30.3441 37.3527C30.1629 37.4433 29.9363 37.6396 29.9363 37.8058C29.891 39.1652 29.9061 40.5245 29.9061 42.0501ZM28.1993 42.0501C28.1993 40.6907 28.1691 39.4672 28.2144 38.2438C28.2295 37.7152 28.0483 37.4584 27.5801 37.2318C22.5051 34.8303 17.4603 32.4136 12.4004 30.012C11.5545 29.6042 10.7087 29.2115 9.80245 28.7886C9.28891 30.1027 8.79047 31.3714 8.29203 32.6704C14.9228 35.7818 21.5082 38.8782 28.1993 42.0501ZM27.0363 43.3943C26.8097 43.2735 26.6587 43.198 26.5228 43.1224C20.6623 40.3584 14.7868 37.5792 8.92641 34.8152C6.99307 33.8938 5.04464 32.9875 3.1113 32.0813C2.55245 31.8245 2.08422 31.9907 1.87276 32.4589C1.67641 32.912 1.85766 33.3198 2.3863 33.6068C2.43162 33.637 2.49203 33.6672 2.53735 33.6823C9.93839 37.1714 17.3243 40.6605 24.7254 44.1495C24.8613 44.2099 25.0728 44.3006 25.1936 44.2402C25.7978 43.9985 26.3868 43.7115 27.0363 43.3943ZM31.1144 47.1099C31.2051 47.2006 31.2353 47.2308 31.2655 47.2459C37.4884 50.1912 43.6962 53.1214 49.9191 56.0667C50.4478 56.3235 50.9613 56.1422 51.1577 55.6891C51.354 55.2209 51.1577 54.7829 50.5837 54.511C44.8441 51.7922 39.1045 49.0735 33.3498 46.3698C33.1837 46.2943 32.942 46.2641 32.7759 46.3396C32.2321 46.5511 31.7035 46.823 31.1144 47.1099Z" fill="#5D9F44"/>
<path d="M39.1196 0C39.7842 0.241667 40.5092 0.377604 41.1284 0.725C43.0467 1.8125 44.0133 3.51927 44.0284 5.73958C44.0436 9.86302 44.0738 13.9865 44.0284 18.125C43.9982 21.5083 41.5665 23.8495 38.1982 23.8646C36.28 23.8646 34.3467 23.8797 32.4284 23.8495C32.0508 23.8495 31.8545 23.9703 31.6883 24.3026C31.3107 25.0578 30.9029 25.7979 30.4951 26.5531C30.193 27.1271 29.7097 27.4745 29.0451 27.4745C28.3805 27.4745 27.9123 27.1271 27.6102 26.5531C27.2175 25.7979 26.7946 25.0729 26.417 24.3026C26.2508 23.9703 26.0545 23.8495 25.6769 23.8495C23.7738 23.8646 21.8706 23.8646 19.9675 23.8646C16.5238 23.8646 14.1071 21.5083 14.0769 18.0797C14.0467 15.8141 14.0769 13.5635 14.0769 11.2979C14.0769 11.162 14.0769 11.026 14.1071 10.9052C14.1977 10.4521 14.4998 10.2104 14.9378 10.2104C15.3607 10.2104 15.6477 10.4521 15.7232 10.875C15.7686 11.0714 15.7534 11.2828 15.7534 11.4943C15.7534 13.6391 15.7534 15.7839 15.7534 17.9437C15.7686 20.5417 17.3998 22.1729 19.9977 22.1729C21.9613 22.1729 23.9248 22.188 25.8732 22.1729C26.7644 22.1729 27.3837 22.5354 27.7764 23.3208C28.1691 24.0609 28.5769 24.801 29.03 25.6469C29.4529 24.8615 29.8607 24.1667 30.2081 23.4417C30.6462 22.5505 31.3258 22.1427 32.3227 22.1578C34.2561 22.188 36.2045 22.1729 38.1529 22.1729C40.6149 22.1729 42.2915 20.5417 42.3066 18.0797C42.3217 13.9865 42.3217 9.90833 42.3066 5.8151C42.2915 3.35312 40.63 1.72187 38.168 1.72187C32.0811 1.72187 25.9941 1.72187 19.9071 1.72187C17.4149 1.72187 15.7686 3.35312 15.7383 5.86042C15.7383 6.31354 15.7534 6.76667 15.693 7.21979C15.6326 7.67292 15.3003 7.91458 14.8623 7.91458C14.4545 7.91458 14.1675 7.67292 14.0618 7.25C13.4425 4.48594 14.9529 1.52552 17.5508 0.468229C18.004 0.286979 18.4873 0.18125 18.9404 0.0453125C25.692 0 32.3982 0 39.1196 0Z" fill="#F5A445"/>
<path d="M28.9845 14.4547C26.6132 14.4547 24.2418 14.4547 21.8705 14.4547C21.6439 14.4547 21.4173 14.4547 21.2059 14.3792C20.7981 14.2432 20.5564 13.8958 20.6923 13.5031C20.7981 13.2161 21.1001 12.9745 21.3569 12.7932C21.4778 12.7026 21.7194 12.763 21.9158 12.763C26.6736 12.763 31.4314 12.763 36.2043 12.763C36.3705 12.763 36.5517 12.7479 36.7179 12.7781C37.1408 12.8385 37.3975 13.0802 37.4429 13.5182C37.4882 13.9713 37.2767 14.2885 36.8387 14.4094C36.6423 14.4698 36.4309 14.4547 36.2194 14.4547C33.8028 14.4547 31.4012 14.4547 28.9845 14.4547Z" fill="#F5A445"/>
<path d="M30.1176 9.16821C32.1717 9.16821 34.2259 9.16821 36.2801 9.16821C36.4915 9.16821 36.703 9.16821 36.8842 9.24373C37.2921 9.39477 37.5337 9.72707 37.3978 10.1198C37.2921 10.4068 36.9749 10.6182 36.7181 10.8448C36.6426 10.9052 36.4613 10.8599 36.3254 10.8599C32.202 10.8599 28.0634 10.8599 23.94 10.8599C23.8645 10.8599 23.7889 10.8599 23.7134 10.8599C23.1848 10.8297 22.8374 10.4823 22.8223 10.014C22.8223 9.56092 23.1848 9.19842 23.6983 9.16821C24.1363 9.15311 24.5592 9.16821 24.9973 9.16821C26.7342 9.16821 28.4259 9.16821 30.1176 9.16821Z" fill="#F5A445"/>
<path d="M26.9004 18.0192C25.2239 18.0192 23.5473 18.0192 21.8708 18.0192C21.6895 18.0192 21.4932 18.0343 21.3119 17.989C20.9192 17.9135 20.6926 17.6416 20.6624 17.2489C20.6322 16.8411 20.8135 16.539 21.1911 16.4182C21.4176 16.3427 21.6744 16.3427 21.9161 16.3427C25.2088 16.3427 28.5015 16.3427 31.8093 16.3427C32.7155 16.3427 33.1385 16.6296 33.1234 17.2187C33.1083 17.7927 32.7155 18.0343 31.8244 18.0343C30.178 18.0192 28.5468 18.0192 26.9004 18.0192Z" fill="#F5A445"/>
<path d="M24.4079 5.5885C25.3142 5.5885 26.2204 5.5885 27.1267 5.5885C27.8064 5.5885 28.1689 5.89058 28.1689 6.43433C28.1689 6.97808 27.8215 7.28017 27.1267 7.28017C25.3142 7.29527 23.5017 7.29527 21.7043 7.28017C21.0095 7.28017 20.6621 6.97808 20.6621 6.43433C20.6621 5.89058 21.0095 5.5885 21.7043 5.5885C22.5954 5.5885 23.5017 5.5885 24.4079 5.5885Z" fill="#F5A445"/>
</g>
<defs>
<clipPath id="clip0_616_3749">
<rect width="58" height="58" fill="white"/>
</clipPath>
</defs>
</svg>
