<svg width="58" height="58" viewBox="0 0 58 58" fill="none" xmlns="http://www.w3.org/2000/svg">
<g clip-path="url(#clip0_616_3709)">
<path d="M58 29.287C55.6286 31.6583 53.3026 34.075 50.8708 36.3859C49.9797 37.2318 49.6172 38.0927 49.6474 39.3162C49.738 42.4427 49.6776 45.5693 49.6776 48.6958C49.6776 49.5719 49.5416 49.7078 48.6505 49.7078C45.1463 49.7078 41.627 49.7078 38.1229 49.6927C37.7151 49.6927 37.4281 49.8136 37.1411 50.1005C34.7093 52.5474 32.2625 54.9792 29.8307 57.4109C29.6343 57.6073 29.4229 57.8037 29.2114 57.9849C29.0604 57.9849 28.9093 57.9849 28.7583 57.9849C26.2963 55.538 23.8192 53.1214 21.4026 50.6292C20.7229 49.9193 20.0432 49.6323 19.0463 49.6474C15.7989 49.7078 12.5515 49.6776 9.31924 49.6776C8.42809 49.6776 8.29215 49.5417 8.29215 48.6656C8.29215 45.1615 8.29215 41.6573 8.30726 38.1531C8.30726 37.7453 8.18643 37.4583 7.89945 37.1714C5.43747 34.7396 2.99059 32.2776 0.528613 29.8307C0.347363 29.6495 0.166113 29.4531 -0.0151367 29.2568C-0.0151367 29.1057 -0.0151367 28.9547 -0.0151367 28.8037C2.32601 26.4776 4.60674 24.0912 7.0083 21.8406C8.02028 20.9042 8.41299 19.9526 8.36767 18.563C8.26195 15.4969 8.33747 12.4156 8.33747 9.34949C8.33747 8.50365 8.4583 8.38282 9.33434 8.38282C12.8385 8.38282 16.3578 8.38282 19.8619 8.38282C20.2547 8.38282 20.5265 8.27709 20.7984 7.99011C23.2906 5.48282 25.7828 3.00574 28.275 0.51355C28.8791 -0.0906169 29.0604 -0.0906169 29.6645 0.51355C32.1718 3.03595 34.6489 5.51303 37.126 8.00522C37.4432 8.3224 37.7453 8.47345 38.1984 8.45834C41.7026 8.44324 45.2218 8.44324 48.726 8.44324C49.5416 8.44324 49.6776 8.57917 49.6776 9.3948C49.6776 12.899 49.6776 16.4031 49.6776 19.9073C49.6776 20.3151 49.7833 20.6021 50.0854 20.9042C52.5474 23.3359 54.9791 25.7677 57.426 28.2146C57.6224 28.4109 57.8187 28.6224 58.0151 28.8188C58 28.9849 58 29.1359 58 29.287ZM56.5198 29.0604C56.3687 28.9094 56.2479 28.7734 56.127 28.6375C53.7255 26.2359 51.3239 23.8344 48.9073 21.4479C48.6052 21.1458 48.4692 20.8438 48.4692 20.4057C48.4843 17.0375 48.4843 13.6693 48.4843 10.2859C48.4843 10.0745 48.4843 9.84793 48.4843 9.62136C48.1823 9.62136 47.9708 9.62136 47.7744 9.62136C44.4213 9.62136 41.0531 9.62136 37.7 9.63647C37.2771 9.63647 36.9599 9.51563 36.6578 9.21355C34.2713 6.81199 31.8547 4.41042 29.4531 2.00886C29.3172 1.87292 29.1661 1.73699 29.0302 1.60105C26.4776 4.15365 23.9552 6.64584 21.4479 9.15313C21.1005 9.50053 20.738 9.63647 20.2547 9.63647C16.9166 9.62136 13.5786 9.62136 10.2255 9.62136C10.014 9.62136 9.78747 9.62136 9.5307 9.62136C9.5307 9.90834 9.5307 10.1198 9.5307 10.3162C9.5307 13.6693 9.5307 17.0224 9.5458 20.3755C9.5458 20.8287 9.40986 21.1458 9.09268 21.463C6.69111 23.8344 4.30465 26.2208 1.9182 28.6073C1.78226 28.7432 1.64632 28.8943 1.43486 29.1208C1.63122 29.2719 1.81247 29.3927 1.96351 29.5287C4.34997 31.9 6.72132 34.2714 9.10778 36.6276C9.42497 36.9448 9.5609 37.262 9.5609 37.7151C9.5458 41.0833 9.5458 44.4516 9.5458 47.8349C9.5458 48.0313 9.5458 48.2276 9.5458 48.4844C9.83278 48.4844 10.0291 48.4844 10.2406 48.4844C13.5786 48.4844 16.9166 48.4995 20.2698 48.4693C20.7682 48.4693 21.1156 48.6052 21.463 48.9526C23.8192 51.3391 26.2057 53.7104 28.577 56.0818C28.713 56.2177 28.8791 56.3537 29.0906 56.5651C29.2416 56.3839 29.3625 56.2026 29.4984 56.0667C31.8849 53.6802 34.2713 51.2938 36.6578 48.9073C36.9599 48.6052 37.2771 48.4844 37.7 48.4844C41.0833 48.4995 44.4515 48.4995 47.8349 48.4995C48.0312 48.4995 48.2427 48.4995 48.4994 48.4995C48.4994 48.2276 48.4994 48.0313 48.4994 47.8349C48.4994 44.4667 48.4994 41.0984 48.4843 37.7151C48.4843 37.2771 48.6203 36.975 48.9224 36.6729C51.339 34.2865 53.7406 31.8849 56.1422 29.4833C56.2479 29.3474 56.3687 29.2115 56.5198 29.0604Z" fill="#5D9F44"/>
<path d="M56.5199 29.0604C56.3689 29.2115 56.2481 29.3474 56.1272 29.4834C53.7257 31.8849 51.3241 34.2865 48.9074 36.673C48.6053 36.975 48.4694 37.2771 48.4694 37.7151C48.4845 41.0834 48.4845 44.4516 48.4845 47.8349C48.4845 48.0313 48.4845 48.2427 48.4845 48.4995C48.2277 48.4995 48.0314 48.4995 47.8199 48.4995C44.4366 48.4995 41.0684 48.4995 37.685 48.4844C37.2621 48.4844 36.9449 48.6052 36.6428 48.9073C34.2715 51.3089 31.8699 53.6802 29.4835 56.0667C29.3324 56.2177 29.2267 56.3839 29.0757 56.5651C28.8491 56.3537 28.698 56.2177 28.5621 56.0818C26.1908 53.7104 23.8043 51.3391 21.448 48.9526C21.1007 48.6052 20.7382 48.4693 20.2548 48.4693C16.9168 48.4844 13.5788 48.4844 10.2257 48.4844C10.0142 48.4844 9.81784 48.4844 9.53086 48.4844C9.53086 48.2427 9.53086 48.0464 9.53086 47.8349C9.53086 44.4667 9.53086 41.0985 9.54596 37.7151C9.54596 37.262 9.41003 36.9448 9.09284 36.6276C6.70638 34.2714 4.33503 31.8849 1.94857 29.5287C1.79753 29.3776 1.61628 29.2719 1.41992 29.1209C1.63138 28.8943 1.76732 28.7433 1.90326 28.6073C4.28971 26.2209 6.67617 23.8344 9.07773 21.4631C9.39492 21.1459 9.53086 20.8287 9.53086 20.3756C9.51575 17.0224 9.51576 13.6693 9.51576 10.3162C9.51576 10.1047 9.51576 9.90837 9.51576 9.62139C9.77253 9.62139 9.98398 9.62139 10.2105 9.62139C13.5486 9.62139 16.8866 9.60628 20.2397 9.63649C20.7382 9.63649 21.0855 9.50055 21.4329 9.15316C23.9402 6.64587 26.4475 4.15368 29.0152 1.60107C29.1512 1.73701 29.3022 1.87295 29.4382 2.00889C31.8397 4.41045 34.2413 6.79691 36.6428 9.21357C36.9449 9.51566 37.2621 9.63649 37.685 9.63649C41.0382 9.62139 44.4064 9.62139 47.7595 9.62139C47.971 9.62139 48.1673 9.62139 48.4694 9.62139C48.4694 9.86305 48.4694 10.0745 48.4694 10.286C48.4694 13.6542 48.4694 17.0224 48.4543 20.4058C48.4543 20.8438 48.5902 21.1459 48.8923 21.4479C51.309 23.8344 53.7105 26.236 56.1121 28.6375C56.2481 28.7584 56.3689 28.8943 56.5199 29.0604ZM45.1918 17.8834C45.1918 16.524 45.1918 15.1646 45.1918 13.8203C45.1918 13.0651 45.0257 12.899 44.2553 12.899C41.5819 12.899 38.8934 12.8839 36.2199 12.899C35.8423 12.899 35.5855 12.7933 35.3288 12.5214C33.4408 10.6183 31.5527 8.73024 29.6496 6.84222C29.1059 6.29847 28.8944 6.29847 28.3356 6.84222C26.4324 8.74535 24.5293 10.6636 22.596 12.5516C22.4147 12.7328 22.0824 12.8688 21.8257 12.8688C19.122 12.899 16.4335 12.8839 13.7298 12.8839C12.9595 12.8839 12.7934 13.05 12.7934 13.8052C12.7934 16.4787 12.7934 19.1521 12.7934 21.8256C12.7934 22.1881 12.7027 22.4599 12.4309 22.7167C10.5428 24.5745 8.68503 26.4323 6.81211 28.3052C6.13242 28.9849 6.13242 29.1209 6.82721 29.8157C8.70013 31.6735 10.573 33.5313 12.4309 35.4193C12.6272 35.6157 12.7632 35.9631 12.7632 36.25C12.7934 38.9235 12.7783 41.5969 12.7783 44.2703C12.7783 45.0709 12.9293 45.2219 13.7449 45.2219C16.4184 45.2219 19.1069 45.2068 21.7803 45.237C22.0522 45.237 22.3996 45.3881 22.6111 45.5693C24.5293 47.4422 26.4022 49.3453 28.3053 51.2334C28.8793 51.8073 29.0757 51.8224 29.6647 51.2334C31.5527 49.3605 33.4257 47.4724 35.2986 45.5844C35.5704 45.3125 35.8423 45.1917 36.235 45.1917C38.8934 45.2068 41.5517 45.2068 44.2251 45.2068C45.0408 45.2068 45.1918 45.0558 45.1918 44.2552C45.1918 41.5969 45.2069 38.9386 45.1767 36.2802C45.1767 35.8875 45.2824 35.6157 45.5543 35.3438C47.3819 33.5464 49.1944 31.7339 51.0069 29.9214C51.8678 29.0604 51.8678 29.0151 51.022 28.1693C49.2095 26.3568 47.397 24.5443 45.5694 22.7469C45.2673 22.4599 45.1616 22.173 45.1767 21.7651C45.2069 20.4813 45.1918 19.1823 45.1918 17.8834Z" fill="#F5A445"/>
<path d="M45.1918 17.8834C45.1918 19.1823 45.2069 20.4813 45.1767 21.7803C45.1767 22.1881 45.2824 22.4751 45.5694 22.762C47.397 24.5594 49.2095 26.3719 51.022 28.1844C51.8678 29.0303 51.8678 29.0756 51.0069 29.9365C49.1944 31.749 47.3819 33.5615 45.5543 35.3589C45.2824 35.6308 45.1767 35.9027 45.1767 36.2954C45.1918 38.9537 45.1918 41.612 45.1918 44.2704C45.1918 45.0709 45.0407 45.2219 44.2251 45.2219C41.5668 45.2219 38.9084 45.237 36.235 45.2068C35.8423 45.2068 35.5704 45.3277 35.2986 45.5995C33.4256 47.4875 31.5376 49.3605 29.6647 51.2485C29.0907 51.8224 28.8944 51.8224 28.3053 51.2485C26.4173 49.3605 24.5293 47.4573 22.6111 45.5844C22.4147 45.3881 22.0673 45.2521 21.7803 45.2521C19.1069 45.2219 16.4183 45.237 13.7449 45.237C12.9293 45.237 12.7782 45.086 12.7782 44.2855C12.7782 41.612 12.7933 38.9386 12.7631 36.2652C12.7631 35.9933 12.6272 35.6459 12.4308 35.4344C10.573 33.5464 8.70011 31.6886 6.8272 29.8308C6.13241 29.136 6.1324 29.0001 6.81209 28.3204C8.68501 26.4626 10.5428 24.5896 12.4308 22.7318C12.7027 22.4751 12.7933 22.2032 12.7933 21.8407C12.7782 19.1672 12.7782 16.4938 12.7933 13.8204C12.7933 13.0652 12.9595 12.899 13.7298 12.899C16.4334 12.899 19.122 12.9141 21.8256 12.8839C22.0824 12.8839 22.4147 12.748 22.5959 12.5667C24.5142 10.6787 26.4173 8.76047 28.3355 6.85734C28.8944 6.31359 29.0907 6.29849 29.6496 6.85734C31.5527 8.74536 33.4407 10.6334 35.3288 12.5365C35.5855 12.7933 35.8423 12.9141 36.2199 12.9141C38.8933 12.899 41.5819 12.899 44.2553 12.9141C45.0256 12.9141 45.1918 13.0803 45.1918 13.8355C45.2069 15.1646 45.1918 16.524 45.1918 17.8834ZM7.79386 29.0303C7.97511 29.2115 8.09595 29.3474 8.23188 29.4834C9.98397 31.2355 11.7209 32.9876 13.4881 34.7094C13.8808 35.1021 14.047 35.4948 14.0319 36.0537C14.0017 38.4855 14.0168 40.9172 14.0168 43.349C14.0168 43.5454 14.0168 43.7568 14.0168 43.9985C14.2887 43.9985 14.5001 43.9985 14.6965 43.9985C17.1736 43.9985 19.6506 44.0136 22.1126 43.9834C22.5657 43.9834 22.898 44.1193 23.2152 44.4365C24.9824 46.2188 26.7647 47.986 28.5319 49.7532C28.6678 49.8891 28.8189 50.0251 29.0605 50.2516C29.2116 50.0553 29.3173 49.874 29.4532 49.723C31.2053 47.9709 32.9574 46.2339 34.6944 44.4818C35.0418 44.1344 35.3892 43.9834 35.8876 43.9834C38.3647 43.9985 40.8267 43.9985 43.3038 43.9985C43.5001 43.9985 43.7116 43.9985 43.9532 43.9985C43.9532 43.7266 43.9532 43.5152 43.9532 43.3188C43.9532 40.8266 43.9381 38.3495 43.9683 35.8573C43.9683 35.5251 44.1345 35.1172 44.3762 34.8756C46.1584 33.048 47.9709 31.2657 49.7683 29.4683C49.9043 29.3323 50.0251 29.1964 50.1611 29.0454C50.01 28.8792 49.8741 28.7433 49.7532 28.6224C47.986 26.8704 46.234 25.1032 44.4517 23.3511C44.1043 23.0037 43.9381 22.6563 43.9532 22.1579C43.9683 19.6959 43.9683 17.2188 43.9683 14.7568C43.9683 14.5605 43.9683 14.349 43.9683 14.1073C43.6965 14.1073 43.485 14.1073 43.2887 14.1073C40.7965 14.1073 38.3043 14.1224 35.8121 14.0922C35.4798 14.0922 35.072 13.9261 34.8303 13.6844C33.0178 11.9172 31.2355 10.1198 29.4532 8.33755C29.3173 8.20161 29.1512 8.06568 29.0001 7.91464C28.834 8.06568 28.698 8.18651 28.5621 8.32245C26.7798 10.0896 24.9975 11.8568 23.2454 13.6391C22.9131 13.9714 22.5657 14.1073 22.0975 14.1073C19.6204 14.0922 17.1584 14.0922 14.6814 14.0922C14.485 14.0922 14.2736 14.0922 14.0319 14.0922C14.0319 14.3641 14.0319 14.5756 14.0319 14.7719C14.0319 17.2037 14.0168 19.6355 14.047 22.0672C14.047 22.5959 13.8959 22.9886 13.5183 23.3662C11.6001 25.224 9.7272 27.112 7.79386 29.0303Z" fill="#5D9F44"/>
<path d="M35.8122 26.8552C35.5705 26.2963 35.3439 25.7677 35.1174 25.2239C34.921 24.7859 34.9361 24.3781 35.2684 24.0156C35.5856 23.6531 35.9934 23.5776 36.4465 23.7286C37.1413 23.9552 37.8512 24.1817 38.546 24.3932C39.0293 24.5442 39.3163 24.8765 39.3767 25.3599C39.4372 25.8583 39.1955 26.2208 38.7726 26.4776C38.3044 26.7646 37.8512 27.0364 37.3679 27.3234C37.5038 27.7916 37.8663 28.275 37.232 28.5771C36.7184 28.8187 36.4918 28.3958 36.2653 27.9578C34.8757 28.8036 33.5012 29.6192 32.1267 30.45C32.1418 30.4802 32.1418 30.5255 32.157 30.5557C32.3382 30.5708 32.5195 30.5859 32.6856 30.5859C34.634 30.5859 36.5674 30.5859 38.5158 30.5859C39.1804 30.5859 39.5731 30.8578 39.6335 31.3713C39.6939 31.9 39.3616 32.2776 38.682 32.4286C37.2471 32.7307 35.7971 33.0026 34.3622 33.3349C33.8335 33.4557 33.32 33.6521 32.8366 33.9088C31.3413 34.6791 31.2205 35.9026 32.5043 36.9901C33.0028 37.413 33.0028 37.9567 32.4741 38.3494C32.3533 38.4401 32.157 38.5005 32.0059 38.4854C30.5408 38.3343 29.0304 37.0807 28.6981 35.676C28.5471 35.0718 28.5168 34.4526 28.4262 33.8333C28.3809 33.4406 28.3356 33.0479 28.2752 32.5343C28.0788 32.7156 27.9429 32.8515 27.7919 32.9724C26.7497 33.8937 25.7377 34.8604 24.6351 35.7213C23.8195 36.3708 22.8679 36.8088 21.7955 36.8541C19.7262 36.9448 18.0044 35.0265 18.533 33.0328C18.8804 31.7036 19.4997 30.4349 20.0283 29.151C20.1642 28.7885 20.4814 28.6979 20.8288 28.8489C21.1762 29.0151 21.2669 29.3021 21.1158 29.6494C20.7835 30.4349 20.4512 31.2052 20.134 31.9906C19.9981 32.3229 19.8924 32.6552 19.7866 33.0026C19.258 34.6942 20.8741 36.0385 22.3695 35.4948C23.2304 35.1776 24.0762 34.6791 24.7861 34.0901C25.8585 33.214 26.8403 32.2021 27.807 31.2052C27.958 31.0541 27.9882 30.6916 27.9429 30.45C27.4596 28.0182 26.659 25.6922 25.5866 23.4718C25.496 23.2906 25.4054 23.0942 25.2997 22.913C25.0882 22.5203 25.0127 22.1276 25.4809 21.901C25.9189 21.6896 26.1908 21.9614 26.3721 22.3541C26.9158 23.5776 27.4898 24.7859 27.9731 26.0244C29.0455 28.8036 29.4533 31.7338 29.7856 34.6791C29.8611 35.2984 29.982 35.9026 30.5559 36.4161C30.5257 36.2198 30.5106 36.114 30.4955 35.9932C30.2689 34.7849 30.7976 33.6369 32.0361 32.9875C32.8669 32.5494 33.7882 32.3078 34.6642 31.9755C34.8153 31.9151 34.9814 31.8849 35.1174 31.7489C33.6825 31.7489 32.2325 31.7489 30.7976 31.7489C30.6163 31.7489 30.42 31.7489 30.2387 31.7489C29.8611 31.7489 29.5741 31.5979 29.4684 31.2203C29.3778 30.8427 29.559 30.5708 29.8762 30.3744C31.6585 29.3172 33.4408 28.2448 35.208 27.1875C35.4044 27.1119 35.6007 26.9911 35.8122 26.8552ZM36.8543 26.2208C37.2622 25.9791 37.6096 25.7677 38.0476 25.4958C37.4283 25.2994 36.9299 25.1333 36.3106 24.9369C36.507 25.4203 36.6731 25.7828 36.8543 26.2208Z" fill="#5D9F44"/>
<path d="M31.4316 21.5688C32.1264 21.7047 32.2624 21.6141 32.2624 20.9797C32.2624 20.7229 32.2624 20.4511 32.2624 20.1943C32.2624 19.8016 32.504 19.5448 32.8514 19.6052C33.078 19.6505 33.3197 19.9224 33.4254 20.1641C33.5311 20.4058 33.4556 20.7229 33.4556 20.9948C33.4405 22.2787 32.8816 22.8375 31.5827 22.8526C30.9181 22.8526 30.2686 22.8677 29.604 22.8375C28.8941 22.8073 28.3051 22.3844 28.1691 21.6896C28.0634 21.161 28.0634 20.6021 28.1238 20.0735C28.1389 19.8922 28.5014 19.6052 28.6978 19.6052C28.8941 19.6052 29.166 19.8771 29.2566 20.0886C29.3624 20.3302 29.2869 20.6474 29.302 20.9193C29.302 21.6141 29.3926 21.6745 30.1931 21.5537C30.1931 21.3875 30.1931 21.2063 30.1931 21.025C30.1931 20.1037 30.329 19.8318 30.7973 19.8771C31.5978 19.9526 31.3259 20.6021 31.3712 21.0552C31.4316 21.2365 31.4316 21.4026 31.4316 21.5688Z" fill="#5D9F44"/>
</g>
<defs>
<clipPath id="clip0_616_3709">
<rect width="58" height="58" fill="white"/>
</clipPath>
</defs>
</svg>
