<svg width="58" height="58" viewBox="0 0 58 58" fill="none" xmlns="http://www.w3.org/2000/svg">
<path d="M57.9998 48.4995C57.8337 48.9979 57.728 49.5115 57.5014 49.9797C56.4441 52.1698 54.692 53.3328 52.2603 53.3479C48.016 53.3782 43.7868 53.363 39.5425 53.363C28.3504 53.363 17.1582 53.363 5.96598 53.363C3.15661 53.363 0.906087 51.6563 0.271712 49.0433C0.150879 48.5599 0.105566 48.0313 0.105566 47.5328C0.0904622 35.1323 0.0904622 22.7318 0.105566 10.3313C0.105566 6.96305 2.56755 4.51617 5.92067 4.51617C11.8415 4.50107 17.7472 4.51617 23.6681 4.51617C23.8191 4.51617 23.9701 4.51617 24.1212 4.53127C24.6951 4.6219 25.103 5.09013 25.0879 5.66409C25.0728 6.20784 24.68 6.67607 24.1363 6.75159C23.9399 6.7818 23.7285 6.76669 23.517 6.76669C17.717 6.76669 11.9019 6.76669 6.10192 6.76669C3.73057 6.76669 2.35609 8.14117 2.35609 10.5276C2.35609 19.3031 2.35609 28.0938 2.35609 36.8693C2.35609 37.0505 2.35609 37.2469 2.35609 37.4735C20.1337 37.4735 37.8962 37.4735 55.7342 37.4735C55.7342 37.2922 55.7342 37.0959 55.7342 36.8995C55.7342 28.0787 55.7342 19.2578 55.7342 10.437C55.7342 8.17138 54.3295 6.76669 52.079 6.76669C46.2488 6.76669 40.4337 6.76669 34.6035 6.76669C34.4222 6.76669 34.2259 6.7818 34.0446 6.75159C33.4707 6.69117 33.0326 6.20784 33.0175 5.64898C33.0024 5.07502 33.4556 4.57659 34.0597 4.50107C34.241 4.48596 34.4373 4.48596 34.6186 4.48596C40.3431 4.48596 46.0826 4.48596 51.8071 4.48596C55.1451 4.48596 57.1087 6.02659 57.9243 9.25888C57.9394 9.28909 57.9696 9.3193 57.9998 9.3495C57.9998 22.4146 57.9998 35.4495 57.9998 48.4995ZM2.37119 39.8146C2.37119 42.4125 2.37119 44.9651 2.37119 47.5026C2.37119 49.6776 3.80609 51.0974 5.99619 51.0974C21.3722 51.0974 36.7483 51.0974 52.1243 51.0974C54.3144 51.0974 55.7342 49.6625 55.7493 47.4875C55.7493 45.1011 55.7493 42.6995 55.7493 40.313C55.7493 40.1469 55.7342 39.9808 55.7191 39.8146C37.9264 39.8146 20.179 39.8146 2.37119 39.8146Z" fill="#5D9F44"/>
<path d="M23.2754 22.1428C23.2754 21.01 23.2603 19.8772 23.2754 18.7443C23.3056 16.2219 25.828 14.6964 28.0332 15.9048C30.0873 17.0225 32.0962 18.1855 34.0899 19.4089C36.1894 20.6928 36.1894 23.6079 34.0748 24.8917C32.0811 26.1001 30.0571 27.2782 28.0181 28.3959C25.8129 29.5891 23.2905 28.0636 23.2603 25.5412C23.2603 24.4084 23.2754 23.2756 23.2754 22.1428ZM25.541 22.1579C25.541 23.2303 25.541 24.3027 25.541 25.3751C25.541 26.3871 26.2509 26.8251 27.1118 26.3266C29.0149 25.2391 30.903 24.1516 32.7759 23.049C33.6217 22.5506 33.6066 21.7199 32.7608 21.2365C30.8728 20.1339 28.9847 19.0464 27.0967 17.9589C26.2509 17.4756 25.541 17.8985 25.541 18.8803C25.5259 19.9678 25.541 21.0704 25.541 22.1579Z" fill="#F5A445"/>
<path d="M30.1932 5.61881C30.1932 6.25318 29.6948 6.76672 29.0604 6.76672C28.4562 6.75162 27.9578 6.25318 27.9427 5.64902C27.9276 5.02974 28.4713 4.5011 29.0906 4.5011C29.6948 4.5162 30.1781 5.01464 30.1932 5.61881Z" fill="#F5A445"/>
<path d="M25.541 22.1579C25.541 21.0704 25.541 19.9678 25.541 18.8803C25.5561 17.9136 26.266 17.4907 27.0967 17.9589C28.9999 19.0464 30.8879 20.1339 32.7608 21.2365C33.6066 21.735 33.6066 22.5657 32.7759 23.049C30.8879 24.1516 28.9999 25.2391 27.1118 26.3266C26.2509 26.8251 25.541 26.3871 25.541 25.3751C25.541 24.3027 25.541 23.2303 25.541 22.1579Z" fill="#FFE4C5"/>
<path d="M34.9357 44.3157C39.4518 44.3157 43.9831 44.3157 48.4992 44.3157C48.6805 44.3157 48.8768 44.3006 49.0581 44.3308C49.6471 44.3912 50.0701 44.8594 50.0852 45.4183C50.1003 46.0073 49.6623 46.4907 49.0581 46.5662C48.8768 46.5813 48.6805 46.5813 48.4992 46.5813C39.4216 46.5813 30.344 46.5813 21.2664 46.5813C20.2242 46.5813 19.6956 46.2188 19.6805 45.4787C19.6654 44.7235 20.2091 44.3157 21.2664 44.3157C25.8128 44.3157 30.3742 44.3157 34.9357 44.3157Z" fill="#5D9F44"/>
<path d="M8.02013 45.4183C8.03524 43.5605 9.56076 42.05 11.4186 42.05C13.2764 42.05 14.8019 43.5907 14.8019 45.4334C14.8019 47.3063 13.2462 48.8469 11.3733 48.8318C9.50034 48.8167 8.00503 47.2912 8.02013 45.4183ZM12.5363 45.4334C12.5363 44.8141 11.9925 44.3006 11.3733 44.3157C10.7691 44.3308 10.2858 44.8443 10.2858 45.4485C10.2858 46.0527 10.7842 46.5511 11.3884 46.5662C12.0076 46.5813 12.5363 46.0527 12.5363 45.4334Z" fill="#F5A445"/>
<path d="M12.5362 45.4333C12.5362 46.0526 12.0075 46.5813 11.3882 46.5662C10.7841 46.551 10.2856 46.0526 10.2856 45.4484C10.2856 44.8443 10.769 44.3307 11.3731 44.3156C11.9773 44.3005 12.5211 44.8141 12.5362 45.4333Z" fill="#FFE4C5"/>
</svg>
