<svg width="58" height="58" viewBox="0 0 58 58" fill="none" xmlns="http://www.w3.org/2000/svg">
<path d="M10.4067 57.9999C8.6848 57.2749 8.26188 56.6255 8.26188 54.7223C8.26188 51.8525 8.26188 48.9979 8.26188 46.1281C8.26188 45.7807 8.18636 45.6145 7.83897 45.4786C6.26813 44.8744 5.51292 43.364 5.84521 41.627C6.19261 39.7994 7.32542 38.7874 9.07751 38.7723C11.4489 38.7572 13.8202 38.7723 16.2067 38.7723C16.4181 38.7723 16.6145 38.7723 16.9015 38.7723C16.9166 38.5307 16.9317 38.3192 16.9317 38.0927C16.9317 35.3739 16.9468 32.6703 16.9317 29.9515C16.9166 26.4624 18.4119 23.8494 21.4025 22.0671C22.3692 21.4932 23.3207 20.9041 24.3327 20.2999C23.5171 19.3937 23.3812 18.3364 23.4114 17.2187C23.4416 15.4817 23.4114 13.7447 23.4265 12.0229C23.4416 9.51557 25.1332 7.67286 27.6254 7.53692C28.441 7.49161 29.302 7.49161 30.1025 7.65776C32.0812 8.06557 33.4103 9.77234 33.4405 11.8718C33.4707 13.8807 33.5009 15.9046 33.4254 17.9135C33.3952 18.6536 33.078 19.3786 32.8515 20.2395C34.4223 21.2062 36.1593 22.2786 37.9567 23.3963C37.9718 23.1697 38.002 23.0187 38.002 22.8525C38.002 21.4177 37.9869 19.9828 38.0171 18.563C38.0171 18.2458 38.0775 17.8531 38.2739 17.6114C38.5457 17.264 38.591 16.9166 38.591 16.5239C38.5759 15.0739 38.591 13.6239 38.591 12.1739C38.591 11.5093 38.9082 11.1166 39.4369 11.1166C39.9504 11.1166 40.2827 11.5093 40.2978 12.1588C40.2978 12.5515 40.2978 12.9442 40.2978 13.4124C40.8265 13.4124 41.3098 13.4124 41.7931 13.4124C43.1978 13.4275 43.7869 14.0166 43.7869 15.4062C43.7869 15.7234 43.802 16.0406 43.7869 16.3729C43.7718 16.826 43.8171 17.2338 44.1343 17.6114C44.3306 17.8531 44.4062 18.276 44.4062 18.6234C44.4213 21.7953 44.4364 24.952 44.4062 28.1239C44.391 29.876 43.2884 30.9484 41.5213 30.9635C39.7994 30.9786 38.0926 30.9635 36.3707 30.9635C36.1593 30.9635 35.9629 30.9635 35.7213 30.9635C35.7213 33.5916 35.7213 36.1593 35.7213 38.7572C37.7301 38.7572 39.6937 38.7572 41.7327 38.7572C41.7327 37.8661 41.7478 37.0052 41.7176 36.1442C41.7176 36.0083 41.5666 35.8572 41.4457 35.7364C40.9171 35.1927 40.3733 34.6791 39.8598 34.1354C39.4218 33.6822 39.3916 33.214 39.7692 32.8364C40.1317 32.4739 40.615 32.5041 41.0681 32.9421C41.7478 33.6067 42.4275 34.2562 43.0619 34.951C43.2733 35.1927 43.4093 35.5703 43.4395 35.9025C43.4848 36.839 43.4546 37.7755 43.4546 38.7421C45.0405 38.7421 46.5812 38.7421 48.1671 38.7421C48.1822 38.5609 48.1973 38.3796 48.1973 38.1984C48.1973 35.4645 48.2124 32.7307 48.1822 29.9968C48.1822 29.7098 48.0463 29.3624 47.865 29.151C45.5843 26.5229 45.5843 22.9281 47.8499 20.2697C48.0463 20.0432 48.1671 19.6807 48.1822 19.3786C48.4088 14.3489 46.0072 10.7692 41.8233 8.30723C38.3343 6.25307 34.7546 4.36505 31.2202 2.40151C29.891 1.6614 28.5015 1.58588 27.1723 2.31088C23.4718 4.33484 19.7562 6.34369 16.116 8.45828C13.1405 10.1499 11.041 12.6119 10.2707 15.9802C9.99886 17.1734 10.0442 18.4421 9.96865 19.6807C9.95355 19.8468 10.1197 20.0583 10.2405 20.2093C12.5968 22.9885 12.5817 26.4473 10.2254 29.2114C10.0744 29.3927 9.96865 29.6796 9.96865 29.9062C9.95355 31.7187 9.95355 33.5312 9.95355 35.3286C9.95355 36.0536 9.66657 36.4312 9.12282 36.4312C8.57907 36.4312 8.26188 36.0536 8.26188 35.3437C8.26188 33.3499 8.24678 31.3562 8.27699 29.3473C8.27699 29.0302 8.44313 28.6374 8.65459 28.3958C10.8447 26.0093 10.8598 23.351 8.66969 20.9947C8.48844 20.7984 8.29209 20.5265 8.27699 20.2697C8.15615 17.7624 8.35251 15.3005 9.50042 13.0046C10.9353 10.165 13.1254 8.08067 15.8744 6.55515C19.2728 4.65203 22.6864 2.77911 26.0999 0.891089C28.0483 -0.181307 30.027 -0.181307 31.9754 0.891089C35.3588 2.7489 38.727 4.62182 42.1103 6.49473C45.1463 8.1713 47.5176 10.4822 48.9072 13.7145C49.8134 15.814 49.9192 18.0192 49.8134 20.2546C49.7983 20.4963 49.6171 20.7833 49.4358 20.9796C47.2306 23.3661 47.2457 26.0093 49.4358 28.3807C49.6775 28.6374 49.8286 29.0755 49.8286 29.438C49.8588 32.338 49.8437 35.238 49.8437 38.138C49.8437 38.3494 49.8437 38.5458 49.8437 38.8025C51.0067 39.1197 51.7619 39.8598 52.1244 40.9926C52.7739 43.0166 52.0338 44.6479 50.1155 45.539C49.9645 45.6145 49.8588 45.9015 49.8588 46.0979C49.8437 48.9677 49.8437 51.8223 49.8437 54.6921C49.8437 56.5953 49.4207 57.2447 47.6989 57.9697C35.2681 57.9999 22.8374 57.9999 10.4067 57.9999ZM21.614 38.727C21.614 38.4552 21.614 38.2286 21.614 38.0171C21.614 34.5583 21.614 31.0843 21.614 27.6255C21.614 27.3838 21.5838 27.0666 21.7197 26.9156C21.9312 26.689 22.2937 26.402 22.5655 26.4322C22.8374 26.4624 23.0942 26.8249 23.2905 27.0817C23.3812 27.2025 23.3207 27.4442 23.3207 27.6406C23.3207 31.1296 23.3207 34.6036 23.3207 38.0927C23.3207 38.289 23.3207 38.5005 23.3207 38.6817C24.1364 38.8026 24.1364 38.8025 24.4384 38.44C26.9155 35.4494 31.1749 35.4192 33.6822 38.3947C33.7426 38.4703 33.7577 38.6062 33.7879 38.7119C33.8483 38.6666 33.9088 38.6213 33.9843 38.576C33.9843 38.3494 33.9843 38.138 33.9843 37.9114C33.9843 33.5765 33.9843 29.2416 33.9843 24.9067C33.9843 24.2119 34.1806 23.3812 33.8634 22.8677C33.5614 22.339 32.7155 22.1427 32.1416 21.7499C31.3108 21.176 30.4197 21.4479 29.5134 21.4177C29.5134 23.3963 29.5134 25.2994 29.5134 27.2025C29.5134 27.8369 29.1509 28.2447 28.6374 28.2296C28.139 28.2145 27.8218 27.8369 27.8218 27.2177C27.8218 25.7979 27.8218 24.3932 27.8218 22.9734C27.8218 22.4749 27.8218 21.9614 27.8218 21.3874C26.8098 21.4479 25.8582 21.2062 24.952 21.8708C24.091 22.5052 23.1244 22.9885 22.203 23.5473C19.8015 24.9671 18.6233 27.0666 18.6384 29.8458C18.6535 32.5947 18.6384 35.3437 18.6384 38.0927C18.6384 38.289 18.6535 38.4854 18.6687 38.7119C19.6504 38.727 20.5718 38.727 21.614 38.727ZM44.814 45.7354C44.6327 45.7203 44.5723 45.7052 44.4968 45.7052C41.053 45.7052 37.5942 45.7052 34.1504 45.7203C33.9239 45.7203 33.652 45.8864 33.5009 46.0525C31.039 48.7109 27.0968 48.726 24.6348 46.0828C24.4536 45.8864 24.1062 45.7354 23.8343 45.7354C20.5114 45.7052 17.2035 45.7203 13.8806 45.7203C13.7145 45.7203 13.5634 45.7203 13.3218 45.7203C13.4275 45.9619 13.503 46.1281 13.5937 46.2942C14.1374 47.3062 14.7114 48.3031 15.24 49.315C15.4515 49.7229 15.6931 49.8588 16.1614 49.8588C20.9645 49.8437 25.7676 49.8437 30.5707 49.8437C30.7973 49.8437 31.0239 49.8437 31.2504 49.8739C31.6884 49.9343 31.915 50.2213 31.9301 50.6442C31.9452 51.0671 31.7489 51.3692 31.3259 51.4749C31.1145 51.5354 30.8728 51.5354 30.6614 51.5354C27.4895 51.5354 24.3327 51.5354 21.1608 51.5354C20.9494 51.5354 20.7228 51.5354 20.5265 51.5354C20.5265 53.1817 20.5265 54.7374 20.5265 56.2932C26.2509 56.2932 31.9301 56.2932 37.6244 56.2932C37.6244 54.7072 37.6244 53.1666 37.6244 51.5807C37.4431 51.5656 37.2921 51.5354 37.1562 51.5354C36.552 51.5354 35.9478 51.5505 35.3437 51.5203C34.7848 51.5052 34.4223 51.1275 34.4374 50.6442C34.4525 50.176 34.7999 49.8588 35.3437 49.8286C35.5098 49.8135 35.6759 49.8286 35.8572 49.8286C37.9416 49.8286 40.041 49.8286 42.1254 49.8135C42.3218 49.8135 42.6239 49.738 42.6994 49.602C43.3942 48.3484 44.0739 47.0645 44.814 45.7354ZM34.815 44.0135C34.9509 44.0135 35.1775 44.0135 35.4041 44.0135C39.8145 44.0135 44.2249 44.0135 48.6202 44.0135C48.8317 44.0135 49.028 44.0135 49.2395 43.9984C49.9645 43.938 50.5082 43.4395 50.6291 42.7296C50.8858 41.34 50.1608 40.464 48.7411 40.464C44.3155 40.464 39.89 40.464 35.4645 40.464C35.2681 40.464 35.0567 40.464 34.815 40.464C34.815 41.6572 34.815 42.8051 34.815 44.0135ZM23.2754 40.4942C23.2452 40.4791 23.215 40.464 23.1848 40.464C18.4421 40.464 13.6843 40.464 8.94157 40.464C8.27699 40.464 7.83896 40.8265 7.62751 41.4307C7.15928 42.8051 7.71813 44.0437 9.37959 44.0286C13.8655 43.9833 18.3515 44.0135 22.8374 44.0135C23.0187 44.0135 23.1999 44.0135 23.2905 44.0135C23.2754 42.8051 23.2754 41.6723 23.2754 40.4942ZM33.2744 42.1104C33.2744 39.7843 31.4015 37.8963 29.0905 37.8812C26.7645 37.8661 24.8614 39.7692 24.8614 42.1104C24.8614 44.4364 26.7343 46.3244 29.0452 46.3244C31.3713 46.3546 33.2744 44.4666 33.2744 42.1104ZM39.6786 18.6083C39.6786 20.0734 39.7239 21.4932 39.6634 22.913C39.6181 23.94 39.6634 24.8161 40.7812 25.2994C41.2192 25.4958 41.2796 26.0395 41.0228 26.4322C40.766 26.84 40.2827 26.9458 39.8296 26.6739C39.4822 26.4775 39.165 26.2359 38.8327 26.0244C37.8056 25.3447 36.7634 24.665 35.7213 23.9703C35.6759 24.076 35.6457 24.1213 35.6457 24.1666C35.6457 25.7374 35.6457 27.2932 35.6306 28.864C35.6306 29.2869 35.8723 29.2567 36.1442 29.2567C37.8509 29.2567 39.5728 29.2567 41.2796 29.2567C42.352 29.2567 42.6541 28.9546 42.6541 27.8671C42.6541 24.9822 42.6541 22.0973 42.6541 19.2275C42.6541 19.0312 42.639 18.8197 42.6239 18.6234C41.6421 18.6083 40.6905 18.6083 39.6786 18.6083ZM9.95355 45.7052C9.95355 46.551 9.95355 47.3364 9.95355 48.1218C9.95355 50.463 9.95355 52.789 9.95355 55.1301C9.95355 55.8098 10.2405 56.263 10.7692 56.2932C11.8869 56.3385 13.0197 56.3083 14.1525 56.3083C14.1676 56.1874 14.1978 56.127 14.1978 56.0515C14.1978 54.4203 14.1827 52.7739 14.1676 51.1427C14.1676 50.9614 14.0921 50.765 14.0166 50.614C13.2009 49.0885 12.3702 47.5781 11.5244 46.0525C11.4489 45.9166 11.2676 45.7505 11.1317 45.7354C10.7692 45.6749 10.3916 45.7052 9.95355 45.7052ZM43.9379 56.3083C44.965 56.3083 45.9015 56.3083 46.8379 56.3083C47.8499 56.3083 48.152 56.0062 48.152 55.0093C48.152 52.1093 48.152 49.2093 48.152 46.3093C48.152 46.1281 48.1369 45.9468 48.1218 45.7354C47.9254 45.7203 47.7593 45.7354 47.5931 45.7052C46.9588 45.5843 46.6265 45.8713 46.3395 46.4301C45.6598 47.7895 44.8895 49.1036 44.1645 50.4479C44.0739 50.6291 43.953 50.8255 43.9379 51.0218C43.9379 52.7588 43.9379 54.5109 43.9379 56.3083ZM25.103 14.3791C25.103 15.6328 25.0879 16.8109 25.103 17.989C25.1181 18.9104 25.828 19.6505 26.7494 19.6807C27.852 19.726 28.9697 19.7109 30.0723 19.6807C30.8879 19.6505 31.6129 19.0765 31.6582 18.276C31.7338 16.9921 31.6733 15.6932 31.6733 14.3791C29.4983 14.3791 27.3384 14.3791 25.103 14.3791ZM31.6884 12.627C31.8999 10.7239 30.9937 9.39474 29.3322 9.21348C28.7129 9.15307 28.0785 9.15307 27.4744 9.21348C25.7978 9.40984 24.7707 10.9505 25.1785 12.6119C27.3384 12.627 29.4983 12.627 31.6884 12.627ZM39.3614 56.263C40.3733 56.263 41.3098 56.263 42.2312 56.263C42.2312 54.677 42.2312 53.1213 42.2312 51.5505C41.2494 51.5505 40.3129 51.5505 39.3614 51.5505C39.3614 53.1364 39.3614 54.6921 39.3614 56.263ZM15.9197 56.263C16.9166 56.263 17.8228 56.263 18.7442 56.263C18.7442 54.677 18.7442 53.1213 18.7442 51.5656C17.7775 51.5656 16.8562 51.5656 15.9197 51.5656C15.9197 53.1666 15.9197 54.6921 15.9197 56.263ZM42.0197 15.1192C41.4306 15.1192 40.8567 15.1192 40.2827 15.1192C40.2827 15.7083 40.2827 16.2671 40.2827 16.8411C40.8718 16.8411 41.4306 16.8411 42.0197 16.8411C42.0197 16.2671 42.0197 15.7083 42.0197 15.1192Z" fill="#5D9F44"/>
<path d="M34.8149 44.0135C34.8149 42.8051 34.8149 41.6723 34.8149 40.464C35.0717 40.464 35.2681 40.464 35.4644 40.464C39.8899 40.464 44.3155 40.464 48.741 40.464C50.1457 40.464 50.8707 41.34 50.629 42.7296C50.4931 43.4395 49.9644 43.9379 49.2394 43.9984C49.028 44.0135 48.8316 44.0135 48.6201 44.0135C44.2097 44.0135 39.7993 44.0135 35.404 44.0135C35.1774 44.0135 34.9509 44.0135 34.8149 44.0135Z" fill="#F5A445"/>
<path d="M23.2754 40.4942C23.2754 41.6723 23.2754 42.8051 23.2754 44.0135C23.1998 44.0135 23.0035 44.0135 22.8222 44.0135C18.3363 44.0135 13.8504 43.9833 9.36442 44.0286C7.70296 44.0437 7.14411 42.8051 7.61233 41.4307C7.82379 40.8265 8.26181 40.464 8.9264 40.464C13.6691 40.464 18.4269 40.464 23.1696 40.464C23.2149 40.464 23.2451 40.4791 23.2754 40.4942Z" fill="#F5A445"/>
<path d="M33.2743 42.1104C33.2743 44.4515 31.3863 46.3547 29.0452 46.3396C26.7342 46.3245 24.8613 44.4364 24.8613 42.1255C24.8613 39.7844 26.7645 37.8812 29.0905 37.8963C31.3863 37.9114 33.2592 39.7995 33.2743 42.1104ZM29.015 42.9562C29.3775 42.9562 29.7249 42.9713 30.0874 42.9562C30.6009 42.926 30.9634 42.5635 30.9483 42.0953C30.9332 41.6573 30.6009 41.2797 30.1176 41.2646C29.4228 41.2344 28.728 41.2495 28.0332 41.2646C27.5197 41.2797 27.1572 41.6573 27.1723 42.1255C27.1874 42.5937 27.5348 42.926 28.0634 42.9562C28.3806 42.9713 28.6978 42.9713 29.015 42.9562Z" fill="#F5A445"/>
<path d="M29.015 42.9713C28.6979 42.9713 28.3807 42.9864 28.0635 42.9713C27.5348 42.9411 27.1874 42.6088 27.1723 42.1406C27.1572 41.6723 27.5197 41.2947 28.0333 41.2796C28.7281 41.2645 29.4229 41.2645 30.1176 41.2796C30.601 41.2947 30.9484 41.6572 30.9484 42.1104C30.9635 42.5786 30.601 42.9411 30.0874 42.9713C29.7249 42.9864 29.3775 42.9562 29.015 42.9713Z" fill="#5D9F44"/>
</svg>
