<svg width="58" height="58" viewBox="0 0 58 58" fill="none" xmlns="http://www.w3.org/2000/svg">
<g clip-path="url(#clip0_616_3721)">
<path d="M30.4196 0C30.7972 0.241667 31.1144 0.513542 31.0086 1.04219C30.9029 1.57083 30.48 1.67656 30.0571 1.78229C21.2362 3.9724 15.6779 9.48542 13.4425 18.2911C12.5967 21.5839 12.7326 24.9068 13.5331 28.2146C13.5784 28.3807 13.6237 28.5469 13.654 28.713C13.7597 29.2266 13.518 29.6646 13.08 29.8005C12.6118 29.9365 12.1435 29.6797 12.0076 29.1359C11.781 28.1844 11.5243 27.2177 11.4336 26.251C10.3915 15.8292 14.3941 7.92969 23.3055 2.50729C23.381 2.46198 23.4566 2.40156 23.5925 2.32604C12.1284 4.3651 1.07218 15.4063 1.8425 30.4349C2.61281 45.4786 15.3607 57.0182 30.3592 56.263C45.3576 55.5229 55.0092 43.4245 56.0362 32.2474C55.9154 32.4891 55.855 32.625 55.7946 32.7458C52.1092 40.313 46.1279 44.8443 37.8206 46.1734C28.018 47.7443 17.7321 42.2313 13.5331 33.2292C13.2461 32.625 13.367 32.1568 13.8352 31.9302C14.3034 31.6885 14.7566 31.8849 15.0435 32.4891C16.3878 35.2229 18.2003 37.5792 20.5112 39.5427C20.6623 39.6786 20.8284 39.7995 21.055 39.9807C21.055 33.7729 21.055 27.6708 21.055 21.5536C19.6503 21.0552 19.4691 20.5719 20.3904 19.7411C19.318 17.9438 19.0764 16.0708 19.9524 14.1224C20.8586 12.0984 22.4446 10.7391 24.4232 9.93854C25.4503 9.51563 25.8128 8.98698 25.6467 7.9599C25.6014 7.68802 25.6316 7.40104 25.6467 7.11406C25.6618 6.5401 25.9941 6.19271 26.4925 6.19271C26.9909 6.19271 27.3232 6.55521 27.3383 7.12917C27.3534 7.74844 27.3534 8.38281 27.3383 9.00208C27.3232 9.28906 27.429 9.425 27.7008 9.53073C28.3352 9.8026 28.9696 10.1047 29.5737 10.437C30.1024 10.724 30.2383 11.2375 29.9665 11.6755C29.7097 12.0833 29.2566 12.174 28.7279 11.9021C28.6826 11.8719 28.6222 11.8417 28.5769 11.8266C26.2357 10.6484 26.6435 10.6031 24.2571 11.9172C22.6862 12.7781 21.493 14.0318 21.1758 15.8896C20.9342 17.3094 21.4628 18.5177 22.3842 19.575C22.4899 19.6958 22.7467 19.7563 22.943 19.7563C25.2993 19.7714 27.6555 19.7714 30.0118 19.7563C30.2534 19.7563 30.5555 19.6052 30.7066 19.4089C31.8847 17.9589 32.2019 16.3578 31.3711 14.6057C31.0842 14.0167 31.2201 13.5182 31.6732 13.2917C32.1415 13.0651 32.6097 13.2766 32.8967 13.8656C33.8784 15.8896 33.6972 17.838 32.5493 19.7563C32.9571 20.013 33.2139 20.3453 33.0628 20.8438C32.8967 21.4177 32.3982 21.4328 31.8998 21.4781C31.8998 29.151 31.8998 36.8089 31.8998 44.5422C32.6399 44.6026 33.38 44.6479 34.1654 44.7083C34.1654 40.6151 34.1654 36.5672 34.1654 32.5042C33.667 32.474 33.1836 32.4286 33.0024 31.8698C32.8514 31.3865 33.0779 31.024 33.5159 30.7823C32.806 29.5438 32.3982 28.275 32.5795 26.8703C32.8513 24.7104 34.0597 23.1396 35.7665 21.9464C36.5368 21.4177 37.3826 20.9948 38.2435 20.6021C38.6362 20.4208 38.7722 20.2245 38.742 19.8167C38.7118 19.2729 38.7269 18.7292 38.742 18.1703C38.7571 17.551 39.0894 17.1885 39.6029 17.1885C40.1165 17.1885 40.4336 17.5661 40.4336 18.1854C40.4336 18.7443 40.4639 19.3182 40.4185 19.8771C40.3883 20.2698 40.5696 20.4057 40.8868 20.5719C41.8988 21.1005 42.956 21.599 43.8472 22.2938C46.2034 24.0911 47.6987 27.2479 45.8107 30.5255C45.9618 31.0844 46.2336 31.5526 46.1128 31.8698C45.992 32.2021 45.4784 32.3833 45.1461 32.625C45.0857 32.5797 45.0253 32.5344 44.9649 32.5042C44.9649 33.1688 44.9649 33.8484 44.9649 34.513C44.9649 34.7245 44.9649 34.9359 44.9498 35.1323C44.9045 35.6156 44.6175 35.8875 44.1342 35.9026C43.6659 35.9177 43.3185 35.6156 43.2883 35.1021C43.2581 34.4677 43.2732 33.8182 43.2732 33.1839C43.2732 32.9573 43.2732 32.7458 43.2732 32.4891C40.7961 32.4891 38.3644 32.4891 35.9175 32.4891C35.9175 36.5219 35.9175 40.5245 35.9175 44.663C36.8993 44.5271 37.8659 44.4667 38.8024 44.225C40.1618 43.8776 41.4909 43.4094 42.8503 43.0016C43.1977 42.8958 43.2883 42.6844 43.2883 42.337C43.2732 41.2797 43.2732 40.2224 43.2883 39.1651C43.3034 38.4552 43.8019 38.0625 44.3909 38.2438C44.8441 38.3797 44.98 38.7271 44.98 39.1651C44.98 40.0562 44.98 40.9323 44.98 41.899C45.1763 41.8234 45.3123 41.7781 45.418 41.7177C51.0368 38.3042 54.5258 33.3802 55.7946 26.9005C55.8852 26.4172 55.9456 25.9339 56.0211 25.4505C56.0967 24.9672 56.3383 24.65 56.867 24.6198C57.3503 24.6047 57.6524 24.9219 57.7279 25.4807C57.8034 26.0396 57.879 26.5984 57.9394 27.1573C57.9394 28.3656 57.9394 29.574 57.9394 30.7823C57.9092 30.9333 57.8639 31.0693 57.8487 31.2203C57.6524 32.5646 57.5316 33.924 57.2597 35.238C54.979 46.5208 45.3878 55.7193 34.105 57.5469C33.0326 57.7281 31.9451 57.849 30.8727 58C29.6644 58 28.456 58 27.2477 58C27.0816 57.9698 26.9154 57.9094 26.7493 57.9094C23.3961 57.6526 20.179 56.837 17.1279 55.4323C4.80291 49.7833 -1.85802 36.7938 0.664372 23.351C2.83937 11.7813 12.4456 2.35625 24.0154 0.453125C25.0878 0.271875 26.1753 0.151042 27.2477 0C28.305 0 29.3623 0 30.4196 0ZM22.8524 21.4781C22.8373 21.6141 22.8071 21.7198 22.8071 21.8104C22.8071 28.1693 22.8071 34.5281 22.8222 40.887C22.8222 41.0833 22.9883 41.3401 23.1545 41.4458C25.0727 42.6693 27.1571 43.5302 29.3623 44.074C29.6191 44.1344 29.8909 44.1797 30.1628 44.2401C30.1628 36.6125 30.1628 29.0604 30.1628 21.4781C27.7159 21.4781 25.3144 21.4781 22.8524 21.4781ZM39.6331 30.7974C40.781 30.7974 41.929 30.7823 43.0769 30.8125C43.4545 30.8276 43.6961 30.6917 43.9227 30.3896C45.3425 28.5922 45.3576 26.4625 43.9227 24.6802C42.8654 23.3661 41.4456 22.5656 39.8748 22.0068C39.7237 21.9615 39.5274 21.9615 39.3915 22.0219C37.881 22.5656 36.5066 23.3359 35.4644 24.5745C33.954 26.3568 33.9237 28.5469 35.3586 30.3745C35.6003 30.6766 35.8571 30.8276 36.2649 30.8125C37.3675 30.7823 38.5003 30.7974 39.6331 30.7974Z" fill="#5D9F44"/>
<path d="M46.2637 19.9224C45.7803 19.8771 45.4027 19.6505 45.2668 19.1823C44.9496 18.0646 44.2699 17.3547 43.1522 17.0526C42.6689 16.9167 42.4121 16.5391 42.4121 16.0255C42.4121 15.5271 42.684 15.1495 43.1673 15.0135C44.2548 14.6963 44.9496 14.0318 45.2517 12.9292C45.3876 12.4458 45.7652 12.174 46.2637 12.174C46.7621 12.174 47.1397 12.4307 47.2908 12.9141C47.6079 14.0016 48.2725 14.7115 49.3751 15.0135C49.8585 15.1495 50.1303 15.512 50.1454 16.0255C50.1605 16.524 49.9038 16.9167 49.4204 17.0526C48.3027 17.3698 47.623 18.0646 47.2908 19.1823C47.1548 19.6656 46.747 19.8922 46.2637 19.9224ZM46.3241 15.1193C46.022 15.3911 45.6142 15.7536 45.297 16.0406C45.6142 16.3578 46.0069 16.7505 46.2637 17.0073C46.596 16.7052 47.0038 16.3427 47.2757 16.101C46.9434 15.7385 46.5658 15.3609 46.3241 15.1193Z" fill="#F5A445"/>
<path d="M48.6504 5.9359C48.6353 6.44944 48.3786 6.81194 47.8952 6.94788C46.8077 7.26507 46.1129 7.94476 45.8109 9.03226C45.6749 9.51559 45.2973 9.78746 44.7989 9.78746C44.3004 9.78746 43.9077 9.53069 43.7718 9.04736C43.4697 7.94476 42.79 7.26507 41.7025 6.94788C41.2041 6.81194 40.9171 6.41923 40.9322 5.89059C40.9473 5.37705 41.2343 5.02965 41.7025 4.89371C42.7749 4.59163 43.4546 3.92705 43.7567 2.83955C43.8926 2.34111 44.2702 2.03903 44.7989 2.05413C45.2973 2.05413 45.6598 2.32601 45.8109 2.82444C46.128 3.91194 46.8077 4.59163 47.8952 4.90882C48.3937 5.04475 48.6504 5.42236 48.6504 5.9359ZM44.7989 6.90257C45.1161 6.58538 45.4937 6.20778 45.7655 5.95101C45.4786 5.64892 45.101 5.25621 44.8442 4.99944C44.5119 5.28642 44.1041 5.64892 43.802 5.90569C44.1192 6.22288 44.5119 6.61559 44.7989 6.90257Z" fill="#F5A445"/>
<path d="M41.9591 38.2135C41.9591 38.7573 41.9742 39.301 41.9591 39.8599C41.944 40.5698 41.5362 40.9927 40.8414 41.0078C40.056 41.0229 39.2555 41.0229 38.47 41.0078C37.7601 40.9927 37.3372 40.5849 37.3221 39.875C37.307 38.7573 37.2919 37.6547 37.3221 36.537C37.3674 35.2833 38.4096 34.3167 39.6633 34.3167C40.9169 34.3318 41.9138 35.2984 41.9591 36.5672C41.9742 37.126 41.9591 37.6698 41.9591 38.2135ZM40.2523 39.2859C40.2523 38.3797 40.2674 37.5187 40.2523 36.6578C40.2523 36.2802 40.0107 35.9932 39.6633 36.0536C39.4216 36.0989 39.0591 36.401 39.044 36.6125C38.9685 37.4885 39.0138 38.3646 39.0138 39.2708C39.4367 39.2859 39.7992 39.2859 40.2523 39.2859Z" fill="#5D9F44"/>
<path d="M40.4639 10.286C40.2978 10.5729 40.2222 10.8599 40.041 11.0563C39.5123 11.6302 38.9686 12.174 38.4097 12.7026C37.9113 13.186 37.3524 13.186 36.854 12.7177C36.2952 12.1891 35.7514 11.6453 35.2228 11.0714C34.7545 10.5729 34.7545 10.0141 35.2228 9.51565C35.7514 8.95679 36.2952 8.41304 36.854 7.86929C37.3524 7.38596 37.9113 7.38596 38.4097 7.85419C38.9686 8.38284 39.5274 8.92659 40.041 9.50054C40.2222 9.6969 40.3129 9.99898 40.4639 10.286ZM36.8842 10.2558C37.1259 10.5125 37.3675 10.7693 37.5488 10.9656C37.8358 10.7391 38.1228 10.5125 38.3493 10.3162C38.0925 9.99898 37.866 9.74221 37.6545 9.50054C37.3675 9.78752 37.1108 10.0292 36.8842 10.2558Z" fill="#F5A445"/>
<path d="M46.3244 15.1193C46.5661 15.3609 46.9437 15.7536 47.276 16.101C47.0041 16.3427 46.5963 16.7052 46.264 17.0073C46.0073 16.7505 45.6146 16.3578 45.2974 16.0406C45.6146 15.7536 46.0224 15.3911 46.3244 15.1193Z" fill="#F5A445"/>
<path d="M44.7987 6.9026C44.5117 6.61563 44.1341 6.22292 43.8169 5.89062C44.119 5.63385 44.5268 5.27135 44.8591 4.98438C45.1159 5.24115 45.4935 5.63385 45.7804 5.93594C45.4935 6.20781 45.1007 6.58542 44.7987 6.9026Z" fill="#F5A445"/>
<path d="M40.2525 39.286C39.7994 39.286 39.4218 39.286 39.014 39.286C39.014 38.3797 38.9687 37.4886 39.0442 36.6276C39.0593 36.4162 39.4218 36.1141 39.6635 36.0688C40.0108 35.9933 40.2525 36.2953 40.2525 36.6729C40.2676 37.5188 40.2525 38.3797 40.2525 39.286Z" fill="#F5A445"/>
<path d="M36.8843 10.2557C37.1259 10.0291 37.3676 9.78747 37.6546 9.50049C37.866 9.74215 38.0926 10.014 38.3494 10.3161C38.1228 10.4974 37.8358 10.7239 37.5489 10.9656C37.3525 10.7692 37.1259 10.5276 36.8843 10.2557Z" fill="#F5A445"/>
<path d="M24.1816 36.1443C24.1816 35.6006 24.1665 35.0568 24.1816 34.498C24.2269 33.2594 25.2087 32.2928 26.4321 32.2626C27.7009 32.2323 28.7582 33.1688 28.8035 34.4224C28.8488 35.5704 28.8337 36.7183 28.8035 37.8813C28.7884 38.4855 28.3806 38.9084 27.7613 38.9386C26.9155 38.9688 26.0696 38.9688 25.2238 38.9386C24.5743 38.9084 24.1967 38.4855 24.1665 37.836C24.1665 37.8058 24.1665 37.7605 24.1665 37.7303C24.1816 37.2016 24.1816 36.673 24.1816 36.1443ZM27.1269 37.2167C27.1269 36.3105 27.142 35.4495 27.1269 34.5886C27.1118 34.2261 26.9004 33.9844 26.5228 33.9693C26.1452 33.9542 25.9035 34.1657 25.8884 34.5433C25.8733 35.4193 25.8884 36.2954 25.8884 37.2167C26.3113 37.2167 26.6738 37.2167 27.1269 37.2167Z" fill="#5D9F44"/>
<path d="M24.1815 27.3234C24.1815 26.7948 24.1664 26.2661 24.1815 25.7375C24.2117 24.4838 25.2388 23.487 26.4774 23.4719C27.7008 23.4567 28.7732 24.4385 28.8185 25.6922C28.8487 26.825 28.8487 27.9578 28.8185 29.0906C28.8034 29.7401 28.3805 30.1328 27.7461 30.1479C26.9154 30.163 26.0846 30.163 25.269 30.1479C24.6195 30.1328 24.2268 29.725 24.1966 29.0755C24.1664 28.4864 24.1815 27.8974 24.1815 27.3234ZM27.1268 28.426C27.1268 27.5198 27.1721 26.6739 27.0966 25.8281C27.0815 25.6015 26.7643 25.2692 26.5378 25.2088C26.3716 25.1635 25.9336 25.4958 25.9185 25.6771C25.8581 26.5833 25.8883 27.5047 25.8883 28.426C26.3263 28.426 26.7039 28.426 27.1268 28.426Z" fill="#5D9F44"/>
<path d="M27.1271 37.2167C26.674 37.2167 26.3115 37.2167 25.8885 37.2167C25.8885 36.3104 25.8734 35.4344 25.8885 34.5432C25.9037 34.1656 26.1453 33.9542 26.5229 33.9693C26.9005 33.9844 27.112 34.2109 27.1271 34.5885C27.1422 35.4495 27.1271 36.3104 27.1271 37.2167Z" fill="#F5A445"/>
<path d="M27.127 28.426C26.6889 28.426 26.3264 28.426 25.8884 28.426C25.8884 27.5046 25.8582 26.5833 25.9186 25.677C25.9337 25.4958 26.3717 25.1786 26.5379 25.2088C26.7645 25.2692 27.0816 25.5864 27.0967 25.8281C27.1723 26.6739 27.127 27.5197 27.127 28.426Z" fill="#F5A445"/>
</g>
<defs>
<clipPath id="clip0_616_3721">
<rect width="58" height="58" fill="white"/>
</clipPath>
</defs>
</svg>
