<svg width="24" height="24" viewBox="0 0 24 24" fill="none" xmlns="http://www.w3.org/2000/svg">
<circle cx="12" cy="12" r="12" fill="#E8F3E4"/>
<path d="M18.75 7.48511C16.2525 7.23761 13.74 7.11011 11.235 7.11011C9.75 7.11011 8.265 7.18511 6.78 7.33511L5.25 7.48511" stroke="#5D9F44" stroke-linecap="round" stroke-linejoin="round"/>
<path d="M9.375 6.7275L9.54 5.745C9.66 5.0325 9.75 4.5 11.0175 4.5H12.9825C14.25 4.5 14.3475 5.0625 14.46 5.7525L14.625 6.7275" stroke="#5D9F44" stroke-linecap="round" stroke-linejoin="round"/>
<path d="M17.1375 9.85498L16.65 17.4075C16.5675 18.585 16.5 19.5 14.4075 19.5H9.59255C7.50005 19.5 7.43255 18.585 7.35005 17.4075L6.86255 9.85498" stroke="#5D9F44" stroke-linecap="round" stroke-linejoin="round"/>
<path d="M10.7476 15.375H13.2451" stroke="#5D9F44" stroke-linecap="round" stroke-linejoin="round"/>
<path d="M10.125 12.375H13.875" stroke="#5D9F44" stroke-linecap="round" stroke-linejoin="round"/>
</svg>
