<svg width="24" height="24" viewBox="0 0 24 24" fill="none" xmlns="http://www.w3.org/2000/svg">
<circle cx="12" cy="12" r="12" transform="rotate(90 12 12)" fill="#E8F3E4"/>
<path d="M6.16667 10.3333C5.25 10.3333 4.5 11.0833 4.5 12C4.5 12.9166 5.25 13.6666 6.16667 13.6666C7.08333 13.6666 7.83333 12.9166 7.83333 12C7.83333 11.0833 7.08333 10.3333 6.16667 10.3333Z" stroke="#5D9F44"/>
<path d="M17.8332 10.3333C16.9165 10.3333 16.1665 11.0833 16.1665 12C16.1665 12.9166 16.9165 13.6666 17.8332 13.6666C18.7498 13.6666 19.4998 12.9166 19.4998 12C19.4998 11.0833 18.7498 10.3333 17.8332 10.3333Z" stroke="#5D9F44"/>
<path d="M12.0002 10.3333C11.0835 10.3333 10.3335 11.0833 10.3335 12C10.3335 12.9166 11.0835 13.6666 12.0002 13.6666C12.9168 13.6666 13.6668 12.9166 13.6668 12C13.6668 11.0833 12.9168 10.3333 12.0002 10.3333Z" stroke="#5D9F44"/>
</svg>
