<svg width="188" height="247" viewBox="0 0 188 247" fill="none" xmlns="http://www.w3.org/2000/svg">
<g filter="url(#filter0_d_40_91064)">
<path d="M183.464 125.12C183.065 113.79 179.385 112.327 175.682 110.065C162.312 103.192 143.333 116.672 130.517 129.754C123.422 136.805 107.769 156.272 95.3743 163.5C85.3302 169.243 75.6188 167.203 72.1821 158.112C70.2532 153.279 69.9204 148.49 70.8959 142.326C71.2285 140.308 71.4501 138.357 72.0488 136.517L72.5368 134.809C74.5545 128.136 69.6323 135.075 68.058 145.74C67.2598 151.15 67.3707 158.511 69.854 165.274C73.9115 176.626 84.5762 182.502 94.7532 176.781C107.813 169.575 123.178 150.108 130.273 143.057C141.803 129.798 160.915 116.429 174.108 123.28C182.312 127.182 183.553 130.419 183.42 126.894L183.464 125.12Z" fill="white" stroke="white" stroke-width="0.208342" stroke-miterlimit="10" stroke-linecap="round" stroke-linejoin="round"/>
<path d="M91.8043 158.245C100.185 154.232 103.289 150.773 106.15 142.015C107.103 138.401 108.056 131.661 107.635 124.278C105.24 90.1767 100.03 24.9904 98.8551 7.18606C98.1234 5.12404 97.1478 3.41677 96.5048 1L91.4271 13.2834C92.314 15.0572 92.7135 17.2744 93.4452 19.3586C94.6203 37.1407 99.8971 101.751 102.558 135.874C102.669 139.333 102.757 143.235 101.427 146.672C97.5913 155.829 85.6405 161.527 88.8776 159.642L91.8043 158.245Z" fill="white" stroke="white" stroke-width="0.208342" stroke-miterlimit="10" stroke-linecap="round" stroke-linejoin="round"/>
<path d="M96.5047 1C101.671 14.5251 108.101 34.081 105.573 31.0656L104.42 29.713C99.6312 24.037 102.957 27.7619 91.427 13.2834L96.5047 1Z" fill="white" stroke="white" stroke-width="0.208342" stroke-miterlimit="10" stroke-linecap="round" stroke-linejoin="round"/>
<path d="M50.4529 60.1776C47.1271 60.0446 39.4996 60.5102 34.1561 61.3084L34.267 47.3621C42.9142 52.506 58.1909 60.5545 52.0492 60.222L50.4529 60.1776Z" fill="white" stroke="white" stroke-width="0.208342" stroke-miterlimit="10" stroke-linecap="round" stroke-linejoin="round"/>
<path d="M34.1561 61.3084C35.3978 61.4858 36.3733 61.5966 36.6393 61.9957C51.0735 81.596 72.1595 86.9395 82.6026 92.8373C85.7068 94.5667 88.6111 97.5822 89.8306 100.11C91.8704 104.655 91.6042 108.713 91.8703 107.937L92.3805 105.852C92.7352 104.212 93.4447 103.037 93.9547 100.265C95.6398 86.4739 87.192 83.2589 81.4494 79.5783C70.9841 73.7027 50.3861 68.47 39.4552 50.8209C38.9674 50.3331 35.819 48.0051 34.267 47.3621L34.1561 61.3084Z" fill="white" stroke="white" stroke-width="0.208342" stroke-miterlimit="10" stroke-linecap="round" stroke-linejoin="round"/>
<path d="M93.512 96.1854C93.4899 94.5447 93.5566 95.4537 91.8936 97.6044C90.8959 98.8683 88.9225 101.396 84.5323 104.367C68.9453 114.921 48.7022 127.071 32.1839 135.519C27.0178 138.157 19.4123 140.264 13.581 136.14C11.7185 134.832 8.70344 130.796 8.68127 124.788C8.61475 111.817 15.9538 101.573 16.5081 98.5357L16.6632 97.5379C17.6166 91.6844 4.37971 112.925 5.0227 130.042C5.17791 133.989 5.84301 142.969 12.0956 148.49C16.6409 152.503 25.244 152.525 32.1839 148.822C49.7443 139.399 68.9453 128.224 84.5323 117.67C89.7206 114.145 91.4502 110.974 92.7806 105.076C93.7561 100.731 93.5343 97.8705 93.6008 97.4049L93.512 96.1854Z" fill="white" stroke="white" stroke-width="0.208342" stroke-miterlimit="10" stroke-linecap="round" stroke-linejoin="round"/>
<path d="M170.959 79.9553C174.263 81.6182 179.229 84.0572 182.622 86.0305L176.99 98.0922C173.619 96.1189 168.653 93.6799 165.327 92.017L170.959 79.9553Z" fill="white" stroke="white" stroke-width="0.260427" stroke-miterlimit="10" stroke-linecap="round" stroke-linejoin="round"/>
<path d="M156.259 49.8899C157.478 46.8523 156.857 49.7347 157.877 52.4397C159.806 57.5171 162.91 60.8208 159.629 66.7629C155.327 73.7029 150.982 70.8648 149.252 68.7585C147.257 66.7186 148.787 60.2221 145.749 53.0827L147.323 49.4243C149.474 52.4175 148.587 61.8186 151.625 64.1688C153.288 65.8761 157.057 66.0313 158.321 64.4792C159.851 62.6167 155.793 58.8475 155.194 55.056C155.039 54.1026 155.15 52.994 155.66 51.6415L156.259 49.8899Z" fill="white" stroke="white" stroke-width="0.156256" stroke-miterlimit="10" stroke-linecap="round" stroke-linejoin="round"/>
<path d="M145.75 53.0825C147.08 57.0735 148.765 62.0179 146.836 64.6121C143.066 69.3347 138.81 67.7605 137.501 65.2107C134.752 59.9337 139.497 53.6368 136.858 50.6879L134.619 53.5259C135.661 55.2775 132.756 62.5057 135.084 69.1352C136.37 72.8158 143.133 77.605 148.366 66.6963C150.916 62.2175 148.632 53.4151 147.324 49.4241L145.75 53.0825Z" fill="white" stroke="white" stroke-width="0.156256" stroke-miterlimit="10" stroke-linecap="round" stroke-linejoin="round"/>
<path d="M136.858 50.688C136.26 53.7699 136.348 54.2577 136.747 55.6989L134.819 58.2265C133.932 56.7632 133.266 55.2998 134.619 53.526L136.858 50.688Z" fill="white" stroke="white" stroke-width="0.156256" stroke-miterlimit="10" stroke-linecap="round" stroke-linejoin="round"/>
<path d="M153 30.5334C143.288 33.9258 134.796 37.0077 126.504 40.0675C121.338 42.0187 119.142 43.6594 118.743 46.9631C118.721 49.6681 119.874 52.6392 124.952 55.5437L125.706 51.1758C120.651 48.2712 121.182 47.4065 121.382 47.1848C121.604 46.3866 123.289 45.5662 125.728 44.4354C134.02 41.3757 142.535 38.2937 152.246 34.9014L153 30.5334Z" fill="white" stroke="white" stroke-width="0.208342" stroke-miterlimit="10" stroke-linecap="round" stroke-linejoin="round"/>
<path d="M73.2463 41.6859C73.5788 40.2447 74.0667 38.8257 74.3549 37.8944C76.9934 31.3536 81.3169 29.4246 83.1129 29.9789C87.7247 31.4645 89.0329 42.9497 79.7427 54.3906C77.9689 56.5635 76.9491 57.6277 74.9092 59.5567L73.9114 60.5101C71.6277 62.6608 74.9757 58.0047 76.7052 55.854C82.6695 48.4706 83.8892 41.9298 81.9159 38.9809C80.7851 37.584 77.6365 37.3401 74.7763 41.1981C73.8894 42.0628 72.4482 45.433 72.8695 43.2601L73.2463 41.6859Z" fill="white" stroke="white" stroke-width="0.156256" stroke-miterlimit="10" stroke-linecap="round" stroke-linejoin="round"/>
<path d="M119.387 99.6665C120.163 98.58 119.12 101.44 118.965 103.236C118.256 110.841 125.329 113.125 130.118 110.243C130.473 109.977 130.828 109.688 131.138 109.422C131.87 108.757 132.468 108.358 132.912 107.892L133.976 106.119C135.373 103.48 134.974 109.688 132.291 114.411C131.515 115.764 130.007 117.382 128.81 118.114C124.043 120.996 115.662 120.686 115.307 111.617C115.152 107.892 116.926 103.125 118.788 100.398L119.387 99.6665Z" fill="white" stroke="white" stroke-width="0.156256" stroke-miterlimit="10" stroke-linecap="round" stroke-linejoin="round"/>
<path d="M132.912 107.892C133.133 107.649 133.311 107.405 133.466 107.116L133.909 106.274C133.932 106.23 133.953 106.185 133.976 106.119L132.912 107.892Z" fill="white" stroke="white" stroke-width="0.156256" stroke-miterlimit="10" stroke-linecap="round" stroke-linejoin="round"/>
<path d="M20.4539 80.7757C20.4539 80.7536 20.4539 80.7314 20.4539 80.7092L20.3872 81.7735C20.3872 81.707 20.3872 81.6405 20.3872 81.5961L20.4539 80.7757Z" fill="white" stroke="white" stroke-width="0.156256" stroke-miterlimit="10" stroke-linecap="round" stroke-linejoin="round"/>
<path d="M20.4545 80.7092C20.5653 79.3789 20.1439 81.2857 19.4788 82.7934C18.9245 84.412 17.9046 85.831 17.1064 86.5183C15.8426 87.6048 12.6497 88.0704 10.5212 85.698C8.17093 83.0595 9.14656 77.3834 9.8339 75.1218C10.4769 72.9933 11.297 70.8426 12.583 68.2706C14.1129 65.1886 14.6231 64.1022 14.867 63.437L15.2438 62.3506C15.7316 60.7764 12.317 65.6099 10.5654 69.0688C8.99113 72.2172 7.43935 75.92 6.6855 79.8667C5.73209 83.8133 6.21997 89.2677 9.01367 92.1279C11.1422 94.2786 14.2462 93.6578 15.8648 92.3275C17.3947 91.0636 19.2348 88.1812 20.0552 84.4563C20.2104 83.3699 20.3434 82.3721 20.3878 81.7735L20.4545 80.7092Z" fill="white" stroke="white" stroke-width="0.156256" stroke-miterlimit="10" stroke-linecap="round" stroke-linejoin="round"/>
</g>
<path d="M15.4121 228.238C14.6113 227.809 13.5957 227.939 12.3652 228.629C11.5645 229.085 11.0111 229.745 10.7051 230.611C10.6465 230.781 10.6595 230.956 10.7441 231.139C11.0241 231.783 11.877 232.145 13.3027 232.223C14.7285 232.301 15.474 232.597 15.5391 233.111C15.6693 234.16 15.3698 234.977 14.6406 235.562C12.7201 237.105 10.5391 237.923 8.09766 238.014C5.16797 238.124 3.55664 237.044 3.26367 234.771C3.12695 233.736 3.38086 232.516 4.02539 231.109C4.37695 230.354 4.79688 229.677 5.28516 229.078C5.41536 228.922 5.51953 228.909 5.59766 229.039C5.67578 229.169 5.67253 229.29 5.58789 229.4C4.27279 231.256 3.8431 232.763 4.29883 233.922C4.89128 235.432 6.22917 236.168 8.3125 236.129C10.8516 236.083 12.9023 235.436 14.4648 234.186C14.5951 234.081 14.6048 233.984 14.4941 233.893C14.2793 233.704 13.5208 233.57 12.2188 233.492C10.9167 233.414 10.1615 233.085 9.95312 232.506C9.7513 231.92 9.77083 231.259 10.0117 230.523C10.487 229.078 11.4245 227.854 12.8242 226.852C13.5339 226.337 14.1393 226.064 14.6406 226.031C15.8451 225.953 16.2715 226.578 15.9199 227.906C15.8223 228.258 15.653 228.368 15.4121 228.238ZM21.6914 214.611C21.9909 214.429 22.0983 214.491 22.0137 214.797L21.8379 215.383C21.7988 215.533 21.6686 215.676 21.4473 215.812L17.9414 217.834C17.7331 217.951 17.6289 217.896 17.6289 217.668L17.6387 217.365C17.6452 217.248 17.7461 217.111 17.9414 216.955L21.6914 214.611ZM22.8145 231.988C22.5605 231.428 22.2415 231.155 21.8574 231.168C21.623 231.201 21.4375 231.305 21.3008 231.48C21.2422 231.552 21.2585 231.646 21.3496 231.764C21.5579 232.031 22.0169 232.158 22.7266 232.145C22.8112 232.145 22.8405 232.092 22.8145 231.988ZM23.7715 234.215C23.3548 236.598 22.0951 238.261 19.9922 239.205C19.4453 239.452 18.9408 239.589 18.4785 239.615C18.0163 239.648 17.1634 239.241 15.9199 238.395C15.7767 238.297 15.7344 238.199 15.793 238.102C15.8516 238.004 15.9427 237.988 16.0664 238.053C17.1797 238.632 18.5729 238.443 20.2461 237.486C21.6784 236.673 22.6517 235.546 23.166 234.107C23.166 234.062 23.1497 234.029 23.1172 234.01C22.1341 233.997 21.4147 233.86 20.959 233.6C20.5033 233.333 20.3307 232.815 20.4414 232.047C20.4674 231.871 20.5228 231.66 20.6074 231.412C20.8939 230.585 21.3073 230.022 21.8477 229.723C22.388 229.417 22.847 229.524 23.2246 230.045C23.6087 230.579 23.8268 231.295 23.8789 232.193C23.9766 232.187 24.0807 232.18 24.1914 232.174C24.3867 232.167 24.5039 232.32 24.543 232.633C24.582 232.932 24.5592 233.235 24.4746 233.541C24.3965 233.847 24.3021 234 24.1914 234C24.0938 234.007 23.9635 234.01 23.8008 234.01C23.7943 234.075 23.7845 234.143 23.7715 234.215ZM27.2871 214.312C27.821 213.336 28.5078 213.17 29.3477 213.814C29.8945 214.231 30.1875 214.736 30.2266 215.328C30.2721 216.051 30.054 216.581 29.5723 216.92C29.2207 217.161 28.7878 217.262 28.2734 217.223C27.1992 217.151 26.7663 216.484 26.9746 215.221C27.0332 214.889 27.1374 214.586 27.2871 214.312ZM29.416 215.826C29.8001 215.722 29.7936 215.468 29.3965 215.064C29.11 214.778 28.7585 214.632 28.3418 214.625C27.834 214.612 27.5703 214.827 27.5508 215.27C27.5443 215.556 27.6549 215.738 27.8828 215.816C28.3451 215.979 28.8561 215.982 29.416 215.826ZM29.8457 226.422C29.9238 226.422 29.9889 226.435 30.041 226.461C30.36 226.656 30.5651 227.021 30.6562 227.555C30.832 228.577 30.7181 229.531 30.3145 230.416C30.1191 230.846 29.8783 231.272 29.5918 231.695C30.4186 232.001 31.1413 232.167 31.7598 232.193C31.8835 232.2 31.9583 232.366 31.9844 232.691C32.0625 233.544 31.9876 233.98 31.7598 234C30.666 234.111 29.2891 233.727 27.6289 232.848C27.1471 233.082 26.5124 233.333 25.7246 233.6C24.9434 233.86 24.4323 233.993 24.1914 234C24.0286 234.007 23.9115 233.863 23.8398 233.57C23.7682 233.271 23.765 232.975 23.8301 232.682C23.8952 232.382 24.0156 232.219 24.1914 232.193C24.9466 232.083 25.653 231.913 26.3105 231.686C26.2129 231.093 26.291 230.458 26.5449 229.781C26.9551 228.674 27.707 227.711 28.8008 226.891C29.2174 226.578 29.5658 226.422 29.8457 226.422ZM28.9473 228.531C28.3158 228.479 27.7363 228.821 27.209 229.557C27.0592 229.745 27.1309 230.038 27.4238 230.436C27.7168 230.833 28.0586 231.031 28.4492 231.031C28.8398 231.031 29.2793 230.777 29.7676 230.27C29.8001 229.241 29.5267 228.661 28.9473 228.531ZM28.8105 220.963C28.8431 220.911 28.8919 220.898 28.957 220.924C29.4323 221.087 29.8587 221.337 30.2363 221.676C30.2884 221.721 30.2982 221.773 30.2656 221.832L29.3965 223.189C29.3639 223.242 29.3053 223.232 29.2207 223.16C29.1491 223.102 28.8105 222.89 28.2051 222.525L27.5312 223.6C27.4922 223.652 27.4303 223.642 27.3457 223.57C27.2611 223.499 26.8411 223.235 26.0859 222.779C26.0404 222.747 26.0306 222.711 26.0566 222.672L26.9355 221.363C26.9681 221.318 27.0202 221.305 27.0918 221.324C27.4824 221.461 27.8405 221.66 28.166 221.92L28.8105 220.963ZM31.7988 213.541L35.4023 211.939C35.6367 211.842 35.7409 211.894 35.7148 212.096L35.627 212.789C35.6074 212.919 35.5488 213.007 35.4512 213.053L31.9355 214.283C31.6426 214.381 31.5124 214.306 31.5449 214.059L31.584 213.785C31.597 213.674 31.6686 213.593 31.7988 213.541ZM34.875 215.268C34.901 215.033 34.9792 214.919 35.1094 214.926C35.2721 214.939 35.347 215.053 35.334 215.268C35.2949 215.84 35.1875 216.319 35.0117 216.703C34.8099 217.159 34.5137 217.4 34.123 217.426C33.8691 217.452 33.6315 217.325 33.4102 217.045C33.2604 217.312 33.0618 217.51 32.8145 217.641C32.5475 217.784 32.2839 217.803 32.0234 217.699C31.3984 217.445 31.3301 216.693 31.8184 215.443C31.8965 215.255 32.0104 215.189 32.1602 215.248C32.2773 215.3 32.3099 215.421 32.2578 215.609C32.0885 216.228 32.1667 216.56 32.4922 216.605C32.8958 216.658 33.2148 216.228 33.4492 215.316C33.4948 215.141 33.5794 215.066 33.7031 215.092C33.8333 215.124 33.8854 215.202 33.8594 215.326C33.7747 215.873 33.9049 216.15 34.25 216.156C34.6016 216.163 34.8099 215.867 34.875 215.268ZM36.6523 232.193C36.8737 232.245 36.9974 232.324 37.0234 232.428C37.0495 232.532 37.0495 232.688 37.0234 232.896C36.9258 233.632 36.8021 234 36.6523 234C35.9362 234.007 35.2135 233.603 34.4844 232.789C33.8919 233.512 32.987 233.915 31.7695 234C31.6458 234.007 31.5612 233.906 31.5156 233.697L31.3398 232.867C31.3073 232.73 31.3366 232.587 31.4277 232.438C31.5124 232.288 31.6263 232.206 31.7695 232.193C33.2539 232.083 34.2435 231.646 34.7383 230.885C34.8099 230.774 34.901 230.719 35.0117 230.719C35.1224 230.719 35.181 230.781 35.1875 230.904C35.2005 231.028 35.2168 231.109 35.2363 231.148C35.6725 231.747 36.1445 232.096 36.6523 232.193ZM34.6309 225.455C34.6634 225.403 34.7122 225.39 34.7773 225.416C35.2526 225.579 35.679 225.829 36.0566 226.168C36.1087 226.214 36.1185 226.266 36.0859 226.324L35.2168 227.682C35.1842 227.734 35.1257 227.724 35.041 227.652C34.9694 227.594 34.6309 227.382 34.0254 227.018L33.3516 228.092C33.3125 228.144 33.2507 228.134 33.166 228.062C33.0814 227.991 32.6615 227.727 31.9062 227.271C31.8607 227.239 31.8509 227.203 31.877 227.164L32.7559 225.855C32.7884 225.81 32.8405 225.797 32.9121 225.816C33.3027 225.953 33.6608 226.152 33.9863 226.412L34.6309 225.455ZM36.9648 220.797C37.1667 220.309 37.2871 220.009 37.3262 219.898C37.3652 219.781 37.4336 219.723 37.5312 219.723C37.6289 219.723 37.7005 219.791 37.7461 219.928C37.9479 220.52 38.2376 221.005 38.6152 221.383C38.7454 221.513 38.7357 221.666 38.5859 221.842L38.1465 222.457C38.2311 223.206 38.3158 223.902 38.4004 224.547C38.8496 227.841 39.0026 229.853 38.8594 230.582C38.4427 232.691 37.707 233.831 36.6523 234C36.418 234.033 36.3171 233.593 36.3496 232.682C36.3561 232.376 36.457 232.213 36.6523 232.193C37.375 232.109 37.8796 231.809 38.166 231.295C38.127 230.247 37.9609 228.609 37.668 226.383C37.3815 224.156 37.209 222.792 37.1504 222.291L36.9551 221.168C36.929 221.012 36.9323 220.888 36.9648 220.797ZM42.0234 220.445C42.2188 219.977 42.3424 219.964 42.3945 220.406C42.3945 220.406 42.5475 222.092 42.8535 225.465C43.3678 229.957 43.3385 232.757 42.7656 233.863C42.6875 234.013 42.6159 234.052 42.5508 233.98C42.4922 233.902 42.4661 233.792 42.4727 233.648C42.5052 232.073 42.4596 230.813 42.3359 229.869C42.2188 228.925 42.0755 227.656 41.9062 226.061L41.4766 222.145C41.4505 221.923 41.4863 221.699 41.584 221.471L42.0234 220.445ZM56.418 242.369C56.7174 242.187 56.8249 242.249 56.7402 242.555L56.5645 243.141C56.5254 243.29 56.3952 243.434 56.1738 243.57L52.668 245.592C52.4596 245.709 52.3555 245.654 52.3555 245.426L52.3652 245.123C52.3717 245.006 52.4727 244.869 52.668 244.713L56.418 242.369ZM53.791 227.564C54.0059 226.913 54.1979 226.49 54.3672 226.295C54.4779 226.165 54.6276 226.152 54.8164 226.256C56.5938 227.239 57.6322 228.551 57.9316 230.191C58.1009 231.116 58.0618 231.93 57.8145 232.633C57.7428 232.841 57.6029 233.001 57.3945 233.111C56.125 233.762 54.7253 234.098 53.1953 234.117C52.1341 234.13 51.763 233.453 52.082 232.086C52.1211 231.93 52.2025 231.842 52.3262 231.822C52.4043 231.816 52.5052 231.865 52.6289 231.969C52.8828 232.184 53.3809 232.242 54.123 232.145C55.7376 231.936 56.7956 231.682 57.2969 231.383C57.3424 231.357 57.3555 231.279 57.3359 231.148C57.0885 229.814 56.0046 228.772 54.084 228.023C53.8236 227.919 53.7259 227.766 53.791 227.564ZM61.2617 220.445C61.457 219.977 61.5807 219.964 61.6328 220.406C61.6328 220.406 61.7858 222.092 62.0918 225.465C62.6061 229.957 62.5768 232.757 62.0039 233.863C61.9258 234.013 61.8542 234.052 61.7891 233.98C61.7305 233.902 61.7044 233.792 61.7109 233.648C61.7435 232.073 61.6979 230.813 61.5742 229.869C61.457 228.925 61.3138 227.656 61.1445 226.061L60.7148 222.145C60.6888 221.923 60.7246 221.699 60.8223 221.471L61.2617 220.445ZM63.5957 213.541L67.1992 211.939C67.4336 211.842 67.5378 211.894 67.5117 212.096L67.4238 212.789C67.4043 212.919 67.3457 213.007 67.248 213.053L63.7324 214.283C63.4395 214.381 63.3092 214.306 63.3418 214.059L63.3809 213.785C63.3939 213.674 63.4655 213.593 63.5957 213.541ZM66.6719 215.268C66.6979 215.033 66.776 214.919 66.9062 214.926C67.069 214.939 67.1439 215.053 67.1309 215.268C67.0918 215.84 66.9844 216.319 66.8086 216.703C66.6068 217.159 66.3105 217.4 65.9199 217.426C65.666 217.452 65.4284 217.325 65.207 217.045C65.0573 217.312 64.8587 217.51 64.6113 217.641C64.3444 217.784 64.0807 217.803 63.8203 217.699C63.1953 217.445 63.127 216.693 63.6152 215.443C63.6934 215.255 63.8073 215.189 63.957 215.248C64.0742 215.3 64.1068 215.421 64.0547 215.609C63.8854 216.228 63.9635 216.56 64.2891 216.605C64.6927 216.658 65.0117 216.228 65.2461 215.316C65.2917 215.141 65.3763 215.066 65.5 215.092C65.6302 215.124 65.6823 215.202 65.6562 215.326C65.5716 215.873 65.7018 216.15 66.0469 216.156C66.3984 216.163 66.6068 215.867 66.6719 215.268ZM69.3965 229.781C69.6243 230.055 69.7839 230.462 69.875 231.002C69.9661 231.542 69.9922 232.079 69.9531 232.613C69.9141 233.147 69.7122 233.844 69.3477 234.703C68.8398 235.901 68.0749 236.812 67.0527 237.438C66.5254 237.763 65.9557 237.945 65.3438 237.984C64.7383 238.023 63.6966 237.577 62.2188 236.646C62.1146 236.581 62.0755 236.5 62.1016 236.402C62.1276 236.311 62.2057 236.285 62.3359 236.324C64.224 236.962 65.9557 236.617 67.5312 235.289C68.2865 234.651 68.8887 233.876 69.3379 232.965C69.3965 232.848 69.4062 232.678 69.3672 232.457C69.3281 232.236 69.0905 231.917 68.6543 231.5C68.5957 231.448 68.5892 231.36 68.6348 231.236L69.1035 229.82C69.1296 229.742 69.1751 229.703 69.2402 229.703C69.3053 229.697 69.3574 229.723 69.3965 229.781ZM67.0625 223.59C67.0951 223.538 67.1504 223.525 67.2285 223.551C67.7559 223.733 68.2279 224.01 68.6445 224.381C68.7031 224.433 68.7129 224.492 68.6738 224.557L67.7168 226.07C67.6777 226.129 67.6094 226.119 67.5117 226.041C67.4206 225.963 66.9551 225.67 66.1152 225.162C66.0632 225.13 66.0534 225.09 66.0859 225.045L67.0625 223.59ZM70.8516 218.639C70.8841 218.574 70.9329 218.541 70.998 218.541C71.0697 218.535 71.1217 218.59 71.1543 218.707C71.1934 218.824 71.3398 219.033 71.5938 219.332C71.8477 219.625 72.0983 219.866 72.3457 220.055C72.4954 220.165 72.4889 220.351 72.3262 220.611L71.8086 221.402C71.8737 222.034 72.0495 223.329 72.3359 225.289C72.6224 227.249 72.7396 228.606 72.6875 229.361C72.5898 230.963 71.9779 231.923 70.8516 232.242C70.5326 232.333 70.2526 232.369 70.0117 232.35C69.6471 232.317 69.377 231.975 69.2012 231.324C69.0254 230.673 68.9961 230.172 69.1133 229.82C69.1393 229.742 69.1849 229.703 69.25 229.703C69.3151 229.697 69.3672 229.723 69.4062 229.781C69.7122 230.042 70.1289 230.165 70.6562 230.152C71.1901 230.139 71.6263 230.006 71.9648 229.752C72.0039 229.329 71.7533 227.477 71.2129 224.195L70.8125 221.783C70.7539 221.36 70.679 220.966 70.5879 220.602C70.4967 220.237 70.4382 219.993 70.4121 219.869C70.3861 219.739 70.3991 219.615 70.4512 219.498L70.8516 218.639ZM75.8125 220.445C76.0078 219.977 76.1315 219.964 76.1836 220.406C76.1836 220.406 76.3366 222.092 76.6426 225.465C77.1569 229.957 77.1276 232.757 76.5547 233.863C76.4766 234.013 76.4049 234.052 76.3398 233.98C76.2812 233.902 76.2552 233.792 76.2617 233.648C76.2943 232.073 76.2487 230.813 76.125 229.869C76.0078 228.925 75.8646 227.656 75.6953 226.061L75.2656 222.145C75.2396 221.923 75.2754 221.699 75.373 221.471L75.8125 220.445ZM89.1133 214.611C89.4128 214.429 89.5202 214.491 89.4355 214.797L89.2598 215.383C89.2207 215.533 89.0905 215.676 88.8691 215.812L85.3633 217.834C85.1549 217.951 85.0508 217.896 85.0508 217.668L85.0605 217.365C85.0671 217.248 85.168 217.111 85.3633 216.955L89.1133 214.611ZM82.668 236.959C82.5768 236.907 82.5247 236.845 82.5117 236.773C82.4987 236.702 82.515 236.646 82.5605 236.607C82.6061 236.575 82.6745 236.572 82.7656 236.598C84.0612 236.975 85.1973 236.972 86.1738 236.588C87.8991 235.917 89.1491 234.882 89.9238 233.482C89.9499 233.43 89.9629 233.398 89.9629 233.385C89.9564 232.89 89.6146 232.219 88.9375 231.373C88.9115 231.34 88.9049 231.301 88.918 231.256L89.4941 229.225C89.5462 229.003 89.7318 229.156 90.0508 229.684C90.4089 230.27 90.6367 230.982 90.7344 231.822C90.7865 232.213 90.7246 232.838 90.5488 233.697C90.3796 234.557 89.8717 235.465 89.0254 236.422C88.1855 237.385 87.388 237.906 86.6328 237.984C85.2917 238.128 83.9701 237.786 82.668 236.959ZM90.959 214.312C91.4928 213.336 92.1797 213.17 93.0195 213.814C93.5664 214.231 93.8594 214.736 93.8984 215.328C93.944 216.051 93.7259 216.581 93.2441 216.92C92.8926 217.161 92.4596 217.262 91.9453 217.223C90.8711 217.151 90.4382 216.484 90.6465 215.221C90.7051 214.889 90.8092 214.586 90.959 214.312ZM93.0879 215.826C93.472 215.722 93.4655 215.468 93.0684 215.064C92.7819 214.778 92.4303 214.632 92.0137 214.625C91.5059 214.612 91.2422 214.827 91.2227 215.27C91.2161 215.556 91.3268 215.738 91.5547 215.816C92.0169 215.979 92.528 215.982 93.0879 215.826ZM93.1172 228.004C93.1628 227.861 93.2474 227.799 93.3711 227.818C93.4948 227.831 93.5697 227.942 93.5957 228.15C93.6283 228.352 93.6934 228.889 93.791 229.762C93.8887 230.634 94.0352 231.236 94.2305 231.568C94.4258 231.9 94.7415 232.109 95.1777 232.193C95.6139 232.278 95.7799 232.532 95.6758 232.955C95.513 233.652 95.3503 234 95.1875 234C94.3411 234 93.778 233.603 93.498 232.809C93.3548 232.398 93.2474 231.842 93.1758 231.139C93.1107 230.429 93.0749 230.042 93.0684 229.977C93.0618 229.911 93.0358 229.931 92.9902 230.035C92.541 231.129 91.7077 231.695 90.4902 231.734C89.9499 231.754 89.6309 231.497 89.5332 230.963C89.4486 230.501 89.4909 230.172 89.6602 229.977C89.8294 229.781 89.9857 229.736 90.1289 229.84C90.2721 229.944 90.3861 229.999 90.4707 230.006C91.3105 230.077 91.9193 229.944 92.2969 229.605C92.5703 229.378 92.8438 228.844 93.1172 228.004ZM93.293 235.875C93.3255 235.823 93.3743 235.81 93.4395 235.836C93.9147 235.999 94.3411 236.249 94.7188 236.588C94.7708 236.633 94.7806 236.686 94.748 236.744L93.8789 238.102C93.8464 238.154 93.7878 238.144 93.7031 238.072C93.6315 238.014 93.293 237.802 92.6875 237.438L92.0137 238.512C91.9746 238.564 91.9128 238.554 91.8281 238.482C91.7435 238.411 91.3236 238.147 90.5684 237.691C90.5228 237.659 90.513 237.623 90.5391 237.584L91.418 236.275C91.4505 236.23 91.5026 236.217 91.5742 236.236C91.9648 236.373 92.3229 236.572 92.6484 236.832L93.293 235.875ZM100.285 214.611C100.585 214.429 100.692 214.491 100.607 214.797L100.432 215.383C100.393 215.533 100.262 215.676 100.041 215.812L96.5352 217.834C96.3268 217.951 96.2227 217.896 96.2227 217.668L96.2324 217.365C96.2389 217.248 96.3398 217.111 96.5352 216.955L100.285 214.611ZM101.418 229.508C101.965 229.755 102.635 229.983 103.43 230.191C104.23 230.393 105.002 230.488 105.744 230.475C105.861 230.475 105.956 230.504 106.027 230.562C106.099 230.621 106.105 230.715 106.047 230.846C105.806 231.373 105.624 231.741 105.5 231.949C105.376 232.158 105.256 232.258 105.139 232.252C104.416 232.167 103.605 232.203 102.707 232.359C101.809 232.516 101.008 232.711 100.305 232.945C98.319 233.609 97.0723 233.961 96.5645 234C96.0566 234.039 95.5977 234.039 95.1875 234C95.1549 232.717 95.1745 232.001 95.2461 231.852C95.6107 231.135 96.0371 230.471 96.5254 229.859C97.3001 228.889 97.9284 228.414 98.4102 228.434C98.8919 228.453 99.8945 228.811 101.418 229.508ZM100.148 231.1C99.3151 230.624 98.5176 230.38 97.7559 230.367C97.3392 230.367 96.9583 230.523 96.6133 230.836C96.2682 231.142 95.9915 231.585 95.7832 232.164C96.4017 232.203 97.5671 232.001 99.2793 231.559L100.139 231.344C100.204 231.331 100.243 231.305 100.256 231.266C100.275 231.22 100.24 231.165 100.148 231.1ZM98.4785 223.824C98.5111 223.772 98.5664 223.759 98.6445 223.785C99.1719 223.967 99.6439 224.244 100.061 224.615C100.119 224.667 100.129 224.726 100.09 224.791L99.1328 226.305C99.0938 226.363 99.0254 226.354 98.9277 226.275C98.8366 226.197 98.3711 225.904 97.5312 225.396C97.4792 225.364 97.4694 225.325 97.502 225.279L98.4785 223.824ZM116.916 213.541L120.52 211.939C120.754 211.842 120.858 211.894 120.832 212.096L120.744 212.789C120.725 212.919 120.666 213.007 120.568 213.053L117.053 214.283C116.76 214.381 116.63 214.306 116.662 214.059L116.701 213.785C116.714 213.674 116.786 213.593 116.916 213.541ZM119.992 215.268C120.018 215.033 120.096 214.919 120.227 214.926C120.389 214.939 120.464 215.053 120.451 215.268C120.412 215.84 120.305 216.319 120.129 216.703C119.927 217.159 119.631 217.4 119.24 217.426C118.986 217.452 118.749 217.325 118.527 217.045C118.378 217.312 118.179 217.51 117.932 217.641C117.665 217.784 117.401 217.803 117.141 217.699C116.516 217.445 116.447 216.693 116.936 215.443C117.014 215.255 117.128 215.189 117.277 215.248C117.395 215.3 117.427 215.421 117.375 215.609C117.206 216.228 117.284 216.56 117.609 216.605C118.013 216.658 118.332 216.228 118.566 215.316C118.612 215.141 118.697 215.066 118.82 215.092C118.951 215.124 119.003 215.202 118.977 215.326C118.892 215.873 119.022 216.15 119.367 216.156C119.719 216.163 119.927 215.867 119.992 215.268ZM121.945 224.801C122.414 225.673 122.795 226.728 123.088 227.965C123.381 229.195 123.436 230.39 123.254 231.549C123.156 232.167 122.958 232.711 122.658 233.18C121.877 234.397 120.526 235.097 118.605 235.279C117.219 235.41 116.164 235.136 115.441 234.459C114.719 233.788 114.39 232.857 114.455 231.666C114.52 230.468 114.93 229.348 115.686 228.307C115.79 228.163 115.887 228.124 115.979 228.189C116.07 228.255 116.06 228.382 115.949 228.57C115.129 229.957 114.973 231.087 115.48 231.959C115.988 232.825 116.994 233.255 118.498 233.248C120.249 233.229 121.656 232.643 122.717 231.49C122.736 231.464 122.746 231.409 122.746 231.324C122.759 230.699 122.57 229.866 122.18 228.824C121.789 227.776 121.434 227.021 121.115 226.559C121.024 226.428 120.998 226.318 121.037 226.227L121.643 224.732C121.714 224.55 121.815 224.573 121.945 224.801ZM118.225 221.793C118.257 221.741 118.312 221.728 118.391 221.754C118.918 221.936 119.39 222.213 119.807 222.584C119.865 222.636 119.875 222.695 119.836 222.76L118.879 224.273C118.84 224.332 118.771 224.322 118.674 224.244C118.583 224.166 118.117 223.873 117.277 223.365C117.225 223.333 117.215 223.294 117.248 223.248L118.225 221.793ZM129.357 240.736C129.618 240.613 129.735 240.642 129.709 240.824C129.709 240.824 129.676 241.111 129.611 241.684C129.598 241.807 129.533 241.902 129.416 241.967L125.227 243.891C125.031 243.982 124.927 243.923 124.914 243.715L124.865 243.129C124.859 243.031 124.924 242.95 125.061 242.885C127.71 241.557 129.143 240.84 129.357 240.736ZM126.174 219.596C126.317 219.361 126.418 219.462 126.477 219.898C126.724 221.962 126.883 223.73 126.955 225.201C127.092 227.981 127.183 229.658 127.229 230.23C127.326 231.467 127.993 232.122 129.23 232.193C129.576 232.213 129.709 232.457 129.631 232.926C129.507 233.642 129.374 234 129.23 234C127.479 234 126.542 233.189 126.418 231.568C126.314 230.201 126.242 228.827 126.203 227.447C126.164 226.061 126.083 224.941 125.959 224.088C125.842 223.229 125.682 222.249 125.48 221.148C125.441 220.934 125.461 220.761 125.539 220.631L126.174 219.596ZM128.557 238.98C127.834 239.124 127.323 239.241 127.023 239.332C126.724 239.43 126.161 239.661 125.334 240.025C125.158 240.097 125.031 240.074 124.953 239.957C124.79 239.716 125.051 239.384 125.734 238.961C125.24 238.714 124.963 238.434 124.904 238.121C124.8 237.581 125.025 236.926 125.578 236.158C126.138 235.396 126.734 235.042 127.365 235.094C127.769 235.126 127.948 235.351 127.902 235.768C127.863 236.191 127.746 236.539 127.551 236.812C127.355 237.086 127.189 237.115 127.053 236.9C126.916 236.686 126.714 236.565 126.447 236.539C126.187 236.513 125.982 236.588 125.832 236.764C125.682 236.939 125.695 237.112 125.871 237.281C126.314 237.698 126.962 237.919 127.814 237.945C127.951 237.945 128.156 237.913 128.43 237.848C128.703 237.783 128.892 237.75 128.996 237.75C129.107 237.757 129.185 237.799 129.23 237.877C129.283 237.962 129.292 238.04 129.26 238.111C129.006 238.645 128.771 238.935 128.557 238.98ZM132.277 214.611C132.577 214.429 132.684 214.491 132.6 214.797L132.424 215.383C132.385 215.533 132.255 215.676 132.033 215.812L128.527 217.834C128.319 217.951 128.215 217.896 128.215 217.668L128.225 217.365C128.231 217.248 128.332 217.111 128.527 216.955L132.277 214.611ZM131.545 225.816C131.721 225.816 131.936 225.927 132.189 226.148C133.381 227.197 133.944 228.515 133.879 230.104C133.846 230.943 133.641 231.611 133.264 232.105C132.287 233.368 130.946 234 129.24 234C129.071 234.007 128.947 233.857 128.869 233.551C128.791 233.238 128.788 232.939 128.859 232.652C128.924 232.359 129.051 232.206 129.24 232.193C130.907 232.083 132.16 231.607 133 230.768C132.967 230.37 132.906 230.107 132.814 229.977C132.723 229.846 132.648 229.788 132.59 229.801C132.531 229.814 132.492 229.843 132.473 229.889C132.245 230.468 131.9 230.81 131.438 230.914C129.973 231.227 129.302 230.66 129.426 229.215C129.484 228.505 129.748 227.76 130.217 226.979C130.686 226.197 131.128 225.81 131.545 225.816ZM130.881 227.984C130.575 227.997 130.393 228.255 130.334 228.756C130.327 228.827 130.337 228.867 130.363 228.873C130.624 228.951 130.894 228.971 131.174 228.932C131.454 228.893 131.633 228.811 131.711 228.688C131.405 228.206 131.128 227.971 130.881 227.984ZM130.48 221.598C130.513 221.546 130.568 221.533 130.646 221.559C131.174 221.741 131.646 222.018 132.062 222.389C132.121 222.441 132.131 222.499 132.092 222.564L131.135 224.078C131.096 224.137 131.027 224.127 130.93 224.049C130.839 223.971 130.373 223.678 129.533 223.17C129.481 223.137 129.471 223.098 129.504 223.053L130.48 221.598ZM142.863 220.445C143.059 219.977 143.182 219.964 143.234 220.406C143.234 220.406 143.387 222.092 143.693 225.465C144.208 229.957 144.178 232.757 143.605 233.863C143.527 234.013 143.456 234.052 143.391 233.98C143.332 233.902 143.306 233.792 143.312 233.648C143.345 232.073 143.299 230.813 143.176 229.869C143.059 228.925 142.915 227.656 142.746 226.061L142.316 222.145C142.29 221.923 142.326 221.699 142.424 221.471L142.863 220.445ZM148.742 230.113C149.204 228.824 149.751 228.186 150.383 228.199C150.76 228.199 151.115 228.466 151.447 229C151.779 229.527 151.991 230.123 152.082 230.787C152.173 231.451 152.069 232.372 151.77 233.551C151.477 234.729 150.891 235.816 150.012 236.812C149.139 237.809 148.436 238.336 147.902 238.395C147.375 238.46 146.675 238.417 145.803 238.268C144.93 238.124 144.292 237.968 143.889 237.799C143.745 237.74 143.684 237.662 143.703 237.564C143.723 237.467 143.807 237.428 143.957 237.447C145.005 237.577 145.995 237.535 146.926 237.32C147.492 237.19 148.306 236.656 149.367 235.719C150.435 234.788 151.07 234.007 151.271 233.375C151.206 232.828 151.125 232.525 151.027 232.467C150.526 233.242 149.882 233.43 149.094 233.033C148.312 232.636 148.195 231.663 148.742 230.113ZM150.549 230.865C150.165 230.24 149.751 230.211 149.309 230.777C149.647 231.155 150.061 231.184 150.549 230.865ZM158.059 212.365C158.267 212.333 158.443 212.427 158.586 212.648C158.879 213.117 158.876 213.745 158.576 214.533C158.765 214.644 158.905 214.719 158.996 214.758C159.159 214.823 159.195 214.943 159.104 215.119L158.898 215.51C158.833 215.64 158.742 215.682 158.625 215.637C158.514 215.591 158.352 215.51 158.137 215.393C157.316 216.493 156.379 217.307 155.324 217.834C155.09 217.958 154.93 217.941 154.846 217.785C154.755 217.609 154.839 217.45 155.1 217.307C156.187 216.669 157.046 215.943 157.678 215.129C157.339 214.953 157.085 214.784 156.916 214.621C156.623 214.348 156.545 214.055 156.682 213.742C157.027 212.909 157.486 212.45 158.059 212.365ZM157.883 213.527C157.609 213.286 157.391 213.303 157.229 213.576C157.183 213.641 157.212 213.732 157.316 213.85C157.427 213.96 157.674 214.11 158.059 214.299C158.111 213.941 158.052 213.684 157.883 213.527ZM156.799 227.564C157.014 226.913 157.206 226.49 157.375 226.295C157.486 226.165 157.635 226.152 157.824 226.256C159.602 227.239 160.64 228.551 160.939 230.191C161.109 231.116 161.07 231.93 160.822 232.633C160.751 232.841 160.611 233.001 160.402 233.111C159.133 233.762 157.733 234.098 156.203 234.117C155.142 234.13 154.771 233.453 155.09 232.086C155.129 231.93 155.21 231.842 155.334 231.822C155.412 231.816 155.513 231.865 155.637 231.969C155.891 232.184 156.389 232.242 157.131 232.145C158.745 231.936 159.803 231.682 160.305 231.383C160.35 231.357 160.363 231.279 160.344 231.148C160.096 229.814 159.012 228.772 157.092 228.023C156.831 227.919 156.734 227.766 156.799 227.564ZM164.982 213.541L168.586 211.939C168.82 211.842 168.924 211.894 168.898 212.096L168.811 212.789C168.791 212.919 168.732 213.007 168.635 213.053L165.119 214.283C164.826 214.381 164.696 214.306 164.729 214.059L164.768 213.785C164.781 213.674 164.852 213.593 164.982 213.541ZM168.059 215.268C168.085 215.033 168.163 214.919 168.293 214.926C168.456 214.939 168.531 215.053 168.518 215.268C168.479 215.84 168.371 216.319 168.195 216.703C167.993 217.159 167.697 217.4 167.307 217.426C167.053 217.452 166.815 217.325 166.594 217.045C166.444 217.312 166.245 217.51 165.998 217.641C165.731 217.784 165.467 217.803 165.207 217.699C164.582 217.445 164.514 216.693 165.002 215.443C165.08 215.255 165.194 215.189 165.344 215.248C165.461 215.3 165.493 215.421 165.441 215.609C165.272 216.228 165.35 216.56 165.676 216.605C166.079 216.658 166.398 216.228 166.633 215.316C166.678 215.141 166.763 215.066 166.887 215.092C167.017 215.124 167.069 215.202 167.043 215.326C166.958 215.873 167.089 216.15 167.434 216.156C167.785 216.163 167.993 215.867 168.059 215.268ZM165.793 230.113C166.255 228.824 166.802 228.186 167.434 228.199C167.811 228.199 168.166 228.466 168.498 229C168.83 229.527 169.042 230.123 169.133 230.787C169.224 231.451 169.12 232.372 168.82 233.551C168.527 234.729 167.941 235.816 167.062 236.812C166.19 237.809 165.487 238.336 164.953 238.395C164.426 238.46 163.726 238.417 162.854 238.268C161.981 238.124 161.343 237.968 160.939 237.799C160.796 237.74 160.734 237.662 160.754 237.564C160.773 237.467 160.858 237.428 161.008 237.447C162.056 237.577 163.046 237.535 163.977 237.32C164.543 237.19 165.357 236.656 166.418 235.719C167.486 234.788 168.12 234.007 168.322 233.375C168.257 232.828 168.176 232.525 168.078 232.467C167.577 233.242 166.932 233.43 166.145 233.033C165.363 232.636 165.246 231.663 165.793 230.113ZM167.6 230.865C167.215 230.24 166.802 230.211 166.359 230.777C166.698 231.155 167.111 231.184 167.6 230.865ZM175.246 214.611C175.546 214.429 175.653 214.491 175.568 214.797L175.393 215.383C175.354 215.533 175.223 215.676 175.002 215.812L171.496 217.834C171.288 217.951 171.184 217.896 171.184 217.668L171.193 217.365C171.2 217.248 171.301 217.111 171.496 216.955L175.246 214.611ZM176.311 230.084C176.649 230.507 176.857 230.898 176.936 231.256C177.02 231.607 177.03 232.141 176.965 232.857C176.848 234.107 176.311 235.263 175.354 236.324C174.403 237.385 173.524 237.932 172.717 237.965C171.356 238.017 170.096 237.669 168.938 236.92C168.846 236.868 168.794 236.806 168.781 236.734C168.768 236.663 168.788 236.607 168.84 236.568C168.892 236.529 168.96 236.526 169.045 236.559C169.95 236.845 170.721 236.93 171.359 236.812C173.677 236.396 175.321 235.188 176.291 233.189C176.311 233.137 176.32 233.03 176.32 232.867C176.32 232.763 176.145 232.594 175.793 232.359C175.63 232.229 175.578 232.018 175.637 231.725L175.939 230.201C176.005 229.889 176.128 229.85 176.311 230.084ZM173.439 224.02C173.472 223.967 173.527 223.954 173.605 223.98C174.133 224.163 174.605 224.439 175.021 224.811C175.08 224.863 175.09 224.921 175.051 224.986L174.094 226.5C174.055 226.559 173.986 226.549 173.889 226.471C173.798 226.393 173.332 226.1 172.492 225.592C172.44 225.559 172.43 225.52 172.463 225.475L173.439 224.02ZM180.305 214.611C180.604 214.429 180.712 214.491 180.627 214.797L180.451 215.383C180.412 215.533 180.282 215.676 180.061 215.812L176.555 217.834C176.346 217.951 176.242 217.896 176.242 217.668L176.252 217.365C176.258 217.248 176.359 217.111 176.555 216.955L180.305 214.611ZM178.645 229C178.638 228.837 178.703 228.753 178.84 228.746C178.983 228.74 179.064 228.818 179.084 228.98C179.188 229.957 179.087 230.758 178.781 231.383C178.475 232.008 177.941 232.382 177.18 232.506C176.639 232.597 176.184 232.548 175.812 232.359C175.65 232.275 175.598 232.063 175.656 231.725C175.656 231.725 175.757 231.217 175.959 230.201C176.024 229.869 176.145 229.83 176.32 230.084C176.496 230.338 176.779 230.488 177.17 230.533C177.567 230.572 177.915 230.458 178.215 230.191C178.514 229.924 178.658 229.527 178.645 229ZM179.729 223.404C179.761 223.352 179.81 223.339 179.875 223.365C180.35 223.528 180.777 223.779 181.154 224.117C181.206 224.163 181.216 224.215 181.184 224.273L180.314 225.631C180.282 225.683 180.223 225.673 180.139 225.602C180.067 225.543 179.729 225.331 179.123 224.967L178.449 226.041C178.41 226.093 178.348 226.083 178.264 226.012C178.179 225.94 177.759 225.676 177.004 225.221C176.958 225.188 176.949 225.152 176.975 225.113L177.854 223.805C177.886 223.759 177.938 223.746 178.01 223.766C178.4 223.902 178.758 224.101 179.084 224.361L179.729 223.404ZM185.656 214.611C185.956 214.429 186.063 214.491 185.979 214.797L185.803 215.383C185.764 215.533 185.633 215.676 185.412 215.812L181.906 217.834C181.698 217.951 181.594 217.896 181.594 217.668L181.604 217.365C181.61 217.248 181.711 217.111 181.906 216.955L185.656 214.611ZM183.352 230.113C183.814 228.824 184.361 228.186 184.992 228.199C185.37 228.199 185.725 228.466 186.057 229C186.389 229.527 186.6 230.123 186.691 230.787C186.783 231.451 186.678 232.372 186.379 233.551C186.086 234.729 185.5 235.816 184.621 236.812C183.749 237.809 183.046 238.336 182.512 238.395C181.984 238.46 181.285 238.417 180.412 238.268C179.54 238.124 178.902 237.968 178.498 237.799C178.355 237.74 178.293 237.662 178.312 237.564C178.332 237.467 178.417 237.428 178.566 237.447C179.615 237.577 180.604 237.535 181.535 237.32C182.102 237.19 182.915 236.656 183.977 235.719C185.044 234.788 185.679 234.007 185.881 233.375C185.816 232.828 185.734 232.525 185.637 232.467C185.135 233.242 184.491 233.43 183.703 233.033C182.922 232.636 182.805 231.663 183.352 230.113ZM185.158 230.865C184.774 230.24 184.361 230.211 183.918 230.777C184.257 231.155 184.67 231.184 185.158 230.865Z" fill="white"/>
<defs>
<filter id="filter0_d_40_91064" x="0.895874" y="0.895752" width="186.673" height="186.208" filterUnits="userSpaceOnUse" color-interpolation-filters="sRGB">
<feFlood flood-opacity="0" result="BackgroundImageFix"/>
<feColorMatrix in="SourceAlpha" type="matrix" values="0 0 0 0 0 0 0 0 0 0 0 0 0 0 0 0 0 0 127 0" result="hardAlpha"/>
<feOffset dy="4"/>
<feGaussianBlur stdDeviation="2"/>
<feComposite in2="hardAlpha" operator="out"/>
<feColorMatrix type="matrix" values="0 0 0 0 0.179167 0 0 0 0 0.179167 0 0 0 0 0.179167 0 0 0 0.25 0"/>
<feBlend mode="normal" in2="BackgroundImageFix" result="effect1_dropShadow_40_91064"/>
<feBlend mode="normal" in="SourceGraphic" in2="effect1_dropShadow_40_91064" result="shape"/>
</filter>
</defs>
</svg>
