<svg width="24" height="24" viewBox="0 0 24 24" fill="none" xmlns="http://www.w3.org/2000/svg">
<circle cx="12" cy="12" r="12" fill="#E8F3E4"/>
<path d="M12.0003 17.5143C11.8231 17.5143 11.6517 17.4914 11.5089 17.44C9.32599 16.6914 5.85742 14.0343 5.85742 10.1086C5.85742 8.10857 7.47456 6.48572 9.46314 6.48572C10.4289 6.48572 11.3317 6.86286 12.0003 7.53715C12.6688 6.86286 13.5717 6.48572 14.5374 6.48572C16.526 6.48572 18.1431 8.11429 18.1431 10.1086C18.1431 14.04 14.6746 16.6914 12.4917 17.44C12.3488 17.4914 12.1774 17.5143 12.0003 17.5143ZM9.46314 7.34286C7.94885 7.34286 6.71456 8.58286 6.71456 10.1086C6.71456 14.0114 10.4689 16.1829 11.7889 16.6343C11.8917 16.6686 12.1146 16.6686 12.2174 16.6343C13.5317 16.1829 17.2917 14.0171 17.2917 10.1086C17.2917 8.58286 16.0574 7.34286 14.5431 7.34286C13.6746 7.34286 12.8688 7.74857 12.3488 8.45143C12.1888 8.66857 11.8231 8.66857 11.6631 8.45143C11.1317 7.74286 10.3317 7.34286 9.46314 7.34286Z" fill="#5D9F44"/>
</svg>
