<svg width="72" height="72" viewBox="0 0 72 72" fill="none" xmlns="http://www.w3.org/2000/svg">
<g filter="url(#filter0_dd_273_6174)">
<circle cx="36" cy="32" r="32" fill="url(#paint0_linear_273_6174)"/>
</g>
<path d="M55 39.4288C54.915 37.0163 54.1313 36.7047 53.3429 36.2232C50.4961 34.7596 46.4549 37.63 43.7261 40.4155C42.2153 41.9168 38.8822 46.0619 36.2431 47.601C34.1045 48.8237 32.0367 48.3894 31.3049 46.4538C30.8942 45.4246 30.8233 44.4048 31.031 43.0923C31.1018 42.6627 31.149 42.2473 31.2765 41.8554L31.3804 41.4919C31.81 40.0708 30.762 41.5485 30.4268 43.8194C30.2568 44.9713 30.2804 46.5387 30.8092 47.9787C31.6731 50.3959 33.9439 51.6469 36.1109 50.4289C38.8916 48.8946 42.1633 44.7494 43.6741 43.2481C46.129 40.4249 50.1987 37.5781 53.0077 39.0369C54.7545 39.8678 55.0189 40.5571 54.9906 39.8065L55 39.4288Z" fill="white" stroke="white" stroke-width="0.208342" stroke-miterlimit="10" stroke-linecap="round" stroke-linejoin="round"/>
<path d="M35.4829 46.4819C37.2675 45.6274 37.9284 44.8909 38.5375 43.0261C38.7405 42.2566 38.9434 40.8214 38.8537 39.2492C38.3439 31.9882 37.2344 18.1082 36.9842 14.3172C36.8284 13.8781 36.6207 13.5146 36.4838 13L35.4026 15.6155C35.5914 15.9932 35.6765 16.4653 35.8323 16.9091C36.0825 20.6954 37.2061 34.4526 37.7726 41.7184C37.7963 42.4549 37.8151 43.2858 37.5319 44.0175C36.7151 45.9674 34.1705 47.1807 34.8598 46.7794L35.4829 46.4819Z" fill="white" stroke="white" stroke-width="0.208342" stroke-miterlimit="10" stroke-linecap="round" stroke-linejoin="round"/>
<path d="M36.484 13C37.584 15.8799 38.9532 20.0439 38.4149 19.4018L38.1695 19.1138C37.1497 17.9052 37.8578 18.6984 35.4028 15.6155L36.484 13Z" fill="white" stroke="white" stroke-width="0.208342" stroke-miterlimit="10" stroke-linecap="round" stroke-linejoin="round"/>
<path d="M26.6783 25.6009C25.9701 25.5725 24.346 25.6717 23.2083 25.8416L23.2319 22.8721C25.0731 23.9674 28.3259 25.6811 27.0182 25.6103L26.6783 25.6009Z" fill="white" stroke="white" stroke-width="0.208342" stroke-miterlimit="10" stroke-linecap="round" stroke-linejoin="round"/>
<path d="M23.2083 25.8416C23.4726 25.8794 23.6803 25.903 23.737 25.988C26.8104 30.1614 31.3002 31.2992 33.5239 32.555C34.1848 32.9233 34.8032 33.5653 35.0629 34.1035C35.4972 35.0714 35.4406 35.9353 35.4972 35.7701L35.6058 35.3263C35.6814 34.9769 35.8324 34.7267 35.941 34.1366C36.2998 31.2001 34.5011 30.5155 33.2783 29.7318C31.05 28.4807 26.6641 27.3665 24.3366 23.6086C24.2327 23.5047 23.5623 23.009 23.2319 22.8721L23.2083 25.8416Z" fill="white" stroke="white" stroke-width="0.208342" stroke-miterlimit="10" stroke-linecap="round" stroke-linejoin="round"/>
<path d="M35.8467 33.2676C35.842 32.9183 35.8562 33.1119 35.5021 33.5698C35.2896 33.8389 34.8694 34.3771 33.9347 35.0097C30.6157 37.257 26.3054 39.8441 22.7882 41.6429C21.6882 42.2047 20.0688 42.6532 18.8271 41.775C18.4306 41.4965 17.7886 40.6373 17.7838 39.3578C17.7697 36.596 19.3324 34.4149 19.4504 33.7681L19.4834 33.5556C19.6864 32.3093 16.8679 36.8321 17.0048 40.4767C17.0379 41.3171 17.1795 43.2291 18.5108 44.4047C19.4787 45.2592 21.3105 45.2639 22.7882 44.4755C26.5273 42.469 30.6157 40.0896 33.9347 37.8424C35.0394 37.0917 35.4077 36.4166 35.6909 35.1608C35.8987 34.2355 35.8514 33.6264 35.8656 33.5273L35.8467 33.2676Z" fill="white" stroke="white" stroke-width="0.208342" stroke-miterlimit="10" stroke-linecap="round" stroke-linejoin="round"/>
<path d="M52.3374 29.8118C53.0408 30.1658 54.0984 30.6852 54.8207 31.1053L53.6215 33.6736C52.9039 33.2534 51.8463 32.7341 51.1382 32.38L52.3374 29.8118Z" fill="white" stroke="white" stroke-width="0.260427" stroke-miterlimit="10" stroke-linecap="round" stroke-linejoin="round"/>
<path d="M49.2072 23.4099C49.4669 22.7631 49.3347 23.3769 49.5519 23.9528C49.9626 25.034 50.6235 25.7374 49.9248 27.0027C49.0089 28.4804 48.0836 27.8761 47.7154 27.4276C47.2905 26.9932 47.6163 25.61 46.9695 24.0898L47.3047 23.3108C47.7626 23.9481 47.5737 25.9499 48.2205 26.4503C48.5746 26.8138 49.3772 26.8469 49.6463 26.5164C49.9721 26.1198 49.1081 25.3172 48.9806 24.5099C48.9476 24.3069 48.9712 24.0709 49.0798 23.7829L49.2072 23.4099Z" fill="white" stroke="white" stroke-width="0.156256" stroke-miterlimit="10" stroke-linecap="round" stroke-linejoin="round"/>
<path d="M46.9695 24.0898C47.2528 24.9396 47.6115 25.9924 47.2008 26.5447C46.3982 27.5503 45.4918 27.2151 45.2132 26.6722C44.6278 25.5486 45.6381 24.2078 45.0763 23.5799L44.5995 24.1842C44.8213 24.5572 44.2029 26.0962 44.6986 27.5078C44.9724 28.2915 46.4124 29.3113 47.5266 26.9885C48.0695 26.0349 47.5832 24.1606 47.3047 23.3108L46.9695 24.0898Z" fill="white" stroke="white" stroke-width="0.156256" stroke-miterlimit="10" stroke-linecap="round" stroke-linejoin="round"/>
<path d="M45.0763 23.5798C44.9488 24.2361 44.9677 24.3399 45.0527 24.6468L44.642 25.185C44.4531 24.8734 44.3115 24.5618 44.5995 24.1841L45.0763 23.5798Z" fill="white" stroke="white" stroke-width="0.156256" stroke-miterlimit="10" stroke-linecap="round" stroke-linejoin="round"/>
<path d="M48.5132 19.2886C46.4453 20.0109 44.6372 20.6671 42.8715 21.3186C41.7715 21.7341 41.304 22.0835 41.2191 22.7869C41.2143 23.3629 41.4599 23.9955 42.541 24.614L42.7016 23.6839C41.6252 23.0654 41.7384 22.8813 41.7809 22.8341C41.8281 22.6641 42.1869 22.4895 42.7063 22.2487C44.4719 21.5972 46.2849 20.941 48.3527 20.2186L48.5132 19.2886Z" fill="white" stroke="white" stroke-width="0.208342" stroke-miterlimit="10" stroke-linecap="round" stroke-linejoin="round"/>
<path d="M31.5316 21.6633C31.6024 21.3564 31.7063 21.0543 31.7676 20.856C32.3295 19.4632 33.2501 19.0525 33.6325 19.1705C34.6144 19.4869 34.893 21.9324 32.9149 24.3685C32.5372 24.8311 32.32 25.0577 31.8857 25.4685L31.6732 25.6715C31.187 26.1294 31.8998 25.138 32.2681 24.68C33.5381 23.1079 33.7978 21.7152 33.3776 21.0873C33.1368 20.7899 32.4664 20.7379 31.8574 21.5594C31.6685 21.7435 31.3617 22.4611 31.4514 21.9985L31.5316 21.6633Z" fill="white" stroke="white" stroke-width="0.156256" stroke-miterlimit="10" stroke-linecap="round" stroke-linejoin="round"/>
<path d="M41.356 34.0088C41.5213 33.7774 41.2993 34.3864 41.2663 34.7688C41.1152 36.3882 42.6213 36.8745 43.641 36.2607C43.7166 36.2041 43.7921 36.1427 43.8582 36.086C44.014 35.9444 44.1415 35.8594 44.2359 35.7603L44.4625 35.3826C44.7599 34.8208 44.6749 36.1427 44.1037 37.1483C43.9384 37.4363 43.6174 37.7809 43.3625 37.9367C42.3474 38.5504 40.5629 38.4843 40.4874 36.5534C40.4543 35.7603 40.832 34.7452 41.2286 34.1646L41.356 34.0088Z" fill="white" stroke="white" stroke-width="0.156256" stroke-miterlimit="10" stroke-linecap="round" stroke-linejoin="round"/>
<path d="M44.2358 35.7605C44.2831 35.7086 44.3208 35.6566 44.3539 35.5953L44.4483 35.4159C44.453 35.4064 44.4577 35.397 44.4624 35.3828L44.2358 35.7605Z" fill="white" stroke="white" stroke-width="0.156256" stroke-miterlimit="10" stroke-linecap="round" stroke-linejoin="round"/>
<path d="M20.2906 29.9866C20.2906 29.9819 20.2906 29.9771 20.2906 29.9724L20.2764 30.199C20.2764 30.1849 20.2764 30.1707 20.2764 30.1613L20.2906 29.9866Z" fill="white" stroke="white" stroke-width="0.156256" stroke-miterlimit="10" stroke-linecap="round" stroke-linejoin="round"/>
<path d="M20.2906 29.9721C20.3142 29.6888 20.2245 30.0949 20.0828 30.4159C19.9648 30.7605 19.7477 31.0627 19.5777 31.209C19.3086 31.4404 18.6288 31.5395 18.1755 31.0343C17.6751 30.4725 17.8828 29.2639 18.0292 28.7824C18.1661 28.3292 18.3407 27.8712 18.6146 27.3236C18.9403 26.6673 19.0489 26.436 19.1009 26.2944L19.1811 26.063C19.285 25.7278 18.5579 26.757 18.1849 27.4935C17.8497 28.1639 17.5193 28.9524 17.3588 29.7927C17.1558 30.6331 17.2597 31.7944 17.8545 32.4035C18.3078 32.8614 18.9687 32.7292 19.3133 32.446C19.6391 32.1769 20.0309 31.5631 20.2056 30.77C20.2386 30.5386 20.267 30.3262 20.2764 30.1987L20.2906 29.9721Z" fill="white" stroke="white" stroke-width="0.156256" stroke-miterlimit="10" stroke-linecap="round" stroke-linejoin="round"/>
<defs>
<filter id="filter0_dd_273_6174" x="0" y="0" width="72" height="72" filterUnits="userSpaceOnUse" color-interpolation-filters="sRGB">
<feFlood flood-opacity="0" result="BackgroundImageFix"/>
<feColorMatrix in="SourceAlpha" type="matrix" values="0 0 0 0 0 0 0 0 0 0 0 0 0 0 0 0 0 0 127 0" result="hardAlpha"/>
<feOffset dy="4"/>
<feGaussianBlur stdDeviation="2"/>
<feComposite in2="hardAlpha" operator="out"/>
<feColorMatrix type="matrix" values="0 0 0 0 0 0 0 0 0 0 0 0 0 0 0 0 0 0 0.25 0"/>
<feBlend mode="normal" in2="BackgroundImageFix" result="effect1_dropShadow_273_6174"/>
<feColorMatrix in="SourceAlpha" type="matrix" values="0 0 0 0 0 0 0 0 0 0 0 0 0 0 0 0 0 0 127 0" result="hardAlpha"/>
<feOffset dy="4"/>
<feGaussianBlur stdDeviation="2"/>
<feComposite in2="hardAlpha" operator="out"/>
<feColorMatrix type="matrix" values="0 0 0 0 0.6375 0 0 0 0 0.6375 0 0 0 0 0.6375 0 0 0 0.25 0"/>
<feBlend mode="normal" in2="effect1_dropShadow_273_6174" result="effect2_dropShadow_273_6174"/>
<feBlend mode="normal" in="SourceGraphic" in2="effect2_dropShadow_273_6174" result="shape"/>
</filter>
<linearGradient id="paint0_linear_273_6174" x1="36" y1="0" x2="36" y2="64" gradientUnits="userSpaceOnUse">
<stop stop-color="#74C656"/>
<stop offset="1" stop-color="#5D9F44"/>
</linearGradient>
</defs>
</svg>
