<svg width="58" height="58" viewBox="0 0 58 58" fill="none" xmlns="http://www.w3.org/2000/svg">
<g clip-path="url(#clip0_784_1770)">
<path d="M20.4805 35.3812C17.6052 32.2183 17.4614 28.3366 17.6052 24.4549C15.88 24.3111 14.7298 23.4485 14.4423 21.8671C14.2985 20.4294 14.2985 18.848 14.4423 17.2665C14.4423 16.2602 15.1611 15.5413 16.0237 15.11C16.3113 14.9663 16.4551 14.8225 16.4551 14.3912C16.7426 7.63413 21.9182 2.45851 28.6753 2.02721C35.1448 1.59591 40.8955 6.34023 42.0456 12.8098C42.0456 12.9535 42.0456 13.0973 42.0456 13.0973C42.0456 14.1037 42.1894 14.9663 43.1957 15.5413C44.0584 15.9726 44.2021 16.979 44.3459 17.8416C44.3459 18.848 44.3459 19.7106 44.3459 20.7169C44.3459 22.8735 43.3395 24.0236 41.0392 24.3111C41.183 28.1928 41.0392 32.0746 38.1639 35.2374C38.5952 35.3812 39.0265 35.3812 39.314 35.525C45.496 36.8189 50.5279 41.8507 51.678 48.0327C51.678 48.1765 51.8218 48.464 51.8218 48.6078C51.8218 49.1829 51.5342 49.6142 50.9592 49.7579C50.3841 49.9017 49.9528 49.6142 49.809 49.0391C49.6653 48.464 49.5215 48.0327 49.3777 47.4576C47.7963 41.707 42.7644 37.6815 36.87 37.2502C36.2949 37.2502 35.8636 37.2502 35.4323 37.5377C34.5697 38.1128 33.5633 38.5441 32.4132 38.9754C32.4132 39.1191 32.4132 39.4067 32.4132 39.5505C32.4132 44.2948 32.4132 49.0391 32.4132 53.7834C32.4132 54.0709 32.4132 54.2147 32.4132 54.5022C32.2694 55.0773 31.9819 55.3648 31.4068 55.3648C30.8318 55.3648 30.4005 54.9335 30.4005 54.3585C30.4005 54.0709 30.4005 53.9272 30.4005 53.6396C30.4005 49.0391 30.4005 44.4385 30.4005 39.838C30.4005 39.5505 30.4005 39.4067 30.4005 39.1192C29.6816 39.1192 28.9628 39.1192 28.244 39.1192C28.244 39.4067 28.244 39.5505 28.244 39.838C28.244 44.4385 28.244 49.0391 28.244 53.7834C28.244 54.0709 28.244 54.2147 28.244 54.5022C28.1002 55.0773 27.8127 55.3648 27.2376 55.3648C26.6625 55.3648 26.375 55.0773 26.2312 54.5022C26.2312 54.3585 26.2312 54.0709 26.2312 53.7834C26.2312 49.0391 26.2312 44.2948 26.2312 39.5505C26.2312 39.2629 26.2312 39.1191 26.2312 38.9754C25.0811 38.4003 23.9309 37.6815 22.7808 37.2502C22.2057 36.9626 21.3431 37.2502 20.6243 37.2502C14.8736 38.1128 10.4168 42.4258 9.12292 48.1765C9.12292 48.3202 9.12292 48.3203 9.12292 48.464C8.97916 49.3266 8.40409 49.6142 7.82902 49.4704C7.11018 49.3266 6.82265 48.7516 7.11018 47.8889C8.40409 41.2757 13.5797 36.2438 20.193 35.0937C20.193 35.525 20.193 35.3812 20.4805 35.3812ZM20.9118 16.979C20.9118 19.7106 20.9118 22.2984 20.9118 25.03C20.9118 26.3239 21.3431 27.3302 22.062 28.3366C23.0683 29.7743 24.506 30.9244 25.9437 31.9308C26.8063 32.6496 27.5251 32.2183 27.6689 31.212C27.8127 30.2056 28.1002 30.0618 29.1066 29.918C29.3941 29.918 29.6816 29.918 29.9692 29.918C31.2631 29.918 31.4068 30.0618 31.6944 31.3557C31.8381 32.2183 32.557 32.5059 33.2758 32.0746C34.5697 30.9244 36.0074 29.7743 37.1575 28.4804C37.8764 27.7615 38.3077 26.8989 38.3077 25.8926C38.3077 23.0172 38.3077 20.1419 38.3077 17.2665C38.3077 17.2665 38.3077 17.2665 38.1639 17.1228C32.2694 16.979 26.6625 16.979 20.9118 16.979ZM39.314 10.3657C37.8764 6.48399 33.2758 3.60865 28.819 3.89618C24.7935 4.18372 20.4805 7.20283 19.7617 10.3657C26.2312 10.3657 32.7007 10.3657 39.314 10.3657ZM19.9055 29.4867C20.6243 34.2311 25.2249 37.6815 30.1129 37.3939C34.5697 37.1064 38.739 33.2247 38.8827 29.343C38.739 29.4867 38.5952 29.7743 38.4514 29.918C37.1575 31.4995 35.7199 32.7934 33.9947 33.7998C32.4132 34.8061 30.5442 34.3748 29.5379 32.6496C29.5379 32.5059 29.3941 32.3621 29.2503 32.2183C28.1002 34.3748 26.375 34.8061 24.506 33.5122C24.0747 33.2247 23.6434 32.9372 23.2121 32.6496C22.2057 31.6433 21.0556 30.4931 19.9055 29.4867ZM40.0329 12.666C32.9883 12.666 25.9437 12.666 18.8991 12.666C18.8991 13.3848 18.7553 14.1037 18.7553 14.6787C25.9437 14.6787 33.132 14.6787 40.3204 14.6787C40.1766 13.9599 40.1766 13.3848 40.0329 12.666ZM18.6116 22.2984C18.6116 20.4294 18.6116 18.7042 18.6116 16.979C18.1803 16.979 17.8927 16.979 17.6052 16.979C17.0301 16.979 16.5988 17.4103 16.5988 17.9854C16.5988 19.1355 16.5988 20.2856 16.5988 21.292C16.5988 21.8671 17.0301 22.1546 17.6052 22.2984C17.8927 22.2984 18.324 22.2984 18.6116 22.2984ZM40.3204 22.2984C40.7517 22.2984 41.0392 22.2984 41.3268 22.2984C42.0456 22.2984 42.4769 21.8671 42.4769 21.1482C42.4769 20.1419 42.4769 18.9917 42.4769 17.9854C42.4769 17.4103 42.1894 16.979 41.4705 16.979C41.0392 16.979 40.7517 16.979 40.3204 16.979C40.3204 18.7042 40.3204 20.4294 40.3204 22.2984Z" fill="#5D9F44"/>
<path d="M40.0326 12.6659C40.0326 13.3847 40.1764 13.9598 40.1764 14.6786C32.988 14.6786 25.7997 14.6786 18.6113 14.6786C18.6113 13.9598 18.7551 13.3847 18.7551 12.6659C25.9435 12.6659 32.988 12.6659 40.0326 12.6659Z" fill="#F5A445"/>
</g>
<defs>
<clipPath id="clip0_784_1770">
<rect width="58" height="58" fill="white"/>
</clipPath>
</defs>
</svg>
