<svg width="40" height="40" viewBox="0 0 40 40" fill="none" xmlns="http://www.w3.org/2000/svg">
<g clip-path="url(#clip0_331_1343)">
<path d="M0.010498 20.1976C0.010498 20.0413 0.010498 19.8851 0.010498 19.7288C0.145915 19.4893 0.322998 19.2809 0.510498 19.0934C2.05216 17.5622 3.58342 16.0205 5.12508 14.4997C5.46883 14.1663 5.61467 13.8018 5.61467 13.3226C5.60425 11.1247 5.60425 8.93717 5.61467 6.73926C5.61467 5.88509 5.89592 5.60384 6.77092 5.60384C8.95842 5.60384 11.1459 5.59342 13.3334 5.61426C13.823 5.61426 14.198 5.46842 14.5417 5.11426C16.0834 3.55176 17.6459 2.01009 19.2084 0.458008C19.2397 0.499674 19.2709 0.541341 19.3022 0.583008C20.8751 2.16634 22.4584 3.73926 24.0417 5.31217C24.1876 5.45801 24.3542 5.55176 24.5522 5.57259C25.0626 5.63509 25.5834 5.66634 26.0938 5.55176C26.3542 5.56217 26.6147 5.59342 26.8647 5.59342C28.6459 5.59342 30.4167 5.58301 32.198 5.58301C32.698 5.94759 32.7605 6.44759 32.7501 7.02051C32.7292 9.27051 32.7397 11.5101 32.7397 13.7601C32.7397 14.1872 32.8751 14.5309 33.1876 14.833C34.5626 16.1559 35.8542 17.5622 37.2709 18.8434C37.4792 19.0309 37.6876 19.2393 37.8334 19.4893C38.0209 19.8122 38.0313 20.1351 37.8334 20.4476C37.7188 20.6247 37.5834 20.7809 37.4376 20.9268C36.1355 22.2393 34.8334 23.5413 33.5209 24.8434C32.9897 25.3643 32.698 25.9268 32.7188 26.7288C32.7813 28.7913 32.7188 30.8538 32.7501 32.9163C32.7605 33.4893 32.698 33.9997 32.198 34.3538C31.2084 34.3538 30.2292 34.333 29.2397 34.3434C28.1876 34.3538 27.1355 34.2913 26.0938 34.3747C25.7397 34.2497 25.3751 34.3434 25.0105 34.3122C24.5522 34.2809 24.1876 34.4476 23.8647 34.7809C22.8438 35.8226 21.8126 36.833 20.7813 37.8643C20.2501 38.3955 19.7292 38.9372 19.2084 39.4788C17.6459 37.9163 16.073 36.3643 14.5105 34.8018C14.1876 34.4684 13.823 34.333 13.3647 34.333C11.1772 34.3434 8.98967 34.3434 6.80217 34.333C5.8855 34.333 5.60425 34.0622 5.60425 33.1559C5.60425 30.958 5.59383 28.7705 5.60425 26.5726C5.60425 26.1247 5.46883 25.7809 5.14592 25.4684C3.59383 23.9268 2.06258 22.3747 0.510498 20.833C0.312581 20.6351 0.135498 20.4372 0.010498 20.1976ZM28.9792 31.0101C29.3022 31.0205 29.6251 31.0309 29.9584 31.0309C30.7501 31.0309 31.0938 30.6872 31.0938 29.8955C31.0938 28.3122 31.1042 26.7288 31.0834 25.1455C31.0834 24.7184 31.2188 24.4059 31.5209 24.1143C32.6459 22.9997 33.7709 21.8747 34.8855 20.7601C35.448 20.1976 35.448 19.7601 34.8855 19.1976C33.7605 18.0726 32.6459 16.9476 31.5209 15.8434C31.2292 15.5518 31.0834 15.2288 31.0834 14.8018C31.0938 13.1768 31.0938 11.5518 31.0834 9.93717C31.0834 9.30176 30.7084 8.92676 30.0626 8.91634C29.698 8.91634 29.3334 8.92676 28.9688 8.93717C27.7292 8.93717 26.4897 8.92676 25.2501 8.92676C25.0001 8.92676 24.7605 8.91634 24.5209 8.84342C23.3334 7.66634 22.1459 6.48926 20.9584 5.31217C20.1355 4.49967 19.8022 4.49967 19.0105 5.33301C18.9688 5.37467 18.9272 5.43717 18.8959 5.48926C17.8751 6.49967 16.8438 7.51009 15.823 8.54134C15.5522 8.82259 15.2397 8.94759 14.8542 8.94759C13.2501 8.93717 11.6563 8.93717 10.0522 8.94759C9.2605 8.94759 8.91675 9.29134 8.91675 10.0934C8.91675 11.6559 8.90633 13.208 8.92717 14.7705C8.93758 15.2288 8.79175 15.583 8.45842 15.9059C7.34383 16.9476 6.25008 18.0622 5.14592 19.1663C4.573 19.7393 4.573 20.1872 5.14592 20.7601C6.25008 21.8643 7.34383 22.9684 8.45842 24.0622C8.79175 24.3851 8.92717 24.7393 8.92717 25.1976C8.90633 26.7601 8.91675 28.3122 8.91675 29.8747C8.91675 30.6768 9.2605 31.0205 10.0522 31.0205C11.6251 31.0205 13.198 31.0309 14.7709 31.0101C15.2188 31.0101 15.5626 31.1455 15.8751 31.4684C16.8647 32.4788 17.8855 33.4684 18.8855 34.458C18.9376 34.5205 18.9792 34.583 19.0313 34.6351C19.7917 35.4268 20.1459 35.4268 20.9272 34.6559C22.1251 33.4684 23.323 32.2809 24.5209 31.0934C24.7605 31.0205 25.0001 31.0101 25.2501 31.0101C26.5001 31.0205 27.7397 31.0101 28.9792 31.0101Z" fill="#5D9F44"/>
<path d="M32.1877 5.58316C32.5522 5.58316 32.9168 5.56232 33.2814 5.57274C34.0731 5.58316 34.4168 5.91649 34.4168 6.71857C34.4168 8.86441 34.4377 10.9998 34.4064 13.1457C34.396 13.7707 34.5835 14.2186 35.0314 14.6457C36.4897 16.0519 37.9064 17.4998 39.3439 18.9373C39.5731 19.1665 39.771 19.4165 39.9897 19.6561C39.9897 19.8644 39.9897 20.0727 39.9897 20.2811C39.7918 20.5623 39.5418 20.8123 39.2918 21.0519C37.8127 22.5311 36.3335 24.0102 34.8439 25.479C34.5418 25.7707 34.4064 26.0936 34.4064 26.5102C34.4168 28.7082 34.4168 30.8957 34.4168 33.0936C34.4168 34.0519 34.1043 34.354 33.1564 34.354C32.8335 34.354 32.5106 34.3436 32.1772 34.3436C32.6772 33.979 32.7397 33.479 32.7293 32.9061C32.7085 30.8436 32.7606 28.7811 32.6981 26.7186C32.6772 25.9165 32.9689 25.3644 33.5002 24.8332C34.8127 23.5415 36.1147 22.229 37.4168 20.9165C37.5627 20.7707 37.6981 20.6144 37.8127 20.4373C38.0106 20.1248 38.0106 19.8019 37.8127 19.479C37.6668 19.229 37.4585 19.0311 37.2502 18.8332C35.8335 17.5519 34.5418 16.1457 33.1668 14.8227C32.8543 14.5207 32.7189 14.1769 32.7189 13.7498C32.7293 11.4998 32.7085 9.26024 32.7293 7.01024C32.7502 6.44774 32.6877 5.93732 32.1877 5.58316Z" fill="#4D803A"/>
<path d="M20.3126 0.0102539C20.5626 0.229004 20.823 0.447754 21.0522 0.676921C22.5313 2.15609 24.0105 3.63525 25.5001 5.104C25.6772 5.28109 25.8542 5.44775 26.0834 5.55192C25.573 5.6665 25.0522 5.62484 24.5417 5.57275C24.3438 5.55192 24.1772 5.44775 24.0313 5.31234C22.4584 3.73942 20.8751 2.15609 19.2917 0.583171C19.2605 0.551921 19.2292 0.499837 19.198 0.458171C19.3022 0.249837 19.5313 0.176921 19.6876 0.0102539C19.8959 0.0102539 20.1042 0.0102539 20.3126 0.0102539Z" fill="#4D803A"/>
<path d="M24.5312 8.8125C24.7708 8.88542 25.0104 8.89583 25.2604 8.89583C26.5 8.89583 27.7396 8.89583 28.9792 8.90625C29.5729 9.42708 29.4479 10.125 29.4479 10.7812C29.4479 12.2708 29.4792 13.7708 29.4375 15.2604C29.4167 15.875 29.6771 16.2917 30.1042 16.6667C31.0104 17.4792 31.9167 18.3021 32.8021 19.1354C33.4271 19.7292 33.4271 20.1562 32.8125 20.75C31.8125 21.7188 30.8021 22.6667 29.7812 23.6146C29.5312 23.8438 29.4375 24.1042 29.4375 24.4375C29.4479 26 29.4479 27.5521 29.4375 29.1146C29.4375 29.7812 29.5625 30.4792 28.9688 30.9896C27.7292 30.9896 26.4896 31 25.25 31C25 31 24.7604 31.0104 24.5208 31.0833C24.1667 30.9271 23.8021 31.0521 23.4479 31C22.6771 30.8854 22.125 31.2083 21.6042 31.7604C20.7292 32.6771 19.8437 33.5938 18.8958 34.4479C17.8854 33.4479 16.875 32.4583 15.8854 31.4583C15.5729 31.1354 15.2292 31 14.7812 31C13.2083 31.0208 11.6354 31.0104 10.0625 31.0104C9.27083 31.0104 8.92708 30.6667 8.92708 29.8646C8.92708 28.3021 8.91667 26.75 8.9375 25.1875C8.94792 24.7292 8.80208 24.375 8.46875 24.0521C7.35417 22.9583 6.26042 21.8542 5.15625 20.75C4.58333 20.1771 4.58333 19.7292 5.15625 19.1562C6.26042 18.0521 7.35417 16.9479 8.46875 15.8542C8.80208 15.5312 8.9375 15.1771 8.9375 14.7188C8.91667 13.1563 8.92708 11.6042 8.92708 10.0417C8.92708 9.23958 9.26042 8.89583 10.0625 8.89583C11.6667 8.89583 13.2604 8.88542 14.8646 8.89583C15.2604 8.89583 15.5625 8.77083 15.8333 8.48958C16.8542 7.46875 17.875 6.45833 18.9062 5.4375C19.8646 6.29167 20.7917 7.1875 21.6354 8.15625C22.4792 9.13542 23.5 8.91667 24.5312 8.8125ZM24.0521 19.3646C24.3229 19.5937 24.6458 19.7292 24.9583 19.8854C25.3333 20.0625 25.5312 19.9167 25.4792 19.5C25.4167 19.0625 25.3542 18.625 25.2604 18.1979C25.1875 17.8646 25.2396 17.6042 25.5104 17.3646C25.8542 17.0729 26.1667 16.7396 26.4896 16.4167C26.7708 16.125 26.6875 15.8542 26.2812 15.7917C25.9583 15.7396 25.6458 15.6563 25.3125 15.6875C25.2083 15.6667 25.1146 15.6146 25.0104 15.6146C24.6042 15.625 24.3646 15.4375 24.2188 15.0625C24.0729 14.6875 23.8646 14.3438 23.6875 13.9792C23.6146 13.8229 23.5521 13.6667 23.3438 13.6563C23.1146 13.6458 23.0417 13.8229 22.9583 13.9896C22.7708 14.375 22.5625 14.75 22.3958 15.1458C22.2708 15.4375 22.0729 15.5833 21.75 15.6146C21.3021 15.6562 20.8542 15.7396 20.3958 15.8021C20.2396 15.8229 20.0833 15.875 20.0208 16.0417C19.9583 16.2188 20.0833 16.3333 20.1875 16.4479C20.5312 16.7812 20.875 17.1146 21.2292 17.4479C21.4062 17.6146 21.4688 17.7917 21.4167 18.0417C21.3125 18.5104 21.25 18.9896 21.1667 19.4583C21.1354 19.625 21.125 19.8021 21.2917 19.9167C21.4479 20.0208 21.5938 19.9375 21.7292 19.8646C21.9583 19.75 22.1979 19.6458 22.4167 19.5C22.9583 19.1354 23.4792 18.9687 24.0521 19.3646ZM28.3542 23.2292C28.2812 23.2812 28.1979 23.3229 28.125 23.375C26.4479 24.6875 24.5521 25.1667 22.4479 24.8854C18.3958 24.3229 15.5521 20.2188 16.4375 16.2188C16.7812 14.6875 17.5312 13.4063 18.6667 12.3229C19.1667 11.9271 19.6458 11.5208 20.2083 11.2083C19.7917 11.1458 19.4062 11.1771 19.0208 11.2292C14.4479 11.8229 10.8021 16 11.4375 21.0312C12.1771 26.9479 18.2604 30.3958 23.7396 28.0521C25.2083 27.4271 26.4479 26.4688 27.3438 25.1146C27.8333 24.5729 28.1458 23.9479 28.3854 23.2708C28.3854 23.25 28.3958 23.2292 28.3958 23.2083C28.3854 23.2083 28.3646 23.2188 28.3542 23.2292Z" fill="#CAEACA"/>
<path d="M28.9792 31.0104C29.573 30.4896 29.448 29.7917 29.448 29.1354C29.448 27.5729 29.4584 26.0208 29.448 24.4583C29.448 24.125 29.5522 23.8646 29.7917 23.6354C30.8022 22.6875 31.823 21.7396 32.823 20.7708C33.4376 20.1771 33.4376 19.75 32.8126 19.1562C31.9272 18.3229 31.0209 17.5 30.1147 16.6875C29.6876 16.3021 29.4272 15.8958 29.448 15.2812C29.4897 13.7917 29.4584 12.2917 29.4584 10.8021C29.4584 10.1354 29.5834 9.4375 28.9897 8.92708C29.3542 8.91667 29.7188 8.90625 30.0834 8.90625C30.7188 8.90625 31.1042 9.28125 31.1042 9.92708C31.1042 11.5521 31.1147 13.1771 31.1042 14.7917C31.1042 15.2188 31.2397 15.5312 31.5417 15.8333C32.6667 16.9479 33.7917 18.0729 34.9063 19.1875C35.4688 19.75 35.4688 20.1875 34.9063 20.75C33.7813 21.875 32.6667 23 31.5417 24.1042C31.2501 24.3958 31.1042 24.7188 31.1042 25.1354C31.1147 26.7188 31.1147 28.3021 31.1147 29.8854C31.1147 30.6771 30.7709 31.0208 29.9792 31.0208C29.6251 31.0312 29.3022 31.0208 28.9792 31.0104Z" fill="#B3D6B3"/>
<path d="M26.0835 34.3646C25.8543 34.4688 25.6772 34.6354 25.5002 34.8125C23.9168 36.3959 22.3439 37.9688 20.7606 39.5417C20.2085 40.0938 19.7189 40.0625 19.2085 39.4688C19.7293 38.9271 20.2606 38.3854 20.7814 37.8542C21.8022 36.8229 22.8439 35.8125 23.8647 34.7709C24.1877 34.4375 24.5522 34.2709 25.0106 34.3021C25.3647 34.3334 25.7293 34.2396 26.0835 34.3646Z" fill="#4D803A"/>
<path d="M24.5312 8.81252C23.5 8.90627 22.4792 9.13544 21.6354 8.16669C20.7917 7.20836 19.8646 6.31252 18.9062 5.44794C18.9479 5.39586 18.9792 5.34377 19.0208 5.29169C19.8125 4.45836 20.1458 4.45836 20.9688 5.27086C22.1563 6.45836 23.3438 7.63544 24.5312 8.81252Z" fill="#B3D6B3"/>
<path d="M18.896 34.4688C19.8439 33.6146 20.7293 32.7084 21.6043 31.7813C22.1252 31.2292 22.6772 30.9167 23.4481 31.0209C23.8022 31.073 24.1772 30.948 24.521 31.1042C23.3231 32.2917 22.1252 33.4792 20.9272 34.6667C20.146 35.448 19.7918 35.4375 19.0314 34.6459C18.9897 34.5938 18.9481 34.5209 18.896 34.4688Z" fill="#B3D6B3"/>
<path d="M27.3438 25.104C26.448 26.4582 25.2084 27.4061 23.7396 28.0415C18.2605 30.3853 12.1772 26.9373 11.4376 21.0207C10.8126 15.9894 14.448 11.8228 19.0209 11.2186C19.4063 11.1665 19.7917 11.1353 20.2084 11.1978C19.6459 11.5103 19.1563 11.9165 18.6667 12.3123C18.4897 12.2186 18.3959 12.3644 18.2917 12.4373C17.6251 12.9269 17.0417 13.4998 16.573 14.1769C14.3334 17.3957 14.8542 21.5728 17.9897 24.0936C20.4167 26.0519 23.198 26.479 26.1772 25.5207C26.573 25.4061 26.9272 25.1561 27.3438 25.104Z" fill="#F9C588"/>
<path d="M27.3439 25.1041C26.9273 25.1562 26.5731 25.4062 26.1773 25.5312C23.1877 26.4791 20.4169 26.0624 17.9898 24.1041C14.8648 21.5728 14.3439 17.3958 16.5731 14.1874C17.0419 13.5103 17.6252 12.9374 18.2919 12.4478C18.396 12.3749 18.4898 12.2187 18.6669 12.3228C17.5314 13.3958 16.7814 14.6874 16.4377 16.2187C15.5523 20.2187 18.396 24.3333 22.4481 24.8853C24.5523 25.177 26.4481 24.6874 28.1252 23.3749C28.1981 23.3228 28.2814 23.2812 28.3544 23.2291C28.3648 23.2395 28.3752 23.2499 28.396 23.2708C28.146 23.9374 27.8335 24.5728 27.3439 25.1041Z" fill="#F5A444"/>
<path d="M24.0523 19.3642C23.4793 18.9684 22.9585 19.135 22.4377 19.4892C22.2189 19.635 21.9793 19.7392 21.7502 19.8538C21.6148 19.9267 21.4689 20.01 21.3127 19.9059C21.1356 19.7913 21.1564 19.6142 21.1877 19.4475C21.2606 18.9788 21.3335 18.4996 21.4377 18.0309C21.4898 17.7809 21.4273 17.6038 21.2502 17.4371C20.896 17.1038 20.5523 16.7705 20.2085 16.4371C20.0939 16.333 19.9793 16.2184 20.0418 16.0309C20.1043 15.8538 20.2606 15.8121 20.4168 15.7913C20.8648 15.7184 21.3127 15.6455 21.771 15.6038C22.0939 15.5725 22.2918 15.4267 22.4168 15.135C22.5835 14.7392 22.7918 14.3642 22.9793 13.9788C23.0627 13.8121 23.1252 13.635 23.3648 13.6455C23.5731 13.6559 23.6356 13.8121 23.7085 13.9684C23.8856 14.333 24.0835 14.6767 24.2398 15.0517C24.3856 15.4267 24.6252 15.6142 25.0314 15.6038C25.1356 15.6038 25.2293 15.6559 25.3335 15.6767C25.0627 16.1559 24.6356 16.4996 24.2293 16.8434C23.9064 17.1038 23.7502 17.3642 23.8439 17.8017C23.9273 18.3121 24.0523 18.833 24.0523 19.3642Z" fill="#F5A445"/>
<path d="M24.0523 19.3642C24.0627 18.833 23.9377 18.3122 23.8231 17.8017C23.7293 17.3642 23.8856 17.1038 24.2085 16.8434C24.6252 16.4997 25.0418 16.1663 25.3127 15.6767C25.646 15.6455 25.9585 15.7288 26.2814 15.7809C26.6877 15.8434 26.771 16.1142 26.4898 16.4059C26.1773 16.7288 25.8543 17.0622 25.5106 17.3538C25.2293 17.5934 25.1877 17.8538 25.2606 18.1872C25.3543 18.6142 25.4168 19.0517 25.4793 19.4892C25.5314 19.9059 25.3335 20.0622 24.9585 19.8747C24.646 19.7288 24.3127 19.5934 24.0523 19.3642Z" fill="#F5A445"/>
<path d="M28.3542 23.2288C28.3751 23.2184 28.3855 23.208 28.4063 23.208C28.4063 23.2288 28.3959 23.2497 28.3959 23.2705C28.3751 23.2497 28.3647 23.2393 28.3542 23.2288Z" fill="#FDC166"/>
</g>
<defs>
<clipPath id="clip0_331_1343">
<rect width="40" height="40" fill="white"/>
</clipPath>
</defs>
</svg>
