<svg width="76" height="629" viewBox="0 0 76 629" fill="none" xmlns="http://www.w3.org/2000/svg">
<g clip-path="url(#clip0_658_4480)">
<path d="M55.86 313.94C55.8574 316.325 55.385 318.686 54.47 320.888C53.5549 323.09 52.2151 325.091 50.5269 326.775C48.8387 328.46 46.8353 329.795 44.631 330.705C42.4268 331.616 40.0648 332.083 37.68 332.08V628.57L74.37 324.72C75.664 319.198 75.6909 313.455 74.4485 307.922C73.2062 302.388 70.7269 297.208 67.1966 292.77C63.6664 288.331 59.1769 284.75 54.0649 282.294C48.9529 279.838 43.3512 278.572 37.68 278.59V295.8C40.0648 295.797 42.4268 296.265 44.631 297.175C46.8353 298.085 48.8387 299.42 50.5269 301.105C52.2151 302.789 53.5549 304.79 54.47 306.992C55.385 309.194 55.8574 311.555 55.86 313.94Z" fill="#4A5F42"/>
<path d="M0 316.18C0.00494336 319.052 0.340485 321.914 1 324.71L37.68 628.58V332.08C32.869 332.08 28.255 330.169 24.8531 326.767C21.4512 323.365 19.54 318.751 19.54 313.94C19.54 309.129 21.4512 304.515 24.8531 301.113C28.255 297.711 32.869 295.8 37.68 295.8V278.59C27.699 278.579 18.1224 282.533 11.0563 289.583C3.99023 296.632 0.0132529 306.199 0 316.18Z" fill="#69835F"/>
<path d="M19.5 314.64C19.5053 309.823 21.4233 305.205 24.8325 301.801C28.2416 298.398 32.8627 296.487 37.68 296.49V0L0.999989 303.86C-0.295595 309.382 -0.323959 315.125 0.917025 320.659C2.15801 326.193 4.63612 331.374 8.16543 335.813C11.6947 340.253 16.1836 343.836 21.2952 346.293C26.4069 348.75 32.0085 350.017 37.68 350V332.78C35.2952 332.783 32.9332 332.315 30.7289 331.405C28.5247 330.495 26.5212 329.16 24.8331 327.475C23.1449 325.791 21.805 323.79 20.89 321.588C19.9749 319.386 19.5026 317.025 19.5 314.64Z" fill="#E64D4D"/>
<path d="M75.36 312.39C75.3544 309.518 75.0189 306.656 74.36 303.86L37.68 0V296.49C40.0987 296.433 42.5043 296.861 44.7554 297.747C47.0066 298.633 49.0578 299.961 50.7885 301.651C52.5192 303.342 53.8944 305.361 54.8334 307.591C55.7723 309.821 56.256 312.216 56.256 314.635C56.256 317.054 55.7723 319.449 54.8334 321.679C53.8944 323.909 52.5192 325.928 50.7885 327.619C49.0578 329.309 47.0066 330.637 44.7554 331.523C42.5043 332.409 40.0987 332.837 37.68 332.78V350C42.6238 350.005 47.5202 349.037 52.0896 347.149C56.6589 345.262 60.8117 342.493 64.3107 339C67.8098 335.508 70.5865 331.36 72.4824 326.794C74.3782 322.228 75.3561 317.334 75.36 312.39Z" fill="#E02B2B"/>
<path d="M5 34.6801V80.8201C5.00084 81.2459 5.144 81.6593 5.40672 81.9945C5.66944 82.3297 6.03665 82.5675 6.45 82.6701L13.93 84.5401L21.57 80.6901L30.49 88.6901L37 90.3201C37.1501 90.3596 37.3047 90.3798 37.46 90.3801C37.6186 90.3804 37.7766 90.3602 37.93 90.3201L68.52 82.6701C68.9398 82.5749 69.3148 82.3401 69.5837 82.004C69.8525 81.6679 69.9993 81.2505 70 80.8201V34.6801L37.5 42.8101L5 34.6801Z" fill="#282828"/>
<path d="M37.5 42.8101V90.3801C37.6586 90.3804 37.8166 90.3602 37.97 90.3201L68.56 82.6701C68.9723 82.5672 69.3383 82.329 69.5993 81.9936C69.8604 81.6582 70.0015 81.245 70 80.8201V34.6801L37.5 42.8101Z" fill="#1D1D1D"/>
<path d="M5 39.88V51.47L37 59.47C37.3064 59.5366 37.6236 59.5366 37.93 59.47L69.93 51.47V39.88L37.5 48L5 39.88Z" fill="#FFE132"/>
<path d="M38 59.48L70 51.48V39.88L37.5 48V59.53C37.668 59.5307 37.8355 59.514 38 59.48Z" fill="#FAC80F"/>
<path d="M37.5 44.2401C37.3447 44.2398 37.1901 44.2196 37.04 44.1801L6.44998 36.5301C6.03941 36.4246 5.67557 36.1857 5.41577 35.8507C5.15596 35.5158 5.01495 35.1039 5.01495 34.6801C5.01495 34.2562 5.15596 33.8443 5.41577 33.5094C5.67557 33.1745 6.03941 32.9355 6.44998 32.8301L37 25.1801C37.3048 25.1 37.6252 25.1 37.93 25.1801L68.52 32.8301C68.9305 32.9355 69.2944 33.1745 69.5542 33.5094C69.814 33.8443 69.955 34.2562 69.955 34.6801C69.955 35.1039 69.814 35.5158 69.5542 35.8507C69.2944 36.1857 68.9305 36.4246 68.52 36.5301L38 44.1801C37.8369 44.2229 37.6686 44.2431 37.5 44.2401Z" fill="#353535"/>
<path d="M38 44.18L68.59 36.53C69.0006 36.4246 69.3644 36.1856 69.6242 35.8507C69.884 35.5157 70.0251 35.1039 70.0251 34.68C70.0251 34.2561 69.884 33.8443 69.6242 33.5093C69.3644 33.1744 69.0006 32.9354 68.59 32.83L38 25.18C37.8466 25.1398 37.6886 25.1197 37.53 25.12V44.24C37.6886 44.2403 37.8466 44.2202 38 44.18Z" fill="#2C2C2C"/>
<path d="M29.05 67.8099L16.3 64.6199C16.0181 64.55 15.7239 64.5452 15.4398 64.6061C15.1557 64.667 14.8893 64.7918 14.6608 64.9712C14.4323 65.1505 14.2477 65.3797 14.121 65.6411C13.9944 65.9026 13.9291 66.1894 13.93 66.4799V84.5399L30.49 88.6799V69.6799C30.4942 69.252 30.3545 68.835 30.0934 68.4959C29.8323 68.1568 29.4648 67.9152 29.05 67.8099Z" fill="#FFE132"/>
<path d="M17.75 85.5001L26.67 87.7301V71.1601L17.75 68.9301V85.5001Z" fill="#FAC80F"/>
</g>
<defs>
<clipPath id="clip0_658_4480">
<rect width="75.36" height="628.58" fill="white"/>
</clipPath>
</defs>
</svg>
