<svg width="266" height="266" viewBox="0 0 266 266" fill="none" xmlns="http://www.w3.org/2000/svg">
<g clip-path="url(#clip0_1934_1796)">
<path d="M266 209.475C265.515 211.969 265.03 214.532 264.476 217.025C259.004 242.448 237.183 263.021 209.406 265.446C179.065 268.078 154.058 249.236 145.261 224.23C144.984 223.398 144.707 222.636 144.43 221.805C139.373 222.775 134.524 223.953 129.606 224.576C89.9135 229.564 56.3172 217.51 29.163 188.14C13.9234 171.653 4.57186 151.98 1.80102 129.744C-3.53283 87.7661 10.0443 52.7151 42.6708 25.7687C65.5302 6.85781 92.338 -0.83125 121.847 1.1776C140.412 2.42448 157.66 8.24323 173.454 18.149C176.641 20.1578 177.541 23.0672 175.879 25.7687C174.216 28.401 171.168 28.8859 167.912 26.8771C149.694 15.5167 129.883 10.0443 108.478 11.3604C70.1713 13.8542 41.0083 31.9339 22.9286 65.738C-2.77085 113.812 13.4385 171.861 59.9192 200.4C84.8567 215.709 111.803 219.173 140.204 211.899C140.758 211.761 141.312 211.553 142.144 211.276C140.273 191.465 145.884 174.008 160.154 159.877C174.285 145.815 191.672 140.273 211.553 142.144C214.185 133.554 215.502 124.965 215.709 116.236C216.194 95.8708 211.137 76.9599 200.4 59.5729C199.084 57.4255 198.392 55.2781 199.846 53.0615C201.024 51.1911 202.825 50.2214 204.903 50.8448C206.358 51.2604 207.951 52.2995 208.713 53.4771C216.818 66.0844 222.013 79.8 224.507 94.4854C227.278 110.764 226.446 126.835 222.152 142.767C222.013 143.252 222.013 143.737 221.944 144.43C229.91 146.993 237.114 150.733 243.487 156.067C256.094 166.735 263.575 180.243 265.584 196.66C265.654 197.145 265.861 197.63 266 198.115C266 201.855 266 205.665 266 209.475ZM152.119 203.656C152.049 231.988 175.047 255.124 203.656 255.332C232.057 255.54 255.471 232.473 255.609 204.072C255.748 175.532 232.681 152.257 204.072 152.119C175.671 151.911 152.257 175.117 152.119 203.656Z" fill="#5D9F44"/>
<path d="M114.92 50.8448C143.875 51.2604 170.337 61.9281 192.365 83.3328C198.946 89.7057 199.223 99.4729 193.127 105.846C187.031 112.219 177.195 112.427 170.614 106.123C157.868 93.7927 142.906 85.8958 125.311 83.4713C99.1265 79.8693 76.3364 87.1427 57.0099 105.222C53.3385 108.617 49.3901 110.903 44.3333 110.695C37.5448 110.348 32.6265 107.023 30.202 100.72C27.7083 94.3469 29.0937 88.4588 33.9427 83.6099C45.3031 72.3187 58.4645 63.7984 73.4963 58.1875C86.3114 53.2693 99.5421 50.9833 114.92 50.8448ZM114.92 61.2354C94.7625 61.4432 77.3062 65.738 61.5817 75.3667C54.4468 79.7307 48.0047 85.4109 41.4239 90.7448C38.7224 92.9615 38.7224 96.2172 40.8005 98.5724C42.8786 100.858 46.2729 100.858 48.9052 98.5724C49.6672 97.8797 50.3599 97.1177 51.1911 96.425C73.4963 76.5443 99.4036 68.8552 128.844 73.5656C147.547 76.5443 163.618 85.0646 177.264 98.1568C180.035 100.858 183.568 100.997 185.715 98.6417C187.932 96.2172 187.585 93.1693 184.745 90.3984C164.795 71.1411 140.828 61.7203 114.92 61.2354Z" fill="#F5A445"/>
<path d="M117.137 93.3078C132.03 93.5849 148.378 99.9578 161.955 112.911C168.882 119.492 169.298 129.329 163.064 135.771C156.898 142.144 147.131 142.213 140.273 135.84C124.272 121.016 102.244 121.016 86.1036 135.84C79.1766 142.213 69.2708 142.074 63.175 135.494C57.1484 128.982 57.7026 119.354 64.4911 112.842C77.9297 100.166 94.9703 93.3078 117.137 93.3078ZM113.119 103.629C97.187 103.906 83.2635 109.379 71.626 120.531C68.9937 123.025 68.7167 126.211 70.8641 128.567C73.0115 130.853 76.2672 130.783 78.9687 128.497C80.9083 126.835 82.8479 125.034 84.926 123.51C103.906 110.071 129.606 111.803 146.716 127.597C147.824 128.636 149.14 129.606 150.526 130.091C152.811 130.853 155.305 129.536 156.483 127.458C157.73 125.242 157.245 122.748 155.097 120.67C143.391 109.379 129.398 103.837 113.119 103.629Z" fill="#F5A445"/>
<path d="M113.188 181.005C101.897 181.005 92.7536 171.861 92.7536 160.57C92.7536 149.348 101.897 140.135 113.188 140.135C124.549 140.066 133.762 149.348 133.762 160.708C133.762 171.999 124.549 181.074 113.188 181.005ZM113.327 170.683C118.938 170.683 123.371 166.25 123.371 160.639C123.371 155.097 118.869 150.595 113.327 150.526C107.716 150.456 103.075 155.097 103.144 160.708C103.213 166.25 107.716 170.683 113.327 170.683Z" fill="#F5A445"/>
<path d="M194.512 37.5448C194.443 40.3849 192.296 42.5323 189.386 42.6016C186.477 42.6016 184.122 40.1771 184.191 37.337C184.26 34.6354 186.616 32.2802 189.386 32.2802C192.227 32.2109 194.582 34.6354 194.512 37.5448Z" fill="#5D9F44"/>
<path d="M152.119 203.656C152.188 175.186 175.602 151.911 204.072 152.119C232.681 152.327 255.748 175.602 255.609 204.072C255.471 232.404 232.057 255.471 203.656 255.332C175.117 255.124 152.049 231.988 152.119 203.656ZM178.788 203.795C174.77 207.397 171.584 211.415 171.099 216.956C170.614 222.429 172.138 227.208 175.948 231.157C178.857 234.205 182.459 235.936 186.685 236.421C193.889 237.183 199.361 233.928 203.795 228.732C214.185 237.807 223.052 238.915 230.603 232.265C233.928 229.356 235.936 225.754 236.56 221.39C237.668 213.978 234.205 208.436 229.009 203.795C238.292 193.266 239.261 184.191 232.127 176.502C229.148 173.316 225.407 171.445 221.043 170.96C213.978 170.198 208.574 173.385 204.003 178.719C200.123 174.562 195.967 171.237 190.218 170.891C184.399 170.545 179.481 172.346 175.602 176.641C168.605 184.26 169.644 193.612 178.788 203.795Z" fill="#FDEFDC"/>
<path d="M114.92 61.2354C140.758 61.651 164.726 71.1411 184.745 90.3292C187.585 93.0307 187.932 96.1479 185.715 98.5724C183.498 100.928 180.035 100.858 177.264 98.0875C163.618 84.926 147.547 76.475 128.844 73.4963C99.4036 68.7859 73.4271 76.5443 51.1911 96.3557C50.4292 97.0484 49.7364 97.8104 48.9052 98.5031C46.2729 100.858 42.8786 100.858 40.8005 98.5031C38.7224 96.2172 38.7224 92.8922 41.4239 90.6755C48.0047 85.3417 54.3776 79.7307 61.5818 75.2974C77.3755 65.738 94.7625 61.4432 114.92 61.2354Z" fill="#FDEFDC"/>
<path d="M113.119 103.629C129.398 103.906 143.391 109.448 155.097 120.67C157.245 122.748 157.73 125.242 156.483 127.458C155.374 129.536 152.881 130.853 150.526 130.091C149.14 129.606 147.824 128.636 146.716 127.597C129.606 111.803 103.906 110.071 84.9261 123.51C82.8479 125.034 80.9083 126.766 78.9688 128.497C76.2672 130.853 73.0115 130.853 70.8641 128.567C68.7167 126.281 68.9938 123.094 71.6261 120.531C83.2636 109.379 97.187 103.837 113.119 103.629Z" fill="#FDEFDC"/>
<path d="M113.327 170.683C107.716 170.683 103.214 166.25 103.214 160.708C103.144 155.097 107.785 150.456 113.396 150.526C118.938 150.595 123.441 155.167 123.441 160.639C123.371 166.181 118.938 170.614 113.327 170.683Z" fill="#FDEFDC"/>
<path d="M178.788 203.795C169.644 193.543 168.605 184.26 175.532 176.71C179.481 172.415 184.399 170.614 190.148 170.96C195.898 171.307 200.054 174.632 203.933 178.788C208.505 173.454 213.908 170.268 220.974 171.03C225.407 171.515 229.079 173.316 232.057 176.571C239.192 184.26 238.222 193.266 228.94 203.864C234.135 208.505 237.599 214.047 236.491 221.459C235.867 225.823 233.858 229.425 230.533 232.334C222.914 238.915 214.116 237.807 203.726 228.802C199.223 233.997 193.82 237.322 186.616 236.491C182.459 236.006 178.857 234.274 175.879 231.226C172.069 227.278 170.545 222.498 171.03 217.026C171.584 211.484 174.77 207.466 178.788 203.795ZM180.935 218.688C181.42 221.874 182.944 224.368 185.646 225.546C188.417 226.723 191.118 226.446 193.404 224.438C195.482 222.636 197.353 220.558 199.361 218.688C202.756 215.363 205.18 215.363 208.505 218.619C210.168 220.281 211.761 221.944 213.493 223.537C216.887 226.862 221.32 227.139 224.299 224.23C227.485 221.182 227.208 216.818 223.745 213.216C222.013 211.415 220.143 209.683 218.411 207.882C215.779 205.18 215.779 202.479 218.411 199.708C220.281 197.768 222.221 195.967 224.091 194.028C227.278 190.703 227.347 186.339 224.299 183.429C221.39 180.589 217.026 180.728 213.839 183.776C211.969 185.577 210.168 187.447 208.297 189.248C205.319 192.157 202.686 192.157 199.777 189.317C197.907 187.516 196.175 185.646 194.235 183.845C190.91 180.728 186.477 180.658 183.568 183.498C180.658 186.408 180.797 190.841 183.983 194.166C185.854 196.106 187.793 197.907 189.664 199.846C192.157 202.479 192.157 205.18 189.664 207.882C187.793 209.891 185.646 211.692 183.845 213.77C182.529 215.086 181.836 216.956 180.935 218.688Z" fill="#F5A445"/>
<path d="M180.935 218.688C181.836 217.025 182.529 215.155 183.776 213.7C185.507 211.553 187.655 209.752 189.594 207.812C192.088 205.18 192.088 202.479 189.594 199.777C187.724 197.837 185.784 196.036 183.914 194.097C180.728 190.841 180.589 186.339 183.498 183.429C186.408 180.52 190.841 180.658 194.166 183.775C196.036 185.577 197.837 187.447 199.708 189.248C202.617 192.088 205.249 192.088 208.228 189.179C210.098 187.378 211.83 185.507 213.77 183.706C216.956 180.658 221.32 180.589 224.23 183.36C227.278 186.269 227.208 190.633 224.022 193.958C222.152 195.898 220.212 197.699 218.342 199.639C215.709 202.409 215.709 205.042 218.342 207.812C220.073 209.614 221.874 211.345 223.676 213.146C227.208 216.748 227.416 221.043 224.23 224.16C221.251 227.07 216.818 226.862 213.423 223.468C211.761 221.805 210.098 220.143 208.436 218.549C205.111 215.294 202.686 215.363 199.292 218.619C197.353 220.558 195.413 222.567 193.335 224.368C191.049 226.377 188.347 226.654 185.577 225.477C182.944 224.299 181.42 221.874 180.935 218.688Z" fill="#FDEFDC"/>
</g>
<defs>
<clipPath id="clip0_1934_1796">
<rect width="266" height="266" fill="white"/>
</clipPath>
</defs>
</svg>
