<svg width="384" height="384" viewBox="0 0 384 384" fill="none" xmlns="http://www.w3.org/2000/svg">
<path d="M165.7 277.2C162.8 300.1 141.1 311.1 121.5 302.3C120.8 303.3 120 304.4 119.3 305.5C108.8 321.7 98.4 338.1 87.7 354.1C79.2 366.8 66.8 372.7 51.7 370.9C35.8 369 25 359.9 20 344.8C14.7 328.7 21 311.4 35.4 301.9C51.5 291.4 67.7 281 83.9 270.6C85 269.9 86.2 269.1 87.2 268.4C77.9 247.6 90.6 226.8 112.4 224.2C94.2 189.4 90.6 153.2 103 115.9C112.7 86.7 130.8 63.6 156.4 46.7C208.2 12.5 277.8 18.2 322.4 60.1C369.3 104.2 379.7 172.2 347.3 227.3C328.9 258.6 301.8 279.3 266.7 288.9C231.6 298.4 197.9 294.1 165.7 277.2ZM231 39.3C165 39.1 111.3 92.4 111 158.5C110.6 224.9 163.9 278.4 230.7 278.8C296.7 279.2 350.7 225.7 351 159.4C351.3 93.4 297.5 39.5 231 39.3ZM112.1 239.5C107.7 239.7 103 242.6 100.5 248.4C97.9 254.4 98.9 260 103.4 264.6C110.5 272 117.7 279.2 125.1 286.3C131.1 292.1 140.2 291.9 146 286.1C151.9 280.3 152 271 146 264.9C139 257.8 131.9 250.8 124.8 243.8C121.8 240.9 118.2 239.3 112.1 239.5Z" fill="#5D9F44"/>
<path d="M325.7 23.1C325.7 29.3 320.8 34.3 314.6 34.3C308.4 34.3 303.1 29 303.2 22.9C303.3 16.9 308.5 11.8 314.6 11.9C320.8 12 325.7 17 325.7 23.1Z" fill="#F5A445"/>
<path d="M48.1 105.7C48 111.9 43 116.8 36.8 116.7C30.8 116.6 25.6 111.5 25.6 105.5C25.6 99.4 31 94.1 37.2 94.3C43.4 94.4 48.2 99.5 48.1 105.7Z" fill="#F5A445"/>
<path d="M235.7 337.7C235.7 343.9 230.7 348.8 224.5 348.8C218.5 348.8 213.3 343.7 213.2 337.7C213.1 331.6 218.5 326.3 224.7 326.4C230.8 326.5 235.7 331.5 235.7 337.7Z" fill="#F5A445"/>
<path d="M93.1 27C93.1 31.1 89.9 34.3 85.8 34.4C81.7 34.5 78.1 30.9 78.2 26.8C78.3 22.9 81.6 19.5 85.6 19.4C89.8 19.4 93.1 22.7 93.1 27Z" fill="#F5A445"/>
<path d="M363.2 64.3C363.2 68.4 360 71.7 356 71.7C351.9 71.8 348.3 68.3 348.3 64.2C348.3 60.1 351.9 56.7 356 56.8C360.1 57 363.2 60.2 363.2 64.3Z" fill="#F5A445"/>
<path d="M55.6 192.1C55.4 196.1 51.9 199.2 47.9 199C43.8 198.8 40.4 195 40.8 191C41.1 187 44.7 183.9 48.6 184.1C52.8 184.3 55.8 187.8 55.6 192.1Z" fill="#F5A445"/>
<path d="M363.2 333.8C363.2 338.1 359.9 341.4 355.7 341.3C351.7 341.2 348.4 337.8 348.3 333.9C348.3 329.8 351.8 326.3 355.9 326.4C360 326.4 363.2 329.7 363.2 333.8Z" fill="#F5A445"/>
<path d="M112.1 239.5C118.2 239.4 121.8 240.9 124.8 243.8C131.9 250.8 139 257.8 146 264.9C151.9 271 151.8 280.2 146 286.1C140.2 291.9 131.1 292.1 125.1 286.3C117.7 279.2 110.5 272 103.4 264.6C98.9 260 97.9 254.3 100.5 248.4C103 242.6 107.7 239.7 112.1 239.5Z" fill="#FDEFDC"/>
<path d="M333.2 159C333.2 215.5 287.5 261.2 231 261.2C174.3 261.2 128.3 215.3 128.5 158.8C128.7 102.4 174.5 56.8 231 56.8C287.5 56.9 333.2 102.5 333.2 159ZM232.2 168.3C235.7 171.9 238.7 175.1 241.9 178.3C250.5 186.9 259 195.4 267.6 204C270.3 206.7 273.4 207.4 276.8 205.6C279.8 204.1 281.4 200.6 280.4 197.3C279.8 195.5 278.5 193.8 277.2 192.4C266.7 181.8 256 171.2 245.4 160.6C244.5 159.7 243.7 158.8 242.7 157.7C247.5 153 252 148.4 256.6 143.9C263.8 136.7 271.1 129.5 278.3 122.2C281.5 118.9 281.4 114.4 278.5 111.5C275.5 108.5 271.2 108.6 267.8 111.7C266.3 113 265 114.5 263.5 115.9C253.1 126.3 242.7 136.7 231.4 147.9C230.5 146.6 229.9 145.3 228.9 144.3C218.3 133.7 207.7 123.1 197.1 112.5C194.9 110.3 192.2 108.3 189.2 109.5C187 110.4 184.9 112.4 183.7 114.5C182.1 117.5 183.7 120.3 185.9 122.5C196.7 133.3 207.5 144 218.2 154.8C219.1 155.7 220 156.7 221.2 157.9C214.2 164.9 207.3 171.8 200.4 178.7C195.4 183.7 190.2 188.7 185.3 193.8C182.2 197 182.4 201.3 185.3 204.2C188.2 207.1 192.4 207.2 195.8 204.4C196.8 203.5 197.8 202.5 198.8 201.5C209.8 190.6 220.8 179.7 232.2 168.3Z" fill="#FDEFDC"/>
<path d="M232.2 168.3C220.8 179.7 209.8 190.6 198.9 201.6C197.9 202.6 197 203.6 195.9 204.5C192.5 207.4 188.4 207.3 185.4 204.3C182.5 201.3 182.3 197.1 185.4 193.9C190.3 188.8 195.4 183.8 200.5 178.8C207.4 171.9 214.3 165.1 221.3 158C220.2 156.8 219.3 155.8 218.3 154.9C207.5 144.1 196.7 133.4 186 122.6C183.7 120.3 182.1 117.5 183.8 114.6C184.9 112.5 187.1 110.5 189.3 109.6C192.4 108.4 195 110.3 197.2 112.6C207.8 123.2 218.4 133.8 229 144.4C230 145.4 230.6 146.7 231.5 148C242.8 136.8 253.2 126.4 263.6 116C265 114.6 266.4 113.1 267.9 111.8C271.4 108.7 275.6 108.6 278.6 111.6C281.5 114.5 281.6 119.1 278.4 122.3C271.2 129.6 263.9 136.8 256.7 144C252.1 148.6 247.5 153.1 242.8 157.8C243.8 158.9 244.6 159.8 245.5 160.7C256.1 171.3 266.7 181.8 277.3 192.5C278.7 193.9 279.9 195.6 280.5 197.4C281.6 200.6 279.9 204.1 276.9 205.7C273.4 207.5 270.3 206.7 267.7 204.1C259.1 195.6 250.5 187 242 178.4C238.7 175.1 235.6 171.9 232.2 168.3Z" fill="#F5A445"/>
</svg>
