<svg width="98" height="98" viewBox="0 0 98 98" fill="none" xmlns="http://www.w3.org/2000/svg">
<path d="M51.7674 0C53.6124 0.25323 55.4935 0.434109 57.3385 0.75969C68.6253 2.74935 78.031 8.10336 85.6279 16.677C92.5375 24.491 96.553 33.6434 97.5659 44.0258C98.7959 56.832 95.54 68.4444 87.6899 78.646C80.4186 88.0879 70.9044 94.2377 59.2196 96.6615C44.6046 99.7003 31.2196 96.7339 19.3178 87.6899C9.76744 80.4548 3.7261 70.832 1.15762 59.0749C0.723514 57.0129 0.542636 54.8786 0.217054 52.7442C0.144703 52.4548 0.0723514 52.093 0 51.7674C0 49.8501 0 47.9328 0 46.0517C0.0723514 45.3643 0.144703 44.677 0.217054 43.9897C1.37468 33.4625 5.39018 24.2016 12.5168 16.3152C20.0413 7.95866 29.3747 2.71318 40.4806 0.75969C42.3256 0.434109 44.1705 0.25323 46.0517 0C47.9328 0 49.8501 0 51.7674 0ZM92.4289 48.9457C92.4651 24.9974 72.9664 5.46253 48.9819 5.39018C25.0336 5.28165 5.39018 24.8889 5.35401 48.8734C5.31783 72.7855 24.8165 92.3566 48.8372 92.4289C72.7494 92.5375 92.3928 72.9302 92.4289 48.9457Z" fill="url(#paint0_linear_1464_2007)"/>
<path d="M48.9093 7.8501C71.4829 7.8501 90.0049 26.4082 89.9325 48.9457C89.8602 71.5194 71.4105 89.9328 48.8731 89.9328C26.2994 89.9328 7.77747 71.3747 7.84982 48.8372C7.92217 26.2635 26.3718 7.8501 48.9093 7.8501ZM43.1935 87.0749C44.8214 87.2196 46.3408 87.3281 47.9325 87.4728C47.9325 84.832 47.9325 82.3721 47.9325 79.9121C48.6198 79.9121 49.1987 79.9121 49.886 79.9121C49.886 82.4444 49.886 84.9044 49.886 87.4728C51.4777 87.3281 52.9971 87.1834 54.5527 87.0749C54.408 86.062 54.2633 85.2299 54.1186 84.2532C54.8059 84.1447 55.3847 84.0361 56.0359 83.8914C56.2167 84.8682 56.3976 85.7364 56.5785 86.7132C58.0979 86.3152 59.5811 85.9173 61.1005 85.5194C60.7749 84.5788 60.4493 83.7106 60.1599 82.8062C60.8111 82.5529 61.3899 82.3359 62.0049 82.1188C62.3666 83.0232 62.656 83.8553 63.0178 84.7958C64.4648 84.1085 65.8395 83.4935 67.2865 82.8062C66.7801 81.938 66.346 81.1421 65.8757 80.3101C66.4907 79.9483 67.0333 79.6589 67.5759 79.3333C68.0824 80.2015 68.5527 80.9612 69.023 81.7933C70.3253 80.8889 71.5552 80.0206 72.8576 79.0801C72.2064 78.2842 71.6276 77.5969 71.0488 76.8734C71.5914 76.4031 72.0979 76.0051 72.5682 75.6072C73.2193 76.3669 73.7981 77.0181 74.4493 77.8139C75.6069 76.6925 76.6922 75.6072 77.7775 74.4858C76.9454 73.7984 76.2581 73.1834 75.5708 72.5685C76.041 72.0258 76.4028 71.5555 76.8369 71.0491C77.5604 71.6641 78.2839 72.2429 79.0436 72.8579C79.9842 71.5194 80.8524 70.2894 81.7206 69.0232C80.8524 68.4806 80.0927 68.0103 79.2969 67.54C79.6586 66.925 79.948 66.4186 80.2736 65.8759C81.1056 66.3462 81.9015 66.7803 82.7697 67.2868C83.4571 65.8036 84.072 64.4651 84.7594 63.0181C83.7826 62.6563 82.9868 62.3307 82.0824 62.0051C82.3356 61.354 82.5527 60.7752 82.7697 60.1602C83.6741 60.4858 84.5423 60.7752 85.4829 61.1007C85.8808 59.5452 86.2788 58.0982 86.6767 56.5788C85.6638 56.3979 84.8317 56.217 83.855 56.0361C83.9635 55.385 84.072 54.77 84.2168 54.1188C85.1935 54.2635 86.0617 54.4082 87.0385 54.5529C87.1832 52.9612 87.2917 51.478 87.4364 49.8139C84.7956 49.8139 82.3356 49.8139 79.8757 49.8139C79.8757 49.0904 79.8757 48.5116 79.8757 47.8243C82.408 47.8243 84.8679 47.8243 87.4364 47.8243C87.2917 46.2325 87.147 44.7131 87.0023 43.1938C85.9894 43.3385 85.1211 43.4832 84.1806 43.6279C84.072 42.9405 83.9635 42.3617 83.855 41.7106C84.7956 41.5297 85.7 41.3488 86.6767 41.1679C86.2788 39.6124 85.8808 38.1653 85.4467 36.646C84.47 36.9715 83.6379 37.2971 82.7335 37.5865C82.4803 36.9354 82.2994 36.3566 82.0824 35.7416C82.9868 35.3798 83.8188 35.0542 84.7594 34.6925C84.072 33.2454 83.4209 31.8708 82.7697 30.4599C81.9015 30.9664 81.1056 31.4005 80.2736 31.8708C79.948 31.292 79.6224 30.7493 79.2969 30.1705C80.1289 29.6641 80.9248 29.2299 81.7568 28.7235C80.8162 27.385 79.948 26.155 79.0436 24.8889C78.2478 25.54 77.5604 26.1188 76.8731 26.6976C76.439 26.1912 76.041 25.6847 75.6069 25.1783C76.3666 24.5633 77.0178 23.9845 77.7413 23.3695C76.656 22.2119 75.5708 21.1266 74.4855 19.969C73.7981 20.801 73.2193 21.4522 72.6043 22.1757C72.0617 21.7054 71.5914 21.3075 71.085 20.9095C71.7 20.186 72.2426 19.4987 72.8938 18.7028C71.5914 17.7984 70.3614 16.894 69.0591 15.9896C68.5527 16.8579 68.0824 17.6175 67.6121 18.4496C66.9971 18.0878 66.4545 17.7622 65.9118 17.4728C66.3821 16.6046 66.8162 15.8449 67.3227 14.9767C65.8757 14.2894 64.501 13.6744 63.054 12.987C62.6922 13.9638 62.3666 14.7958 62.041 15.6641C61.3899 15.4108 60.8111 15.1938 60.1961 14.9767C60.5217 14.0361 60.8111 13.2041 61.1366 12.2635C59.5811 11.8656 58.1341 11.4677 56.6147 11.0697C56.4338 12.0827 56.2529 12.9509 56.072 13.8914C55.3847 13.7467 54.7697 13.6382 54.1547 13.4935C54.2994 12.5168 54.4441 11.6485 54.5888 10.6718C52.9609 10.5271 51.4777 10.4186 49.8498 10.2739C49.8498 11.323 49.8498 12.1912 49.8498 13.0594C49.1625 13.0594 48.5837 13.0594 47.8963 13.0594C47.8963 12.1188 47.8963 11.2506 47.8963 10.2739C46.3046 10.4186 44.7852 10.5633 43.2297 10.6718C43.3744 11.6485 43.5191 12.5168 43.6638 13.4935C43.0126 13.602 42.3976 13.7106 41.7465 13.8553C41.5656 12.8785 41.3847 12.0103 41.2038 11.0336C39.6844 11.4315 38.2012 11.8294 36.6819 12.2274C37.0074 13.1679 37.2969 14.0361 37.6224 14.9405C36.9713 15.1938 36.3925 15.3746 35.7775 15.6279C35.4157 14.6873 35.0901 13.8553 34.7284 12.9509C33.2452 13.6382 31.9067 14.2894 30.4958 14.9405C31.0023 15.8088 31.4364 16.6046 31.9067 17.4367C31.2917 17.7622 30.749 18.0878 30.2064 18.4134C29.7 17.5452 29.2297 16.7855 28.7594 15.9535C27.4571 16.8578 26.2271 17.7261 24.9248 18.6666C25.5759 19.4625 26.1547 20.1498 26.7335 20.8734C26.1909 21.3436 25.6844 21.7416 25.2142 22.1395C24.563 21.3798 23.9842 20.7287 23.333 19.969C22.1754 21.0904 21.0901 22.1395 19.9687 23.261C20.8007 23.9845 21.4881 24.5633 22.2116 25.1783C21.7413 25.7209 21.3795 26.1912 20.9454 26.6976C20.2219 26.0827 19.4984 25.5038 18.7387 24.8889C17.7981 26.2274 16.9299 27.4573 16.0617 28.7235C16.9299 29.2661 17.6896 29.7002 18.5217 30.2067C18.1599 30.8217 17.8705 31.3281 17.5449 31.8708C16.7129 31.4005 15.917 30.9664 15.0488 30.4599C14.3614 31.9069 13.7465 33.2816 13.0591 34.7287C14.0359 35.0904 14.8679 35.416 15.7361 35.7777C15.4829 36.4289 15.2658 37.0077 15.0488 37.5865C14.1444 37.261 13.2762 36.9715 12.3356 36.646C11.9377 38.2015 11.5397 39.6486 11.1418 41.1679C12.1547 41.3488 13.0229 41.5297 13.9635 41.7106C13.855 42.3617 13.7103 42.9767 13.6018 43.6279C12.625 43.4832 11.7568 43.3385 10.7801 43.1938C10.6353 44.7855 10.5268 46.2687 10.3821 47.9328C13.0229 47.9328 15.4829 47.9328 17.9428 47.9328C17.9428 48.6563 17.9428 49.2351 17.9428 49.9225C15.4105 49.9225 12.9506 49.9225 10.3821 49.9225C10.5268 51.5142 10.6715 53.0336 10.8162 54.5529C11.8291 54.4082 12.6974 54.2635 13.6379 54.1188C13.7465 54.8062 13.855 55.385 13.9635 56.0361C13.0229 56.217 12.1186 56.3979 11.1418 56.5788C11.5759 58.1343 11.9377 59.5814 12.3718 61.1007C13.3485 60.739 14.1806 60.4496 15.085 60.1602C15.3382 60.8113 15.5191 61.3902 15.7361 62.0051C14.8317 62.3669 13.9997 62.6925 13.0591 63.0542C13.7465 64.5013 14.3976 65.8759 15.0488 67.2868C15.9532 66.7803 16.7129 66.3462 17.5449 65.8759C17.8705 66.4548 18.1961 66.9974 18.5217 67.5762C17.6896 68.0827 16.8937 68.5168 16.0617 69.0232C17.0023 70.3617 17.8705 71.5917 18.7749 72.8579C19.5708 72.2067 20.2581 71.6279 20.9454 71.0491C21.3795 71.5555 21.7775 72.062 22.2116 72.5685C21.4881 73.1834 20.8007 73.7622 20.041 74.4134C21.1625 75.5349 22.2116 76.6563 23.333 77.7778C24.0204 76.9819 24.5992 76.2945 25.2142 75.571C25.7568 76.0051 26.2271 76.4392 26.7335 76.8372C26.1186 77.5607 25.5759 78.248 24.9248 79.0439C26.2271 79.9483 27.4571 80.8527 28.7594 81.7571C29.2658 80.8889 29.7361 80.1292 30.2064 79.2971C30.8214 79.6589 31.364 79.9483 31.9067 80.2739C31.4364 81.1421 31.0023 81.9018 30.4958 82.77C31.9428 83.4573 33.2813 84.0723 34.7284 84.7597C35.0901 83.7829 35.4157 82.9509 35.7413 82.0827C36.3925 82.3359 36.9713 82.5529 37.5863 82.77C37.2607 83.7106 36.9713 84.5426 36.6457 85.447C38.2012 85.8449 39.6483 86.2429 41.1677 86.6408C41.3485 85.6279 41.5294 84.7597 41.7103 83.8191C42.3976 83.9638 43.0126 84.0723 43.6276 84.217C43.5191 85.2299 43.3744 86.062 43.1935 87.0749Z" fill="url(#paint1_linear_1464_2007)"/>
<path d="M65.9487 40.6978C65.9487 41.6022 65.9125 42.4704 65.9487 43.3748C65.9848 43.8812 65.804 44.1706 65.2975 44.3515C59.9797 46.1241 54.698 47.8967 49.4164 49.6693C49.0908 49.7779 48.6567 49.7779 48.3311 49.6693C43.0494 47.8967 37.804 46.1241 32.5223 44.3515C32.0158 44.1706 31.835 43.9536 31.835 43.411C31.8711 41.566 31.835 39.721 31.8711 37.8761C31.8711 37.5867 32.1967 37.1164 32.4499 37.0079C37.7316 35.0544 43.0494 33.1009 48.3673 31.1836C48.6928 31.075 49.1269 31.075 49.4525 31.2197C54.698 33.1009 59.9435 35.0182 65.2251 36.9355C65.7678 37.1164 65.9848 37.3696 65.9487 37.9484C65.9125 38.8528 65.9487 39.7934 65.9487 40.6978ZM61.0649 37.1887C60.8479 37.044 60.7755 37.0078 60.7032 36.9717C56.9047 35.597 53.1425 34.1861 49.344 32.8476C49.0184 32.7391 48.5481 32.8115 48.1864 32.92C44.6773 34.1861 41.2045 35.4523 37.6954 36.7184C37.406 36.827 37.1166 36.9717 36.6825 37.1526C40.7342 38.5272 44.605 39.8296 48.512 41.0957C48.729 41.1681 49.0184 41.2042 49.2355 41.1319C53.1425 39.8657 57.0494 38.5272 61.0649 37.1887Z" fill="#F5A445"/>
<path d="M32.1968 48.367C32.2691 48.6926 32.3415 48.982 32.4138 49.3076C32.7756 50.8269 33.065 52.3463 33.4991 53.7933C33.6438 54.2998 34.0779 54.7701 34.4758 55.168C35.7058 56.398 37.189 56.3256 38.2381 54.951C38.5999 54.4807 38.8893 53.938 39.1063 53.3954C39.3234 52.8528 39.4681 52.2378 39.5766 51.8037C39.8298 52.9613 40.0469 54.2636 40.4448 55.4936C40.7342 56.3256 41.2407 57.1215 41.8195 57.7365C42.9771 59.0026 44.605 58.9303 45.5456 57.4833C46.1968 56.4703 46.4862 55.2404 46.9203 54.0827C46.9926 53.9019 46.9926 53.721 47.0288 53.3954C48.2226 54.0104 49.4164 54.1189 50.6102 53.3592C50.7911 54.1189 50.8996 54.7701 51.1167 55.3851C51.3337 56.0001 51.5869 56.6512 51.9487 57.1939C53.1425 59.0388 54.9513 59.1112 56.326 57.3386C57.4474 55.8915 57.8453 54.1551 58.0262 52.3463C58.0624 52.1293 58.0624 51.9122 58.0624 51.5866C58.3518 52.4548 58.605 53.2145 58.9306 53.9742C59.4009 55.0233 60.0882 55.9277 61.3544 56.0001C62.6567 56.0724 63.4526 55.2042 64.0676 54.1913C64.972 52.6719 65.3337 51.0078 65.3699 49.2714C65.3699 48.9458 65.5146 48.6202 65.5869 48.3308C65.6955 48.3308 65.7678 48.367 65.8763 48.367C65.9125 48.584 65.9487 48.8373 65.9487 49.0543C65.9487 52.7804 65.9487 56.5065 65.9487 60.2326C65.9487 60.8476 65.7678 61.1008 65.189 61.3179C59.9797 63.0543 54.7704 64.8269 49.5611 66.5634C49.1632 66.7081 48.6205 66.7081 48.1864 66.5634C42.9771 64.8269 37.7678 63.0543 32.5585 61.3179C32.1244 61.1732 31.7988 61.0285 31.7988 60.4497C31.835 56.5427 31.7988 52.6357 31.835 48.7287C31.835 48.6202 31.8712 48.5479 31.9074 48.4393C32.0159 48.4032 32.1244 48.367 32.1968 48.367Z" fill="#F5A445"/>
<path d="M48.9091 15.1938C51.9841 20.7649 54.9505 26.1551 58.0616 31.7985C57.5551 31.5453 57.3019 31.4367 57.0487 31.292C54.5525 29.8088 52.0564 28.3618 49.5965 26.8424C49.09 26.5168 48.7282 26.553 48.2218 26.8424C45.7618 28.3256 43.3019 29.7727 40.8419 31.2197C40.5887 31.3644 40.2993 31.5091 39.9014 31.5453C42.8316 26.1913 45.798 20.8011 48.9091 15.1938Z" fill="#F5A445"/>
<path d="M46.3773 53.1784C45.907 53.7572 45.5453 54.2637 45.1112 54.6978C44.3153 55.4575 43.23 55.4936 42.3618 54.8063C41.2404 53.9019 40.6616 52.6719 40.2998 51.1887C40.5892 51.2611 40.7339 51.2972 40.8424 51.3334C42.6151 51.9122 44.3877 52.5272 46.3773 53.1784Z" fill="#F5A445"/>
<path d="M51.5146 53.1782C53.5405 52.4908 55.494 51.8397 57.556 51.1523C57.2304 52.6717 56.6516 53.8655 55.5663 54.7699C54.5534 55.6381 53.2873 55.4573 52.3105 54.3358C52.0211 54.0102 51.8041 53.6485 51.5146 53.1782Z" fill="#F5A445"/>
<path d="M33.1008 48.7288C35.0182 49.3799 36.8993 49.9949 38.8166 50.6461C37.6952 53.1422 35.597 53.4316 34.0776 51.2611C33.5711 50.5375 33.2817 49.7055 32.8838 48.9096C32.9561 48.8373 33.0285 48.7649 33.1008 48.7288Z" fill="#F5A445"/>
<path d="M59.0029 50.6461C60.9202 49.995 62.8014 49.38 64.8272 48.6926C64.5016 50.212 63.8866 51.442 62.729 52.3102C61.3905 53.2508 59.835 52.5634 59.0029 50.6461Z" fill="#F5A445"/>
<path d="M82.0351 90.8124C74.5268 90.8479 68.2846 84.6676 68.2492 77.1593C68.2138 69.4828 74.3408 63.2671 81.9731 63.2406C89.5877 63.214 95.7945 69.3765 95.8299 76.9999C95.8653 84.6057 89.7028 90.777 82.0351 90.8124ZM80.5653 77.0885C80.4591 77.1682 80.344 77.2301 80.2643 77.3187C79.2106 78.3635 78.1658 79.4083 77.1122 80.4531C76.7934 80.763 76.6518 81.126 76.7669 81.5598C76.9882 82.3744 77.9622 82.6046 78.5908 81.9848C79.6622 80.9312 80.7158 79.8598 81.7783 78.7973C81.858 78.7176 81.9466 78.638 82.0705 78.5229C82.1679 78.638 82.2388 78.7354 82.3184 78.815C83.3632 79.8687 84.408 80.9135 85.4528 81.9583C85.745 82.2505 86.0903 82.401 86.4976 82.3124C86.8961 82.2239 87.1705 81.9848 87.2856 81.5953C87.4096 81.1791 87.3033 80.8072 87.0023 80.5062C85.9309 79.4348 84.8596 78.3635 83.7882 77.301C83.7086 77.2213 83.5757 77.1859 83.4695 77.1328C84.6737 75.9197 85.7716 74.813 86.8695 73.715C87.3653 73.2192 87.4096 72.5817 86.9669 72.1301C86.5242 71.6697 85.869 71.7051 85.3554 72.2098C84.3372 73.2369 83.3101 74.2551 82.2919 75.2822C82.2122 75.3619 82.1237 75.4416 81.9908 75.5656C81.9112 75.4593 81.8492 75.3619 81.7695 75.2822C80.7336 74.2374 79.6976 73.2015 78.6617 72.1567C78.3695 71.8557 78.0153 71.7317 77.608 71.8291C76.7846 72.0328 76.519 73.0244 77.1299 73.6354C78.2455 74.7598 79.37 75.8843 80.5653 77.0885Z" fill="#EA3333"/>
<path d="M80.5656 77.0884C79.3703 75.8931 78.2547 74.7686 77.1302 73.6353C76.5281 73.0243 76.7849 72.0327 77.6083 71.829C78.0156 71.7316 78.3698 71.8556 78.662 72.1566C79.6979 73.2014 80.7339 74.2373 81.7698 75.2821C81.8495 75.3618 81.9026 75.4592 81.9911 75.5655C82.124 75.4415 82.2125 75.3618 82.2922 75.2821C83.3104 74.2551 84.3375 73.2368 85.3557 72.2097C85.8604 71.7051 86.5156 71.6696 86.9672 72.1301C87.401 72.5816 87.3656 73.2191 86.8698 73.715C85.7719 74.8217 84.674 75.9196 83.4698 77.1327C83.5672 77.1858 83.7 77.2212 83.7885 77.3009C84.8687 78.3634 85.9401 79.4347 87.0026 80.5061C87.3125 80.816 87.4099 81.179 87.2859 81.5952C87.1708 81.9936 86.8875 82.2327 86.4979 82.3123C86.0818 82.4009 85.7453 82.2592 85.4531 81.9582C84.4083 80.9045 83.3635 79.8597 82.3187 78.815C82.2302 78.7264 82.1594 78.629 82.0708 78.5228C81.9469 78.6379 81.8583 78.7176 81.7786 78.7972C80.7161 79.8597 79.6625 80.9311 78.5911 81.9847C77.9625 82.6045 76.9885 82.3743 76.7672 81.5597C76.6521 81.1259 76.7937 80.7629 77.1125 80.453C78.1661 79.4082 79.2109 78.3634 80.2646 77.3186C80.3443 77.2301 80.4505 77.1681 80.5656 77.0884Z" fill="white"/>
<defs>
<linearGradient id="paint0_linear_1464_2007" x1="48.9093" y1="0" x2="48.9093" y2="97.8136" gradientUnits="userSpaceOnUse">
<stop stop-color="#74C656"/>
<stop offset="1" stop-color="#5D9F44"/>
</linearGradient>
<linearGradient id="paint1_linear_1464_2007" x1="48.8912" y1="7.8501" x2="48.8912" y2="89.9328" gradientUnits="userSpaceOnUse">
<stop stop-color="#74C656"/>
<stop offset="1" stop-color="#5D9F44"/>
</linearGradient>
</defs>
</svg>
