<svg width="100" height="100" viewBox="0 0 100 100" fill="none" xmlns="http://www.w3.org/2000/svg">
<g clip-path="url(#clip0_1763_1798)">
<path d="M100 53.7109C100 60.2148 100 66.7383 100 73.2422C99.9414 73.1055 99.8633 72.9492 99.8242 72.8125C98.5352 64.6484 91.582 59.9219 83.5156 61.6992C81.25 62.207 79.2578 63.2422 77.5586 64.8242C77.3242 64.6289 77.1484 64.4922 76.9727 64.3359C71.6211 59.8242 63.0859 60.4297 58.4375 65.6641C54.2188 70.4297 53.9648 77.9297 57.832 83.4961C60.0781 86.7383 63.0664 89.1602 66.1133 91.5625C68.7695 93.6523 71.3672 95.8203 73.9844 97.9492C74.8828 98.6719 75.8203 99.3164 76.7578 100C69.9805 100 63.2227 100 56.4453 100C57.6562 99.5312 58.7109 98.9062 59.2578 97.6172C60.3906 94.9219 58.457 92.1875 55.3711 92.1875C42.3242 92.1875 29.2578 92.1875 16.2109 92.1875C11.0742 92.1875 7.8125 88.9062 7.8125 83.75C7.8125 61.25 7.8125 38.7695 7.8125 16.2695C7.8125 11.0547 11.0547 7.8125 16.2695 7.8125C38.7305 7.8125 61.1914 7.8125 83.6523 7.8125C88.9844 7.8125 92.1875 11.0352 92.1875 16.4062C92.1875 26.7578 92.1875 37.1094 92.1875 47.4609C92.1875 49.3164 92.168 51.1719 92.207 53.0273C92.2461 54.9219 93.5742 56.4453 95.4297 56.7969C97.168 57.1289 98.9648 56.1523 99.707 54.4336C99.8047 54.1797 99.9023 53.9453 100 53.7109ZM57.793 23.0469C51.2305 23.0469 44.6484 23.0469 38.0859 23.0469C35.7227 23.0469 33.9844 24.7461 34.0039 26.9727C34.0234 29.1602 35.7422 30.8398 38.0469 30.8398C51.2305 30.8594 64.3945 30.8594 77.5781 30.8203C78.2617 30.8203 79.0039 30.625 79.6289 30.332C81.2109 29.5508 81.9727 27.7148 81.5625 26.0547C81.1133 24.2383 79.6289 23.0469 77.7344 23.0469C71.0547 23.0469 64.4141 23.0469 57.793 23.0469ZM57.8125 46.0938C51.25 46.0938 44.668 46.0938 38.1055 46.0938C36.2109 46.0938 34.7461 47.1094 34.1992 48.75C33.3008 51.4063 35.2344 53.9062 38.1836 53.9062C50.0195 53.9062 61.875 53.9062 73.7109 53.9062C75.0195 53.9062 76.3086 53.9258 77.6172 53.9062C79.2969 53.8672 80.7227 52.8125 81.2305 51.25C82.0898 48.6719 80.2344 46.1133 77.4219 46.0938C70.8984 46.0742 64.3555 46.0938 57.8125 46.0938ZM41.1328 69.1406C40.0586 69.1406 38.9844 69.1211 37.9102 69.1406C35.6836 69.1797 34.0039 70.8789 33.9844 73.0273C33.9844 75.1758 35.6641 76.9141 37.8711 76.9336C39.9805 76.9727 42.0898 76.9727 44.1992 76.9336C46.4258 76.8945 48.0469 75.1953 48.0469 73.0078C48.0273 70.8594 46.4063 69.1992 44.2383 69.1406C43.2031 69.1211 42.168 69.1406 41.1328 69.1406ZM22.3047 23.0469C20.1562 23.0273 18.3789 24.7656 18.3594 26.9141C18.3398 29.0625 20.0781 30.8398 22.2266 30.8594C24.375 30.8789 26.1523 29.1406 26.1719 26.9922C26.1914 24.8437 24.4531 23.0664 22.3047 23.0469ZM26.1719 49.9805C26.1719 47.832 24.4141 46.0938 22.2656 46.0938C20.1172 46.0938 18.3789 47.8516 18.3789 50C18.3789 52.1484 20.1367 53.9062 22.2852 53.8867C24.4336 53.9062 26.1719 52.1289 26.1719 49.9805ZM26.1719 73.0469C26.1719 70.8984 24.4336 69.1406 22.2852 69.1406C20.1367 69.1406 18.3789 70.8789 18.3789 73.0273C18.3789 75.1758 20.1172 76.9336 22.2656 76.9336C24.3945 76.9531 26.1719 75.1953 26.1719 73.0469Z" fill="#FDEFDC"/>
<path d="M100 53.7109C99.5313 74.0234 101.582 92.5586 103.125 71.7773C102.383 73.4766 95.8008 76.6992 94.043 76.3672C92.1875 76.0156 90.7617 69.4727 90.7227 67.5781C90.6836 65.7227 92.168 49.2969 92.168 47.4414C92.168 37.0898 92.168 26.7383 92.168 16.3867C92.168 11.0156 88.9648 7.79297 83.6328 7.79297C61.1719 7.79297 38.7109 7.79297 16.25 7.79297C11.0547 7.8125 7.8125 11.0547 7.8125 16.2695C7.8125 38.7695 7.8125 61.25 7.8125 83.75C7.8125 88.9062 11.0742 92.1875 16.2109 92.1875C29.2578 92.1875 65.3711 92.1875 78.418 92.1875C81.5039 92.1875 78.1836 91.0547 77.0508 93.75C76.5039 95.0195 78.418 99.8249 80.0781 99.8242C65.8789 99.8242 28.0664 100 13.8672 100C13.6914 99.9414 13.5156 99.8633 13.3398 99.8242C6.69922 98.5938 2.44141 94.7266 0.507812 88.2812C0.292969 87.5781 0.175781 86.8359 0 86.1328C0 62.0508 0 37.9492 0 13.8672C0.0585938 13.6914 0.136719 13.5156 0.175781 13.3203C1.40625 6.69922 5.27344 2.44141 11.7188 0.507812C12.4219 0.292969 13.1641 0.175781 13.8672 0C37.9492 0 62.0508 0 86.1328 0C86.3086 0.0585938 86.4844 0.15625 86.6797 0.175781C92.9102 1.11328 97.9688 5.66406 99.5313 11.7969C99.707 12.4805 99.8437 13.1641 100 13.8672C100 27.1484 100 40.4297 100 53.7109Z" fill="#5D9F44"/>
<path d="M76.7578 100C75.8398 99.3164 74.8828 98.6719 73.9844 97.9492C71.3477 95.8398 68.7695 93.6523 66.1133 91.5625C63.0664 89.1601 60.0586 86.7383 57.832 83.4961C53.9648 77.9101 54.2187 70.4101 58.4375 65.6641C63.0859 60.4297 71.6211 59.8242 76.9727 64.3359C77.1484 64.4726 77.3242 64.6289 77.5586 64.8242C79.2773 63.2422 81.25 62.1875 83.5156 61.6992C91.582 59.9219 98.5352 64.668 99.8242 72.8125C99.8438 72.9687 99.9414 73.1055 100 73.2422C100 74.414 100 75.5859 100 76.7578C99.9609 76.8359 99.8633 76.914 99.8633 77.0117C99.3945 80.4297 97.8516 83.3789 95.4492 85.7226C92.832 88.2812 89.9414 90.5469 87.1484 92.9297C85.1367 94.6289 83.125 96.3086 81.0742 97.9687C80.1758 98.6914 79.2383 99.3359 78.3203 100.02C77.793 100 77.2852 100 76.7578 100ZM77.4805 90.5078C80.4102 88.2617 83.3008 86.1914 86.0156 83.9062C87.7344 82.4805 89.2773 80.8398 90.7422 79.1406C91.875 77.832 92.3242 76.1719 92.1875 74.3945C91.9531 71.3281 90 69.2578 87.1875 69.1406C83.8672 68.9844 81.9531 70.5859 81.4258 73.9062C81.3477 74.414 81.1914 74.9219 80.957 75.3711C80.1562 76.8945 78.4961 77.6367 76.7578 77.3242C75.1367 77.0312 73.9453 75.664 73.6719 73.8476C73.3398 71.7578 72.5 69.9805 70.293 69.3945C64.8828 67.9687 62.3633 72.0898 63.0273 76.0742C63.457 78.5547 65 80.3906 66.8359 81.9336C70.293 84.8828 73.9063 87.6562 77.4805 90.5078Z" fill="#F5A445"/>
<path d="M57.793 23.0469C64.4336 23.0469 71.0742 23.0469 77.6953 23.0469C79.6094 23.0469 81.0742 24.2383 81.5234 26.0547C81.9531 27.7344 81.1719 29.5508 79.5898 30.332C78.9648 30.6445 78.2227 30.8203 77.5391 30.8203C64.3555 30.8398 51.1914 30.8398 38.0078 30.8398C35.7031 30.8398 33.9844 29.1602 33.9648 26.9727C33.9453 24.7266 35.6836 23.0469 38.0469 23.0469C44.6484 23.0469 51.2109 23.0469 57.793 23.0469Z" fill="#F5A445"/>
<path d="M57.8125 46.0938C64.3555 46.0938 70.8984 46.0742 77.4219 46.0938C80.2148 46.0938 82.0898 48.6719 81.2305 51.25C80.7031 52.793 79.2969 53.8477 77.6172 53.9063C76.3086 53.9453 75.0195 53.9063 73.7109 53.9063C61.875 53.9063 50.0195 53.9063 38.1836 53.9063C35.2344 53.9063 33.3008 51.3867 34.1992 48.75C34.7461 47.1094 36.2109 46.0938 38.1055 46.0938C44.668 46.0938 51.25 46.0938 57.8125 46.0938Z" fill="#F5A445"/>
<path d="M41.1328 69.1406C42.168 69.1406 43.2031 69.1211 44.2578 69.1406C46.4258 69.1992 48.0664 70.8594 48.0664 73.0078C48.0859 75.2149 46.4453 76.9141 44.2187 76.9336C42.1094 76.9727 40 76.9727 37.8906 76.9336C35.6836 76.8945 33.9844 75.1758 34.0039 73.0274C34.0039 70.8789 35.7031 69.1797 37.9297 69.1406C38.9844 69.1211 40.0586 69.1406 41.1328 69.1406Z" fill="#F5A445"/>
<path d="M22.3047 23.0469C24.4531 23.0664 26.1914 24.8438 26.1719 26.9922C26.1523 29.1406 24.375 30.8789 22.2266 30.8594C20.0781 30.8399 18.3398 29.0625 18.3594 26.9141C18.3789 24.7656 20.1562 23.0274 22.3047 23.0469Z" fill="#F5A445"/>
<path d="M26.1719 49.9805C26.1719 52.1289 24.4336 53.8867 22.2852 53.9063C20.1367 53.9063 18.3789 52.168 18.3789 50.0195C18.3789 47.8711 20.1172 46.1133 22.2656 46.1133C24.3945 46.0938 26.1523 47.832 26.1719 49.9805Z" fill="#F5A445"/>
<path d="M26.1719 73.0469C26.1719 75.1953 24.4141 76.9531 22.2656 76.9336C20.1172 76.9336 18.3594 75.1758 18.3789 73.0274C18.3789 70.8789 20.1367 69.1211 22.2851 69.1406C24.4141 69.1406 26.1719 70.8984 26.1719 73.0469Z" fill="#F5A445"/>
<path d="M77.4805 90.5078C73.9063 87.6562 70.3125 84.8828 66.8164 81.9727C64.9805 80.4492 63.4375 78.5938 63.0078 76.1133C62.3242 72.1094 64.8633 68.0078 70.2734 69.4336C72.4805 70.0195 73.3203 71.7969 73.6523 73.8867C73.9258 75.7031 75.1172 77.0508 76.7383 77.3633C78.4766 77.6953 80.1562 76.9336 80.9375 75.4102C81.1719 74.9609 81.3281 74.4336 81.4062 73.9453C81.9336 70.6055 83.8281 69.0234 87.168 69.1797C89.9805 69.3164 91.9336 71.3867 92.168 74.4336C92.3047 76.2109 91.8555 77.8516 90.7227 79.1797C89.2773 80.8789 87.7148 82.5195 85.9961 83.9453C83.2812 86.1719 80.4102 88.2617 77.4805 90.5078Z" fill="#F5A445"/>
</g>
<defs>
<clipPath id="clip0_1763_1798">
<rect width="100" height="100" fill="white"/>
</clipPath>
</defs>
</svg>
