<svg width="100" height="100" viewBox="0 0 100 100" fill="none" xmlns="http://www.w3.org/2000/svg">
<g clip-path="url(#clip0_1771_1812)">
<path d="M3.63798e-10 37.4268C5.29785 37.4512 10.5957 37.4512 15.8936 37.4756C16.2842 37.4756 16.6504 37.4756 17.0898 37.4756C17.0898 45.7764 17.0898 53.9795 17.0898 62.4023C11.4014 62.4023 5.68848 62.4023 -0.0244141 62.4023C3.63798e-10 54.0527 3.63798e-10 45.752 3.63798e-10 37.4268Z" fill="#5D9F44"/>
<path d="M100 62.3779C94.3115 62.3779 88.623 62.3779 82.8857 62.3779C82.8857 54.0527 82.8857 45.8252 82.8857 37.4268C88.5986 37.4268 94.2871 37.4268 100 37.4268C100 45.752 100 54.0527 100 62.3779Z" fill="#5D9F44"/>
<path d="M0 11.8897C0.756836 10.083 2.14844 9.52151 4.05273 9.54592C8.03223 9.61917 11.9873 9.57034 15.9668 9.57034C16.3086 9.57034 16.6748 9.57034 17.1143 9.57034C17.1143 16.8213 17.1143 24.0235 17.1143 31.3721C11.4502 31.3721 5.7373 31.3721 0.0244141 31.3721C0 24.878 0 18.3838 0 11.8897Z" fill="#5D9F44"/>
<path d="M100 31.3721C94.3115 31.3721 88.623 31.3721 82.8857 31.3721C82.8857 24.0723 82.8857 16.8946 82.8857 9.57034C83.252 9.57034 83.5937 9.57034 83.96 9.57034C87.9639 9.57034 91.9678 9.61917 95.9717 9.54592C97.8516 9.52151 99.2676 10.083 100.024 11.8897C100 18.3838 100 24.878 100 31.3721Z" fill="#5D9F44"/>
<path d="M-1.12632e-09 68.4082C5.68848 68.4082 11.377 68.4082 17.1143 68.4082C17.1143 75.708 17.1143 82.8857 17.1143 90.21C16.748 90.21 16.4062 90.21 16.04 90.21C12.0361 90.21 8.03223 90.1611 4.02832 90.2344C2.14844 90.2588 0.732422 89.6973 -0.0244141 87.8906C-1.12632e-09 81.4209 -1.12632e-09 74.9268 -1.12632e-09 68.4082Z" fill="#5D9F44"/>
<path d="M100 87.915C99.2432 89.7217 97.8516 90.2832 95.9473 90.2588C91.9678 90.1856 88.0127 90.2344 84.0332 90.2344C83.6914 90.2344 83.3252 90.2344 82.8857 90.2344C82.8857 82.9834 82.8857 75.7812 82.8857 68.4326C88.5498 68.4326 94.2627 68.4326 99.9756 68.4326C100 74.9268 100 81.4209 100 87.915Z" fill="#5D9F44"/>
<path d="M23.3154 9.61914C41.1621 9.61914 58.8867 9.61914 76.6602 9.61914C76.6602 36.4746 76.6602 63.2812 76.6602 90.1611C58.8623 90.1611 41.1133 90.1611 23.3154 90.1611C23.3154 63.3057 23.3154 36.499 23.3154 9.61914ZM39.2822 49.9023C39.2822 53.6133 39.2578 57.2998 39.2822 61.0107C39.3066 63.7451 41.6748 65.1855 44.0186 63.8428C50.5127 60.1318 56.958 56.3965 63.4033 52.6123C65.6494 51.2939 65.6494 48.5352 63.4033 47.2168C56.958 43.4326 50.4883 39.6973 44.0186 35.9619C43.0908 35.4248 42.1143 35.2783 41.1133 35.7422C39.7217 36.377 39.2578 37.5488 39.2578 38.9893C39.2822 42.627 39.2822 46.2646 39.2822 49.9023Z" fill="#FDEFDC"/>
<path d="M39.2822 49.9023C39.2822 46.2647 39.2822 42.627 39.2822 38.9893C39.2822 37.5488 39.7461 36.377 41.1377 35.7422C42.1387 35.2783 43.1152 35.4248 44.043 35.9619C50.5127 39.6973 56.9824 43.4326 63.4277 47.2168C65.6738 48.5352 65.6738 51.294 63.4277 52.6123C56.9824 56.3965 50.5127 60.1563 44.043 63.8428C41.6992 65.1856 39.3555 63.7451 39.3066 61.0107C39.2578 57.2998 39.2822 53.6133 39.2822 49.9023Z" fill="#F5A445"/>
</g>
<defs>
<clipPath id="clip0_1771_1812">
<rect width="100" height="100" fill="white"/>
</clipPath>
</defs>
</svg>
