<svg width="100" height="100" viewBox="0 0 100 100" fill="none" xmlns="http://www.w3.org/2000/svg">
<path d="M16.1979 0.0260588C38.8021 0.0260588 61.4063 0.0260588 84.0104 0.0260588C84.0625 0.0781422 84.1146 0.182304 84.1927 0.208346C88.6979 1.82293 90.4427 4.24481 90.4427 9.01043C90.4427 36.3542 90.4427 63.724 90.4427 91.0677C90.4427 91.4583 90.4427 91.849 90.4427 92.2396C90.3386 95.4427 88.2813 98.3073 85.3125 99.4271C84.8177 99.6094 84.3229 99.7917 83.8281 99.974C61.3021 99.974 38.75 99.974 16.224 99.974C15.9896 99.6094 15.5729 99.7917 15.2604 99.6875C11.6667 98.6979 9.37502 95.5469 9.37502 91.5625C9.37502 66.9011 9.37502 42.2396 9.37502 17.6042C9.37502 14.375 9.34897 11.1719 9.37502 7.94272C9.40106 4.60939 11.4844 1.69272 14.5833 0.520849C15.1302 0.312516 15.7292 0.3646 16.1979 0.0260588ZM86.1458 49.974C86.1458 36.1979 86.1458 22.4479 86.1458 8.67189C86.1458 5.72918 84.7396 4.29689 81.8229 4.29689C60.5469 4.29689 39.2708 4.29689 17.9948 4.29689C15.0781 4.29689 13.6458 5.72918 13.6458 8.67189C13.6458 36.224 13.6458 63.8021 13.6458 91.3542C13.6458 94.2448 15.0781 95.6771 17.9427 95.6771C39.2448 95.6771 60.5469 95.6771 81.849 95.6771C84.7136 95.6771 86.1458 94.2448 86.1458 91.3542C86.1458 77.5781 86.1458 63.7761 86.1458 49.974Z" fill="#5D9F44"/>
<path d="M86.1458 49.974C86.1458 63.7761 86.1458 77.5781 86.1458 91.3542C86.1458 94.2448 84.7136 95.6771 81.849 95.6771C60.5469 95.6771 39.2448 95.6771 17.9427 95.6771C15.0781 95.6771 13.6458 94.2448 13.6458 91.3542C13.6458 63.8021 13.6458 36.224 13.6458 8.67189C13.6458 5.72918 15.0521 4.29689 17.9948 4.29689C39.2708 4.29689 60.5469 4.29689 81.8229 4.29689C84.7396 4.29689 86.1458 5.72918 86.1458 8.67189C86.1458 22.4479 86.1458 36.224 86.1458 49.974ZM71.6667 31.0677C70.3646 31.0677 69.0625 31.0677 67.7865 31.0677C65.4688 31.0938 63.8281 32.4479 63.6979 34.7656C63.5156 37.6823 63.4896 40.625 63.724 43.5156C63.8802 45.7292 65.4688 47.0833 67.7083 47.0833C70.3125 47.1094 72.8906 47.0833 75.4948 47.0833C78.0208 47.0833 79.6615 45.5208 79.6875 42.9948C79.7396 40.3906 79.7136 37.7865 79.6875 35.2083C79.6615 32.7083 77.9948 31.0938 75.4948 31.0677C74.1927 31.0677 72.9427 31.0677 71.6667 31.0677ZM71.6146 25.2344C72.9167 25.2344 74.2188 25.2604 75.4948 25.2344C77.9427 25.2083 79.5573 23.724 79.6354 21.2761C79.7136 18.5938 79.7136 15.8854 79.6354 13.1771C79.5833 10.7813 77.8906 9.21876 75.4948 9.19272C72.8906 9.16668 70.3125 9.16668 67.7083 9.19272C65.4688 9.21876 63.8281 10.5729 63.6719 12.8386C63.4896 15.8073 63.4636 18.8021 63.6979 21.7969C63.8542 23.8021 65.4167 25.1563 67.4219 25.2083C68.8281 25.2604 70.2083 25.2344 71.6146 25.2344ZM71.6406 68.9583C72.9427 68.9583 74.2448 68.9583 75.5208 68.9583C77.9427 68.9583 79.5833 67.4219 79.6615 65C79.7396 62.3177 79.7396 59.6094 79.6615 56.9011C79.6094 54.6875 77.9948 52.9948 75.8854 52.9427C73.0729 52.8906 70.2344 52.8906 67.4219 52.9427C65.4427 52.9948 63.8542 54.4011 63.724 56.3802C63.4896 59.4531 63.4636 62.5521 63.75 65.625C63.9063 67.5521 65.5469 68.9063 67.474 68.9323C68.8281 68.9844 70.2344 68.9583 71.6406 68.9583ZM71.5365 90.8333C72.8646 90.8333 74.1927 90.8594 75.5208 90.8333C77.9427 90.8073 79.5833 89.2969 79.6615 86.849C79.7396 84.1667 79.7396 81.4583 79.6615 78.75C79.6094 76.3542 77.9167 74.7917 75.4948 74.7917C72.8646 74.7917 70.2344 74.7656 67.6042 74.7917C65.5208 74.8177 63.8802 76.1719 63.6979 78.2552C63.4636 81.3281 63.4375 84.4271 63.724 87.5C63.8802 89.4271 65.5208 90.7813 67.4479 90.8073C68.8021 90.8333 70.1823 90.8333 71.5365 90.8333ZM39.3229 19.4531C34.3229 19.4531 29.3229 19.4531 24.349 19.4531C23.9844 19.4531 23.6198 19.4531 23.2813 19.5052C22.2135 19.6615 21.4844 20.5208 21.4583 21.5886C21.4583 22.6302 22.1615 23.5156 23.2292 23.6979C23.6458 23.7761 24.0625 23.7761 24.4792 23.7761C34.375 23.7761 44.2708 23.7761 54.1667 23.7761C54.5833 23.7761 55.026 23.7761 55.4167 23.6979C56.5625 23.5156 57.2656 22.5521 57.1615 21.3802C57.0573 20.1563 56.1719 19.4531 54.6875 19.4531C49.5833 19.4531 44.4531 19.4531 39.3229 19.4531ZM39.2969 67.4479C42.474 67.4479 45.651 67.4479 48.8281 67.4479C50.9115 67.4479 52.9688 67.474 55.0521 67.4219C56.6927 67.3698 57.6563 65.8333 56.9792 64.4011C56.4844 63.3333 55.5208 63.125 54.4531 63.125C44.375 63.125 34.2708 63.125 24.1927 63.125C23.776 63.125 23.3333 63.1511 22.9427 63.2552C21.9792 63.5156 21.3542 64.4792 21.4323 65.4688C21.5104 66.4323 22.2656 67.2396 23.2292 67.3698C23.5677 67.4219 23.9323 67.4219 24.2969 67.4219C29.3229 67.4479 34.2969 67.4479 39.2969 67.4479ZM39.375 41.3021C34.349 41.3021 29.3229 41.3021 24.2969 41.3021C23.8802 41.3021 23.4375 41.3021 23.0469 41.4063C22.0573 41.6146 21.4063 42.5521 21.4583 43.5677C21.5104 44.5313 22.2135 45.3646 23.1771 45.5208C23.5938 45.599 24.0104 45.599 24.4271 45.599C34.349 45.599 44.2708 45.599 54.1927 45.599C54.6094 45.599 55.0521 45.599 55.4427 45.5469C56.4583 45.3906 57.1615 44.5313 57.1615 43.4896C57.1875 42.4479 56.5104 41.5886 55.4948 41.3802C55.0781 41.3021 54.6615 41.3021 54.2448 41.3021C49.2969 41.3021 44.349 41.3021 39.375 41.3021ZM39.349 89.2969C44.349 89.2969 49.349 89.2969 54.3229 89.2969C54.6094 89.2969 54.8958 89.2969 55.2083 89.2708C56.3021 89.1927 57.0833 88.4115 57.1615 87.3438C57.2396 86.25 56.6146 85.3646 55.5729 85.1042C55.1563 85 54.7396 85 54.3229 85C44.3229 85 34.349 85 24.349 85C23.8542 85 23.3594 84.974 22.9167 85.1563C22.0052 85.4948 21.4844 86.1458 21.4583 87.1354C21.4323 88.125 21.9531 88.8021 22.8385 89.1667C23.2552 89.349 23.724 89.2969 24.1927 89.2969C29.2448 89.2969 34.2969 89.2969 39.349 89.2969ZM48.4115 76.3542C46.25 76.3542 44.0625 76.3542 41.901 76.3542C40.4688 76.3542 39.5573 77.2396 39.5573 78.5156C39.5573 79.7656 40.4688 80.625 41.849 80.6511C46.1979 80.6771 50.5469 80.6771 54.8958 80.6511C56.25 80.6511 57.1875 79.7656 57.1875 78.5156C57.1875 77.2396 56.2761 76.3542 54.8438 76.3542C52.7083 76.3281 50.5469 76.3542 48.4115 76.3542ZM48.3854 54.4792C46.25 54.4792 44.1146 54.4792 41.9531 54.4792C40.4948 54.4792 39.5833 55.3125 39.5573 56.5886C39.5313 57.8906 40.4427 58.7761 41.875 58.7761C46.1979 58.8021 50.4948 58.8021 54.8177 58.7761C56.25 58.7761 57.1875 57.8646 57.1615 56.6146C57.1615 55.3386 56.224 54.5052 54.7656 54.4792C52.6563 54.4792 50.5208 54.4792 48.3854 54.4792ZM48.4115 32.6042C46.3021 32.6042 44.1927 32.6042 42.0833 32.6042C40.4948 32.6042 39.5313 33.4375 39.5573 34.7917C39.5833 36.0938 40.5208 36.9011 42.0573 36.9011C46.276 36.9011 50.4948 36.9011 54.7136 36.9011C56.224 36.9011 57.1875 36.0677 57.1875 34.7656C57.1875 33.4636 56.25 32.6042 54.7396 32.6042C52.6302 32.6042 50.5208 32.6042 48.4115 32.6042ZM48.3333 15.0521C50.4948 15.0521 52.6823 15.0521 54.8438 15.0521C56.224 15.0521 57.1354 14.1927 57.1615 12.9688C57.1875 11.6927 56.25 10.7813 54.8438 10.7813C50.5208 10.7552 46.224 10.7813 41.901 10.7813C40.4688 10.7813 39.5313 11.6406 39.5313 12.9167C39.5313 14.1927 40.4688 15.0521 41.901 15.0521C44.0625 15.0521 46.1979 15.0521 48.3333 15.0521Z" fill="#FDEFDC"/>
<path d="M71.6667 31.0677C72.9427 31.0677 74.1927 31.0677 75.4687 31.0677C77.9687 31.0937 79.6354 32.7083 79.6615 35.2083C79.6875 37.8125 79.7135 40.4167 79.6615 42.9948C79.6094 45.5208 77.9948 47.0833 75.4687 47.0833C72.8646 47.0833 70.2865 47.1094 67.6823 47.0833C65.4427 47.0573 63.8802 45.7292 63.6979 43.5156C63.4896 40.599 63.4896 37.6563 63.6719 34.7656C63.8281 32.4479 65.4427 31.0937 67.7604 31.0677C69.0625 31.0677 70.3646 31.0677 71.6667 31.0677ZM71.6406 35.3646C70.625 35.3646 69.6354 35.3906 68.6198 35.3646C68.0729 35.3385 67.8646 35.5208 67.8906 36.0677C67.9167 38.0729 67.9167 40.1042 67.8906 42.1094C67.8906 42.6823 68.099 42.8125 68.6458 42.8125C70.651 42.7865 72.6562 42.7865 74.6615 42.8125C75.2083 42.8125 75.4167 42.6563 75.3906 42.0833C75.3646 40.0781 75.3646 38.0469 75.3906 36.0417C75.3906 35.4688 75.1562 35.3385 74.6354 35.3385C73.6458 35.3906 72.6302 35.3646 71.6406 35.3646Z" fill="#F5A445"/>
<path d="M71.6146 25.2344C70.2083 25.2344 68.8281 25.2604 67.4219 25.2344C65.4167 25.1823 63.8542 23.8281 63.6979 21.8229C63.4635 18.8542 63.4896 15.8594 63.6719 12.8646C63.8281 10.599 65.4687 9.24481 67.7083 9.21877C70.3125 9.19273 72.8906 9.19273 75.4948 9.21877C77.8906 9.24481 79.5833 10.8073 79.6354 13.2031C79.6875 15.8854 79.7135 18.5938 79.6354 21.3021C79.5573 23.75 77.9427 25.2344 75.4948 25.2604C74.2187 25.2604 72.9167 25.2344 71.6146 25.2344ZM71.7187 13.5156C70.6771 13.5156 69.6354 13.5417 68.6198 13.5156C68.0729 13.4896 67.8906 13.724 67.8906 14.2448C67.9167 16.25 67.9167 18.2552 67.8906 20.2865C67.8906 20.7813 68.0469 20.9896 68.5677 20.9636C70.599 20.9375 72.6562 20.9375 74.6875 20.9636C75.2344 20.9636 75.4167 20.7813 75.4167 20.2344C75.3906 18.2292 75.3906 16.224 75.4167 14.1927C75.4167 13.5938 75.1823 13.4896 74.6615 13.5156C73.6719 13.5417 72.6823 13.5156 71.7187 13.5156Z" fill="#F5A445"/>
<path d="M71.6406 68.9583C70.2344 68.9583 68.8542 68.9844 67.4479 68.9583C65.5208 68.9323 63.9062 67.5781 63.724 65.651C63.4635 62.5781 63.4896 59.4792 63.6979 56.4063C63.8542 54.401 65.4167 52.9948 67.3958 52.9687C70.2083 52.9167 73.0469 52.9167 75.8594 52.9687C77.9687 53.0208 79.5833 54.6875 79.6354 56.9271C79.6875 59.6094 79.7135 62.3177 79.6354 65.026C79.5833 67.4479 77.9167 68.9844 75.4948 68.9844C74.2187 68.9583 72.9167 68.9583 71.6406 68.9583ZM75.3906 60.9375C75.3906 59.974 75.3646 58.9844 75.3906 58.0208C75.4167 57.4479 75.2604 57.2135 74.6354 57.2135C72.6302 57.2396 70.625 57.2396 68.5937 57.2135C68.0469 57.2135 67.8646 57.3698 67.8646 57.9167C67.8906 59.9219 67.8906 61.9531 67.8646 63.9583C67.8646 64.4271 67.9948 64.6615 68.5156 64.6615C70.599 64.6354 72.6562 64.6354 74.7396 64.6615C75.2865 64.6615 75.3646 64.401 75.3646 63.9323C75.3646 62.9427 75.3906 61.9271 75.3906 60.9375Z" fill="#F5A445"/>
<path d="M71.5365 90.8333C70.1823 90.8333 68.8021 90.8594 67.4479 90.8333C65.5208 90.7812 63.9063 89.4271 63.724 87.526C63.4636 84.4531 63.4636 81.3542 63.6979 78.2812C63.8542 76.1979 65.5208 74.8438 67.6042 74.8177C70.2344 74.7917 72.8646 74.8177 75.4948 74.8177C77.8906 74.8177 79.5833 76.3802 79.6615 78.776C79.7396 81.4583 79.7396 84.1667 79.6615 86.875C79.6094 89.2969 77.9427 90.8333 75.5208 90.8594C74.1927 90.8333 72.8646 90.8333 71.5365 90.8333ZM71.6406 79.0885C70.599 79.0885 69.5573 79.0885 68.5156 79.0885C68.099 79.0885 67.8646 79.1667 67.8646 79.6615C67.8906 81.7448 67.8906 83.8281 67.8646 85.8854C67.8646 86.3542 68.0208 86.5104 68.4896 86.5104C70.5729 86.4844 72.6302 86.4844 74.7136 86.5104C75.1302 86.5104 75.3646 86.4063 75.3646 85.9115C75.3386 83.8281 75.3386 81.7448 75.3646 79.6875C75.3646 79.2188 75.2083 79.0625 74.7396 79.0625C73.724 79.1146 72.6823 79.0885 71.6406 79.0885Z" fill="#F5A445"/>
<path d="M39.3229 19.4532C44.4531 19.4532 49.5834 19.4532 54.6875 19.4532C56.1719 19.4532 57.0573 20.1563 57.1615 21.3802C57.2656 22.5261 56.5625 23.4896 55.4167 23.6979C55 23.7761 54.5834 23.7761 54.1667 23.7761C44.2709 23.7761 34.375 23.7761 24.4792 23.7761C24.0625 23.7761 23.6198 23.7761 23.2292 23.6979C22.1615 23.5156 21.4323 22.6302 21.4584 21.5886C21.4584 20.5209 22.2136 19.6615 23.2813 19.5052C23.6198 19.4531 23.9844 19.4532 24.349 19.4532C29.349 19.4532 34.3229 19.4532 39.3229 19.4532Z" fill="#F5A445"/>
<path d="M39.2969 67.4479C34.2969 67.4479 29.2969 67.4479 24.3229 67.4479C23.9583 67.4479 23.5937 67.4479 23.2552 67.3958C22.2917 67.2656 21.5365 66.4583 21.4583 65.4948C21.3802 64.4792 22.0052 63.5156 22.9687 63.2812C23.3594 63.1771 23.8021 63.151 24.2187 63.151C34.2969 63.151 44.401 63.151 54.4792 63.151C55.5469 63.151 56.4844 63.3594 57.0052 64.4271C57.6823 65.8594 56.7187 67.3958 55.0781 67.4479C52.9948 67.5 50.9375 67.474 48.8542 67.474C45.651 67.4479 42.474 67.4479 39.2969 67.4479Z" fill="#F5A445"/>
<path d="M39.375 41.3021C44.349 41.3021 49.2969 41.3021 54.2708 41.3021C54.6875 41.3021 55.1302 41.3021 55.5208 41.3802C56.5365 41.5886 57.2135 42.4479 57.1875 43.4896C57.1615 44.5052 56.4583 45.3646 55.4688 45.5469C55.0521 45.625 54.6354 45.599 54.2188 45.599C44.2969 45.599 34.375 45.599 24.4531 45.599C24.0365 45.599 23.5938 45.599 23.2031 45.5209C22.2396 45.3646 21.5365 44.5313 21.4844 43.5677C21.4323 42.5521 22.0833 41.6146 23.0729 41.4063C23.4896 41.3281 23.9063 41.3021 24.3229 41.3021C29.3229 41.3021 34.349 41.3021 39.375 41.3021Z" fill="#F5A445"/>
<path d="M39.349 89.2969C34.2969 89.2969 29.2188 89.2969 24.1667 89.2969C23.724 89.2969 23.2552 89.349 22.8125 89.1667C21.9271 88.7761 21.4063 88.099 21.4323 87.1354C21.4583 86.1719 21.9792 85.4948 22.8906 85.1563C23.3594 85 23.8542 85 24.3229 85C34.3229 85 44.2969 85 54.2969 85C54.7136 85 55.1563 85.0261 55.5469 85.1042C56.6146 85.3646 57.2396 86.25 57.1354 87.3438C57.0573 88.4115 56.2761 89.1927 55.1823 89.2708C54.8958 89.2969 54.6094 89.2969 54.2969 89.2969C49.349 89.2969 44.349 89.2969 39.349 89.2969Z" fill="#F5A445"/>
<path d="M48.4115 76.3542C50.5469 76.3542 52.7084 76.3542 54.8438 76.3542C56.2761 76.3542 57.2136 77.2396 57.1875 78.5156C57.1875 79.7396 56.25 80.625 54.8959 80.6511C50.5469 80.6771 46.1979 80.6771 41.849 80.6511C40.4688 80.6511 39.5573 79.7656 39.5573 78.5156C39.5573 77.2396 40.4688 76.3542 41.9011 76.3542C44.0625 76.3281 46.25 76.3542 48.4115 76.3542Z" fill="#F5A445"/>
<path d="M48.3854 54.4792C50.5209 54.4792 52.6563 54.4792 54.8177 54.4792C56.25 54.4792 57.1875 55.3386 57.2136 56.6146C57.2136 57.8906 56.2761 58.7761 54.8698 58.7761C50.5469 58.8021 46.25 58.8021 41.9271 58.7761C40.4948 58.7761 39.5834 57.8906 39.6094 56.5886C39.6354 55.3125 40.5469 54.4792 42.0052 54.4792C44.0886 54.4792 46.224 54.4792 48.3854 54.4792Z" fill="#F5A445"/>
<path d="M48.4115 32.6042C50.5208 32.6042 52.6302 32.6042 54.7396 32.6042C56.25 32.6042 57.2135 33.4636 57.1875 34.7656C57.1875 36.0677 56.224 36.9011 54.7135 36.9011C50.4948 36.9011 46.276 36.9011 42.0573 36.9011C40.5208 36.9011 39.5833 36.0938 39.5573 34.7917C39.5313 33.4375 40.4948 32.6042 42.0833 32.6042C44.1927 32.6042 46.3021 32.6042 48.4115 32.6042Z" fill="#F5A445"/>
<path d="M48.3333 15.0521C46.1979 15.0521 44.0625 15.0521 41.901 15.0521C40.4687 15.0521 39.5313 14.1927 39.5313 12.9167C39.5313 11.6406 40.4687 10.7813 41.901 10.7813C46.224 10.7813 50.5208 10.7813 54.8438 10.7813C56.25 10.7813 57.1875 11.6927 57.1615 12.9688C57.1354 14.1927 56.224 15.0521 54.8438 15.0521C52.6823 15.0521 50.5208 15.0521 48.3333 15.0521Z" fill="#F5A445"/>
<path d="M71.6406 35.3646C72.6563 35.3646 73.6459 35.3906 74.6615 35.3646C75.1823 35.3386 75.4167 35.4948 75.4167 36.0677C75.3906 38.0729 75.3906 40.1042 75.4167 42.1094C75.4167 42.6823 75.2084 42.8386 74.6875 42.8386C72.6823 42.8125 70.6771 42.8125 68.6719 42.8386C68.1511 42.8386 67.9167 42.7084 67.9167 42.1354C67.9427 40.1302 67.9427 38.099 67.9167 36.0938C67.9167 35.5209 68.125 35.3646 68.6459 35.3906C69.6094 35.3906 70.625 35.3646 71.6406 35.3646Z" fill="#FDEFDC"/>
<path d="M71.7188 13.5156C72.6823 13.5156 73.6719 13.5417 74.6354 13.5156C75.1562 13.4896 75.3906 13.6198 75.3906 14.1927C75.3646 16.1979 75.3646 18.2031 75.3906 20.2344C75.3906 20.7813 75.2344 20.9636 74.6615 20.9636C72.6302 20.9375 70.5729 20.9375 68.5417 20.9636C68.0208 20.9636 67.8646 20.7813 67.8646 20.2865C67.8906 18.2813 67.8906 16.2761 67.8646 14.2448C67.8646 13.6979 68.0469 13.4896 68.5938 13.5156C69.6615 13.5417 70.6771 13.5156 71.7188 13.5156Z" fill="#FDEFDC"/>
<path d="M75.3906 60.9375C75.3906 61.9531 75.3906 62.9427 75.3906 63.9583C75.3906 64.4271 75.3125 64.6875 74.7656 64.6875C72.6823 64.6615 70.625 64.6615 68.5417 64.6875C68.0208 64.6875 67.8906 64.4792 67.8906 63.9844C67.9167 61.9792 67.9167 59.9479 67.8906 57.9427C67.8906 57.3958 68.0729 57.2135 68.6198 57.2396C70.625 57.2656 72.6302 57.2656 74.6615 57.2396C75.2865 57.2396 75.4427 57.474 75.4167 58.0469C75.3646 58.9844 75.3906 59.9479 75.3906 60.9375Z" fill="#FDEFDC"/>
<path d="M71.6406 79.0886C72.6823 79.0886 73.724 79.1146 74.7656 79.0886C75.2344 79.0886 75.3906 79.2448 75.3906 79.7136C75.3646 81.7969 75.3646 83.8802 75.3906 85.9375C75.3906 86.4323 75.1562 86.5365 74.7396 86.5365C72.6562 86.5365 70.599 86.5104 68.5156 86.5365C68.0469 86.5365 67.8906 86.3802 67.8906 85.9115C67.9167 83.8281 67.9167 81.7448 67.8906 79.6875C67.8906 79.1927 68.125 79.0886 68.5417 79.1146C69.5833 79.1146 70.625 79.0886 71.6406 79.0886Z" fill="#FDEFDC"/>
</svg>
