<svg width="40" height="40" viewBox="0 0 40 40" fill="none" xmlns="http://www.w3.org/2000/svg">
<path d="M7.7085 1.30192C7.7085 1.13525 7.73975 0.968587 7.71891 0.812337C7.67725 0.458171 7.84391 0.208171 8.11475 0.0102539C8.63558 0.0102539 9.15641 0.0102539 9.67725 0.0102539C9.67725 2.1665 9.67725 4.32275 9.67725 6.479C9.43766 6.62484 9.19808 6.78109 8.9585 6.92692C8.38558 7.30192 8.17725 7.28109 7.73975 6.76025C7.72933 4.94775 7.71891 3.12484 7.7085 1.30192Z" fill="#F5A445"/>
<path d="M9.66675 6.479C9.66675 4.32275 9.66675 2.1665 9.66675 0.0102539C10.1563 0.0102539 10.6563 0.0102539 11.1459 0.0102539C11.698 0.301921 11.5834 0.833171 11.6147 1.31234C11.6147 1.94775 11.6147 2.58317 11.6147 3.21859C11.6147 3.65609 11.6147 4.09359 11.6147 4.53109C11.6147 5.14567 11.6251 5.76025 11.6147 6.37484C11.6042 6.86442 11.3959 7.09359 10.9167 7.17692C10.4376 7.07275 10.1147 6.6665 9.66675 6.479Z" fill="#FFECC2"/>
<path d="M11.6147 3.20801C11.6147 2.57259 11.6147 1.93717 11.6147 1.30176C12.9167 1.30176 14.2084 1.31217 15.5105 1.31217C21.4376 1.31217 27.3542 1.31217 33.2813 1.31217C34.2917 1.31217 34.7605 1.78092 34.7605 2.78092C34.7605 14.583 34.7605 26.3955 34.7605 38.1976C34.7605 38.3226 34.7397 38.458 34.7292 38.583C34.5209 38.583 34.3126 38.583 34.1042 38.583C25.7813 38.583 17.4584 38.5726 9.1355 38.6038C8.29175 38.6038 7.698 37.9372 7.698 37.1455C7.71883 27.1768 7.70841 17.1976 7.70841 7.22884C7.70841 7.07259 7.71883 6.91634 7.71883 6.76009C8.15633 7.27051 8.36466 7.30176 8.93758 6.92676C9.17716 6.77051 9.41675 6.62467 9.65633 6.47884C9.65633 6.67676 9.65633 6.86426 9.65633 7.06217C9.65633 17.0726 9.65633 27.083 9.65633 37.1038C9.65633 37.7809 9.83342 37.9684 10.5001 37.9684C17.6563 37.9684 24.8126 37.9684 31.9688 37.9684C32.6251 37.9684 32.8126 37.7809 32.8126 37.1455C32.8126 26.1038 32.8126 15.0726 32.8126 4.03092C32.8126 3.45801 32.5626 3.20801 31.9792 3.20801C25.198 3.20801 18.4063 3.20801 11.6147 3.20801Z" fill="#5D9F44"/>
<path d="M7.72925 6.77051C7.72925 6.92676 7.71883 7.08301 7.71883 7.23926C7.71883 17.208 7.72925 27.1872 7.70841 37.1559C7.70841 37.9476 8.30217 38.6143 9.14592 38.6143C17.4688 38.583 25.7917 38.5934 34.1147 38.5934C34.323 38.5934 34.5313 38.5934 34.7397 38.5934C34.6042 39.5726 34.2188 39.9163 33.2292 39.9163C24.4584 39.9163 15.6772 39.9163 6.90633 39.9163C6.7605 39.9163 6.62508 39.9059 6.47925 39.8955C6.47925 39.6976 6.47925 39.5101 6.47925 39.3122C6.47925 26.6455 6.47925 13.9893 6.47925 1.32259C6.89591 1.31217 7.30216 1.31217 7.71883 1.30176C7.71883 3.12467 7.72925 4.94759 7.72925 6.77051Z" fill="#427230"/>
<path d="M6.47924 1.32295C6.47924 13.9896 6.47924 26.6459 6.47924 39.3125C6.47924 39.5104 6.47924 39.6979 6.47924 39.8959C5.75007 39.8959 5.20841 39.4063 5.16674 38.6875C5.15632 38.5938 5.16674 38.5104 5.16674 38.4167C5.16674 26.5417 5.16674 14.6563 5.16674 2.78128C5.16674 2.63545 5.15632 2.48962 5.18757 2.3542C5.29174 1.71878 5.81257 1.31253 6.47924 1.32295Z" fill="#6BAB53"/>
<path d="M11.6147 3.20801C18.4063 3.20801 25.198 3.20801 31.9897 3.20801C32.573 3.20801 32.823 3.45801 32.823 4.03092C32.823 15.0726 32.823 26.1038 32.823 37.1455C32.823 37.7809 32.6251 37.9684 31.9792 37.9684C24.823 37.9684 17.6667 37.9684 10.5105 37.9684C9.85425 37.9684 9.66675 37.7809 9.66675 37.1038C9.66675 27.0934 9.66675 17.083 9.66675 7.06217C9.66675 6.86426 9.66675 6.67676 9.66675 6.47884C10.1147 6.65592 10.4376 7.06217 10.9167 7.17676C10.9167 8.87467 10.9272 10.5622 10.9272 12.2601C10.9272 17.833 10.9272 23.3955 10.9272 28.9684C10.9272 31.4476 10.9272 33.9268 10.9167 36.4059C10.9167 36.6455 10.9897 36.7184 11.2292 36.7184C13.7084 36.708 16.1876 36.708 18.6667 36.708C20.3855 36.708 22.1042 36.708 23.823 36.708C26.3022 36.708 28.7813 36.708 31.2605 36.7184C31.5001 36.7184 31.573 36.6455 31.573 36.4059C31.5626 33.9268 31.5626 31.4476 31.5626 28.9684C31.5626 23.3955 31.5626 17.833 31.5626 12.2601C31.5626 9.80176 31.5626 7.33301 31.573 4.87467C31.573 4.60384 31.4897 4.52051 31.2188 4.52051C28.7605 4.53092 26.2917 4.53092 23.8334 4.53092C22.1042 4.53092 20.3855 4.53092 18.6563 4.53092C16.3126 4.53092 13.9584 4.52051 11.6147 4.52051C11.6251 4.09342 11.6147 3.64551 11.6147 3.20801Z" fill="#F5A445"/>
<path d="M11.6252 4.53125C13.9689 4.53125 16.3231 4.54167 18.6668 4.54167C18.6668 4.94792 18.6668 5.34375 18.6564 5.75C18.646 6.23958 18.4689 6.42708 17.9897 6.48958C17.3647 6.57292 16.771 6.71875 16.2085 7.01042C14.3543 7.94792 13.2397 9.42708 12.9377 11.5C12.8543 12.0729 12.646 12.25 12.0627 12.2604C11.6877 12.2604 11.3127 12.2708 10.9377 12.2812C10.9377 10.5833 10.9272 8.89583 10.9272 7.19792C11.4064 7.11458 11.6147 6.88542 11.6252 6.39583C11.6252 5.76042 11.6252 5.14583 11.6252 4.53125Z" fill="#FFEDC2"/>
<path d="M10.9272 12.2601C11.3022 12.2497 11.6772 12.2393 12.0522 12.2393C12.646 12.2288 12.8543 12.0518 12.9272 11.4788C13.2189 9.40592 14.3439 7.92676 16.1981 6.98926C16.7606 6.70801 17.3647 6.55176 17.9793 6.46842C18.4481 6.40592 18.6356 6.21842 18.646 5.72884C18.6564 5.32259 18.6564 4.92676 18.6564 4.52051C20.3856 4.52051 22.1043 4.52051 23.8335 4.52051C23.8335 4.92676 23.8335 5.32259 23.8439 5.72884C23.8543 6.21842 24.0314 6.40592 24.5106 6.46842C25.5106 6.59342 26.4272 6.93717 27.2293 7.54134C28.5418 8.53092 29.3543 9.82259 29.5627 11.4788C29.6356 12.0518 29.8543 12.2288 30.4377 12.2393C30.8127 12.2393 31.1877 12.2497 31.5627 12.2601C31.5627 17.833 31.5627 23.3955 31.5627 28.9684C31.1981 28.9788 30.8335 28.9893 30.4793 28.9893C29.8127 28.9893 29.646 29.1351 29.5522 29.8122C29.3127 31.4372 28.521 32.7184 27.1981 33.6872C26.4272 34.2497 25.5731 34.5934 24.6252 34.708C24.0002 34.7809 23.8439 34.9684 23.8439 35.583C23.8439 35.958 23.8335 36.333 23.8231 36.708C22.1043 36.708 20.3856 36.708 18.6668 36.708C18.6564 36.3434 18.6564 35.9788 18.646 35.6143C18.646 34.958 18.4897 34.7809 17.8647 34.6976C16.5835 34.5309 15.4897 33.9788 14.5835 33.0726C13.6668 32.1559 13.1043 31.0518 12.9377 29.7601C12.8543 29.1247 12.6981 28.9893 12.0627 28.9893C11.6877 28.9893 11.3127 28.9788 10.9377 28.9684C10.9272 23.3955 10.9272 17.833 10.9272 12.2601ZM30.2502 20.6351C30.2502 18.5309 30.2502 16.4268 30.2502 14.3226C30.2502 13.8226 30.1147 13.6351 29.6252 13.5622C28.9793 13.458 28.521 13.1663 28.3439 12.4997C28.271 12.2288 28.3335 11.958 28.2918 11.6872C27.9272 9.40592 26.3022 7.84342 24.021 7.74967C22.0314 7.67676 20.021 7.60384 18.0314 7.81217C15.9585 8.03092 14.3022 9.82259 14.1981 11.9476C14.146 12.958 13.8335 13.3643 12.8439 13.5622C12.4272 13.6455 12.2502 13.833 12.2502 14.2288C12.2502 18.4893 12.2502 22.7497 12.2502 27.0101C12.2502 27.4372 12.4689 27.6455 12.8856 27.6768C13.6877 27.7393 14.1981 28.2705 14.1877 29.083C14.1877 29.3434 14.2293 29.5934 14.271 29.8538C14.6043 31.8122 16.4689 33.458 18.5522 33.4476C20.3543 33.4372 22.1668 33.4372 23.9689 33.4476C24.6043 33.4476 25.2189 33.3122 25.7606 33.0205C27.3439 32.1976 28.2293 30.9059 28.2918 29.0934C28.3127 28.333 28.8127 27.7393 29.5106 27.6768C30.0939 27.6247 30.2397 27.458 30.2397 26.8643C30.2502 24.7913 30.2502 22.708 30.2502 20.6351Z" fill="#5D9F44"/>
<path d="M10.9271 28.9688C11.3021 28.9792 11.6771 28.9896 12.0521 28.9896C12.6979 28.9896 12.8542 29.125 12.9271 29.7604C13.0938 31.0625 13.6562 32.1562 14.5729 33.0729C15.4792 33.9792 16.5729 34.5312 17.8542 34.6979C18.4896 34.7812 18.6354 34.9583 18.6354 35.6146C18.6354 35.9792 18.6458 36.3437 18.6563 36.7083C16.1771 36.7083 13.6979 36.7083 11.2188 36.7187C10.9792 36.7187 10.9062 36.6458 10.9062 36.4062C10.9271 33.9271 10.9271 31.4479 10.9271 28.9688Z" fill="#FFEDC2"/>
<path d="M23.823 36.7083C23.8334 36.3333 23.8334 35.9583 23.8438 35.5833C23.8438 34.9688 24.0001 34.7813 24.6251 34.7083C25.573 34.5938 26.4272 34.25 27.198 33.6875C28.5209 32.7292 29.3126 31.4375 29.5522 29.8125C29.6459 29.1458 29.8022 29 30.4792 28.9896C30.8438 28.9896 31.2084 28.9792 31.5626 28.9688C31.5626 31.4479 31.5626 33.9271 31.573 36.4062C31.573 36.6458 31.5001 36.7187 31.2605 36.7187C28.7813 36.7083 26.3022 36.7083 23.823 36.7083Z" fill="#FFEDC2"/>
<path d="M31.5627 12.2603C31.1877 12.2498 30.8127 12.2498 30.4377 12.2394C29.8439 12.229 29.6356 12.0519 29.5627 11.479C29.3543 9.83317 28.5522 8.53109 27.2293 7.5415C26.4272 6.93734 25.5106 6.59359 24.5106 6.46859C24.0418 6.40609 23.8543 6.21859 23.8439 5.729C23.8335 5.32275 23.8335 4.92692 23.8335 4.52067C26.2918 4.52067 28.7606 4.52067 31.2189 4.51025C31.4897 4.51025 31.5731 4.58317 31.5731 4.86442C31.5731 7.33317 31.5731 9.80192 31.5627 12.2603Z" fill="#FFEDC2"/>
<path d="M30.2501 20.6355C30.2501 22.7084 30.2501 24.7917 30.2501 26.8646C30.2501 27.4584 30.1042 27.625 29.5209 27.6771C28.823 27.7396 28.3334 28.3334 28.3022 29.0938C28.2397 30.9063 27.3438 32.198 25.7709 33.0209C25.2188 33.3125 24.6147 33.448 23.9792 33.448C22.1772 33.4375 20.3647 33.4375 18.5626 33.448C16.4792 33.4584 14.6147 31.8125 14.2813 29.8542C14.2397 29.6042 14.198 29.3438 14.198 29.0834C14.198 28.2709 13.698 27.7396 12.8959 27.6771C12.4688 27.6459 12.2605 27.4375 12.2605 27.0105C12.2605 22.75 12.2605 18.4896 12.2605 14.2292C12.2605 13.823 12.4376 13.6459 12.8542 13.5625C13.8542 13.3646 14.1563 12.9584 14.2084 11.948C14.3126 9.82295 15.9688 8.03129 18.0417 7.81254C20.0313 7.6042 22.0417 7.67712 24.0313 7.75004C26.323 7.83337 27.9376 9.40629 28.3022 11.6875C28.3438 11.9584 28.2813 12.2292 28.3542 12.5C28.5313 13.1667 28.9897 13.4584 29.6355 13.5625C30.1147 13.6355 30.2605 13.823 30.2605 14.323C30.2501 16.4271 30.2501 18.5313 30.2501 20.6355ZM21.2605 14.8125C18.0522 14.8125 15.4272 17.3959 15.448 20.573C15.4584 23.75 17.9272 26.3959 21.2501 26.3959C24.5522 26.3959 27.0209 23.7813 27.0417 20.6042C27.073 17.4167 24.448 14.8125 21.2605 14.8125Z" fill="#B2CFA7"/>
<path d="M21.2605 14.8125C24.448 14.8125 27.0626 17.4167 27.0418 20.6042C27.0209 23.7812 24.5522 26.3958 21.2501 26.3958C17.9272 26.3958 15.4584 23.75 15.448 20.5729C15.4376 17.3958 18.0626 14.8125 21.2605 14.8125ZM21.2501 23.7812C23.1459 23.8646 24.4793 22.2708 24.4689 20.6146C24.4584 18.7187 22.9897 17.3958 21.2709 17.3958C19.4689 17.3958 18.0418 18.7708 18.0314 20.6146C18.0105 22.2812 19.4272 23.8854 21.2501 23.7812Z" fill="#FFECC2"/>
<path d="M21.25 23.7809C19.4375 23.8851 18.0104 22.2809 18.0312 20.6143C18.0521 18.7705 19.4687 17.3955 21.2708 17.3955C22.9896 17.3955 24.4583 18.7288 24.4687 20.6143C24.4687 22.2705 23.1354 23.8643 21.25 23.7809Z" fill="#F5A445"/>
</svg>
