<svg width="168" height="168" viewBox="0 0 168 168" fill="none" xmlns="http://www.w3.org/2000/svg">
<circle cx="84" cy="84" r="84" fill="#F5A445"/>
<circle cx="84" cy="84" r="78" fill="#5D9F44"/>
<g clip-path="url(#clip0_100_9554)">
<g filter="url(#filter0_d_100_9554)">
<mask id="mask0_100_9554" style="mask-type:luminance" maskUnits="userSpaceOnUse" x="12" y="18" width="144" height="131">
<path d="M156 18H12V149H156V18Z" fill="white"/>
</mask>
<g mask="url(#mask0_100_9554)">
<mask id="mask1_100_9554" style="mask-type:luminance" maskUnits="userSpaceOnUse" x="12" y="18" width="144" height="131">
<path d="M156 18H12V149H156V18Z" fill="white"/>
</mask>
<g mask="url(#mask1_100_9554)">
<mask id="mask2_100_9554" style="mask-type:luminance" maskUnits="userSpaceOnUse" x="139" y="72" width="5" height="15">
<path d="M143.709 72.8985H139.127V86.064H143.709V72.8985Z" fill="white"/>
</mask>
<g mask="url(#mask2_100_9554)">
<path fill-rule="evenodd" clip-rule="evenodd" d="M140.964 73.535C140.564 74.6442 138.909 78.4629 139.164 82.9545C139.218 83.991 139.836 86.0094 141.2 86.064C141.909 86.064 142.818 85.4639 143.473 82.9363C143.582 82.3544 143.654 81.8998 143.709 81.6816C143.782 81.336 143.564 80.936 143.327 81.7179C142.818 83.2818 141.454 84.3728 140.454 82.2816C140.291 81.8634 139.618 79.9722 140.873 75.8444C141.127 75.0443 141.436 73.8441 141.436 73.8441C141.691 72.9167 141.364 72.4257 140.964 73.535Z" fill="white"/>
</g>
</g>
<mask id="mask3_100_9554" style="mask-type:luminance" maskUnits="userSpaceOnUse" x="12" y="18" width="144" height="131">
<path d="M156 18H12V149H156V18Z" fill="white"/>
</mask>
<g mask="url(#mask3_100_9554)">
<path fill-rule="evenodd" clip-rule="evenodd" d="M121.818 54.1868C121.473 55.1324 120.073 58.3874 120.273 62.2243C120.327 63.1153 120.836 64.8428 122 64.8792C122.6 64.8792 123.382 64.3701 123.945 62.2061C124.036 61.7151 124.109 61.3151 124.145 61.1332C124.2 60.8423 124.018 60.4968 123.818 61.1696C123.382 62.4971 122.218 63.4245 121.364 61.6424C121.218 61.2969 120.655 59.6785 121.709 56.1507C121.927 55.4597 122.2 54.4414 122.2 54.4414C122.455 53.6595 122.164 53.2412 121.818 54.1868Z" fill="white"/>
</g>
<mask id="mask4_100_9554" style="mask-type:luminance" maskUnits="userSpaceOnUse" x="12" y="18" width="144" height="131">
<path d="M156 18H12V149H156V18Z" fill="white"/>
</mask>
<g mask="url(#mask4_100_9554)">
<path fill-rule="evenodd" clip-rule="evenodd" d="M100.218 50.1499C99.8728 51.0955 98.4728 54.3505 98.6728 58.1874C98.7273 59.0784 99.2364 60.8059 100.4 60.8423C101 60.8423 101.782 60.3331 102.345 58.1692C102.436 57.6782 102.509 57.2782 102.545 57.0963C102.6 56.8054 102.418 56.4599 102.218 57.1327C101.782 58.4601 100.618 59.3875 99.7637 57.6055C99.6182 57.26 99.0546 55.6416 100.109 52.1138C100.327 51.4228 100.6 50.4045 100.6 50.4045C100.855 49.6225 100.564 49.2043 100.218 50.1499Z" fill="white"/>
</g>
<mask id="mask5_100_9554" style="mask-type:luminance" maskUnits="userSpaceOnUse" x="12" y="18" width="144" height="131">
<path d="M156 18H12V149H156V18Z" fill="white"/>
</mask>
<g mask="url(#mask5_100_9554)">
<path fill-rule="evenodd" clip-rule="evenodd" d="M81.1819 43.9491C80.9092 44.731 79.7092 47.4586 79.891 50.6591C79.9273 51.4046 80.3637 52.8412 81.3455 52.8776C81.8546 52.8776 82.5092 52.4593 82.9637 50.6409C83.0364 50.2227 83.091 49.8953 83.1273 49.7499C83.1819 49.5135 83.0183 49.2043 82.8546 49.768C82.491 50.8773 81.5273 51.6592 80.8001 50.1681C80.691 49.8772 80.2001 48.5133 81.091 45.5675C81.2728 44.9856 81.491 44.1309 81.491 44.1309C81.7092 43.5126 81.4728 43.1671 81.1819 43.9491Z" fill="white"/>
</g>
<mask id="mask6_100_9554" style="mask-type:luminance" maskUnits="userSpaceOnUse" x="12" y="18" width="144" height="131">
<path d="M156 18H12V149H156V18Z" fill="white"/>
</mask>
<g mask="url(#mask6_100_9554)">
<path fill-rule="evenodd" clip-rule="evenodd" d="M100.527 72.1166C100.182 73.0622 98.7819 76.3172 98.9819 80.1541C99.0364 81.0451 99.5455 82.7726 100.709 82.809C101.309 82.809 102.091 82.2998 102.655 80.1359C102.745 79.6449 102.818 79.2448 102.855 79.063C102.909 78.7721 102.727 78.4266 102.527 79.0994C102.091 80.4268 100.927 81.3542 100.073 79.5722C99.9273 79.2267 99.3637 77.6083 100.418 74.0805C100.636 73.3895 100.909 72.3712 100.909 72.3712C101.145 71.6074 100.855 71.1892 100.527 72.1166Z" fill="white"/>
</g>
<mask id="mask7_100_9554" style="mask-type:luminance" maskUnits="userSpaceOnUse" x="12" y="18" width="144" height="131">
<path d="M156 18H12V149H156V18Z" fill="white"/>
</mask>
<g mask="url(#mask7_100_9554)">
<path fill-rule="evenodd" clip-rule="evenodd" d="M86.3454 70.1163C86 71.0619 84.6 74.3169 84.8 78.1538C84.8545 79.0448 85.3636 80.7723 86.5272 80.8087C87.1272 80.8087 87.9091 80.2996 88.4727 78.1356C88.5636 77.6446 88.6363 77.2446 88.6727 77.0627C88.7272 76.7718 88.5454 76.4263 88.3454 77.0991C87.9091 78.4266 86.7454 79.354 85.8909 77.5719C85.7454 77.2264 85.1818 75.608 86.2363 72.0802C86.4545 71.3892 86.7272 70.3709 86.7272 70.3709C86.9636 69.589 86.6727 69.1707 86.3454 70.1163Z" fill="white"/>
</g>
<mask id="mask8_100_9554" style="mask-type:luminance" maskUnits="userSpaceOnUse" x="12" y="18" width="144" height="131">
<path d="M156 18H12V149H156V18Z" fill="white"/>
</mask>
<g mask="url(#mask8_100_9554)">
<path fill-rule="evenodd" clip-rule="evenodd" d="M46.2 41.0395C45.9636 41.7124 44.9636 43.9854 45.1272 46.6949C45.1636 47.3131 45.5272 48.5315 46.3454 48.5678C46.7636 48.5678 47.3272 48.2042 47.7091 46.6949C47.7818 46.3494 47.8182 46.0766 47.8545 45.9311C47.8909 45.7311 47.7636 45.4765 47.6182 45.9493C47.3091 46.8767 46.4909 47.5313 45.8909 46.2766C45.8 46.022 45.3818 44.8946 46.1454 42.4034C46.2909 41.9124 46.4909 41.2032 46.4909 41.2032C46.6363 40.6577 46.4363 40.3667 46.2 41.0395Z" fill="white"/>
</g>
<mask id="mask9_100_9554" style="mask-type:luminance" maskUnits="userSpaceOnUse" x="12" y="18" width="144" height="131">
<path d="M156 18H12V149H156V18Z" fill="white"/>
</mask>
<g mask="url(#mask9_100_9554)">
<path fill-rule="evenodd" clip-rule="evenodd" d="M99.4545 27.9105C99.2181 28.5833 98.2181 30.8563 98.3818 33.5658C98.4181 34.1841 98.7818 35.4024 99.5999 35.4388C100.018 35.4388 100.582 35.0751 100.964 33.5658C101.036 33.2203 101.073 32.9475 101.109 32.8021C101.145 32.602 101.018 32.3475 100.873 32.8202C100.564 33.7477 99.7454 34.4023 99.1454 33.1476C99.0545 32.893 98.6363 31.7656 99.3999 29.2743C99.5454 28.7833 99.7454 28.0741 99.7454 28.0741C99.8909 27.5468 99.6909 27.2377 99.4545 27.9105Z" fill="white"/>
</g>
<mask id="mask10_100_9554" style="mask-type:luminance" maskUnits="userSpaceOnUse" x="12" y="18" width="144" height="131">
<path d="M156 18H12V149H156V18Z" fill="white"/>
</mask>
<g mask="url(#mask10_100_9554)">
<path fill-rule="evenodd" clip-rule="evenodd" d="M141.145 91.3011C140.909 91.9739 139.909 94.247 140.073 96.9564C140.109 97.5747 140.473 98.793 141.291 98.8294C141.709 98.8294 142.273 98.4657 142.654 96.9564C142.727 96.6109 142.764 96.3382 142.8 96.1927C142.836 95.9927 142.709 95.7381 142.564 96.2109C142.254 97.1383 141.436 97.7929 140.836 96.5382C140.745 96.2836 140.327 95.1562 141.091 92.6649C141.236 92.174 141.436 91.4648 141.436 91.4648C141.582 90.9374 141.382 90.6283 141.145 91.3011Z" fill="white"/>
</g>
<mask id="mask11_100_9554" style="mask-type:luminance" maskUnits="userSpaceOnUse" x="12" y="18" width="144" height="131">
<path d="M156 18H12V149H156V18Z" fill="white"/>
</mask>
<g mask="url(#mask11_100_9554)">
<mask id="mask12_100_9554" style="mask-type:luminance" maskUnits="userSpaceOnUse" x="98" y="105" width="11" height="11">
<path d="M108.618 105.085H98.9818V115.432H108.618V105.085Z" fill="white"/>
</mask>
<g mask="url(#mask12_100_9554)">
<path fill-rule="evenodd" clip-rule="evenodd" d="M102.327 105.412C100.345 106.376 98.4 109.485 99.1454 110.667C99.7818 111.686 101.091 112.577 101.091 112.577C100.473 112.94 99.7636 113.122 99.5818 113.777C99.4 114.431 99.3454 114.831 99.3273 115.068C99.3091 115.304 99.2727 115.486 99.6545 115.377C100.036 115.268 100.218 115.195 100.218 115.195C101.309 114.704 105.473 112.522 108.273 111.849C108.364 111.831 108.527 110.904 108.636 110.413C108.727 109.904 108.2 109.958 107.4 110.14C106.582 110.322 103.636 111.195 102.073 109.867C100.727 108.722 100.545 108.249 101.018 107.958C101.491 107.667 102.836 106.776 103.709 107.867C104.182 108.449 104.564 108.449 104.764 108.067C104.964 107.685 105.618 106.649 105.436 106.248C105.2 105.848 104.309 104.448 102.327 105.412Z" fill="white"/>
</g>
</g>
<mask id="mask13_100_9554" style="mask-type:luminance" maskUnits="userSpaceOnUse" x="12" y="18" width="144" height="131">
<path d="M156 18H12V149H156V18Z" fill="white"/>
</mask>
<g mask="url(#mask13_100_9554)">
<path fill-rule="evenodd" clip-rule="evenodd" d="M109.018 127.433C107.509 129.452 107.382 132.089 107.127 134.98C106.873 134.343 105.618 130.452 101.6 128.197C101.345 128.07 100.727 128.324 100.727 129.325C100.727 129.834 100.6 131.216 100.982 131.598H100.855C101.236 131.979 102.364 132.725 102.491 132.852C102.745 132.98 102.873 132.98 103 132.725C103 132.47 103.255 131.979 103.636 132.343C103.891 132.598 105.891 134.234 106.909 137.744C107.036 138.253 107.527 138.253 107.655 137.617C107.909 135.98 108.036 133.216 108.164 132.343C108.291 131.216 108.909 128.688 110.418 129.961C110.8 130.216 111.182 130.597 111.182 130.597C111.564 130.979 111.927 131.47 112.055 130.979C112.309 130.234 112.545 129.088 112.309 128.47C112.145 128.197 110.273 125.797 109.018 127.433Z" fill="white"/>
</g>
<mask id="mask14_100_9554" style="mask-type:luminance" maskUnits="userSpaceOnUse" x="12" y="18" width="144" height="131">
<path d="M156 18H12V149H156V18Z" fill="white"/>
</mask>
<g mask="url(#mask14_100_9554)">
<path fill-rule="evenodd" clip-rule="evenodd" d="M63.9272 52.3139C62.4181 54.3323 62.2909 56.9691 62.0363 59.8604C61.7818 59.2239 60.5272 55.3325 56.5091 53.0776C56.2545 52.9503 55.6363 53.2049 55.6363 54.205C55.6363 54.7142 55.5091 56.0962 55.8909 56.4781H55.7636C56.1454 56.86 57.2727 57.6055 57.4 57.7328C57.6545 57.8601 57.7818 57.8601 57.9091 57.6055C57.9091 57.3509 58.1636 56.86 58.5454 57.2236C58.8 57.4782 60.8 59.1148 61.8181 62.6244C61.9454 63.1335 62.4363 63.1335 62.5636 62.4971C62.8182 60.8605 62.9454 58.0965 63.0727 57.2236C63.2 56.0962 63.8181 53.5686 65.3272 54.8415C65.7091 55.0961 66.0909 55.4779 66.0909 55.4779C66.4727 55.8598 66.8363 56.3508 66.9636 55.8598C67.2181 55.1143 67.4545 53.9686 67.2182 53.3504C67.0727 53.0594 65.1818 50.6773 63.9272 52.3139Z" fill="white"/>
</g>
<mask id="mask15_100_9554" style="mask-type:luminance" maskUnits="userSpaceOnUse" x="12" y="18" width="144" height="131">
<path d="M156 18H12V149H156V18Z" fill="white"/>
</mask>
<g mask="url(#mask15_100_9554)">
<path fill-rule="evenodd" clip-rule="evenodd" d="M95.7091 133.452C95.4364 134.107 94.5091 136.398 94.7818 139.071C94.8727 139.708 95.3455 140.817 96.2546 140.817C96.7091 140.817 97.3636 140.453 97.7273 138.889C97.8182 138.526 97.8182 138.235 97.8182 138.144C97.8182 137.962 97.7273 137.689 97.5455 138.144C97.2727 139.071 96.3455 139.799 95.6 138.599C95.5091 138.326 94.9455 137.307 95.6909 134.816C95.8727 134.362 95.9636 133.616 95.9636 133.616C96.1636 133.089 95.8909 132.816 95.7091 133.452Z" fill="white"/>
</g>
<mask id="mask16_100_9554" style="mask-type:luminance" maskUnits="userSpaceOnUse" x="12" y="18" width="144" height="131">
<path d="M156 18H12V149H156V18Z" fill="white"/>
</mask>
<g mask="url(#mask16_100_9554)">
<path fill-rule="evenodd" clip-rule="evenodd" d="M42.6727 114.741C42.4 115.395 41.4727 117.687 41.7454 120.36C41.8364 120.996 42.3091 122.105 43.2182 122.105C43.6727 122.105 44.3273 121.742 44.6909 120.178C44.7818 119.814 44.7818 119.523 44.7818 119.432C44.7818 119.25 44.6909 118.978 44.5091 119.432C44.2364 120.36 43.3091 121.087 42.5636 119.887C42.4727 119.614 41.9091 118.596 42.6545 116.105C42.8364 115.65 42.9273 114.904 42.9273 114.904C43.1454 114.377 42.8727 114.086 42.6727 114.741Z" fill="white"/>
</g>
<mask id="mask17_100_9554" style="mask-type:luminance" maskUnits="userSpaceOnUse" x="12" y="18" width="144" height="131">
<path d="M156 18H12V149H156V18Z" fill="white"/>
</mask>
<g mask="url(#mask17_100_9554)">
<path fill-rule="evenodd" clip-rule="evenodd" d="M73.7091 129.997C73.3637 130.816 72.1818 133.743 72.5273 137.144C72.6546 137.962 73.2364 139.38 74.4 139.38C74.9818 139.38 75.8 138.908 76.2727 136.926C76.4 136.453 76.4 136.107 76.4 135.98C76.4 135.744 76.2727 135.398 76.0546 135.98C75.7091 137.144 74.5273 138.089 73.6 136.562C73.4727 136.216 72.7818 134.925 73.7273 131.761C73.9637 131.179 74.0727 130.234 74.0727 130.234C74.2909 129.543 73.9455 129.179 73.7091 129.997Z" fill="white"/>
</g>
<mask id="mask18_100_9554" style="mask-type:luminance" maskUnits="userSpaceOnUse" x="12" y="18" width="144" height="131">
<path d="M156 18H12V149H156V18Z" fill="white"/>
</mask>
<g mask="url(#mask18_100_9554)">
<path fill-rule="evenodd" clip-rule="evenodd" d="M117.309 125.106C117.036 125.76 116.109 128.052 116.382 130.725C116.473 131.361 116.945 132.47 117.855 132.47C118.309 132.47 118.964 132.107 119.327 130.543C119.418 130.179 119.418 129.888 119.418 129.797C119.418 129.615 119.327 129.343 119.145 129.797C118.873 130.725 117.945 131.452 117.2 130.252C117.109 129.979 116.545 128.961 117.291 126.47C117.473 126.015 117.564 125.269 117.564 125.269C117.782 124.742 117.491 124.469 117.309 125.106Z" fill="white"/>
</g>
<mask id="mask19_100_9554" style="mask-type:luminance" maskUnits="userSpaceOnUse" x="12" y="18" width="144" height="131">
<path d="M156 18H12V149H156V18Z" fill="white"/>
</mask>
<g mask="url(#mask19_100_9554)">
<path fill-rule="evenodd" clip-rule="evenodd" d="M30.6 90.2101C30.2909 90.9192 29.2727 93.4832 29.5818 96.4473C29.6909 97.1565 30.2 98.393 31.2181 98.393C31.7272 98.393 32.4545 97.9748 32.8545 96.2473C32.9636 95.829 32.9636 95.5381 32.9636 95.429C32.9636 95.2289 32.8545 94.9198 32.6545 95.429C32.3454 96.4473 31.3272 97.2656 30.5091 95.9381C30.4 95.629 29.8 94.5016 30.6181 91.7375C30.8181 91.2284 30.9272 90.4101 30.9272 90.4101C31.109 89.81 30.8 89.5009 30.6 90.2101Z" fill="white"/>
</g>
<mask id="mask20_100_9554" style="mask-type:luminance" maskUnits="userSpaceOnUse" x="12" y="18" width="144" height="131">
<path d="M156 18H12V149H156V18Z" fill="white"/>
</mask>
<g mask="url(#mask20_100_9554)">
<path fill-rule="evenodd" clip-rule="evenodd" d="M30.6 69.0071C30.2909 69.7162 29.2727 72.2802 29.5818 75.2443C29.6909 75.9535 30.2 77.19 31.2181 77.19C31.7272 77.19 32.4545 76.7718 32.8545 75.0443C32.9636 74.626 32.9636 74.3351 32.9636 74.226C32.9636 74.0259 32.8545 73.7168 32.6545 74.226C32.3454 75.2443 31.3272 76.0626 30.5091 74.7351C30.4 74.426 29.8 73.2986 30.6181 70.5345C30.8181 70.0254 30.9272 69.2071 30.9272 69.2071C31.109 68.607 30.8 68.2979 30.6 69.0071Z" fill="white"/>
</g>
<mask id="mask21_100_9554" style="mask-type:luminance" maskUnits="userSpaceOnUse" x="12" y="18" width="144" height="131">
<path d="M156 18H12V149H156V18Z" fill="white"/>
</mask>
<g mask="url(#mask21_100_9554)">
<path fill-rule="evenodd" clip-rule="evenodd" d="M41.1637 96.6109C40.891 97.2655 39.9637 99.5568 40.2364 102.23C40.3273 102.866 40.8 103.976 41.7091 103.976C42.1637 103.976 42.8182 103.612 43.1819 102.048C43.2728 101.684 43.2728 101.393 43.2728 101.302C43.2728 101.121 43.1819 100.848 43.0001 101.302C42.7273 102.23 41.8001 102.957 41.0546 101.757C40.9637 101.484 40.4001 100.466 41.1455 97.9747C41.3273 97.5201 41.4182 96.7746 41.4182 96.7746C41.6364 96.2472 41.3455 95.9744 41.1637 96.6109Z" fill="white"/>
</g>
<mask id="mask22_100_9554" style="mask-type:luminance" maskUnits="userSpaceOnUse" x="12" y="18" width="144" height="131">
<path d="M156 18H12V149H156V18Z" fill="white"/>
</mask>
<g mask="url(#mask22_100_9554)">
<path fill-rule="evenodd" clip-rule="evenodd" d="M49.4909 91.4284C49.2909 91.883 48.6546 93.4832 48.8546 95.338C48.9273 95.7926 49.2364 96.5564 49.8909 96.5564C50.2182 96.5564 50.6546 96.3018 50.9091 95.2107C50.9818 94.9561 50.9818 94.7561 50.9818 94.7016C50.9818 94.5743 50.9091 94.3742 50.7818 94.7016C50.5818 95.338 49.9455 95.8654 49.4364 95.0289C49.3637 94.8289 48.9818 94.1379 49.5091 92.3922C49.6364 92.0648 49.7091 91.5557 49.7091 91.5557C49.8 91.1738 49.6182 90.9738 49.4909 91.4284Z" fill="white"/>
</g>
<mask id="mask23_100_9554" style="mask-type:luminance" maskUnits="userSpaceOnUse" x="12" y="18" width="144" height="131">
<path d="M156 18H12V149H156V18Z" fill="white"/>
</mask>
<g mask="url(#mask23_100_9554)">
<path fill-rule="evenodd" clip-rule="evenodd" d="M77.6363 105.739C77.3636 106.394 76.4363 108.685 76.7091 111.358C76.8 111.995 77.2727 113.104 78.1818 113.104C78.6363 113.104 79.2909 112.74 79.6545 111.177C79.7454 110.813 79.7454 110.522 79.7454 110.431C79.7454 110.249 79.6545 109.976 79.4727 110.431C79.2 111.358 78.2727 112.086 77.5273 110.886C77.4363 110.613 76.8727 109.595 77.6182 107.103C77.8 106.649 77.8909 105.903 77.8909 105.903C78.0909 105.376 77.8182 105.103 77.6363 105.739Z" fill="white"/>
</g>
<mask id="mask24_100_9554" style="mask-type:luminance" maskUnits="userSpaceOnUse" x="12" y="18" width="144" height="131">
<path d="M156 18H12V149H156V18Z" fill="white"/>
</mask>
<g mask="url(#mask24_100_9554)">
<path fill-rule="evenodd" clip-rule="evenodd" d="M59.1273 113.65C58.8546 114.304 57.9273 116.596 58.2 119.269C58.2909 119.905 58.7637 121.014 59.6728 121.014C60.1273 121.014 60.7819 120.651 61.1455 119.087C61.2364 118.723 61.2364 118.432 61.2364 118.341C61.2364 118.159 61.1455 117.887 60.9637 118.341C60.6909 119.269 59.7637 119.996 59.0182 118.796C58.9273 118.523 58.3637 117.505 59.1091 115.013C59.2909 114.559 59.3819 113.813 59.3819 113.813C59.5819 113.286 59.3091 113.013 59.1273 113.65Z" fill="white"/>
</g>
<mask id="mask25_100_9554" style="mask-type:luminance" maskUnits="userSpaceOnUse" x="12" y="18" width="144" height="131">
<path d="M156 18H12V149H156V18Z" fill="white"/>
</mask>
<g mask="url(#mask25_100_9554)">
<path fill-rule="evenodd" clip-rule="evenodd" d="M88.9091 122.414C88.6909 122.905 87.9818 124.688 88.2 126.742C88.2727 127.233 88.6364 128.088 89.3455 128.088C89.7091 128.088 90.2 127.797 90.4727 126.597C90.5455 126.306 90.5455 126.106 90.5455 126.033C90.5455 125.888 90.4727 125.669 90.3273 126.033C90.1091 126.742 89.4 127.306 88.8364 126.397C88.7636 126.179 88.3455 125.397 88.9091 123.487C89.0546 123.124 89.1273 122.56 89.1273 122.56C89.2546 122.124 89.0546 121.905 88.9091 122.414Z" fill="white"/>
</g>
<mask id="mask26_100_9554" style="mask-type:luminance" maskUnits="userSpaceOnUse" x="12" y="18" width="144" height="131">
<path d="M156 18H12V149H156V18Z" fill="white"/>
</mask>
<g mask="url(#mask26_100_9554)">
<path fill-rule="evenodd" clip-rule="evenodd" d="M64.7454 104.83C64.2909 105.048 53.709 109.194 53.2363 109.449C52.7636 109.704 52.5999 109.776 52.509 110.104C52.4181 110.449 52.3636 110.649 52.3454 110.704C52.2545 110.922 52.1818 111.213 52.8545 110.813C53.0727 110.686 63.7454 106.503 64.1272 106.285C64.509 106.067 64.7454 105.994 64.909 105.649C65.0727 105.303 65.1272 105.248 65.2181 104.994C65.3272 104.757 65.4363 104.485 64.7454 104.83Z" fill="white"/>
</g>
<mask id="mask27_100_9554" style="mask-type:luminance" maskUnits="userSpaceOnUse" x="12" y="18" width="144" height="131">
<path d="M156 18H12V149H156V18Z" fill="white"/>
</mask>
<g mask="url(#mask27_100_9554)">
<path d="M53.5819 102.83C53.8182 102.648 54.0728 102.484 54.3273 102.321C58.2364 99.7568 62.2001 99.2113 66.5819 97.702C69.0001 96.8655 71.4001 96.1199 72.8546 93.8651C75.0728 90.4464 75.091 86.755 73.5637 83.0636C72.9273 81.5179 70.491 77.281 69.6 76.4627C70.1091 76.6627 71.2364 77.3901 71.491 77.5901C76.2364 81.2088 80.9819 84.8275 85.7273 88.4461C87.2728 89.6281 88.8001 90.8101 90.3455 91.9921C94.1273 95.1198 97.3455 96.229 98.1273 96.3563C99.2001 96.5382 100.273 96.6837 101.346 96.7018C104.855 96.7746 107.764 94.5379 108.491 91.0829C108.618 90.4464 108.745 89.81 108.836 89.1735C108.236 89.2281 107.6 89.0644 107.073 88.7189C107.073 88.8462 107.091 88.9735 107.091 89.0826C107.146 90.1918 106.564 90.8283 105.6 91.3193C102.4 92.9377 99.3455 92.6649 96.3091 90.8828C95.7819 90.5737 55.7637 62.2061 46.5637 57.4964C45.8364 57.06 45.091 56.6781 44.4001 56.2053C43.8182 55.8053 43.7273 55.2234 44.3637 54.8051C45.291 54.1868 46.2364 53.5868 47.2364 53.1322C58.9091 47.7496 70.9637 43.4763 83.4728 40.5486C86.3455 39.8758 89.2364 39.1848 92.2182 39.5485C93.5637 39.7121 94.8001 40.1849 95.7455 41.2214C96.5819 42.1488 96.6001 42.9489 95.7273 43.84C94.9273 44.6583 94.0728 45.4402 93.1819 46.1676C90.4364 48.4042 87.6364 50.5682 85.3819 53.3322C83.7273 55.3506 82.5637 57.6419 81.491 60.0058C81.7273 59.8785 81.9273 59.7149 82.1091 59.533C85.9637 55.7689 89.8182 52.0229 93.6546 48.2406C95.691 46.2403 97.5819 44.1309 98.4182 41.2942C99.3273 38.1483 97.6728 35.5115 94.4182 35.2024C92.891 35.0569 91.2728 35.166 89.7455 35.457C69.7819 38.4028 48.8364 47.4405 43.891 51.241C41.9819 52.332 41.0182 55.4052 41.6546 57.5328C42.2001 59.3694 43.5819 60.515 45.0182 61.5515C48.3637 63.9882 70.6364 77.8265 73.1273 87.6278C73.5455 88.9553 73.8182 90.1918 72.2001 91.1011C70.5091 92.0466 68.6728 92.774 66.8546 93.4287C64.1637 94.3924 61.4 95.1198 58.7091 96.0836C55.5455 97.211 52.7637 99.1022 50.2182 101.266C47.7273 103.375 45.4728 105.776 42.8546 107.74C41.7455 108.576 40.5273 109.304 39.2182 109.776C38.4364 110.049 37.6001 110.249 36.7819 110.122C35.091 109.867 34.5637 108.194 34.4728 106.649C34.2182 102.484 34.9091 98.7203 36.8182 94.8834C37.1091 94.3015 37.9091 92.7013 37.6182 92.3558C37.0182 92.083 35.6182 95.0834 35.4182 95.5017C33.3273 99.7568 32.4001 104.867 33.691 109.485C34.2546 111.54 35.6546 113.45 37.8728 113.831C40.7455 114.322 43.3091 112.195 45.2728 110.376C47.8001 108.103 50.8001 104.812 53.5819 102.83Z" fill="white"/>
</g>
<mask id="mask28_100_9554" style="mask-type:luminance" maskUnits="userSpaceOnUse" x="12" y="18" width="144" height="131">
<path d="M156 18H12V149H156V18Z" fill="white"/>
</mask>
<g mask="url(#mask28_100_9554)">
<path fill-rule="evenodd" clip-rule="evenodd" d="M80.5636 28.5287C79.9272 28.8197 56.4909 37.0572 54.6363 38.2028C53.7091 38.7847 52.8545 39.7849 52.4727 40.9305C51.9091 42.5852 52.1272 44.3309 53.2 44.6583C53.9636 44.8765 54.3454 45.3856 54.5091 45.6766C54.5818 45.8039 54.7091 45.7311 54.7636 45.6584C55.8545 44.0218 55.2 42.8398 53.7636 42.2216C53.1818 41.967 53.0182 41.1123 55.4182 39.9667C57.5818 38.9302 78.9636 31.2746 79.4545 31.02C80.1091 30.6745 80.5091 30.5472 80.8182 29.9653C81.1272 29.3834 81.2 29.2925 81.3818 28.8743C81.5636 28.4378 81.7636 27.9832 80.5636 28.5287Z" fill="white"/>
</g>
<mask id="mask29_100_9554" style="mask-type:luminance" maskUnits="userSpaceOnUse" x="12" y="18" width="144" height="131">
<path d="M156 18H12V149H156V18Z" fill="white"/>
</mask>
<g mask="url(#mask29_100_9554)">
<path fill-rule="evenodd" clip-rule="evenodd" d="M121.255 90.3918L119.164 93.2468L115.164 90.3373C115.073 90.2645 114.927 90.2827 114.836 90.3918L112.418 93.7014C112.345 93.8105 112.364 93.956 112.455 94.0287L116.582 97.0291C116.691 97.1019 116.818 97.0655 116.909 96.9746L119 94.1196L123 97.0291C123.091 97.1019 123.236 97.0655 123.327 96.9746L125.745 93.665C125.818 93.5559 125.8 93.4104 125.709 93.3377L121.582 90.3373C121.473 90.2645 121.327 90.2827 121.255 90.3918Z" fill="white"/>
</g>
<mask id="mask30_100_9554" style="mask-type:luminance" maskUnits="userSpaceOnUse" x="12" y="18" width="144" height="131">
<path d="M156 18H12V149H156V18Z" fill="white"/>
</mask>
<g mask="url(#mask30_100_9554)">
<path fill-rule="evenodd" clip-rule="evenodd" d="M62.8181 85.373L60.7272 88.2279L56.7272 85.3184C56.6181 85.2457 56.4909 85.2639 56.4 85.373L54 88.6643C53.9272 88.7734 53.9454 88.9189 54.0363 88.9917L58.1636 91.9921C58.2727 92.0648 58.4 92.0284 58.4909 91.9375L60.5818 89.0826L64.5818 91.9921C64.6727 92.0648 64.8181 92.0284 64.909 91.9375L67.3272 88.628C67.4 88.5189 67.3818 88.3734 67.2909 88.3006L63.1636 85.3002C63.0363 85.2275 62.8909 85.2639 62.8181 85.373Z" fill="white"/>
</g>
<mask id="mask31_100_9554" style="mask-type:luminance" maskUnits="userSpaceOnUse" x="12" y="18" width="144" height="131">
<path d="M156 18H12V149H156V18Z" fill="white"/>
</mask>
<g mask="url(#mask31_100_9554)">
<path fill-rule="evenodd" clip-rule="evenodd" d="M72.4 112.249C72.4728 112.304 72.4909 112.413 72.4364 112.486L70.0182 115.923C69.9455 116.032 69.8 116.05 69.6909 115.977L65.5819 112.977C65.4909 112.904 65.4728 112.759 65.5455 112.65L67.9637 109.34C68.0364 109.231 68.1819 109.213 68.2909 109.285L72.4 112.249Z" fill="white"/>
</g>
<mask id="mask32_100_9554" style="mask-type:luminance" maskUnits="userSpaceOnUse" x="12" y="18" width="144" height="131">
<path d="M156 18H12V149H156V18Z" fill="white"/>
</mask>
<g mask="url(#mask32_100_9554)">
<path d="M128.6 53.6413C128.6 53.6413 130.382 55.8234 130.709 56.2417C131.036 56.6599 131.473 56.4962 131.327 55.8598C131.182 55.2233 127.855 44.3309 127.727 43.9309C127.6 43.5672 127.509 43.2762 127.273 43.6945C127.036 44.1127 125.345 47.204 125.345 47.204C125.364 47.4768 125.655 48.2951 125.745 49.9499C125.855 51.6046 128.836 111.795 128.636 115.286C128.582 116.341 128.673 116.268 128.455 116.614C128.236 116.996 126.636 120.196 120.364 119.032C119.945 118.923 118.818 118.741 117.655 117.559C118.945 116.759 120.036 115.868 120.782 114.832C122.091 113.25 124.2 109.122 121.327 103.666C120.727 102.721 118.818 101.175 116.818 103.03C115.236 104.521 111.782 108.449 113.527 115.504C112.655 115.941 107.455 118.359 104.909 119.487C101.927 120.796 99.3273 122.815 97 125.088C94.7273 127.306 92.6909 129.779 90.2909 131.852C89.2727 132.743 88.1455 133.525 86.9091 134.071C86.1637 134.398 85.3637 134.634 84.5637 134.58C82.8909 134.453 82.2909 132.87 82.0909 131.361C81.5637 127.342 81.9818 123.633 83.5818 119.778C83.8182 119.196 84.4909 117.577 84.2 117.268C83.6 117.05 82.4364 120.051 82.2727 120.469C80.5273 124.724 79.9818 129.761 81.5273 134.162C82.2182 136.125 83.7091 137.889 85.8727 138.108C88.6909 138.399 91.0364 136.162 92.8182 134.252C95.0727 131.852 97.7637 128.452 100.327 126.342C100.545 126.16 100.782 125.979 101.018 125.797C104.655 123.051 108.345 122.105 112.491 120.341C113.291 119.996 114.109 119.687 114.873 119.341C115.073 119.778 115.291 120.232 115.527 120.669C116.727 122.305 118 125.506 125.327 122.869C127.945 121.705 131.509 118.814 131.327 110.886C131.382 107.722 128.6 53.6413 128.6 53.6413ZM115.2 108.485C116.182 107.031 118.055 105.303 119.618 107.867C121.182 110.431 120.927 110.686 120.782 110.904C120.655 111.049 118.964 112.959 115.927 114.486C115.255 112.54 114.436 109.54 115.2 108.485Z" fill="white"/>
</g>
<mask id="mask33_100_9554" style="mask-type:luminance" maskUnits="userSpaceOnUse" x="12" y="18" width="144" height="131">
<path d="M156 18H12V149H156V18Z" fill="white"/>
</mask>
<g mask="url(#mask33_100_9554)">
<path fill-rule="evenodd" clip-rule="evenodd" d="M134.927 55.8234C134.709 56.2417 133.073 59.4785 133.073 59.4785C133.091 59.6785 133.345 61.1696 133.382 61.7152C133.618 66.5886 135 92.4285 135.4 101.521C135.6 105.994 135.709 110.013 135.6 112.159C135.491 112.813 135.764 113.086 136.109 112.468C136.291 112.14 137.091 110.795 137.6 107.103C137.982 104.339 138.109 100.066 137.782 94.1197C137.727 93.2468 136.309 66.134 136.309 66.134C136.309 66.134 138.364 68.407 138.691 68.807C139.018 69.2071 139.473 69.0434 139.309 68.4252C139.164 67.8069 135.491 56.4417 135.382 56.0598C135.273 55.6961 135.145 55.4052 134.927 55.8234Z" fill="white"/>
</g>
<mask id="mask34_100_9554" style="mask-type:luminance" maskUnits="userSpaceOnUse" x="12" y="18" width="144" height="131">
<path d="M156 18H12V149H156V18Z" fill="white"/>
</mask>
<g mask="url(#mask34_100_9554)">
<path fill-rule="evenodd" clip-rule="evenodd" d="M106.964 92.8468C107 92.7922 106.491 94.4652 106.527 94.4106C106.964 93.7014 107.891 92.9559 108.127 92.3921C108.473 91.3738 109 90.7737 109.455 84.8093C108.655 68.4979 107.218 39.7849 107.218 39.7849C107.218 39.7849 109 41.967 109.327 42.3852C109.655 42.8035 110.091 42.6398 109.945 42.0033C109.8 41.3669 106.473 30.4745 106.345 30.0744C106.218 29.7107 106.127 29.4198 105.891 29.838C105.655 30.2563 103.964 33.3476 103.964 33.3476C103.982 33.6204 104.273 34.4387 104.364 36.0934C104.436 37.3663 106.218 75.2989 106.964 92.8468Z" fill="white"/>
</g>
<mask id="mask35_100_9554" style="mask-type:luminance" maskUnits="userSpaceOnUse" x="12" y="18" width="144" height="131">
<path d="M156 18H12V149H156V18Z" fill="white"/>
</mask>
<g mask="url(#mask35_100_9554)">
<path fill-rule="evenodd" clip-rule="evenodd" d="M114.709 35.366C114.491 35.7843 112.854 39.0211 112.854 39.0211C112.873 39.2211 113.127 40.7122 113.164 41.2578C113.4 46.1312 114.727 68.8434 115.127 77.9538C115.327 82.4271 115.436 86.4458 115.327 88.5916C115.218 89.2462 115.491 89.519 115.836 88.9007C116.018 88.5734 116.818 87.2278 117.327 83.5364C117.709 80.7723 117.836 76.499 117.509 70.5527C117.454 69.6799 116.091 45.6766 116.091 45.6766C116.091 45.6766 118.145 47.9496 118.473 48.3496C118.8 48.7497 119.254 48.586 119.091 47.9678C118.945 47.3495 115.273 35.9843 115.164 35.6024C115.036 35.2206 114.927 34.9296 114.709 35.366Z" fill="white"/>
</g>
<mask id="mask36_100_9554" style="mask-type:luminance" maskUnits="userSpaceOnUse" x="12" y="18" width="144" height="131">
<path d="M156 18H12V149H156V18Z" fill="white"/>
</mask>
<g mask="url(#mask36_100_9554)">
<path fill-rule="evenodd" clip-rule="evenodd" d="M92.8727 52.6957C92.6545 53.114 91.0182 56.3508 91.0182 56.3508C91.0364 56.5508 91.2909 58.0419 91.3273 58.5875C91.5636 63.4609 92.9455 103.848 93.3455 112.94C93.5455 117.414 93.6546 121.433 93.5455 123.578C93.4364 124.233 93.7091 124.506 94.0545 123.887C94.2364 123.56 95.0364 122.214 95.5455 118.523C95.9273 115.759 96.0546 111.486 95.7273 105.539C95.6727 104.667 94.2545 63.0063 94.2545 63.0063C94.2545 63.0063 96.3091 65.2793 96.6364 65.6794C96.9636 66.0794 97.4182 65.9158 97.2545 65.2975C97.1091 64.6792 93.4364 53.314 93.3273 52.9321C93.2182 52.5503 93.0909 52.2593 92.8727 52.6957Z" fill="white"/>
</g>
<mask id="mask37_100_9554" style="mask-type:luminance" maskUnits="userSpaceOnUse" x="12" y="18" width="144" height="131">
<path d="M156 18H12V149H156V18Z" fill="white"/>
</mask>
<g mask="url(#mask37_100_9554)">
<path fill-rule="evenodd" clip-rule="evenodd" d="M81.6545 66.5522C78.5818 65.152 75.0727 63.3518 73.9818 59.9877C73.3818 58.0965 72.5818 52.6594 72.5818 52.6594C72.5818 52.6594 74.4 54.1323 74.6 54.2232C74.8181 54.3687 75.0909 54.1505 74.8363 53.5868C74.6 53.0231 70.9272 46.8222 70.8 46.5676C70.6181 46.3312 70.3818 46.0767 70.2363 46.4585C70.0909 46.8404 69.2909 49.6044 69.2909 49.6044C69.2909 49.6044 71.3454 62.7153 73.8181 66.5886C73.0545 66.9159 65.8545 68.2979 58.7636 73.8987C57.5091 74.8988 51.4 80.3541 49.6181 82.2089C47.8545 84.0456 40.8363 91.2466 36.4363 89.4281C35.1818 88.9008 31.1272 84.9366 38.2181 74.2624C38.8727 73.2804 39.0909 72.9713 39.3272 72.5167C40.3454 72.3348 41.4909 71.2983 42.1454 67.7706C42.2909 66.8977 42.3636 66.2067 42.3818 65.8794C42.4545 65.3521 42.1091 64.8065 41.8182 65.9521C41.1818 68.2797 39.3454 69.9891 37.6727 67.025C37.4363 66.4249 36.2727 63.6791 37.7454 57.4964C38.0545 56.3144 38.4 54.5324 38.4 54.5324C38.7454 53.1685 38.1818 52.4775 37.7091 54.1505C37.2181 55.7871 35.1272 61.5515 35.8909 68.0979C36.0363 69.3162 36.6909 71.3711 37.9818 72.1712C35.6181 75.6262 26.8909 91.4284 38.4182 92.9741C40.3272 93.2286 44.7091 92.6104 49.6545 87.1733C51.0363 85.6458 55.4727 81.3725 56.8 80.3359C60.9272 77.1355 68.8 71.4438 73.6181 71.1892C77.7818 71.0801 79.8545 71.0619 83.3636 73.0986C83.3636 73.0986 84 70.7164 84 69.8436C84.0727 69.0617 84.6909 67.9342 81.6545 66.5522Z" fill="white"/>
</g>
<mask id="mask38_100_9554" style="mask-type:luminance" maskUnits="userSpaceOnUse" x="12" y="18" width="144" height="131">
<path d="M156 18H12V149H156V18Z" fill="white"/>
</mask>
<g mask="url(#mask38_100_9554)">
<path fill-rule="evenodd" clip-rule="evenodd" d="M74.1455 128.052C76.6182 126.779 79.2909 125.16 82.2546 123.105C83.6909 122.033 90.8728 117.796 89.0546 110.613C88.8909 109.576 84.9818 100.357 84.9818 100.357C85.9273 100.775 86.5455 100.939 86.8728 101.102C87.2 101.23 87.7818 100.902 87.2364 100.193C86.7455 99.484 83.2728 95.2471 83.2 94.9925C83.1091 94.7016 82.9455 94.5015 82.8728 94.1197C82.7455 93.756 82.5455 93.7923 82.3818 94.1197C82.2182 94.4106 81.2728 97.411 81.2364 97.6656C81.1455 97.9566 81.8546 100.721 82.3091 101.957C83.5091 105.539 86.0546 110.522 86.4364 111.358C86.8546 112.177 87.5455 113.541 86.6 114.741C85.6546 115.977 77.9818 123.306 65.2546 126.36C63.2364 126.815 54.8364 128.47 50.3819 122.196C49.6364 121.123 46.2546 115.977 50.1273 106.34C50.4909 105.594 50.0909 104.739 49.2182 106.14C48.3091 107.576 40.8182 126.379 55.3091 130.979C57.7455 131.761 63.3091 133.161 72.8182 128.67" fill="white"/>
</g>
<mask id="mask39_100_9554" style="mask-type:luminance" maskUnits="userSpaceOnUse" x="12" y="18" width="144" height="131">
<path d="M156 18H12V149H156V18Z" fill="white"/>
</mask>
<g mask="url(#mask39_100_9554)">
<path fill-rule="evenodd" clip-rule="evenodd" d="M79.3273 94.0106C79.3273 94.0106 79.8728 92.3558 78.8728 90.701C78.691 90.4282 77.7819 89.5008 76.5819 91.2465C76.5819 91.2465 75.6001 92.9922 76.491 93.9924C77.1273 94.447 78.0546 94.8107 78.0546 94.8107C75.1273 98.393 69.4364 100.957 68.0546 101.975C67.691 102.248 67.691 102.43 67.9637 102.43C68.1455 102.339 72.5455 101.139 76.491 97.7565C78.3273 96.1927 78.2364 96.1018 78.691 95.1016C79.0546 95.2835 79.3273 95.6471 79.5091 95.829C79.691 96.1018 79.8728 96.2836 79.9637 96.0108C80.3273 94.938 79.7819 94.3742 79.3273 94.0106ZM78.7819 93.5559L77.491 93.0104C77.1273 92.8286 76.9455 92.6467 77.1273 92.374C77.6728 91.5557 77.9455 91.5557 78.2364 91.7375C78.8728 92.3558 78.7819 93.3741 78.7819 93.5559Z" fill="white"/>
</g>
<mask id="mask40_100_9554" style="mask-type:luminance" maskUnits="userSpaceOnUse" x="12" y="18" width="144" height="131">
<path d="M156 18H12V149H156V18Z" fill="white"/>
</mask>
<g mask="url(#mask40_100_9554)">
<path fill-rule="evenodd" clip-rule="evenodd" d="M50.5091 72.8622C50.5091 72.8622 51.0545 71.2074 50.0545 69.5526C49.8727 69.2799 48.9636 68.3525 47.7636 70.0982C47.7636 70.0982 46.7818 71.8439 47.6727 72.844C48.3091 73.2986 49.2364 73.6623 49.2364 73.6623C46.3091 77.2446 40.6182 79.8086 39.2364 80.8269C38.8727 81.0997 38.8727 81.2815 39.1455 81.2815C39.3273 81.1906 43.7273 79.9904 47.6727 76.6081C49.5091 75.0443 49.4182 74.9534 49.8727 73.9532C50.2364 74.1351 50.5091 74.4988 50.6909 74.6806C50.8727 74.9534 51.0545 75.1352 51.1455 74.8625C51.5091 73.7896 50.9636 73.2441 50.5091 72.8622ZM49.9455 72.4076L48.6545 71.862C48.2909 71.6802 48.1091 71.4984 48.2909 71.2256C48.8364 70.4073 49.1091 70.4073 49.4 70.5891C50.0364 71.2256 49.9455 72.2257 49.9455 72.4076Z" fill="white"/>
</g>
<mask id="mask41_100_9554" style="mask-type:luminance" maskUnits="userSpaceOnUse" x="12" y="18" width="144" height="131">
<path d="M156 18H12V149H156V18Z" fill="white"/>
</mask>
<g mask="url(#mask41_100_9554)">
<path fill-rule="evenodd" clip-rule="evenodd" d="M123.964 74.9352C123.964 74.9352 124.6 72.9895 123.418 71.0619C123.2 70.7346 122.127 69.6617 120.727 71.6984C120.727 71.6984 119.582 73.7532 120.618 74.9352C121.364 75.4807 122.455 75.899 122.455 75.899C119.018 80.0995 112.327 83.1181 110.709 84.3001C110.273 84.6274 110.273 84.8457 110.6 84.8457C110.818 84.7366 115.982 83.3364 120.618 79.354C122.764 77.5174 122.673 77.4083 123.2 76.2263C123.636 76.4445 123.945 76.8809 124.164 77.0809C124.382 77.4083 124.6 77.6265 124.709 77.2992C125.145 76.0081 124.491 75.3534 123.964 74.9352ZM123.309 74.3897L121.8 73.7532C121.364 73.535 121.145 73.3168 121.364 72.9895C122.018 72.0257 122.327 72.0257 122.655 72.2439C123.418 72.9895 123.309 74.1714 123.309 74.3897Z" fill="white"/>
</g>
<mask id="mask42_100_9554" style="mask-type:luminance" maskUnits="userSpaceOnUse" x="12" y="18" width="144" height="131">
<path d="M156 18H12V149H156V18Z" fill="white"/>
</mask>
<g mask="url(#mask42_100_9554)">
<path fill-rule="evenodd" clip-rule="evenodd" d="M86.8546 28.6197C86.0364 29.5107 85.7819 30.1108 85.5455 30.4927C85.2 31.02 85.6364 31.2564 86 30.8382C86.3819 30.4381 86.6364 30.0199 87.7455 30.0562C88.8546 30.0926 91.4909 29.9835 90.5091 30.7109C89.5273 31.4382 88.8546 31.8565 88.8546 31.8565C88.2182 32.3111 87.6546 33.1839 88.7819 32.693C89.9091 32.2202 91.4182 31.4564 92.5637 29.7289C92.9091 29.2198 93.2909 28.5469 91.7455 28.3105C90.1819 28.0923 87.6728 27.7286 86.8546 28.6197Z" fill="white"/>
</g>
<mask id="mask43_100_9554" style="mask-type:luminance" maskUnits="userSpaceOnUse" x="12" y="18" width="144" height="131">
<path d="M156 18H12V149H156V18Z" fill="white"/>
</mask>
<g mask="url(#mask43_100_9554)">
<path fill-rule="evenodd" clip-rule="evenodd" d="M106.818 99.7023C106 100.593 105.745 101.193 105.509 101.575C105.164 102.103 105.6 102.339 105.964 101.921C106.345 101.521 106.6 101.102 107.709 101.139C108.818 101.175 111.455 101.066 110.473 101.793C109.491 102.521 108.818 102.939 108.818 102.939C108.182 103.394 107.618 104.267 108.745 103.776C109.873 103.303 111.382 102.539 112.527 100.811C112.873 100.302 113.255 99.6295 111.709 99.3931C110.145 99.1749 107.636 98.8112 106.818 99.7023Z" fill="white"/>
</g>
</g>
</g>
</g>
<defs>
<filter id="filter0_d_100_9554" x="25.524" y="27.5255" width="122.185" height="121.292" filterUnits="userSpaceOnUse" color-interpolation-filters="sRGB">
<feFlood flood-opacity="0" result="BackgroundImageFix"/>
<feColorMatrix in="SourceAlpha" type="matrix" values="0 0 0 0 0 0 0 0 0 0 0 0 0 0 0 0 0 0 127 0" result="hardAlpha"/>
<feOffset dy="4"/>
<feGaussianBlur stdDeviation="2"/>
<feComposite in2="hardAlpha" operator="out"/>
<feColorMatrix type="matrix" values="0 0 0 0 0 0 0 0 0 0 0 0 0 0 0 0 0 0 0.25 0"/>
<feBlend mode="normal" in2="BackgroundImageFix" result="effect1_dropShadow_100_9554"/>
<feBlend mode="normal" in="SourceGraphic" in2="effect1_dropShadow_100_9554" result="shape"/>
</filter>
<clipPath id="clip0_100_9554">
<rect width="144" height="131" fill="white" transform="translate(12 18)"/>
</clipPath>
</defs>
</svg>
