<svg width="40" height="40" viewBox="0 0 40 40" fill="none" xmlns="http://www.w3.org/2000/svg">
<g clip-path="url(#clip0_331_1282)">
<path d="M18.7915 39.9894C18.5415 39.8019 18.4582 39.5728 18.5415 39.2498C18.7498 38.4165 18.7082 37.5519 18.7394 36.7082C19.1769 36.7082 19.6144 36.6978 20.0519 36.6978L20.0415 36.729C20.0207 37.5728 20.0415 38.4061 20.229 39.229C20.3123 39.5728 20.2394 39.8019 19.9686 39.9998C19.5728 39.9894 19.1769 39.9894 18.7915 39.9894Z" fill="#FDCE85"/>
<path d="M19.9583 39.9893C20.2291 39.7913 20.302 39.5726 20.2187 39.2184C20.0312 38.3955 20.0103 37.5622 20.0312 36.7184C20.4687 36.7184 20.9062 36.708 21.3437 36.708C21.3645 37.6247 21.3749 38.5413 21.5833 39.4476C21.6458 39.6976 21.4687 39.8538 21.2916 39.9997C20.8437 39.9893 20.4062 39.9893 19.9583 39.9893Z" fill="#FDC166"/>
<path d="M13.5519 2.07259C13.9582 2.16634 14.229 2.44759 14.4998 2.73926C14.5311 2.77051 14.5519 2.79134 14.5832 2.82259C14.5832 2.98926 14.604 3.15592 14.7811 3.19759C15.6873 3.40592 16.6978 2.95801 16.9998 1.89551C17.1144 1.47884 16.9894 1.08301 16.979 0.676758C17.5623 0.853841 17.8957 1.28092 18.1561 1.80176C18.1873 2.04134 18.2186 2.27051 18.2498 2.51009C18.1561 3.23926 17.8123 3.81217 17.1144 4.11426C16.229 4.49967 15.4894 4.18717 14.7915 3.47884C14.8853 4.38509 14.5832 5.02051 13.8853 5.43717C13.1769 5.85384 12.479 5.73926 11.729 5.24967C12.0311 6.11426 11.9165 6.81217 11.3332 7.38509C10.7603 7.95801 10.0519 8.04134 9.24984 7.77051C10.1769 9.18717 9.34359 10.9163 7.46859 10.9163C7.53109 11.0101 7.64567 11.0518 7.71859 11.1351C8.20817 11.6768 8.36442 12.3018 8.12484 13.0101C7.86442 13.7601 7.28109 14.1247 6.53109 14.2705C6.28109 14.2393 6.03109 14.208 5.7915 14.1872C5.354 13.9476 4.90609 13.708 4.729 13.1768C5.84359 13.458 6.94775 12.7705 7.05192 11.4268C7.07275 11.1351 7.08317 10.7497 6.76025 10.5309C6.73942 10.5309 6.71859 10.5309 6.68734 10.5205C6.49984 10.2601 6.18734 10.0934 6.12484 9.73926C6.82275 9.92676 7.4165 9.77051 7.92692 9.23926C8.48942 8.65592 8.58317 7.97884 8.32275 7.23926C8.42692 7.22884 8.63525 7.31217 8.479 7.06217C8.43734 6.99967 8.4165 6.92676 8.38525 6.85384C8.55192 6.85384 8.71859 6.85384 8.89567 6.85384C9.64567 6.85384 10.1665 6.52051 10.5103 5.85384C10.7707 5.34342 10.6665 4.82259 10.5936 4.30176C10.8332 4.33301 11.0103 4.49967 11.2082 4.59342C11.2394 4.61426 11.2603 4.64551 11.2915 4.66634C11.2915 4.67676 11.3019 4.68717 11.3019 4.69759C11.3019 4.69759 11.3123 4.69759 11.3228 4.70801C11.3123 4.69759 11.3019 4.68717 11.2811 4.67676C11.2811 4.65592 11.2915 4.62467 11.2915 4.60384C12.4686 4.96842 13.7707 3.89551 13.6144 2.64551C13.6248 2.45801 13.5832 2.27051 13.5519 2.07259Z" fill="#5D9F44"/>
<path d="M34.3853 18.0103C35.1769 18.3332 35.6665 19.1665 35.5311 19.9582C35.3748 20.9373 34.6561 21.5103 33.4478 21.5936C33.6144 21.8228 33.7915 22.0207 33.9061 22.2498C34.2811 22.9478 34.2082 23.6353 33.7394 24.2498C33.2603 24.8853 32.5936 25.0519 31.8332 24.9165C31.7186 24.8957 31.6144 24.8228 31.4998 24.8644C31.4998 24.8436 31.4894 24.8228 31.4894 24.8019C31.479 24.8019 31.4686 24.8123 31.4582 24.8123C31.479 24.8228 31.4894 24.8436 31.5103 24.854C32.0311 25.8123 32.0207 26.5519 31.4686 27.1978C30.8748 27.9061 29.9686 28.0832 29.1457 27.6561C29.0519 27.6144 28.9686 27.5623 28.8332 27.4894C29.1144 28.5103 28.9269 29.3644 28.0103 29.8853C27.0936 30.4061 26.2707 30.1248 25.4998 29.2707C25.6144 29.8748 25.4998 30.3019 25.2498 30.6978C24.9894 31.0936 24.6248 31.354 24.1665 31.4686C23.354 31.6769 22.5415 31.3436 22.1353 30.6353C22.1665 30.604 22.1978 30.5728 22.2186 30.5415C23.1561 30.5936 23.854 30.229 24.2498 29.3644C24.4582 28.9061 24.3644 28.4269 24.3228 27.9582C24.7394 28.0623 24.9998 28.3644 25.2707 28.6561C25.4061 29.1248 25.5207 29.1978 26.0519 29.1248C27.2707 28.9582 27.9478 28.0207 27.7186 26.8019C27.6978 26.7082 27.6769 26.6248 27.7707 26.5623C27.9998 26.604 28.1665 26.7707 28.354 26.8853C28.4998 26.8853 28.6353 26.8853 28.7811 26.8853C29.6144 26.8748 30.1873 26.479 30.5623 25.7394C30.8019 25.2603 30.6873 24.7811 30.6457 24.3019C30.7498 24.3123 30.8332 24.3123 30.7603 24.1665C30.7186 24.0832 30.6873 24.0103 30.6457 23.9269C31.6144 24.0103 32.4165 23.7603 32.8228 22.7811C33.0311 22.2811 32.979 21.5832 32.6873 21.2811C32.4269 21.0623 32.1457 20.854 32.0519 20.4998C32.2082 20.4998 32.3644 20.479 32.5207 20.4998C33.4998 20.6561 34.604 19.5415 34.3332 18.3436C34.3019 18.2707 34.1457 18.0832 34.3853 18.0103ZM33.3332 21.5415C33.3228 21.5519 33.3123 21.5519 33.3123 21.5623C33.3228 21.5728 33.3228 21.5832 33.3332 21.5832C33.3436 21.5832 33.354 21.5728 33.354 21.5623C33.354 21.5519 33.3436 21.5415 33.3332 21.5415Z" fill="#5D9F44"/>
<path d="M21.3436 36.708C20.9061 36.708 20.4686 36.7184 20.0311 36.7184L20.0415 36.6872C20.0415 36.1768 20.0207 35.6559 20.0415 35.1455C20.0623 34.5934 19.854 34.1768 19.3853 33.8851C19.479 33.2393 19.3853 32.5934 19.4373 31.958C19.8436 32.0413 20.2394 32.0518 20.6457 31.958C20.6457 32.4788 20.6665 32.9997 20.6457 33.5205C20.6457 33.7184 20.6873 33.8538 20.854 33.9788C21.1769 34.2184 21.3436 34.5518 21.354 34.9476C21.3644 35.5413 21.354 36.1247 21.3436 36.708Z" fill="#885441"/>
<path d="M20.5833 0.166504C21.2499 0.301921 21.5937 0.781087 21.8124 1.36442C21.8645 1.51025 21.8749 1.6665 21.9062 1.81234C21.8749 2.0415 21.8541 2.26025 21.8228 2.48942C21.7708 2.59359 21.7187 2.69775 21.6666 2.7915C21.2812 3.45817 20.6978 3.7915 19.927 3.73942C19.2291 3.69775 18.6978 3.38525 18.3958 2.729C18.677 2.64567 18.9687 2.78109 19.2603 2.69775C20.427 2.36442 20.9166 1.42692 20.5833 0.166504Z" fill="#F5A445"/>
<path d="M6.70833 21.5938C6.09375 21.5729 5.5 21.4792 5.05208 20.9896C4.92708 20.8438 4.78125 20.7083 4.75 20.5C4.94792 20.5 5.13542 20.5 5.33333 20.5C6.08333 20.5104 6.57292 20.1146 6.89583 19.4792C7.14583 18.9792 7.07292 18.4583 6.94792 17.9375C7.6875 18.1771 8.11458 18.6875 8.22917 19.4375C8.35417 20.2188 8.01042 20.8125 7.39583 21.2708C7.1875 21.3438 6.98958 21.4271 6.78125 21.5C6.75 21.5312 6.6875 21.5313 6.70833 21.5938Z" fill="#5D9F44"/>
<path d="M5.80192 17.9373C5.15609 17.8123 4.604 17.5519 4.2915 16.9269C4.354 16.8332 4.44775 16.8436 4.53109 16.8644C5.62484 17.0311 6.5415 16.1665 6.56234 15.1665C6.56234 14.8957 6.4165 14.6248 6.56234 14.354C7.43734 14.6769 7.89567 15.5207 7.729 16.4165C7.59359 17.1353 7.11442 17.5519 6.51025 17.8644C6.28109 17.8853 6.0415 17.9061 5.80192 17.9373Z" fill="#F5A445"/>
<path d="M32.9167 7.25C33.6458 7.5 34.0313 8.05208 34.125 8.77083C34.2188 9.51042 33.8958 10.0938 33.3021 10.5313C33.2813 10.5625 33.25 10.5833 33.2292 10.6146C32.9583 10.5521 32.8333 10.875 32.5833 10.8542C32.4583 10.8542 32.3229 10.8542 32.1979 10.8438C31.4792 10.7708 30.9271 10.4479 30.625 9.76042C30.8437 9.78125 31.0625 9.84375 31.2708 9.8125C32.4271 9.66667 33.1875 8.625 32.9062 7.52083C32.875 7.42708 32.7812 7.33333 32.9167 7.25Z" fill="#5D9F44"/>
<path d="M24.3437 0.6875C25.1667 0.979167 25.6354 1.76042 25.5104 2.61458C25.5 2.67708 25.5312 2.70833 25.5729 2.73958C25.4479 2.98958 25.3125 3.23958 25.1875 3.48958C24.7917 4.05208 24.2188 4.3125 23.5521 4.25C22.875 4.1875 22.3333 3.86458 22.0625 3.19792C22.1667 3.19792 22.2708 3.19792 22.375 3.20833C23.4271 3.34375 24.3229 2.5625 24.3542 1.5C24.3438 1.23958 24.2187 0.958333 24.3437 0.6875Z" fill="#5D9F44"/>
<path d="M30.6458 4.32275C31.927 4.86442 32.2708 6.17692 31.4166 7.30192C31.2603 7.52067 30.9791 7.56234 30.802 7.76025C29.7395 8.12484 28.7916 7.78109 28.3958 6.86442C28.5416 6.86442 28.677 6.854 28.8228 6.86442C29.6978 6.96859 30.5208 6.31234 30.7187 5.31234C30.7708 4.979 30.5937 4.65609 30.6458 4.32275Z" fill="#5D9F44"/>
<path d="M11.229 27.5205C10.6978 27.8122 10.1665 28.0309 9.5415 27.833C9.0415 27.6663 8.64567 27.3851 8.4165 26.9059C8.45817 26.8434 8.52067 26.8538 8.58317 26.8643C9.19775 26.9788 9.729 26.7809 10.1665 26.3538C10.7707 25.7705 10.7394 25.0413 10.5936 24.3018C11.6769 24.6455 12.1457 25.7184 11.7186 26.833C11.5728 27.0413 11.4373 27.2497 11.2915 27.458C11.2811 27.4684 11.2498 27.4997 11.229 27.5205Z" fill="#5D9F44"/>
<path d="M34.7603 14.3228C35.5416 14.5623 36.0312 15.2707 36.0207 16.1248C35.9999 16.9165 35.427 17.6457 34.6458 17.854C34.5416 17.8853 34.4478 17.9061 34.3437 17.9373C34.0937 17.9061 33.8437 17.8853 33.6041 17.854C33.1458 17.6248 32.6978 17.3853 32.5208 16.8436C32.5728 16.8436 32.6249 16.8332 32.677 16.8436C33.552 16.9894 34.2707 16.6144 34.6666 15.8228C34.9166 15.3332 34.8333 14.8332 34.7603 14.3228Z" fill="#F5A445"/>
<path d="M34.3124 10.6768C35.052 10.9268 35.4478 11.4788 35.5312 12.2184C35.6145 12.9684 35.2812 13.5726 34.6458 13.9788C34.5312 14.0518 34.4062 14.1143 34.2812 14.1872C34.0416 14.2184 33.802 14.2393 33.5624 14.2705C32.8958 14.1351 32.3124 13.8747 32.052 13.1768C32.0728 13.1768 32.1041 13.1768 32.1249 13.1768C33.4062 13.5205 34.677 12.2601 34.3124 10.9476C34.2812 10.8643 34.1874 10.7601 34.3124 10.6768Z" fill="#5D9F44"/>
<path d="M27.677 2.07275C28.7916 2.46859 29.1978 3.44775 28.7603 4.68734C28.5833 4.88525 28.3958 5.09359 28.2187 5.2915C27.2499 5.98942 26.0416 5.729 25.4895 4.69775C25.5416 4.61442 25.6145 4.65609 25.6874 4.65609C26.3958 4.69775 26.9999 4.49984 27.427 3.88525C27.8437 3.32275 27.7916 2.70817 27.677 2.07275Z" fill="#5D9F44"/>
<path d="M8.58317 24.8643C8.27067 24.8851 7.95817 24.9893 7.63525 24.9476C6.96859 24.8643 6.44775 24.5622 6.1665 23.9268C6.33317 23.9268 6.49984 23.9268 6.6665 23.9268C7.4165 23.9163 7.979 23.5726 8.30192 22.8955C8.5415 22.3955 8.5415 21.8747 8.34359 21.3643C8.71859 21.4268 8.99984 21.6455 9.229 21.9372C9.80192 22.6455 9.80192 23.3747 9.229 24.3226C8.99984 24.4372 8.82275 24.6143 8.64567 24.7913C8.61442 24.8018 8.56234 24.8018 8.58317 24.8643Z" fill="#5D9F44"/>
<path d="M14.4999 29.3853C14.1666 29.7082 13.8228 30.0103 13.3437 30.104C12.5312 30.2603 11.7812 29.9165 11.3645 29.1769C11.4166 29.0832 11.5103 29.0728 11.6041 29.0936C12.5312 29.2707 13.3333 28.5311 13.552 27.8748C13.7083 27.4165 13.6145 26.9894 13.5416 26.5415C13.7187 26.5936 13.8749 26.6665 14.0208 26.7707C14.6978 27.2498 14.8749 27.9165 14.802 28.6978C14.6978 28.9061 14.5937 29.1144 14.4895 29.3228C14.4999 29.3436 14.4999 29.3644 14.4999 29.3853Z" fill="#5D9F44"/>
<path d="M20.6353 31.9687C20.229 32.0625 19.8332 32.0521 19.4269 31.9687C18.9894 31.7187 18.5415 31.4792 18.3853 30.9479C19.0936 31.1563 19.6873 30.9375 20.1873 30.4375C20.7603 29.8646 20.8228 29.1771 20.5832 28.4375C21.229 28.5625 21.5415 29.0521 21.8332 29.5833C21.8644 29.8229 21.8853 30.0625 21.9165 30.3021C21.8019 31.0937 21.3644 31.6354 20.6353 31.9687Z" fill="#F5A445"/>
<path d="M18.1666 30.3021C17.8645 30.9583 17.3853 31.4062 16.6458 31.5417C15.8853 31.6771 15.0208 31.2083 14.7395 30.4896C15.6041 30.7083 16.4478 30.3021 16.8749 29.5104C17.1458 29 17.0208 28.4896 16.9895 27.9688C17.7708 28.2396 18.1458 28.8333 18.2499 29.625C18.2291 29.8437 18.1978 30.0729 18.1666 30.3021Z" fill="#5D9F44"/>
<path d="M21.9166 30.2916C21.8853 30.052 21.8645 29.8124 21.8333 29.5728C22.177 28.177 23.0937 27.5833 24.3228 27.9687C24.3749 28.4374 24.4687 28.9166 24.2499 29.3749C23.8541 30.2499 23.1562 30.6145 22.2187 30.552C22.177 30.4895 22.1145 30.4791 22.0416 30.4791C21.9999 30.427 21.9583 30.3541 21.9166 30.2916Z" fill="#63A849"/>
<path d="M16.9894 27.9584C17.0207 28.4792 17.1457 28.9896 16.8748 29.5C16.4478 30.2917 15.604 30.6979 14.7394 30.4792C14.5103 30.1459 14.5519 29.7604 14.5103 29.3854C14.5311 29.375 14.5519 29.3646 14.5623 29.3542C14.5415 29.3438 14.5311 29.3229 14.5103 29.3125C14.6144 29.1042 14.7186 28.8959 14.8228 28.6875C15.3853 27.9792 16.0832 27.6563 16.9894 27.9584Z" fill="#63A849"/>
<path d="M8.65622 24.8019C8.83331 24.6144 9.01039 24.4478 9.23956 24.3332C9.69789 24.2498 10.1458 24.0936 10.6041 24.3019C10.75 25.0519 10.7812 25.7707 10.1771 26.354C9.72914 26.7811 9.20831 26.979 8.59372 26.8644C8.52081 26.854 8.46872 26.8436 8.42706 26.9061C8.02081 26.1978 8.19789 25.5311 8.58331 24.8748H8.57289C8.60414 24.8436 8.63539 24.8228 8.65622 24.8019Z" fill="#63A849"/>
<path d="M28.2187 5.29169C28.3958 5.09378 28.5833 4.88544 28.7604 4.68753C29.3333 4.27086 29.9479 4.08336 30.6458 4.32294C30.5938 4.65628 30.7708 4.97919 30.7083 5.31253C30.5104 6.31253 29.6875 6.96878 28.8125 6.86461C28.6771 6.84378 28.5313 6.86461 28.3854 6.86461C28.1458 6.45836 28.1354 6.03128 28.2396 5.59378C28.2604 5.48961 28.375 5.38544 28.2187 5.29169Z" fill="#63A849"/>
<path d="M34.3124 10.6771C34.1769 10.7604 34.2707 10.8646 34.3019 10.9583C34.6665 12.2708 33.3957 13.5312 32.1144 13.1875C32.0936 13.1771 32.0624 13.1875 32.0415 13.1875C31.854 12.8438 31.8124 12.5 31.8644 12.1042C31.9374 11.5729 32.2811 11.2396 32.5832 10.8542C32.8332 10.875 32.9582 10.5521 33.229 10.6146C33.2499 10.5833 33.2811 10.5625 33.3019 10.5312C33.6353 10.5729 33.9894 10.5 34.3124 10.6771Z" fill="#63A849"/>
<path d="M16.9792 0.666384C16.9896 1.07263 17.1146 1.46847 17 1.88513C16.6979 2.94763 15.6875 3.39555 14.7812 3.18722C14.5937 3.14555 14.5833 2.97888 14.5833 2.81222C14.5729 2.77055 14.5625 2.72888 14.5 2.72888C14.5313 2.28097 14.5521 1.83305 14.8125 1.4268C15.2604 0.718467 16.0833 0.426801 16.9792 0.666384Z" fill="#63A849"/>
<path d="M6.78106 10.5312C7.10397 10.75 7.09356 11.1354 7.07273 11.4271C6.96856 12.7604 5.85397 13.4479 4.74981 13.1771C4.16647 12.2292 4.82272 10.6146 6.36439 10.5417C6.47897 10.5312 6.59356 10.5312 6.70814 10.5312C6.71856 10.5521 6.72897 10.5625 6.73939 10.5833C6.74981 10.5625 6.76022 10.5521 6.78106 10.5312Z" fill="#63A849"/>
<path d="M27.6771 2.07257C27.7917 2.70799 27.8437 3.32257 27.4271 3.88507C26.9896 4.49966 26.3958 4.69757 25.6875 4.65591C25.6146 4.65591 25.5417 4.61424 25.4896 4.69757C25.3646 4.57257 25.375 4.38507 25.3125 4.23924C25.2083 3.99966 25.3646 3.72882 25.1875 3.49966C25.3125 3.24966 25.4479 2.99966 25.5729 2.74966C25.9167 2.41632 26.2604 2.10382 26.7708 2.01007C27.0833 1.94757 27.375 1.98924 27.6771 2.07257Z" fill="#63A849"/>
<path d="M13.5519 26.5312C13.6144 26.9791 13.7186 27.4062 13.5624 27.8645C13.3436 28.5312 12.5415 29.2708 11.6144 29.0833C11.5207 29.0624 11.4374 29.0728 11.3749 29.1666C11.0311 28.6353 11.1561 28.0728 11.2394 27.5103C11.3019 27.5208 11.3124 27.4791 11.3124 27.4374C11.4582 27.2291 11.5936 27.0208 11.7394 26.8124C11.8332 26.8333 11.9061 26.7812 11.9894 26.7291C12.4686 26.4374 12.9894 26.3437 13.5519 26.5312Z" fill="#63A849"/>
<path d="M8.35417 21.3747C8.55209 21.8955 8.55209 22.4163 8.31251 22.9059C7.98959 23.583 7.42709 23.9268 6.67709 23.9372C6.51042 23.9372 6.34376 23.9372 6.17709 23.9372C5.81251 23.1976 5.92709 22.4268 6.48959 21.8538C6.57292 21.7705 6.64584 21.6872 6.71876 21.6038H6.70834C6.75001 21.5934 6.79167 21.583 6.79167 21.5205C7.00001 21.4476 7.19792 21.3643 7.40626 21.2913C7.71876 21.3018 8.04167 21.2184 8.35417 21.3747Z" fill="#63A849"/>
<path d="M18.1665 30.3017C18.1978 30.0725 18.229 29.8434 18.2603 29.6246C18.8019 28.5413 19.5936 28.135 20.5936 28.4475C20.8436 29.1871 20.7707 29.8746 20.1978 30.4475C19.6978 30.9475 19.104 31.1663 18.3957 30.958C18.2082 30.7705 18.2811 30.4996 18.1665 30.3017Z" fill="#FFD5A4"/>
<path d="M13.5519 2.07292C13.5832 2.26042 13.6144 2.45834 13.6457 2.64584C13.7915 3.89584 12.4998 4.96875 11.3228 4.60417C11.2915 4.60417 11.2603 4.60417 11.229 4.60417C11.2811 4.40625 11.1561 4.22917 11.1457 4.04167C11.0415 2.64584 12.1561 1.72917 13.5519 2.07292Z" fill="#63A849"/>
<path d="M33.5936 17.854C33.8436 17.8853 34.0936 17.9061 34.3332 17.9373C34.3436 17.9582 34.3645 17.9894 34.3749 18.0103C34.1353 18.0832 34.2915 18.2707 34.3124 18.3644C34.5832 19.5519 33.479 20.6769 32.4999 20.5207C32.3436 20.4998 32.1874 20.5207 32.0311 20.5207C31.4478 19.3019 32.1665 18.0832 33.5936 17.854Z" fill="#63A849"/>
<path d="M33.5519 14.2708C33.7915 14.2396 34.0311 14.2188 34.2707 14.1875C34.4374 14.2292 34.5936 14.2813 34.7603 14.3229C34.8332 14.8333 34.9165 15.3333 34.6561 15.8333C34.2499 16.625 33.5415 17 32.6665 16.8542C32.6144 16.8438 32.5624 16.8542 32.5103 16.8542C32.104 16.0417 32.354 15.0833 33.0936 14.5729C33.2394 14.4583 33.3957 14.3646 33.5519 14.2708Z" fill="#FFD5A4"/>
<path d="M8.34377 7.25001C8.60418 8.00001 8.51043 8.66668 7.94793 9.25001C7.44793 9.78126 6.84377 9.93751 6.14585 9.75001C5.81252 9.12501 5.91668 8.33335 6.40627 7.77085C6.88543 7.2396 7.65627 7.02085 8.34377 7.25001Z" fill="#63A849"/>
<path d="M6.5624 14.3434C6.41657 14.6143 6.5624 14.8851 6.5624 15.1559C6.55199 16.1559 5.63532 17.0309 4.53115 16.8538C4.4374 16.8434 4.35407 16.833 4.29157 16.9163C3.72907 15.7601 4.29157 14.5622 5.54157 14.2497C5.6249 14.2288 5.71865 14.208 5.80199 14.1768C6.05199 14.208 6.30199 14.2393 6.54157 14.2601C6.55199 14.3018 6.5624 14.3226 6.5624 14.3434Z" fill="#FFD5A4"/>
<path d="M5.80189 17.9373C6.04147 17.9061 6.28105 17.8853 6.52064 17.854C6.66647 17.8853 6.81231 17.9165 6.95814 17.9582C7.08314 18.479 7.15606 18.9998 6.90606 19.4998C6.58314 20.1353 6.09355 20.5311 5.34355 20.5207C5.14564 20.5207 4.95814 20.5207 4.76022 20.5207C4.31231 19.6873 4.63522 18.6144 5.46855 18.1353C5.57272 18.0623 5.68731 17.9998 5.80189 17.9373Z" fill="#63A849"/>
<path d="M30.7916 7.7601C30.9687 7.56218 31.2604 7.53093 31.4062 7.30176C31.9062 7.16635 32.3958 7.09343 32.9062 7.23926C32.7812 7.3226 32.8646 7.42676 32.8854 7.5101C33.1666 8.61426 32.3958 9.64551 31.25 9.80176C31.0416 9.83301 30.8229 9.77051 30.6041 9.74968C30.3125 9.18718 30.3646 8.64551 30.6458 8.10385C30.7083 7.98926 30.8333 7.90593 30.7916 7.7601Z" fill="#63A849"/>
<path d="M24.3436 0.6875C24.2186 0.958333 24.3436 1.22917 24.3332 1.5C24.3123 2.5625 23.4165 3.34375 22.354 3.20833C22.2498 3.19792 22.1457 3.19792 22.0415 3.19792C21.8853 2.98958 21.8748 2.72917 21.8228 2.48958C21.854 2.26042 21.8748 2.04167 21.9061 1.8125C22.2082 1.19792 22.6353 0.729167 23.354 0.59375C23.7082 0.53125 24.0311 0.5625 24.3436 0.6875Z" fill="#63A849"/>
<path d="M10.6144 4.31222C10.6873 4.83305 10.7915 5.35388 10.5311 5.8643C10.1977 6.53097 9.66648 6.8643 8.91648 6.8643C8.74981 6.8643 8.58314 6.8643 8.40606 6.8643C8.06231 6.18722 8.13523 5.46847 8.61439 4.90597C9.15606 4.3018 9.81231 4.07263 10.6144 4.31222Z" fill="#63A849"/>
<path d="M20.5833 0.166463C20.9167 1.42688 20.4167 2.36438 19.2604 2.69771C18.9687 2.78105 18.6875 2.65605 18.3958 2.72896C18.3438 2.64563 18.3021 2.57271 18.25 2.48938C18.2187 2.2498 18.1875 2.02063 18.1562 1.78105C18.3438 0.978963 18.7396 0.36438 19.5938 0.135213C19.9271 0.0518797 20.2604 0.072713 20.5833 0.166463Z" fill="#FFD5A4"/>
<path d="M19.3852 33.8955C19.854 34.1872 20.0623 34.6038 20.0415 35.1559C20.0207 35.6663 20.0415 36.1872 20.0415 36.6976C19.604 36.6976 19.1665 36.708 18.729 36.708C18.729 36.1559 18.7082 35.5934 18.729 35.0413C18.7394 34.5518 18.9269 34.1351 19.3852 33.8955Z" fill="#955F48"/>
<path d="M22.052 30.4893C22.1249 30.4893 22.1874 30.4893 22.2291 30.5622C22.1978 30.5934 22.1666 30.6247 22.1458 30.6559C22.0728 30.6143 22.052 30.5518 22.052 30.4893Z" fill="#48CC8E"/>
<path d="M11.302 4.67676C11.3124 4.68717 11.3228 4.69759 11.3437 4.70801C11.3333 4.70801 11.3228 4.70801 11.3228 4.69759C11.3124 4.69759 11.3124 4.68717 11.302 4.67676Z" fill="#6FD5A1"/>
<path d="M11.229 4.604C11.2603 4.604 11.2915 4.604 11.3228 4.604C11.3228 4.62484 11.3123 4.65609 11.3123 4.67692C11.2811 4.65609 11.2498 4.62484 11.229 4.604Z" fill="#454545"/>
<path d="M14.5 2.72889C14.5625 2.71847 14.5729 2.77055 14.5833 2.81222C14.5521 2.79139 14.5312 2.76014 14.5 2.72889Z" fill="#454545"/>
<path d="M6.78117 10.5309C6.77075 10.5413 6.76033 10.5622 6.7395 10.5726C6.72908 10.5518 6.71867 10.5413 6.70825 10.5205C6.72909 10.5309 6.74992 10.5309 6.78117 10.5309Z" fill="#454545"/>
<path d="M28.3541 26.8957C28.1666 26.3749 28.104 25.854 28.3228 25.3124C28.6665 24.4895 29.6978 23.9374 30.6353 24.302C30.677 24.7811 30.7915 25.2707 30.552 25.7395C30.1874 26.479 29.6041 26.8749 28.7707 26.8853C28.6353 26.8957 28.4999 26.8957 28.3541 26.8957Z" fill="#63A849"/>
<path d="M25.2603 28.6767C25.1978 27.9579 25.3541 27.3121 25.9583 26.8537C26.5103 26.4371 27.1041 26.3121 27.7603 26.5829C27.6666 26.6454 27.6874 26.7287 27.7083 26.8225C27.9374 28.0517 27.2603 28.9892 26.0416 29.1454C25.5103 29.2183 25.3958 29.1454 25.2603 28.6767Z" fill="#63A849"/>
<path d="M30.6354 23.9375C30.0209 22.6875 30.875 21.2917 32.25 21.2813C32.3959 21.2813 32.5313 21.2812 32.6771 21.2917C32.9688 21.5833 33.0313 22.2917 32.8125 22.7917C32.4063 23.7708 31.6042 24.0208 30.6354 23.9375Z" fill="#63A849"/>
<path d="M33.3333 21.5415C33.3438 21.5519 33.3438 21.5519 33.3542 21.5623C33.3438 21.5728 33.3333 21.5832 33.3333 21.5832C33.3229 21.5832 33.3125 21.5728 33.3125 21.5623C33.3125 21.5519 33.3229 21.5415 33.3333 21.5415Z" fill="#454545"/>
<path d="M31.4998 24.8748C31.479 24.8644 31.4686 24.8436 31.4478 24.8332C31.4582 24.8332 31.4686 24.8228 31.479 24.8228C31.4894 24.8332 31.4894 24.854 31.4998 24.8748Z" fill="#454545"/>
<path d="M6.79157 21.5205C6.79157 21.5726 6.76032 21.5934 6.70824 21.6038C6.68741 21.5309 6.74991 21.5309 6.79157 21.5205Z" fill="#454545"/>
<path d="M33.2917 10.5205C33.2708 10.5518 33.2396 10.5726 33.2188 10.6038C33.2396 10.583 33.2708 10.5518 33.2917 10.5205Z" fill="#454545"/>
<path d="M11.3019 27.4478C11.3019 27.4998 11.2811 27.5311 11.229 27.5207C11.2498 27.4998 11.2811 27.4686 11.3019 27.4478Z" fill="#454545"/>
<path d="M8.65621 24.8018C8.62496 24.8226 8.60413 24.8538 8.57288 24.8747C8.56246 24.8018 8.61455 24.8018 8.65621 24.8018Z" fill="#454545"/>
<path d="M14.5103 29.3228C14.5311 29.3332 14.5415 29.354 14.5623 29.3644C14.5415 29.3748 14.5207 29.3853 14.5103 29.3957C14.4998 29.3644 14.4998 29.3436 14.5103 29.3228Z" fill="#454545"/>
</g>
<defs>
<clipPath id="clip0_331_1282">
<rect width="40" height="40" fill="white"/>
</clipPath>
</defs>
</svg>
