<svg width="384" height="384" viewBox="0 0 384 384" fill="none" xmlns="http://www.w3.org/2000/svg">
<g clip-path="url(#clip0_1942_1811)">
<path d="M309.8 0C315 1.7 320.5 2.8 325.3 5.1C345.3 14.8 355.7 37 350.8 58.6C345.9 80 326.6 95.7 304.5 95.8C218.8 95.9 133.1 95.9 47.3 95.8C24.2 95.8 4.60002 78.8 0.600024 56C0.500024 55.3 0.100024 54.6 -0.0999756 53.9C-0.0999756 49.9 -0.0999756 45.9 -0.0999756 41.9C0.100024 41.2 0.500024 40.5 0.600024 39.8C4.50002 20.5 16 7.9 34.7 1.8C37.2 1.1 39.6 0.6 42 0C131.3 0 220.5 0 309.8 0ZM47.9 32C39 32 32 39 32.1 47.9C32.1 56.8 39.1 63.7 48.1 63.7C57 63.7 64 56.7 63.9 47.7C63.9 38.9 56.9 32 47.9 32ZM112 63.8C120.9 63.8 128 56.8 128.1 48C128.1 39.2 121 32.1 112.1 32.1C103.2 32.1 96.1 39.1 96.1 47.9C96 56.7 103.1 63.8 112 63.8Z" fill="#5D9F44"/>
<path d="M384 360C382.1 364.2 380.7 368.7 378.2 372.4C373.3 379.5 366 383.1 357.4 383.2C300.5 383.3 243.7 383.4 186.8 383.2C165.7 383.1 153.1 359.8 164.1 341.9C192.1 296.3 220.2 250.8 248.3 205.3C259.6 187 284.3 187 295.6 205.4C323.8 251 351.9 296.6 380 342.3C381.7 345 382.6 348.2 383.9 351.1C384 354.1 384 357.1 384 360ZM288 271.6C288 263.8 288.1 255.9 288 248.1C287.9 238.8 281.1 231.7 272.2 231.6C263.4 231.5 256.1 238.4 256 247.7C255.8 263.5 255.8 279.3 256 295.1C256.1 304.7 263.3 311.6 272.4 311.4C281.3 311.2 287.9 304.2 288 294.8C288 287 288 279.3 288 271.6ZM271.9 359.3C280.7 359.4 287.9 352.3 288 343.5C288.1 334.6 280.8 327.2 271.9 327.3C263.2 327.4 256 334.6 255.9 343.3C256 352 263.2 359.2 271.9 359.3Z" fill="#FDEFDC"/>
<path d="M0 169.9C1.7 161.5 4.3 153.5 9.8 146.7C19.1 135 31.1 128.4 46.1 127.9C51.7 127.7 57.3 127.8 63 127.8C142.9 127.8 222.7 127.8 302.6 127.8C326.3 127.8 345.3 142 350.6 164.1C354.9 181.9 350.1 197.3 336.9 210.7C334.5 206.9 332.4 203.5 330.2 200.1C326.1 193.7 322.4 186.9 317.6 181.1C291.9 150.1 243.2 153.4 221.9 187.6C215 198.7 208.1 209.9 201.3 221.1C200.1 223 198.9 223.8 196.6 223.8C147.2 223.7 97.9 223.9 48.5 223.7C24.3 223.6 5.2 207.3 0.8 183.7C0.7 183.1 0.4 182.6 0.1 182C0 177.9 0 173.9 0 169.9ZM111.8 191.6C120.5 191.7 127.9 184.5 128 175.8C128.1 167.2 120.8 159.8 112.1 159.6C103.4 159.5 96 166.8 96 175.5C95.9 184.3 103.1 191.5 111.8 191.6ZM32.1 175.8C32.2 184.6 39.4 191.7 48.2 191.6C57 191.5 64 184.3 63.9 175.5C63.8 166.7 56.5 159.5 47.8 159.7C39 159.8 32 167 32.1 175.8Z" fill="#5D9F44"/>
<path d="M0 297.2C1.9 291.7 3.1 285.8 5.8 280.8C14.7 264.7 28.7 255.8 47.2 255.6C90.5 255.2 133.9 255.5 177.2 255.5C177.8 255.5 178.4 255.6 179.6 255.7C178.7 257.2 178.1 258.4 177.4 259.5C165.8 278.4 154.2 297.3 142.5 316.1C135.7 326.9 129 337.7 128.4 351.3C126.7 351.3 125.4 351.3 124 351.3C99.3 351.3 74.5 351.3 49.8 351.3C24.1 351.3 5.7 336.1 0.6 310.9C0.5 310.3 0.2 309.7 0 309.2C0 305.2 0 301.2 0 297.2ZM96 303.5C96 312.2 103.4 319.5 112.1 319.4C120.8 319.3 128.1 311.9 128 303.3C127.9 294.6 120.6 287.4 111.9 287.4C103.1 287.5 96 294.7 96 303.5ZM63.9 303.4C63.9 294.6 56.8 287.4 48 287.4C39.2 287.4 32.1 294.5 32.1 303.4C32.1 312.2 39.2 319.4 48 319.4C56.8 319.4 63.9 312.2 63.9 303.4Z" fill="#5D9F44"/>
<path d="M47.9 32C56.8 32 63.8 38.9 63.9 47.8C63.9 56.7 57 63.7 48.1 63.8C39.2 63.8 32.2 56.9 32.1 48C32.1 39 39 32.1 47.9 32Z" fill="white"/>
<path d="M112 63.8C103.1 63.8 96 56.7 96.1 47.9C96 39 103.2 32 112 32C120.9 32 128 39.1 128 47.9C128 56.7 120.8 63.8 112 63.8Z" fill="white"/>
<path d="M288 271.6C288 279.3 288 287 288 294.8C287.9 304.2 281.3 311.3 272.4 311.4C263.3 311.6 256.1 304.7 256 295.1C255.8 279.3 255.8 263.5 256 247.7C256.1 238.4 263.4 231.4 272.2 231.6C281.1 231.7 287.9 238.8 288 248.1C288.1 255.9 288 263.7 288 271.6Z" fill="#F5A445"/>
<path d="M271.9 359.3C263.2 359.2 256 352 256 343.3C256 334.6 263.3 327.4 272 327.3C280.8 327.2 288.2 334.6 288.1 343.5C287.9 352.3 280.6 359.3 271.9 359.3Z" fill="#F5A445"/>
<path d="M111.8 191.6C103 191.5 95.9 184.3 96 175.5C96.1 166.8 103.5 159.5 112.1 159.6C120.8 159.7 128.1 167.1 128 175.8C127.9 184.5 120.6 191.7 111.8 191.6Z" fill="white"/>
<path d="M32.1 175.8C32 167 39 159.8 47.8 159.6C56.5 159.5 63.8 166.6 63.9 175.4C64 184.2 56.9 191.5 48.2 191.5C39.4 191.7 32.2 184.6 32.1 175.8Z" fill="white"/>
<path d="M96 303.5C96 294.7 103.1 287.5 111.9 287.4C120.6 287.4 128 294.5 128 303.3C128.1 311.9 120.8 319.3 112.1 319.4C103.4 319.5 96.1 312.2 96 303.5Z" fill="white"/>
<path d="M63.9 303.4C63.9 312.2 56.8 319.4 48 319.4C39.2 319.4 32.1 312.2 32.1 303.4C32.1 294.6 39.2 287.4 48 287.4C56.8 287.4 63.9 294.6 63.9 303.4Z" fill="white"/>
</g>
<defs>
<clipPath id="clip0_1942_1811">
<rect width="384" height="384" fill="white"/>
</clipPath>
</defs>
</svg>
