<svg width="48" height="48" viewBox="0 0 48 48" fill="none" xmlns="http://www.w3.org/2000/svg">
<rect width="48" height="48" rx="24" fill="#F5A445"/>
<path d="M32.04 18.8199L26.28 14.7899C24.71 13.6899 22.3 13.7499 20.79 14.9199L15.78 18.8299C14.78 19.6099 13.99 21.2099 13.99 22.4699V29.3699C13.99 31.9199 16.06 33.9999 18.61 33.9999H29.39C31.94 33.9999 34.01 31.9299 34.01 29.3799V22.5999C34.01 21.2499 33.14 19.5899 32.04 18.8199ZM24.75 29.9999C24.75 30.4099 24.41 30.7499 24 30.7499C23.59 30.7499 23.25 30.4099 23.25 29.9999V26.9999C23.25 26.5899 23.59 26.2499 24 26.2499C24.41 26.2499 24.75 26.5899 24.75 26.9999V29.9999Z" fill="white"/>
</svg>
