<svg width="35" height="35" viewBox="0 0 35 35" fill="none" xmlns="http://www.w3.org/2000/svg">
<circle cx="17.5" cy="17.5" r="17.5" fill="#F5A445"/>
<path d="M16.875 22.925V11.075C16.875 9.95 16.4 9.5 15.2 9.5H12.175C10.975 9.5 10.5 9.95 10.5 11.075V22.925C10.5 24.05 10.975 24.5 12.175 24.5H15.2C16.4 24.5 16.875 24.05 16.875 22.925Z" stroke="white" stroke-width="1.5" stroke-linecap="round" stroke-linejoin="round"/>
<path d="M25.5 22.925V11.075C25.5 9.95 25.025 9.5 23.825 9.5H20.8C19.6083 9.5 19.125 9.95 19.125 11.075V22.925C19.125 24.05 19.6 24.5 20.8 24.5H23.825C25.025 24.5 25.5 24.05 25.5 22.925Z" stroke="white" stroke-width="1.5" stroke-linecap="round" stroke-linejoin="round"/>
</svg>
