<svg width="20" height="20" viewBox="0 0 20 20" fill="none" xmlns="http://www.w3.org/2000/svg">
<path d="M9.99984 1.66667C5.40817 1.66667 1.6665 5.40833 1.6665 10C1.6665 14.5917 5.40817 18.3333 9.99984 18.3333C14.5915 18.3333 18.3332 14.5917 18.3332 10C18.3332 5.40833 14.5915 1.66667 9.99984 1.66667ZM13.9832 8.08333L9.25817 12.8083C9.1415 12.925 8.98317 12.9917 8.8165 12.9917C8.64984 12.9917 8.4915 12.925 8.37484 12.8083L6.0165 10.45C5.77484 10.2083 5.77484 9.80833 6.0165 9.56667C6.25817 9.325 6.65817 9.325 6.89984 9.56667L8.8165 11.4833L13.0998 7.2C13.3415 6.95833 13.7415 6.95833 13.9832 7.2C14.2248 7.44167 14.2248 7.83333 13.9832 8.08333Z" fill="#F5A445"/>
</svg>
