<svg width="40" height="40" viewBox="0 0 40 40" fill="none" xmlns="http://www.w3.org/2000/svg">
<g clip-path="url(#clip0_331_1382)">
<path d="M32.3543 5.68766C32.771 5.68766 33.1877 5.67725 33.5939 5.67725C34.1356 5.67725 34.3127 5.86475 34.3127 6.396C34.3127 8.7085 34.3231 11.0106 34.3022 13.3231C34.3022 13.8127 34.4481 14.1772 34.8022 14.521C36.4064 16.0939 37.9793 17.6877 39.5627 19.271C39.7085 19.4168 39.8439 19.5731 39.9793 19.7189C39.9793 19.8752 39.9793 20.0314 39.9793 20.1877C39.2293 20.9481 38.4793 21.7189 37.7189 22.4793C36.7085 23.4897 35.7085 24.5002 34.6877 25.5002C34.4168 25.771 34.3022 26.0522 34.3022 26.4272C34.3127 28.7502 34.3127 31.0731 34.3022 33.3856C34.3022 34.0835 34.1564 34.2293 33.4585 34.2293C33.0835 34.2293 32.7085 34.2189 32.3335 34.2189C32.646 33.9897 32.7293 33.6668 32.7293 33.3022C32.7293 30.9168 32.7502 28.521 32.7085 26.1356C32.6981 25.5106 32.9689 25.1356 33.396 24.8022C33.4689 24.7502 33.5418 24.6981 33.6147 24.6356C35.021 23.2606 36.4272 21.8752 37.8335 20.4897C38.2189 20.1147 38.2189 19.8022 37.8439 19.4168C37.4689 19.0314 37.0522 18.6668 36.6564 18.3022C35.5106 17.2085 34.3856 16.0939 33.2606 14.9897C33.2189 14.9585 33.1877 14.9064 33.146 14.8856C32.771 14.6981 32.7189 14.3856 32.7189 14.0002C32.7293 11.5522 32.7189 9.09391 32.7293 6.646C32.7397 6.271 32.6772 5.92725 32.3543 5.68766Z" fill="#FDC065"/>
<path d="M20.271 0.0104167C20.8335 0.5625 21.4064 1.11458 21.9585 1.66667C23.271 2.97917 24.5835 4.29167 25.896 5.60417C25.5731 5.80208 25.2189 5.65625 24.8752 5.69792C24.5106 5.75 24.2397 5.59375 23.9793 5.33333C22.7918 4.125 21.5835 2.92708 20.3752 1.71875C19.9897 1.33333 19.6147 0.9375 19.2397 0.541667C19.3856 0.322917 19.5939 0.166667 19.7814 0C19.9585 0.0104167 20.1147 0.0104167 20.271 0.0104167Z" fill="#FDC166"/>
<path d="M19.2605 0.552246C19.6355 0.948079 20.0105 1.34391 20.3959 1.72933C21.5938 2.93766 22.8022 4.12516 24.0001 5.34391C24.2605 5.60433 24.5209 5.76058 24.8959 5.7085C25.2292 5.66683 25.5938 5.81266 25.9167 5.61475C26.2188 5.69808 26.5313 5.7085 26.8438 5.7085C28.6876 5.7085 30.5313 5.7085 32.3647 5.7085C32.698 5.94808 32.7605 6.29183 32.7605 6.66683C32.7605 9.11475 32.7605 11.5731 32.7501 14.021C32.7501 14.396 32.8022 14.7189 33.1772 14.9064C33.2188 14.9272 33.2501 14.9793 33.2917 15.0106C34.4272 16.1147 35.5417 17.2293 36.6876 18.3231C37.0834 18.6981 37.4897 19.0522 37.8751 19.4377C38.2501 19.8231 38.2501 20.1356 37.8647 20.5106C36.4584 21.896 35.0522 23.271 33.6459 24.6564C33.5834 24.7189 33.5001 24.771 33.4272 24.8231C32.9897 25.1668 32.7292 25.5418 32.7397 26.1564C32.7813 28.5418 32.7605 30.9272 32.7605 33.3231C32.7605 33.6877 32.6772 34.0106 32.3647 34.2397C30.2501 34.2397 28.1355 34.2397 26.0209 34.2397C25.6355 34.2397 25.2397 34.2502 24.8542 34.2293C24.5105 34.2085 24.2709 34.3335 24.0313 34.5731C22.6563 35.9689 21.2709 37.3439 19.8855 38.7293C19.6772 38.9377 19.4792 39.1564 19.2709 39.3752C19.1667 39.2814 19.0626 39.1877 18.9584 39.0835C17.4792 37.6043 16.0001 36.1356 14.5313 34.646C14.2397 34.3543 13.9376 34.2293 13.5313 34.2293C11.2084 34.2397 8.8855 34.2397 6.56258 34.2397C5.948 34.2397 5.78133 34.0731 5.78133 33.4481C5.78133 31.1252 5.77091 28.8022 5.78133 26.4793C5.78133 26.0939 5.66675 25.7918 5.3855 25.5106C3.72925 23.8752 2.08341 22.2189 0.447998 20.5835C-0.052002 20.0835 -0.052002 19.8439 0.447998 19.3439C2.10425 17.6877 3.75008 16.0314 5.40633 14.3856C5.66675 14.1252 5.77091 13.8439 5.77091 13.4897C5.7605 11.1564 5.77091 8.81266 5.77091 6.47933C5.77091 5.86475 5.93758 5.68766 6.55216 5.68766C8.8855 5.68766 11.2292 5.68766 13.5626 5.68766C13.9376 5.68766 14.2292 5.57308 14.4897 5.30225C15.9792 3.79183 17.4792 2.30225 18.9792 0.812663C19.0626 0.718913 19.1667 0.635579 19.2605 0.552246ZM24.5105 30.9897C24.6772 30.9793 24.8438 30.9585 25.0105 30.9585C26.8334 30.9585 28.6667 30.9585 30.4897 30.9585C30.9792 30.9585 31.0209 30.9064 31.0209 30.4272C31.0209 28.6043 31.0209 26.771 31.0209 24.9481C31.0209 24.7814 31.0417 24.6147 31.0522 24.4481C31.1042 24.4064 31.1667 24.3856 31.2084 24.3335C32.5626 22.9793 33.9167 21.6147 35.2813 20.271C35.5209 20.0314 35.4584 19.8647 35.2501 19.6564C34.0001 18.4168 32.7501 17.1668 31.5001 15.9168C31.3542 15.771 31.2292 15.6043 31.0417 15.5002C31.0313 15.3335 31.0105 15.1668 31.0105 15.0002C31.0105 13.1772 31.0105 11.3647 31.0105 9.54183C31.0105 9.03141 30.9688 8.98975 30.4584 8.98975C28.6876 8.98975 26.9272 8.97933 25.1563 9.00016C24.7501 9.00016 24.4584 8.896 24.1667 8.60433C22.9688 7.37516 21.7501 6.17725 20.5417 4.9585C20.0209 4.43766 20.0209 4.43766 19.5209 4.94808C18.6251 5.84391 17.7397 6.72933 16.8438 7.61475C16.3855 8.07308 16.0105 8.7085 15.4376 8.92725C14.8751 9.13558 14.1876 8.98975 13.5522 8.98975C12.2292 8.98975 10.9063 8.98975 9.58342 8.98975C9.09383 8.98975 9.05217 9.04183 9.05217 9.521C9.05217 11.3439 9.04175 13.1564 9.06258 14.9793C9.06258 15.3127 8.95842 15.5314 8.72925 15.7606C7.448 17.021 6.18758 18.2918 4.92716 19.5627C4.50008 19.9897 4.50008 19.9897 4.93758 20.4168C5.0105 20.4897 5.08341 20.5627 5.15633 20.6356C6.448 21.9377 7.72925 23.2397 9.02092 24.5314C9.09383 26.3647 9.03133 28.1877 9.05217 30.021C9.05217 30.1772 9.06258 30.3335 9.05217 30.4897C9.02092 30.8439 9.17717 30.9793 9.53133 30.9689C11.3751 30.9585 13.2188 30.9585 15.0626 30.9689C15.2292 30.9689 15.3959 30.9897 15.5626 31.0002C15.6042 31.0627 15.6459 31.1356 15.698 31.1877C17.0417 32.5418 18.3959 33.8856 19.7397 35.2397C19.9688 35.4793 20.1355 35.4377 20.3542 35.2189C21.5001 34.0627 22.6667 32.9064 23.8126 31.7502C24.0522 31.4793 24.323 31.271 24.5105 30.9897Z" fill="#F5A445"/>
<path d="M19.2605 39.3644C19.4688 39.1456 19.6667 38.9269 19.8751 38.7186C21.2605 37.3331 22.6459 35.9581 24.0209 34.5623C24.2605 34.3227 24.5001 34.1977 24.8438 34.2186C25.2292 34.2394 25.6251 34.229 26.0105 34.229C24.2709 35.9686 22.5313 37.7081 20.7813 39.4373C20.1042 40.1144 19.8751 40.104 19.2605 39.3644Z" fill="#FDC166"/>
<path d="M15.5626 30.979C15.3959 30.9686 15.2293 30.9478 15.0626 30.9478C13.2188 30.9478 11.3751 30.9373 9.53134 30.9478C9.17718 30.9478 9.02093 30.8123 9.05218 30.4686C9.06259 30.3123 9.05218 30.1561 9.05218 29.9998C9.03134 28.1665 9.09384 26.3436 9.02093 24.5103C7.72926 23.2082 6.44801 21.9061 5.15634 20.6144C5.08343 20.5415 5.01051 20.4686 4.93759 20.3957C4.50009 19.9582 4.50009 19.9582 4.92718 19.5415C6.19801 18.2707 7.45843 16.9998 8.72926 15.7394C8.95843 15.5103 9.06259 15.2915 9.06259 14.9582C9.04176 13.1353 9.05218 11.3228 9.05218 9.49985C9.05218 9.01026 9.10426 8.9686 9.58343 8.9686C10.9063 8.9686 12.2293 8.9686 13.5522 8.9686C14.1876 8.9686 14.8855 9.11443 15.4376 8.9061C16.0105 8.68735 16.3855 8.05193 16.8438 7.5936C17.7397 6.70818 18.6251 5.81235 19.5209 4.92693C20.0209 4.42693 20.0209 4.42693 20.5418 4.93735C21.7501 6.14568 22.9793 7.35401 24.1668 8.58318C24.4584 8.88526 24.7501 8.98943 25.1563 8.97901C26.9272 8.95818 28.6876 8.9686 30.4584 8.9686C30.9688 8.9686 31.0105 9.01026 31.0105 9.52068C31.0105 11.3436 31.0105 13.1561 31.0105 14.979C31.0105 15.1457 31.0313 15.3123 31.0418 15.479C31.0313 15.4894 31.0209 15.4998 31.0105 15.5103C30.198 13.7082 29.1147 12.104 27.5626 10.854C26.8647 10.3019 26.1668 9.74985 25.323 9.42693C25.2605 9.38526 25.198 9.32276 25.1355 9.29151C22.9376 8.26026 20.6251 7.9061 18.2501 8.2811C14.8543 8.81235 12.1459 10.5415 10.2293 13.3853C8.47926 15.979 7.89593 18.854 8.41676 21.9478C8.91676 24.9165 10.3959 27.3123 12.7188 29.1978C13.3855 29.729 14.0834 30.2186 14.8855 30.5415C15.073 30.7498 15.3751 30.7707 15.5834 30.9373C15.5834 30.9582 15.573 30.9686 15.5626 30.979Z" fill="#5D9F44"/>
<path d="M31.0521 15.4897C31.2396 15.5835 31.3646 15.7606 31.5104 15.9064C32.7604 17.1564 34 18.4064 35.2604 19.646C35.4688 19.8543 35.5312 20.021 35.2917 20.2606C33.9271 21.6147 32.5729 22.9689 31.2188 24.3231C31.1771 24.3647 31.1146 24.396 31.0625 24.4377C31.0521 24.4272 31.0417 24.4168 31.0312 24.4064C31.3542 23.4168 31.6458 22.4168 31.7813 21.3752C31.8958 20.4064 31.8958 19.4481 31.7708 18.4897C31.6458 17.4689 31.3438 16.5002 31.0312 15.5314C31.0417 15.5106 31.0521 15.5002 31.0521 15.4897Z" fill="#5D9F44"/>
<path d="M24.5105 30.9896C24.323 31.2812 24.0522 31.4896 23.823 31.7188C22.6667 32.875 21.5105 34.0312 20.3647 35.1875C20.1459 35.4062 19.9792 35.4479 19.7501 35.2083C18.4063 33.8542 17.0522 32.5104 15.7084 31.1563C15.6563 31.1042 15.6147 31.0312 15.573 30.9687C15.5834 30.9583 15.5938 30.9479 15.6042 30.9375C16.573 31.2396 17.5417 31.5625 18.5626 31.6771C19.5522 31.7917 20.5417 31.8021 21.5313 31.6771C22.5522 31.5521 23.5209 31.25 24.4897 30.9375C24.4897 30.9583 24.5001 30.9687 24.5105 30.9896Z" fill="#5D9F44"/>
<path d="M31.0627 24.4269C31.0522 24.5936 31.0314 24.7603 31.0314 24.9269C31.0314 26.7498 31.0314 28.5832 31.0314 30.4061C31.0314 30.8957 30.9793 30.9373 30.5002 30.9373C28.6772 30.9373 26.8439 30.9373 25.021 30.9373C24.8543 30.9373 24.6877 30.9582 24.521 30.9686C24.5106 30.9582 24.5002 30.9478 24.4897 30.9373C24.5418 30.9061 24.5939 30.8748 24.6564 30.8436C26.521 29.9894 28.1356 28.8228 29.3856 27.1769C30.0522 26.3123 30.5627 25.3644 31.0314 24.3853C31.0418 24.4165 31.0522 24.4165 31.0627 24.4269Z" fill="#5D9F44"/>
<path d="M14.8958 30.552C14.1042 30.229 13.3958 29.7395 12.7292 29.2082C10.4063 27.3228 8.9271 24.927 8.4271 21.9582C7.90626 18.8749 8.4896 15.9895 10.2396 13.3957C12.1667 10.552 14.8646 8.82279 18.2604 8.29154C20.6354 7.91654 22.9583 8.2707 25.1458 9.30195C25.2188 9.3332 25.2708 9.38529 25.3333 9.43737C25.3333 9.54154 25.4271 9.5832 25.4896 9.63529C26.2917 10.2499 27.0521 10.8957 27.7083 11.677C29.3021 13.5624 30.2292 15.7395 30.4583 18.1874C30.6458 20.1665 30.375 22.1249 29.5521 23.9582C28.3021 26.7499 26.3125 28.8228 23.4896 30.0728C21.1354 31.1145 18.6979 31.354 16.1771 30.8228C15.7604 30.7395 15.3542 30.5103 14.8958 30.552ZM26.8229 23.7915C27.4063 23.3645 27.9688 22.8957 28.2083 22.1978C28.8333 20.4165 28.4479 18.6978 26.8125 17.4686C25.5938 16.5415 24.1354 16.229 22.6771 15.9061C22.1563 15.7915 21.6458 15.6874 21.1563 15.4582C20.7917 15.2811 20.5729 15.0624 20.6458 14.6145C20.6875 14.3645 20.6667 14.0936 20.6458 13.8332C20.625 13.5832 20.6771 13.3957 20.9479 13.2811C21.1875 13.1874 21.375 12.9895 21.5104 12.7603C21.6354 12.5415 21.6354 12.3124 21.5313 12.0936C21.4167 11.8645 21.1979 11.8436 20.9688 11.854C20.7604 11.854 20.6354 11.9582 20.5104 12.104C20.3854 12.2603 20.1875 12.354 20 12.2915C19.8125 12.2186 19.6458 12.0624 19.6458 11.8228C19.6458 11.5832 19.8021 11.4478 20.0104 11.3645C20.0833 11.3332 20.1563 11.3124 20.2292 11.2811C20.4479 11.1457 20.5313 10.9374 20.5104 10.6874C20.5 10.4686 20.3854 10.2811 20.1875 10.2499C19.9271 10.1978 19.6563 10.1874 19.3854 10.3124C18.3229 10.8228 18.0521 12.177 18.9167 12.9478C19.3438 13.3228 19.4792 13.6978 19.4167 14.2186C19.4063 14.3436 19.4063 14.479 19.4167 14.604C19.4583 14.927 19.375 15.1874 19.0938 15.3645C18.75 15.552 18.3958 15.6874 18.0104 15.7707C17.0417 15.9999 16.0625 16.1665 15.125 16.5207C13.9375 16.9582 12.8438 17.5415 12.1667 18.677C11.625 19.5832 11.375 20.5311 11.6667 21.604C11.9271 22.552 12.5 23.2186 13.2604 23.7811C13.2604 24.427 13.2604 25.0728 13.2604 25.729C13.2604 26.3645 13.3333 26.4374 13.9792 26.4374C17.6875 26.4374 21.3958 26.4374 25.1042 26.4374C25.4688 26.5728 25.8438 26.4895 26.2188 26.4999C26.6563 26.5103 26.8229 26.3332 26.8229 25.8853C26.8229 25.1874 26.8229 24.4895 26.8229 23.7915Z" fill="#87BD72"/>
<path d="M14.896 30.5519C15.3543 30.4998 15.7606 30.7394 16.1877 30.8332C18.7085 31.3644 21.146 31.1248 23.5002 30.0832C26.3231 28.8332 28.3127 26.7603 29.5627 23.9686C30.3856 22.1353 30.646 20.1769 30.4689 18.1978C30.2397 15.7603 29.3231 13.5832 27.7189 11.6873C27.0627 10.9061 26.3022 10.2498 25.5002 9.64567C25.4272 9.59359 25.3439 9.55192 25.3439 9.44775C26.1877 9.76025 26.896 10.3123 27.5835 10.8748C29.1356 12.1248 30.2189 13.729 31.0314 15.5311C31.3439 16.4998 31.646 17.4686 31.771 18.4894C31.896 19.4582 31.896 20.4165 31.7814 21.3748C31.6564 22.4165 31.3543 23.4165 31.0314 24.4061C30.5627 25.3853 30.0418 26.3332 29.3856 27.1978C28.1356 28.8436 26.521 30.0103 24.6564 30.8644C24.6043 30.8853 24.5418 30.9269 24.4897 30.9582C23.521 31.2707 22.5522 31.5728 21.5314 31.6978C20.5418 31.8228 19.5522 31.8228 18.5627 31.6978C17.5418 31.5728 16.5731 31.2603 15.6043 30.9582C15.3856 30.7811 15.0835 30.7707 14.896 30.5519Z" fill="#73AF5D"/>
<path d="M13.2604 23.7814C12.5 23.2189 11.9271 22.5522 11.6666 21.6043C11.375 20.5314 11.625 19.5835 12.1666 18.6772C12.8437 17.5418 13.9375 16.9585 15.125 16.521C16.0625 16.1772 17.0521 16.0106 18.0104 15.771C18.3958 15.6772 18.75 15.5522 19.0937 15.3647C19.5104 15.8127 20.0625 16.0939 20.5937 16.3752C21.7396 17.0002 23.0104 17.2814 24.25 17.6252C25.1562 17.8647 26 18.2189 26.5625 19.0106C27.2396 19.9585 27.1875 21.396 26.5 22.4897C26.1875 23.0002 25.7291 23.3543 25.3229 23.7606C25.2916 23.771 25.2708 23.771 25.2396 23.7814C21.2604 23.7918 17.2604 23.7814 13.2604 23.7814Z" fill="#FDC166"/>
<path d="M13.2292 23.75C17.8433 23.75 22.4573 23.75 27.0714 23.75C27.0714 24.4559 27.0594 25.1507 27.0834 25.8566C27.0834 26.1103 27.0354 26.3419 26.8912 26.5625C22.6136 26.5625 18.3359 26.5625 14.0583 26.5625C13.3134 26.5625 13.2292 26.4853 13.2292 25.8125C13.2292 25.1287 13.2292 24.4449 13.2292 23.75Z" fill="#FCF5EB"/>
<path d="M25.3439 23.7707C25.7502 23.3644 26.2085 22.9998 26.521 22.4998C27.1981 21.4061 27.2606 19.9582 26.5835 19.0207C26.0106 18.229 25.1669 17.8748 24.271 17.6353C23.021 17.3019 21.7606 17.0103 20.6148 16.3853C20.0835 16.0936 19.5419 15.8228 19.1148 15.3748C19.396 15.1978 19.4794 14.9269 19.4377 14.6144C19.4169 14.4894 19.4273 14.354 19.4377 14.229C19.5002 13.7186 19.3648 13.3436 18.9377 12.9582C18.0731 12.1769 18.3439 10.8228 19.4064 10.3228C19.6669 10.1978 19.9481 10.2082 20.2085 10.2603C20.4064 10.3019 20.521 10.479 20.5314 10.6978C20.5419 10.9478 20.4689 11.1561 20.2502 11.2915C20.1877 11.3332 20.1044 11.3436 20.0314 11.3748C19.8231 11.4582 19.6669 11.5832 19.6669 11.8332C19.6669 12.0728 19.8335 12.229 20.021 12.3019C20.2085 12.3644 20.4064 12.2707 20.5314 12.1144C20.6564 11.9686 20.7814 11.8644 20.9898 11.8644C21.2189 11.8644 21.4481 11.8748 21.5523 12.104C21.6564 12.3228 21.6564 12.5519 21.5314 12.7707C21.396 12.9998 21.2085 13.1978 20.9689 13.2915C20.6981 13.4061 20.6564 13.5832 20.6669 13.8436C20.6877 14.104 20.6981 14.3644 20.6669 14.6248C20.5939 15.0728 20.8231 15.2915 21.1773 15.4686C21.6564 15.6978 22.1773 15.8123 22.6981 15.9165C24.1564 16.229 25.6044 16.5519 26.8335 17.479C28.4585 18.7082 28.8544 20.4269 28.2294 22.2082C27.9794 22.9061 27.4273 23.3748 26.8439 23.8019C26.3335 23.7811 25.8335 23.7811 25.3439 23.7707Z" fill="#F5A445"/>
</g>
<defs>
<clipPath id="clip0_331_1382">
<rect width="40" height="40" fill="white"/>
</clipPath>
</defs>
</svg>
