<svg width="28" height="28" viewBox="0 0 28 28" fill="none" xmlns="http://www.w3.org/2000/svg">
<circle cx="14" cy="14" r="14" fill="#454545"/>
<path d="M14.0002 20.4336C13.7935 20.4336 13.5935 20.4069 13.4268 20.3469C10.8802 19.4736 6.8335 16.3736 6.8335 11.7936C6.8335 9.46023 8.72016 7.56689 11.0402 7.56689C12.1668 7.56689 13.2202 8.00689 14.0002 8.79356C14.7802 8.00689 15.8335 7.56689 16.9602 7.56689C19.2802 7.56689 21.1668 9.46689 21.1668 11.7936C21.1668 16.3802 17.1202 19.4736 14.5735 20.3469C14.4068 20.4069 14.2068 20.4336 14.0002 20.4336ZM11.0402 8.56689C9.2735 8.56689 7.8335 10.0136 7.8335 11.7936C7.8335 16.3469 12.2135 18.8802 13.7535 19.4069C13.8735 19.4469 14.1335 19.4469 14.2535 19.4069C15.7868 18.8802 20.1735 16.3536 20.1735 11.7936C20.1735 10.0136 18.7335 8.56689 16.9668 8.56689C15.9535 8.56689 15.0135 9.04023 14.4068 9.86023C14.2202 10.1136 13.7935 10.1136 13.6068 9.86023C12.9868 9.03356 12.0535 8.56689 11.0402 8.56689Z" fill="white"/>
</svg>
