<svg width="40" height="40" viewBox="0 0 40 40" fill="none" xmlns="http://www.w3.org/2000/svg">
<path d="M23.7813 34.3022C23.6146 34.5731 23.3646 34.7606 23.1459 34.9793C21.7813 36.3439 20.4167 37.7085 19.0521 39.0835C18.9063 39.2293 18.8125 39.3647 18.5938 39.146C17.0313 37.5731 15.4583 36.0106 13.8958 34.4377C13.8646 34.4064 13.8438 34.3543 13.8125 34.3127C13.8334 33.6772 13.8229 33.0418 13.8854 32.4064C13.9271 31.9585 13.8125 31.6877 13.3438 31.6147C12.2396 31.0731 11.4375 30.2606 10.9167 29.146C10.7084 28.6877 10.4584 28.2502 10.2396 27.7918C9.33335 25.9481 9.84377 24.0106 11.5521 22.8439C11.6771 22.9585 11.625 23.1147 11.6354 23.2502C11.6354 24.2189 11.6354 25.1981 11.6354 26.1668C11.6354 26.5731 11.875 26.8231 12.2396 26.8231C12.6042 26.8335 12.875 26.5835 12.875 26.1877C12.875 24.7189 12.8646 23.2606 12.8646 21.7918C12.875 21.6356 12.875 21.4793 12.875 21.3231C12.875 19.3335 12.875 17.3335 12.875 15.3439C12.875 14.6668 13.1563 14.146 13.8021 13.8647C14.4792 14.1147 14.7292 14.6668 14.7396 15.3231C14.7604 17.646 14.75 19.9689 14.75 22.2918C14.75 22.7918 14.9688 23.0627 15.3646 23.0627C15.7709 23.0627 15.9792 22.8022 15.9896 22.3022C16.0209 21.2814 15.9063 20.2606 16.0625 19.2397C16.1667 18.7502 16.4583 18.4168 16.9167 18.2293C17.5833 18.4689 17.8333 19.0106 17.8542 19.6564C17.8854 20.5522 17.8646 21.4481 17.8646 22.3439C17.8646 22.8127 18.0938 23.0731 18.4792 23.0731C18.875 23.0731 19.0938 22.8127 19.1042 22.3543C19.1146 21.7397 19.0521 21.1147 19.1771 20.5002C19.2813 20.0106 19.5729 19.6772 20.0313 19.4897C20.6875 19.7189 20.9167 20.2502 20.9688 20.8752C21.0104 21.3752 20.9688 21.8856 20.9792 22.396C20.9792 22.8335 21.2188 23.0835 21.5938 23.0835C21.9792 23.0835 22.2084 22.8335 22.2188 22.4064C22.2292 21.9793 22.1979 21.5522 22.2917 21.1356C22.3959 20.646 22.6875 20.3127 23.1459 20.1252C23.5521 20.2606 23.7917 20.5522 23.9584 20.9377C24.1459 21.3752 24.0834 21.8231 24.0834 22.271C24.0834 22.6252 24.1354 22.9272 24.5104 23.0522C24.875 23.1772 25.1354 23.0002 25.3229 22.6981C25.3229 24.8335 25.3021 26.9689 25.3438 29.1043C25.3646 30.1668 25.0313 31.021 24.1563 31.646C23.8542 31.6981 23.75 31.8752 23.7604 32.1877C23.7917 32.8856 23.7813 33.5939 23.7813 34.3022Z" fill="#EFD4C4"/>
<path d="M13.3334 31.6042C13.8022 31.6771 13.9168 31.9375 13.8751 32.3959C13.8126 33.0313 13.823 33.6667 13.8022 34.3021C11.4272 34.3021 9.05217 34.3021 6.67717 34.3125C6.38551 34.3125 6.31259 34.2396 6.31259 33.948C6.32301 31.6875 6.31259 29.4271 6.32301 27.1667C6.32301 26.9063 6.25009 26.7396 6.06259 26.5625C4.58342 25.0938 3.11467 23.6042 1.61467 22.1355C1.34384 21.875 1.38551 21.75 1.62509 21.5105C3.09384 20.0625 4.54176 18.5938 6.01051 17.1459C6.21884 16.9375 6.31259 16.7396 6.31259 16.4375C6.30217 14.2084 6.31259 11.9688 6.30217 9.73963C6.30217 9.43755 6.37509 9.35421 6.68759 9.35421C8.93759 9.36463 11.1772 9.35421 13.4272 9.36463C13.698 9.36463 13.8855 9.2813 14.073 9.0938C15.5522 7.60421 17.0522 6.12505 18.5209 4.62505C18.7397 4.39588 18.8543 4.42713 19.0626 4.63546C20.5522 6.13546 22.0522 7.62504 23.5418 9.13546C23.7084 9.31254 23.8855 9.37505 24.1251 9.37505C24.7084 9.35421 25.2918 9.36463 25.8751 9.36463C26.1772 10.3334 26.6668 11.2084 27.2918 12.0105C25.8334 12.0105 24.3855 12.0105 22.9272 12.0313C22.7084 12.0313 22.5938 11.9167 22.4688 11.7813C21.323 10.6355 20.1668 9.48963 19.0313 8.33338C18.8438 8.13546 18.7293 8.13546 18.5418 8.33338C17.4168 9.47921 16.2605 10.6146 15.1355 11.7605C14.948 11.948 14.7605 12.0313 14.4897 12.0313C12.8022 12.0209 11.1147 12.0313 9.42717 12.0209C9.08342 12.0209 8.95842 12.0938 8.96884 12.4688C8.98967 14.1355 8.96884 15.7917 8.98967 17.4584C8.98967 17.8021 8.88551 18.0313 8.64592 18.2709C7.56259 19.3334 6.50009 20.4271 5.41676 21.4792C5.15634 21.7292 5.12509 21.8855 5.40634 22.1563C6.51051 23.2292 7.60426 24.3438 8.70842 25.4375C8.89592 25.625 8.97926 25.8125 8.97926 26.0834C8.96884 27.8125 8.97926 29.5417 8.96884 31.2605C8.96884 31.573 9.06259 31.6563 9.36467 31.6459C10.1147 31.625 10.8751 31.6459 11.6251 31.6355C12.198 31.6355 12.7605 31.698 13.3334 31.6042Z" fill="#5D9F44"/>
<path d="M23.7814 34.3022C23.7814 33.5939 23.8023 32.8856 23.771 32.1877C23.7606 31.8752 23.8544 31.6981 24.1669 31.646C24.6356 31.6356 25.1044 31.6356 25.5731 31.6252C26.4585 31.6356 27.3335 31.6252 28.2189 31.6564C28.521 31.6668 28.6148 31.5835 28.6148 31.271C28.5939 29.5939 28.6148 27.9272 28.6044 26.2502C28.6044 25.9168 28.6877 25.6668 28.9377 25.4377C30.0627 24.3439 31.1564 23.2189 32.2814 22.1147C32.5002 21.896 32.5002 21.7814 32.2814 21.5627C31.1356 20.4377 30.0002 19.2918 28.8648 18.1564C28.7189 18.021 28.6148 17.8856 28.6148 17.6564C28.6252 16.1668 28.6252 14.6668 28.6252 13.1772C29.4481 13.6981 30.3335 14.0522 31.271 14.271C31.271 15.0106 31.2814 15.7502 31.2606 16.4897C31.2502 16.7502 31.3439 16.9168 31.521 17.0939C33.021 18.5835 34.5106 20.0835 36.021 21.5731C36.2294 21.7814 36.219 21.8856 36.0106 22.0835C34.5106 23.5731 33.021 25.0731 31.5106 26.5627C31.3335 26.7397 31.2606 26.9168 31.2606 27.1772C31.271 29.4377 31.2606 31.6981 31.271 33.9481C31.271 34.2397 31.1877 34.3127 30.9064 34.3127C28.5314 34.3022 26.1564 34.3022 23.7814 34.3022Z" fill="#5CA926"/>
<path d="M31.9584 0.71875C32.2604 0.8125 32.0313 0.885417 31.948 0.947917C31.4584 1.27083 31.0105 1.64583 30.6667 2.125C29.4688 3.75 29.2084 5.52083 30.0313 7.36458C30.8125 9.13542 32.2084 10.1667 34.1459 10.3854C36.1979 10.6146 37.8021 9.8125 39 8.14583C39.1459 7.94792 39.1355 7.94792 39.2917 7.96875C39.2709 8.01042 39.2396 8.05208 39.2292 8.10417C38.625 10.7188 36.448 12.6146 33.823 12.8542C31.948 13.0312 30.2709 12.4375 28.9375 11.0938C27.5209 9.65625 26.9167 7.90625 27.2188 5.875C27.4792 4.08333 28.375 2.69792 29.8646 1.67708C30.5 1.21875 31.2292 0.989583 31.9584 0.71875Z" fill="#F5A444"/>
<path d="M31.9584 0.71877C31.2292 0.989603 30.5 1.21877 29.8542 1.66669C28.3646 2.69794 27.4688 4.07294 27.2084 5.8646C26.9167 7.89585 27.5105 9.64585 28.9271 11.0834C30.25 12.4271 31.9271 13.0209 33.8125 12.8438C36.4375 12.5938 38.6146 10.7084 39.2188 8.09377C39.2292 8.04169 39.2605 8.00002 39.2813 7.95835C39.3646 9.20835 38.9063 10.3125 38.2084 11.2917C36.5834 13.6042 34.3542 14.6042 31.5313 14.2709C31.4375 14.2604 31.3542 14.2709 31.2605 14.2604C30.323 14.0417 29.4271 13.6875 28.6146 13.1667C28.1459 12.8125 27.7188 12.4063 27.3021 12C26.6771 11.1979 26.1875 10.3229 25.8855 9.35419C25.5834 8.04169 25.5313 6.7396 25.9688 5.44794C26.8438 2.85419 28.6459 1.3021 31.3125 0.729186C31.5105 0.68752 31.7396 0.71877 31.9584 0.71877Z" fill="#F9C588"/>
<path d="M32.2085 3.71859C32.8127 3.62484 33.3335 3.52067 33.8543 3.46859C34.0939 3.44775 34.1877 3.33317 34.271 3.13525C34.4897 2.64567 34.7293 2.15609 35.0002 1.57275C35.2606 2.12484 35.5002 2.604 35.7189 3.09359C35.8127 3.31234 35.9272 3.43734 36.1981 3.45817C36.7085 3.51025 37.2085 3.61442 37.8022 3.70817C37.3752 4.15609 37.0002 4.55192 36.6147 4.94775C36.4689 5.09359 36.4272 5.21859 36.4689 5.42692C36.5731 5.96859 36.646 6.52067 36.7502 7.1665C36.2606 6.90609 35.8335 6.69775 35.4272 6.43734C35.1356 6.24984 34.9064 6.26025 34.6252 6.43734C34.2293 6.69775 33.7918 6.90609 33.3022 7.17692C33.396 6.5415 33.4689 5.979 33.5835 5.43734C33.6252 5.20817 33.5627 5.07275 33.4168 4.92692C33.0002 4.5415 32.6356 4.15609 32.2085 3.71859Z" fill="#F9C588"/>
<path d="M27.3022 11.9998C27.7189 12.4061 28.1564 12.8123 28.6147 13.1665C28.6147 14.6561 28.6147 16.1561 28.6043 17.6457C28.6043 17.8748 28.7085 17.9998 28.8543 18.1457C29.9897 19.2811 31.1251 20.4269 32.271 21.5519C32.4897 21.7603 32.4897 21.8853 32.271 22.104C31.146 23.1978 30.0522 24.3228 28.9272 25.4269C28.6772 25.6665 28.5939 25.9061 28.5939 26.2394C28.6043 27.9165 28.5939 29.5832 28.6043 31.2603C28.6043 31.5728 28.5106 31.6561 28.2085 31.6457C27.3231 31.6248 26.4481 31.6248 25.5626 31.6144C25.5731 31.479 25.6772 31.4061 25.7606 31.3332C26.3543 30.7915 26.5939 30.1144 26.5835 29.3228C26.5731 26.7811 26.5418 24.229 26.5939 21.6873C26.6251 20.5103 25.5418 19.6248 24.4064 20.0519C23.9897 19.9061 23.5731 19.9061 23.1564 20.0415C23.146 19.854 23.0001 19.7603 22.8647 19.6561C22.3856 19.2811 21.8647 19.2498 21.3022 19.4165C20.9585 19.3123 20.6147 19.3123 20.2606 19.3332C20.271 19.1457 20.2189 18.979 20.1147 18.8228C19.6772 18.1561 19.0731 17.9478 18.1876 18.1665C17.8751 18.0832 17.5522 18.0623 17.2189 18.0728C17.2189 17.1561 17.2189 16.229 17.2189 15.3123C17.2189 15.0207 17.1668 14.7394 17.0106 14.4998C16.5835 13.8019 15.9689 13.5832 15.0626 13.8123C14.6356 13.7394 14.1981 13.604 13.7814 13.8748C13.1356 14.1561 12.8543 14.6769 12.8543 15.354C12.8543 17.3436 12.8543 19.3436 12.8543 21.3332C12.8543 21.4894 12.8439 21.6457 12.8439 21.8019C12.396 22.1353 11.9376 22.4582 11.5314 22.8436C9.83347 24.0103 9.32305 25.9478 10.2189 27.7915C10.4376 28.2394 10.6876 28.6873 10.896 29.1457C11.4064 30.2603 12.2189 31.0728 13.3231 31.6144C12.7606 31.7082 12.1876 31.6457 11.6147 31.6561C10.8647 31.6665 10.1043 31.6457 9.3543 31.6665C9.05222 31.6769 8.95847 31.5936 8.95847 31.2811C8.96889 29.5519 8.95847 27.8228 8.96889 26.104C8.96889 25.8332 8.88555 25.6457 8.69805 25.4582C7.6043 24.3436 6.51055 23.229 5.39597 22.1457C5.11472 21.8748 5.14597 21.7186 5.40639 21.4686C6.48972 20.4061 7.55222 19.3228 8.63555 18.2603C8.87514 18.0207 8.98972 17.7915 8.9793 17.4478C8.95847 15.7811 8.9793 14.1248 8.95847 12.4582C8.95847 12.0832 9.07305 12.0103 9.4168 12.0103C11.1043 12.0311 12.7918 12.0103 14.4793 12.0207C14.7501 12.0207 14.9376 11.9373 15.1251 11.7498C16.2606 10.604 17.4064 9.46859 18.5314 8.32275C18.7189 8.12484 18.8335 8.12484 19.021 8.32275C20.1564 9.479 21.3126 10.6248 22.4585 11.7707C22.5835 11.8957 22.7085 12.0207 22.9168 12.0207C24.3856 12.0103 25.8439 12.0103 27.3022 11.9998Z" fill="#CAEACA"/>
<path d="M24.4167 20.073C25.5522 19.6459 26.6355 20.5313 26.6042 21.7084C26.5417 24.2501 26.5834 26.7917 26.5938 29.3438C26.5938 30.1355 26.3542 30.8126 25.7709 31.3542C25.6876 31.4271 25.5834 31.5001 25.573 31.6355C25.1042 31.6459 24.6355 31.6459 24.1667 31.6563C25.0417 31.0313 25.3751 30.1771 25.3542 29.1146C25.3126 26.9792 25.3334 24.8438 25.3334 22.7084C25.3334 22.3855 25.323 22.0626 25.3438 21.7396C25.3959 20.9688 25.073 20.4271 24.4167 20.073Z" fill="#AED5AE"/>
<path d="M13.7917 13.8749C14.2084 13.6041 14.6459 13.7395 15.073 13.8124C15.7709 14.2395 16.0313 14.8541 15.9897 15.6666C15.9376 16.7291 15.9792 17.7916 15.9792 18.8437C15.9792 18.9791 15.9167 19.1249 16.0522 19.2395C15.8959 20.2603 16.0105 21.2812 15.9792 22.302C15.9688 22.802 15.7501 23.0624 15.3542 23.0624C14.948 23.0624 14.7397 22.7916 14.7397 22.2916C14.7397 19.9687 14.7501 17.6458 14.7292 15.3228C14.7292 14.677 14.4792 14.1249 13.7917 13.8749Z" fill="#EAC3A5"/>
<path d="M17.2293 18.0835C17.5522 18.0835 17.8752 18.0939 18.1981 18.1772C18.9168 18.6043 19.1981 19.2397 19.1147 20.0627C19.1043 20.1981 19.0418 20.3752 19.1877 20.5002C19.0627 21.1147 19.1252 21.7397 19.1147 22.3543C19.1043 22.8127 18.8856 23.0731 18.4897 23.0731C18.0939 23.0731 17.8752 22.8127 17.8752 22.3439C17.8752 21.4481 17.896 20.5522 17.8647 19.6564C17.8439 19.0106 17.5939 18.4793 16.9272 18.2293C17.021 18.1877 17.1252 18.1356 17.2293 18.0835Z" fill="#E9C3A5"/>
<path d="M17.2292 18.0832C17.1251 18.1353 17.0209 18.1873 16.9063 18.2394C16.448 18.4269 16.1563 18.7603 16.0522 19.2498C15.9167 19.1353 15.9792 18.9894 15.9792 18.854C15.9688 17.7915 15.9376 16.729 15.9897 15.6769C16.0209 14.8644 15.7709 14.2394 15.073 13.8228C15.9792 13.604 16.5938 13.8228 17.0209 14.5103C17.1772 14.7603 17.2292 15.0311 17.2292 15.3228C17.2292 16.2394 17.2292 17.1665 17.2292 18.0832Z" fill="#AED5AE"/>
<path d="M11.5417 22.8439C11.948 22.4481 12.3959 22.1252 12.8542 21.8022C12.8542 23.271 12.8647 24.7293 12.8647 26.1981C12.8647 26.5939 12.5938 26.8335 12.2292 26.8335C11.8647 26.8231 11.6251 26.5835 11.6251 26.1772C11.6147 25.2085 11.6251 24.2293 11.6251 23.2606C11.6147 23.1043 11.6667 22.9585 11.5417 22.8439Z" fill="#EAC3A5"/>
<path d="M20.2708 19.3439C20.625 19.3231 20.9688 19.3231 21.3125 19.4272C21.9063 19.8022 22.2708 20.3022 22.2292 21.0418C22.2292 21.0731 22.2708 21.1043 22.2917 21.1251C22.1979 21.5418 22.2188 21.9689 22.2188 22.396C22.2083 22.8231 21.9688 23.0835 21.5938 23.0731C21.2083 23.0731 20.9792 22.8126 20.9792 22.3856C20.9687 21.8751 21.0104 21.3751 20.9688 20.8647C20.9271 20.2397 20.6875 19.7085 20.0312 19.4793C20.1146 19.4376 20.1979 19.396 20.2708 19.3439Z" fill="#E9C3A5"/>
<path d="M24.4167 20.0731C25.0729 20.4273 25.3958 20.9689 25.3438 21.7294C25.3229 22.0523 25.3333 22.3752 25.3333 22.6981C25.1354 23.0002 24.8854 23.1773 24.5208 23.0523C24.1458 22.9273 24.0938 22.6252 24.0938 22.271C24.0938 21.8231 24.1563 21.3752 23.9688 20.9377C23.8021 20.5523 23.5625 20.2606 23.1562 20.1252C23.1667 20.1044 23.1667 20.0835 23.1667 20.0627C23.5833 19.9169 24 19.9169 24.4167 20.0731Z" fill="#E9C3A5"/>
<path d="M20.2708 19.3439C20.1875 19.396 20.1042 19.4377 20.0312 19.4898C19.5729 19.6773 19.2812 20.0106 19.1771 20.5002C19.0312 20.3752 19.0937 20.2085 19.1042 20.0627C19.1875 19.2398 18.9062 18.6043 18.1875 18.1773C19.0729 17.9585 19.6771 18.1668 20.1146 18.8335C20.2292 18.9898 20.2917 19.1564 20.2708 19.3439Z" fill="#AED4AE"/>
<path d="M23.1667 20.0519C23.1667 20.0727 23.1563 20.0936 23.1563 20.1144C22.698 20.3019 22.4063 20.6352 22.3022 21.1248C22.2813 21.0936 22.2397 21.0623 22.2397 21.0415C22.2813 20.3019 21.9063 19.8019 21.323 19.4269C21.8855 19.2602 22.4063 19.2915 22.8855 19.6665C23.0105 19.7706 23.1459 19.8644 23.1667 20.0519Z" fill="#AED4AE"/>
</svg>
