<svg width="100" height="100" viewBox="0 0 100 100" fill="none" xmlns="http://www.w3.org/2000/svg">
<circle opacity="0.15" cx="47.5" cy="47.5" r="47.5" fill="#63A849"/>
<circle cx="46.5" cy="48.5" r="42.5" fill="white"/>
<mask id="path-3-inside-1_100_10404" fill="white">
<path d="M95 47.5C95 73.7335 73.7335 95 47.5 95C21.2665 95 0 73.7335 0 47.5C0 21.2665 21.2665 0 47.5 0C73.7335 0 95 21.2665 95 47.5ZM5.68007 47.5C5.68007 70.5965 24.4035 89.3199 47.5 89.3199C70.5965 89.3199 89.3199 70.5965 89.3199 47.5C89.3199 24.4035 70.5965 5.68007 47.5 5.68007C24.4035 5.68007 5.68007 24.4035 5.68007 47.5Z"/>
</mask>
<path d="M95 47.5C95 73.7335 73.7335 95 47.5 95C21.2665 95 0 73.7335 0 47.5C0 21.2665 21.2665 0 47.5 0C73.7335 0 95 21.2665 95 47.5ZM5.68007 47.5C5.68007 70.5965 24.4035 89.3199 47.5 89.3199C70.5965 89.3199 89.3199 70.5965 89.3199 47.5C89.3199 24.4035 70.5965 5.68007 47.5 5.68007C24.4035 5.68007 5.68007 24.4035 5.68007 47.5Z" stroke="#5D9F44" stroke-width="44" mask="url(#path-3-inside-1_100_10404)"/>
<path d="M47.0537 62C45.8506 62 44.709 61.7812 43.6289 61.3438C42.5488 60.8926 41.5781 60.2432 40.7168 59.3955C39.8965 58.5479 39.2607 57.5908 38.8096 56.5244C38.3721 55.4443 38.1533 54.3027 38.1533 53.0996V43.4199C38.1533 42.2168 38.3721 41.0752 38.8096 39.9951C39.2607 38.9014 39.8965 37.9375 40.7168 37.1035C41.5781 36.2559 42.5488 35.6133 43.6289 35.1758C44.709 34.7246 45.8506 34.499 47.0537 34.499C48.2432 34.499 49.3779 34.7246 50.458 35.1758C51.5381 35.627 52.4951 36.2764 53.3291 37.124C54.1904 37.9854 54.8467 38.9492 55.2979 40.0156C55.749 41.082 55.9746 42.2168 55.9746 43.4199V53.0996C55.9746 54.2891 55.749 55.4238 55.2979 56.5039C54.8467 57.5703 54.1904 58.5273 53.3291 59.375C52.4814 60.2363 51.5176 60.8926 50.4375 61.3438C49.3711 61.7812 48.2432 62 47.0537 62ZM47.0537 38.3135C46.3564 38.3135 45.6934 38.4434 45.0645 38.7031C44.4492 38.9629 43.9023 39.332 43.4238 39.8105C42.9453 40.2891 42.5762 40.8359 42.3164 41.4512C42.0566 42.0664 41.9268 42.7227 41.9268 43.4199V53.0996C41.9268 53.8105 42.0566 54.4805 42.3164 55.1094C42.5898 55.7246 42.959 56.2646 43.4238 56.7295C43.8887 57.1943 44.4287 57.5635 45.0439 57.8369C45.6729 58.0967 46.3428 58.2266 47.0537 58.2266C47.751 58.2266 48.4072 58.0967 49.0225 57.8369C49.6514 57.5635 50.1982 57.1943 50.6631 56.7295C51.1279 56.2646 51.4902 55.7246 51.75 55.1094C52.0234 54.4805 52.1602 53.8105 52.1602 53.0996V43.4199C52.1602 42.7227 52.0303 42.0664 51.7705 41.4512C51.5244 40.8359 51.1621 40.2891 50.6836 39.8105C50.2051 39.332 49.6514 38.9629 49.0225 38.7031C48.4072 38.4434 47.751 38.3135 47.0537 38.3135Z" fill="#121212"/>
<path d="M98.1866 74.5086C98.1866 82.6383 91.5608 89.2641 83.4569 89.2555C75.3444 89.2469 68.7358 82.6125 68.753 74.4828C68.7702 66.3617 75.3702 59.7617 83.4655 59.7531C91.578 59.7531 98.1866 66.3789 98.1866 74.5086ZM83.4569 78.3844C83.9381 78.3844 84.4194 78.3758 84.9006 78.3844C85.1842 78.393 85.3045 78.2641 85.3303 77.9891C85.4076 76.8976 85.4936 75.8062 85.5795 74.7148C85.7772 72.1023 85.9662 69.4984 86.1553 66.8859C86.1897 66.4305 86.1295 65.9836 85.9491 65.5625C85.4248 64.325 84.1186 63.6547 82.8467 63.9726C81.5061 64.2992 80.6639 65.4851 80.767 66.9031C80.8616 68.175 80.9733 69.4469 81.0678 70.7187C81.2483 73.1336 81.4202 75.5484 81.592 77.9719C81.6092 78.264 81.7381 78.393 82.0389 78.3844C82.5202 78.3758 82.9842 78.3844 83.4569 78.3844ZM83.4741 80.6703C82.2366 80.6703 81.2397 81.6586 81.2311 82.8875C81.2225 84.0906 82.2537 85.1219 83.4655 85.1219C84.6858 85.1219 85.6826 84.1078 85.6826 82.8789C85.6826 81.6586 84.6944 80.6789 83.4741 80.6703Z" fill="#F5A445"/>
<path d="M83.4567 78.3844C82.9841 78.3844 82.5114 78.3758 82.0388 78.3844C81.738 78.3929 81.6177 78.264 81.5919 77.9719C81.42 75.557 81.2481 73.1336 81.0677 70.7187C80.9731 69.4469 80.87 68.175 80.7669 66.9031C80.6638 65.4851 81.4974 64.2992 82.8466 63.9726C84.1184 63.6633 85.4161 64.325 85.9489 65.5625C86.1294 65.9836 86.1895 66.4304 86.1552 66.8859C85.9575 69.4984 85.7684 72.1023 85.5794 74.7148C85.502 75.8062 85.4075 76.8976 85.3302 77.989C85.313 78.264 85.1841 78.3929 84.9005 78.3844C84.4278 78.3758 83.938 78.3844 83.4567 78.3844Z" fill="#FEFEFD"/>
<path d="M83.4742 80.6703C84.6945 80.6703 85.6914 81.6586 85.6914 82.8703C85.6914 84.0992 84.6945 85.1133 83.4742 85.1133C82.2625 85.1133 81.2312 84.0906 81.2398 82.8789C81.2398 81.6586 82.2367 80.6703 83.4742 80.6703Z" fill="#FEFEFD"/>
</svg>
