<svg width="36" height="36" viewBox="0 0 36 36" fill="none" xmlns="http://www.w3.org/2000/svg">
<circle cx="18" cy="18" r="18" fill="#F7F8F0"/>
<path d="M9.49994 26.5C10.3299 27.33 11.6699 27.33 12.4999 26.5L25.4999 13.5C26.3299 12.67 26.3299 11.33 25.4999 10.5C24.6699 9.67 23.3299 9.67 22.4999 10.5L9.49994 23.5C8.66994 24.33 8.66994 25.67 9.49994 26.5Z" stroke="#5D9F44" stroke-width="1.5" stroke-linecap="round" stroke-linejoin="round"/>
<path d="M24.01 14.99L21.01 11.99" stroke="#5D9F44" stroke-width="1.5" stroke-linecap="round" stroke-linejoin="round"/>
<path d="M14.5 8.44L16 8L15.56 9.5L16 11L14.5 10.56L13 11L13.44 9.5L13 8L14.5 8.44Z" stroke="#F5A445" stroke-linecap="round" stroke-linejoin="round"/>
<path d="M10.5 14.44L12 14L11.56 15.5L12 17L10.5 16.56L9 17L9.44 15.5L9 14L10.5 14.44Z" stroke="#F5A445" stroke-linecap="round" stroke-linejoin="round"/>
<path d="M25.5 19.44L27 19L26.56 20.5L27 22L25.5 21.56L24 22L24.44 20.5L24 19L25.5 19.44Z" stroke="#F5A445" stroke-linecap="round" stroke-linejoin="round"/>
</svg>
