<svg width="35" height="35" viewBox="0 0 35 35" fill="none" xmlns="http://www.w3.org/2000/svg">
<circle cx="17.5" cy="17.5" r="17.5" fill="#F7F8F0"/>
<path d="M25 13C26.6569 13 28 11.6569 28 10C28 8.34315 26.6569 7 25 7C23.3431 7 22 8.34315 22 10C22 11.6569 23.3431 13 25 13Z" fill="#F5A445" stroke="#F5A445" stroke-width="1.5" stroke-linecap="round" stroke-linejoin="round"/>
<path d="M13 18H18" stroke="#5D9F44" stroke-width="1.5" stroke-linecap="round" stroke-linejoin="round"/>
<path d="M13 22H22" stroke="#5D9F44" stroke-width="1.5" stroke-linecap="round" stroke-linejoin="round"/>
<path d="M20 7H15C10 7 8 9 8 14V20C8 25 10 27 15 27H21C26 27 28 25 28 20V15" stroke="#5D9F44" stroke-width="1.5" stroke-linecap="round" stroke-linejoin="round"/>
</svg>
