<svg width="36" height="36" viewBox="0 0 36 36" fill="none" xmlns="http://www.w3.org/2000/svg">
<circle cx="18" cy="18" r="18" fill="#454545"/>
<path d="M28 17.5V21.5C28 25 26 26.5 23 26.5H13C10 26.5 8 25 8 21.5V14.5C8 11 10 9.5 13 9.5H18" stroke="white" stroke-width="1.5" stroke-miterlimit="10" stroke-linecap="round" stroke-linejoin="round"/>
<path d="M13 15L16.13 17.5C17.16 18.32 18.85 18.32 19.88 17.5" stroke="white" stroke-width="1.5" stroke-miterlimit="10" stroke-linecap="round" stroke-linejoin="round"/>
<path d="M25.4802 8.81994L25.7602 9.38993C25.9002 9.66993 26.2502 9.92994 26.5602 9.98994L26.9402 10.0499C28.0802 10.2399 28.3502 11.0799 27.5302 11.9099L27.1802 12.2599C26.9502 12.4999 26.8202 12.9599 26.8902 13.2799L26.9402 13.4899C27.2502 14.8699 26.5202 15.3999 25.3202 14.6799L25.0602 14.5299C24.7502 14.3499 24.2502 14.3499 23.9402 14.5299L23.6802 14.6799C22.4702 15.4099 21.7402 14.8699 22.0602 13.4899L22.1102 13.2799C22.1802 12.9599 22.0502 12.4999 21.8202 12.2599L21.4702 11.9099C20.6502 11.0799 20.9202 10.2399 22.0602 10.0499L22.4402 9.98994C22.7402 9.93994 23.1002 9.66993 23.2402 9.38993L23.5202 8.81994C24.0602 7.72994 24.9402 7.72994 25.4802 8.81994Z" fill="#F5A445" stroke="#F5A445" stroke-width="1.5" stroke-linecap="round" stroke-linejoin="round"/>
</svg>
