<svg width="36" height="36" viewBox="0 0 36 36" fill="none" xmlns="http://www.w3.org/2000/svg">
<circle cx="18" cy="18" r="18" fill="#F7F8F0"/>
<path d="M18 28C23.5228 28 28 23.5228 28 18C28 12.4772 23.5228 8 18 8C12.4772 8 8 12.4772 8 18C8 23.5228 12.4772 28 18 28Z" stroke="#5D9F44" stroke-width="1.5" stroke-linecap="round" stroke-linejoin="round"/>
<path d="M14.0001 9H15.0001C13.0501 14.84 13.0501 21.16 15.0001 27H14.0001" stroke="#5D9F44" stroke-width="1.5" stroke-linecap="round" stroke-linejoin="round"/>
<path d="M21 9C22.95 14.84 22.95 21.16 21 27" stroke="#5D9F44" stroke-width="1.5" stroke-linecap="round" stroke-linejoin="round"/>
<path d="M9 22V21C14.84 22.95 21.16 22.95 27 21V22" stroke="#5D9F44" stroke-width="1.5" stroke-linecap="round" stroke-linejoin="round"/>
<path d="M9 15C14.84 13.05 21.16 13.05 27 15" stroke="#5D9F44" stroke-width="1.5" stroke-linecap="round" stroke-linejoin="round"/>
</svg>
