<svg width="36" height="36" viewBox="0 0 36 36" fill="none" xmlns="http://www.w3.org/2000/svg">
<circle cx="18" cy="18" r="18" fill="#454545"/>
<path d="M23.4443 11.3462C25.5015 12.7759 26.9209 15.049 27.2089 17.6719" stroke="white" stroke-width="1.5" stroke-linecap="round" stroke-linejoin="round"/>
<path d="M9.58984 17.7237C9.85727 15.1111 11.2561 12.8379 13.2927 11.3979" stroke="white" stroke-width="1.5" stroke-linecap="round" stroke-linejoin="round"/>
<path d="M14.4248 26.5381C15.6179 27.1449 16.9757 27.4844 18.4054 27.4844C19.7837 27.4844 21.0797 27.1758 22.2419 26.6101" stroke="white" stroke-width="1.5" stroke-linecap="round" stroke-linejoin="round"/>
<path d="M18.4053 12.92C19.9845 12.92 21.2648 11.6398 21.2648 10.0606C21.2648 8.48138 19.9845 7.20117 18.4053 7.20117C16.8261 7.20117 15.5459 8.48138 15.5459 10.0606C15.5459 11.6398 16.8261 12.92 18.4053 12.92Z" fill="#F5A445" stroke="#F5A445" stroke-width="1.5" stroke-linecap="round" stroke-linejoin="round"/>
<path d="M10.9678 25.4889C12.547 25.4889 13.8273 24.2087 13.8273 22.6294C13.8273 21.0502 12.547 19.77 10.9678 19.77C9.38861 19.77 8.1084 21.0502 8.1084 22.6294C8.1084 24.2087 9.38861 25.4889 10.9678 25.4889Z" stroke="white" stroke-width="1.5" stroke-linecap="round" stroke-linejoin="round"/>
<path d="M25.7178 25.4889C27.297 25.4889 28.5773 24.2087 28.5773 22.6294C28.5773 21.0502 27.297 19.77 25.7178 19.77C24.1386 19.77 22.8584 21.0502 22.8584 22.6294C22.8584 24.2087 24.1386 25.4889 25.7178 25.4889Z" stroke="white" stroke-width="1.5" stroke-linecap="round" stroke-linejoin="round"/>
</svg>
