<svg width="36" height="36" viewBox="0 0 36 36" fill="none" xmlns="http://www.w3.org/2000/svg">
<circle cx="18" cy="18" r="18" fill="#F7F8F0"/>
<path d="M22.96 12.17C24.96 13.56 26.34 15.77 26.62 18.32" stroke="#5D9F44" stroke-width="1.5" stroke-linecap="round" stroke-linejoin="round"/>
<path d="M9.48999 18.37C9.74999 15.83 11.11 13.62 13.09 12.22" stroke="#5D9F44" stroke-width="1.5" stroke-linecap="round" stroke-linejoin="round"/>
<path d="M14.1899 26.94C15.3499 27.53 16.6699 27.86 18.0599 27.86C19.3999 27.86 20.6599 27.56 21.7899 27.01" stroke="#5D9F44" stroke-width="1.5" stroke-linecap="round" stroke-linejoin="round"/>
<path d="M18.06 13.7C19.5954 13.7 20.84 12.4554 20.84 10.92C20.84 9.38465 19.5954 8.14 18.06 8.14C16.5247 8.14 15.28 9.38465 15.28 10.92C15.28 12.4554 16.5247 13.7 18.06 13.7Z" fill="#F5A445" stroke="#F5A445" stroke-width="1.5" stroke-linecap="round" stroke-linejoin="round"/>
<path d="M10.83 25.92C12.3654 25.92 13.61 24.6754 13.61 23.14C13.61 21.6046 12.3654 20.36 10.83 20.36C9.2947 20.36 8.05005 21.6046 8.05005 23.14C8.05005 24.6754 9.2947 25.92 10.83 25.92Z" stroke="#5D9F44" stroke-width="1.5" stroke-linecap="round" stroke-linejoin="round"/>
<path d="M25.1699 25.92C26.7052 25.92 27.9499 24.6754 27.9499 23.14C27.9499 21.6046 26.7052 20.36 25.1699 20.36C23.6345 20.36 22.3899 21.6046 22.3899 23.14C22.3899 24.6754 23.6345 25.92 25.1699 25.92Z" stroke="#5D9F44" stroke-width="1.5" stroke-linecap="round" stroke-linejoin="round"/>
</svg>
