<svg width="36" height="36" viewBox="0 0 36 36" fill="none" xmlns="http://www.w3.org/2000/svg">
<circle cx="18" cy="18" r="18" fill="#454545"/>
<path d="M15.5918 17.3519C15.4889 17.3417 15.3655 17.3417 15.2524 17.3519C12.8044 17.2697 10.8604 15.2639 10.8604 12.7954C10.8604 10.2754 12.8969 8.22852 15.4272 8.22852C17.9472 8.22852 19.9941 10.2754 19.9941 12.7954C19.9838 15.2639 18.0398 17.2697 15.5918 17.3519Z" stroke="white" stroke-width="1.5" stroke-linecap="round" stroke-linejoin="round"/>
<path d="M23.0497 10.2856C25.0452 10.2856 26.6497 11.9005 26.6497 13.8856C26.6497 15.8296 25.1069 17.4136 23.1834 17.4856C23.1012 17.4754 23.0086 17.4754 22.916 17.4856" stroke="#F5A445" stroke-width="1.5" stroke-linecap="round" stroke-linejoin="round"/>
<path d="M10.4499 21.1476C7.96072 22.8138 7.96072 25.5293 10.4499 27.1853C13.2784 29.0778 17.9173 29.0778 20.7459 27.1853C23.235 25.519 23.235 22.8036 20.7459 21.1476C17.9276 19.2653 13.2887 19.2653 10.4499 21.1476Z" stroke="white" stroke-width="1.5" stroke-linecap="round" stroke-linejoin="round"/>
<path d="M25.0352 26.7427C25.7757 26.5884 26.4752 26.2901 27.0512 25.8479C28.6557 24.6444 28.6557 22.6593 27.0512 21.4559C26.4854 21.0239 25.7963 20.7359 25.066 20.5713" stroke="#F5A445" stroke-width="1.5" stroke-linecap="round" stroke-linejoin="round"/>
</svg>
