<svg width="36" height="36" viewBox="0 0 36 36" fill="none" xmlns="http://www.w3.org/2000/svg">
<circle cx="18" cy="18" r="18" fill="#F7F8F0"/>
<path d="M15.1601 16.87C15.0601 16.86 14.9401 16.86 14.8301 16.87C12.4501 16.79 10.5601 14.84 10.5601 12.44C10.5601 9.99 12.5401 8 15.0001 8C17.4501 8 19.4401 9.99 19.4401 12.44C19.4301 14.84 17.5401 16.79 15.1601 16.87Z" stroke="#5D9F44" stroke-width="1.5" stroke-linecap="round" stroke-linejoin="round"/>
<path d="M22.41 10C24.35 10 25.91 11.57 25.91 13.5C25.91 15.39 24.41 16.93 22.54 17C22.46 16.99 22.37 16.99 22.28 17" stroke="#F5A445" stroke-width="1.5" stroke-linecap="round" stroke-linejoin="round"/>
<path d="M10.16 20.56C7.73997 22.18 7.73997 24.82 10.16 26.43C12.91 28.27 17.42 28.27 20.17 26.43C22.59 24.81 22.59 22.17 20.17 20.56C17.43 18.73 12.92 18.73 10.16 20.56Z" stroke="#5D9F44" stroke-width="1.5" stroke-linecap="round" stroke-linejoin="round"/>
<path d="M24.3401 26C25.0601 25.85 25.7401 25.56 26.3001 25.13C27.8601 23.96 27.8601 22.03 26.3001 20.86C25.7501 20.44 25.0801 20.16 24.3701 20" stroke="#F5A445" stroke-width="1.5" stroke-linecap="round" stroke-linejoin="round"/>
</svg>
