<svg width="36" height="36" viewBox="0 0 36 36" fill="none" xmlns="http://www.w3.org/2000/svg">
<circle cx="18" cy="18" r="18" fill="#F7F8F0"/>
<path d="M15.6499 19.8L17.2599 21.05C17.4699 21.26 17.9399 21.3599 18.2499 21.3599H20.2299C20.8499 21.3599 21.5299 20.89 21.6899 20.27L22.9399 16.4799C23.1999 15.7499 22.7299 15.13 21.9499 15.13H19.8699C19.5599 15.13 19.2999 14.87 19.3499 14.51L19.6099 12.8499C19.7099 12.3799 19.3999 11.8599 18.9299 11.7099C18.5099 11.5499 17.9899 11.7599 17.7899 12.0699L15.6599 15.2399" stroke="#F5A445" stroke-width="1.5" stroke-miterlimit="10"/>
<path d="M13 19.8V14.71C13 13.98 13.31 13.72 14.04 13.72H14.56C15.29 13.72 15.6 13.98 15.6 14.71V19.8C15.6 20.53 15.29 20.79 14.56 20.79H14.04C13.31 20.79 13 20.53 13 19.8Z" stroke="#F5A445" stroke-width="1.5" stroke-linecap="round" stroke-linejoin="round"/>
<path d="M24 24.86H23.24C22.44 24.86 21.68 25.17 21.12 25.73L19.41 27.42C18.63 28.19 17.36 28.19 16.58 27.42L14.87 25.73C14.31 25.17 13.54 24.86 12.75 24.86H12C10.34 24.86 9 23.53 9 21.89V10.98C9 9.33998 10.34 8.01001 12 8.01001H24C25.66 8.01001 27 9.33998 27 10.98V21.89C27 23.52 25.66 24.86 24 24.86Z" stroke="#5D9F44" stroke-width="1.5" stroke-miterlimit="10" stroke-linecap="round" stroke-linejoin="round"/>
</svg>
