<svg width="36" height="36" viewBox="0 0 36 36" fill="none" xmlns="http://www.w3.org/2000/svg">
<circle cx="18" cy="18" r="18" fill="#454545"/>
<path d="M15.6504 19.7999L17.2604 21.0499C17.4704 21.2599 17.9404 21.3598 18.2504 21.3598H20.2304C20.8504 21.3598 21.5304 20.8899 21.6904 20.2699L22.9404 16.4798C23.2004 15.7498 22.7304 15.1298 21.9504 15.1298H19.8704C19.5604 15.1298 19.3004 14.8698 19.3504 14.5098L19.6104 12.8498C19.7104 12.3798 19.4004 11.8598 18.9304 11.7098C18.5104 11.5498 17.9904 11.7598 17.7904 12.0698L15.6604 15.2398" stroke="#F5A445" stroke-width="1.5" stroke-miterlimit="10"/>
<path d="M13 19.7998V14.7097C13 13.9797 13.31 13.7197 14.04 13.7197H14.56C15.29 13.7197 15.6 13.9797 15.6 14.7097V19.7998C15.6 20.5298 15.29 20.7898 14.56 20.7898H14.04C13.31 20.7898 13 20.5298 13 19.7998Z" stroke="#F5A445" stroke-width="1.5" stroke-linecap="round" stroke-linejoin="round"/>
<path d="M24 24.8597H23.24C22.44 24.8597 21.68 25.1697 21.12 25.7297L19.41 27.4198C18.63 28.1898 17.36 28.1898 16.58 27.4198L14.87 25.7297C14.31 25.1697 13.54 24.8597 12.75 24.8597H12C10.34 24.8597 9 23.5298 9 21.8898V10.9797C9 9.33974 10.34 8.00977 12 8.00977H24C25.66 8.00977 27 9.33974 27 10.9797V21.8898C27 23.5198 25.66 24.8597 24 24.8597Z" stroke="white" stroke-width="1.5" stroke-miterlimit="10" stroke-linecap="round" stroke-linejoin="round"/>
</svg>
